<svg xmlns="http://www.w3.org/2000/svg" xmlns:svg="http://www.w3.org/2000/svg" id="svg8" width="2962.3" height="2711.046" version="1.1" viewBox="0 0 783.775 717.298"><metadata id="metadata5"/><g id="layer1" transform="translate(809.63397,331.61794)"><g id="g1085"><g id="g1044"><path style="fill:#d35f5f;fill-opacity:1;fill-rule:nonzero;stroke:#000;stroke-width:2.64583325;stroke-linecap:round;stroke-linejoin:round;stroke-miterlimit:4;stroke-dasharray:none;stroke-dashoffset:0;stroke-opacity:1" id="rect987" d="m -223.34268,-17.380569 h 107.63841 l -26.36082,111.808158 h -54.91677 z"/><rect style="fill:#a02c2c;fill-opacity:1;fill-rule:nonzero;stroke:#000;stroke-width:2.64583325;stroke-linecap:round;stroke-linejoin:round;stroke-miterlimit:4;stroke-dasharray:none;stroke-dashoffset:0;stroke-opacity:1" id="rect985" width="54.917" height="20.706" x="-196.982" y="94.428" ry="0"/><path style="fill:#a02c2c;fill-opacity:1;fill-rule:nonzero;stroke:#000;stroke-width:2.64583325;stroke-linecap:round;stroke-linejoin:round;stroke-miterlimit:4;stroke-dasharray:none;stroke-dashoffset:0;stroke-opacity:1" id="rect909" d="m -525.35637,306.17708 c -5.47852,0 -9.8888,4.41084 -9.8888,9.88933 v 22.98514 c 0,5.47849 4.41028,9.88881 9.8888,9.88881 5.47849,0 9.8888,-4.41032 9.8888,-9.88881 v -3.74189 h 59.33385 v -15.50189 h -59.33385 v -3.74136 c 0,-5.47849 -4.41031,-9.88933 -9.8888,-9.88933 z"/><circle style="fill:#782121;fill-opacity:1;fill-rule:nonzero;stroke:#000;stroke-width:2.64583325;stroke-linecap:round;stroke-linejoin:round;stroke-miterlimit:4;stroke-dasharray:none;stroke-dashoffset:0;stroke-opacity:1" id="path840" cx="-302.317" cy="116.849" r="16.631"/><rect style="fill:#d35f5f;fill-opacity:1;fill-rule:nonzero;stroke:#000;stroke-width:2.64583325;stroke-linecap:round;stroke-linejoin:round;stroke-miterlimit:4;stroke-dasharray:none;stroke-dashoffset:0;stroke-opacity:1" id="rect842" width="39.31" height="16.631" x="-321.972" y="119.873" ry="0"/><rect style="fill:#d35f5f;fill-opacity:1;fill-rule:nonzero;stroke:#000;stroke-width:2.64583325;stroke-linecap:round;stroke-linejoin:round;stroke-miterlimit:4;stroke-dasharray:none;stroke-dashoffset:0;stroke-opacity:1" id="rect862" width="257.648" height="126.151" x="-373.643" y="130.224" ry="8.395"/><path style="fill:#e9afaf;fill-opacity:1;fill-rule:nonzero;stroke:#000;stroke-width:2.64583325;stroke-linecap:round;stroke-linejoin:round;stroke-miterlimit:4;stroke-dasharray:none;stroke-dashoffset:0;stroke-opacity:1" id="rect860" d="m -365.24797,130.22382 c -4.65088,0 -8.39486,3.7445 -8.39486,8.39535 v 11.38277 h 257.64784 v -11.38277 c 0,-4.65085 -3.74398,-8.39535 -8.39483,-8.39535 z"/><path style="fill:#a02c2c;fill-opacity:1;fill-rule:nonzero;stroke:#000;stroke-width:2.64583325;stroke-linecap:round;stroke-linejoin:round;stroke-miterlimit:4;stroke-dasharray:none;stroke-dashoffset:0;stroke-opacity:1" id="rect872" d="m -373.64283,232.85552 v 15.12466 c 0,4.65086 3.74398,8.39484 8.39486,8.39484 h 240.85815 c 4.65085,0 8.39483,-3.74398 8.39483,-8.39484 v -15.12466 z"/><rect style="fill:#999;fill-opacity:1;fill-rule:nonzero;stroke:#000;stroke-width:2.37277842;stroke-linecap:round;stroke-linejoin:round;stroke-miterlimit:4;stroke-dasharray:none;stroke-dashoffset:0;stroke-opacity:1" id="rect905" width="401.712" height="36.087" x="-526.657" y="256.768" ry="6.747"/><rect style="fill:#000;fill-opacity:1;fill-rule:nonzero;stroke:#000;stroke-width:3.2610445;stroke-linecap:round;stroke-linejoin:round;stroke-miterlimit:4;stroke-dasharray:none;stroke-dashoffset:0;stroke-opacity:1" id="rect907" width="368.867" height="87.012" x="-494.275" y="270.599" ry="0"/><path style="fill:#d35f5f;fill-opacity:1;fill-rule:nonzero;stroke:#000;stroke-width:2.48658204;stroke-linecap:round;stroke-linejoin:round;stroke-miterlimit:4;stroke-dasharray:none;stroke-dashoffset:0;stroke-opacity:1" id="rect914" d="m -125.16191,270.21192 v 98.51452 h 97.98015 v -3.07452 l -95.08726,-95.44 z"/><g id="g885" transform="translate(0.45632397,-9.5397497e-5)" style="stroke:#000;stroke-width:2.64583325;stroke-miterlimit:4;stroke-dasharray:none"><rect id="rect838" width="107.514" height="159.506" x="-223.509" y="113.546" ry="8.395" style="fill:#4d4d4d;fill-opacity:1;fill-rule:nonzero;stroke:#000;stroke-width:2.64583325;stroke-linecap:round;stroke-linejoin:round;stroke-miterlimit:4;stroke-dasharray:none;stroke-dashoffset:0;stroke-opacity:1"/><path id="path867" d="m -814.75195,429.15234 c -17.57805,0 -31.72852,14.15047 -31.72852,31.72852 v 43.02344 h 406.34961 v -43.02344 c 0,-17.57805 -14.15047,-31.72852 -31.72852,-31.72852 z" transform="scale(0.26458333)" style="fill:#e6e6e6;fill-opacity:1;fill-rule:nonzero;stroke:#000;stroke-width:10;stroke-linecap:round;stroke-linejoin:round;stroke-miterlimit:4;stroke-dasharray:none;stroke-dashoffset:0;stroke-opacity:1"/><path id="path877" d="m -844.75586,943.11719 v 57.16211 c 0,17.578 14.15047,31.7305 31.72852,31.7305 h 342.89257 c 17.57805,0 31.72852,-14.1525 31.72852,-31.7305 v -57.16211 z" transform="scale(0.26458333)" style="fill:#1a1a1a;fill-opacity:1;fill-rule:nonzero;stroke:#000;stroke-width:10;stroke-linecap:round;stroke-linejoin:round;stroke-miterlimit:4;stroke-dasharray:none;stroke-dashoffset:0;stroke-opacity:1"/></g><path style="fill:#d35f5f;fill-opacity:1;fill-rule:nonzero;stroke:#1a1a1a;stroke-width:10;stroke-linecap:round;stroke-linejoin:round;stroke-miterlimit:4;stroke-dasharray:none;stroke-dashoffset:0;stroke-opacity:1" id="rect891" d="M -1866.7617,177.01758 V 993.2207 h 547.5019 V 177.01758 Z m 135.7168,129.36523 h 272.0273 c 25.9407,0 46.8242,20.88358 46.8242,46.82422 v 202.9043 c 0,25.94064 -20.8835,46.82422 -46.8242,46.82422 h -272.0273 c -25.9407,0 -46.8242,-20.88358 -46.8242,-46.82422 v -202.9043 c 0,-25.94064 20.8835,-46.82422 46.8242,-46.82422 z" transform="scale(0.26458333)"/><path style="fill:#de8787;fill-opacity:1;fill-rule:nonzero;stroke:#000;stroke-width:10;stroke-linecap:round;stroke-linejoin:round;stroke-miterlimit:4;stroke-dasharray:none;stroke-dashoffset:0;stroke-opacity:1" id="rect899" d="m -1954.6445,80.042969 c -38.6141,0 -69.7012,31.085131 -69.7012,69.699221 0,38.61409 31.0871,69.70117 69.7012,69.70117 h 340.4199 225.2656 69.6992 v -69.70117 c 5.3538,-74.533279 -69.6992,-69.699221 -69.6992,-69.699221 h -225.2656 z" transform="scale(0.26458333)"/><g id="g888" transform="translate(264.45514,266.20892)"><circle style="fill:#b3b3b3;fill-opacity:1;fill-rule:nonzero;stroke:gray;stroke-width:9.90299988;stroke-linecap:round;stroke-linejoin:round;stroke-miterlimit:4;stroke-dasharray:none;stroke-dashoffset:0;stroke-opacity:1" id="circle860" cx="-697.966" cy="65.002" r="49.518"/><path id="rect863" d="m 422.05078,1311.8809 a 187.15366,187.15366 0 0 0 -20,1.289 v 371.8848 a 187.15366,187.15366 0 0 0 20,1.1328 187.15366,187.15366 0 0 0 20,-1.2891 v -371.8828 a 187.15366,187.15366 0 0 0 -20,-1.1347 z" transform="matrix(0.26458333,0,0,0.26458333,-809.63397,-331.61794)" style="fill:gray;fill-opacity:1;fill-rule:nonzero;stroke:none;stroke-width:3.16186619;stroke-linecap:round;stroke-linejoin:round;stroke-miterlimit:4;stroke-dasharray:none;stroke-dashoffset:0;stroke-opacity:1"/><path id="rect865" d="m 539.375,1353.4258 -263,263 a 187.15366,187.15366 0 0 0 28.35156,28.2168 l 263,-263 A 187.15366,187.15366 0 0 0 539.375,1353.4258 Z" transform="matrix(0.26458333,0,0,0.26458333,-809.63397,-331.61794)" style="fill:gray;fill-opacity:1;fill-rule:nonzero;stroke:none;stroke-width:3.16186619;stroke-linecap:round;stroke-linejoin:round;stroke-miterlimit:4;stroke-dasharray:none;stroke-dashoffset:0;stroke-opacity:1"/><path id="rect867" d="m 301.56445,1356.0781 a 187.15366,187.15366 0 0 0 -27.63476,28.9356 l 262.22265,262.2207 a 187.15366,187.15366 0 0 0 28.99024,-27.5782 z" transform="matrix(0.26458333,0,0,0.26458333,-809.63397,-331.61794)" style="fill:gray;fill-opacity:1;fill-rule:nonzero;stroke:none;stroke-width:3.16186619;stroke-linecap:round;stroke-linejoin:round;stroke-miterlimit:4;stroke-dasharray:none;stroke-dashoffset:0;stroke-opacity:1"/><path id="rect869" d="m 235.60742,1484.8496 a 187.15366,187.15366 0 0 0 -0.71094,14.1856 187.15366,187.15366 0 0 0 1.9961,25.8144 h 370.29883 a 187.15366,187.15366 0 0 0 2.01367,-25.8144 187.15366,187.15366 0 0 0 -0.58399,-14.1856 z" transform="matrix(0.26458333,0,0,0.26458333,-809.63397,-331.61794)" style="fill:gray;fill-opacity:1;fill-rule:nonzero;stroke:none;stroke-width:3.16186619;stroke-linecap:round;stroke-linejoin:round;stroke-miterlimit:4;stroke-dasharray:none;stroke-dashoffset:0;stroke-opacity:1"/></g><g id="g962" transform="translate(-69.572342,-242.09238)"><circle style="fill:#ccc;fill-opacity:1;fill-rule:nonzero;stroke:#999;stroke-width:9.24030876;stroke-linecap:round;stroke-linejoin:round;stroke-miterlimit:4;stroke-dasharray:none;stroke-dashoffset:0;stroke-opacity:1" id="circle952" cx="-160.814" cy="598.348" r="24.804"/><path style="fill:#999;fill-opacity:1;fill-rule:nonzero;stroke:none;stroke-width:22.51210976;stroke-linecap:round;stroke-linejoin:round;stroke-miterlimit:4;stroke-dasharray:none;stroke-dashoffset:0;stroke-opacity:1" id="path954" d="m 2452.2324,3421.084 a 93.747116,93.747116 0 0 0 -10,0.6445 v 186.2852 a 93.747116,93.747116 0 0 0 10,0.5644 93.747116,93.747116 0 0 0 10,-0.6426 v -186.2851 a 93.747116,93.747116 0 0 0 -10,-0.5664 z" transform="matrix(0.26458333,0,0,0.26458333,-809.63397,-331.61794)"/><path style="fill:#999;fill-opacity:1;fill-rule:nonzero;stroke:none;stroke-width:22.51210976;stroke-linecap:round;stroke-linejoin:round;stroke-miterlimit:4;stroke-dasharray:none;stroke-dashoffset:0;stroke-opacity:1" id="path956" d="m 2359.0527,3504.832 a 93.747116,93.747116 0 0 0 -0.5664,10 93.747116,93.747116 0 0 0 0.6426,10 h 186.2852 a 93.747116,93.747116 0 0 0 0.5664,-10 93.747116,93.747116 0 0 0 -0.6446,-10 z" transform="matrix(0.26458333,0,0,0.26458333,-809.63397,-331.61794)"/><path style="fill:#999;fill-opacity:1;fill-rule:nonzero;stroke:none;stroke-width:22.51210976;stroke-linecap:round;stroke-linejoin:round;stroke-miterlimit:4;stroke-dasharray:none;stroke-dashoffset:0;stroke-opacity:1" id="path958" d="m 2393.416,3441.873 a 93.747116,93.747116 0 0 0 -14.1094,14.1739 l 131.7442,131.7441 a 93.747116,93.747116 0 0 0 14.1074,-14.1758 z" transform="matrix(0.26458333,0,0,0.26458333,-809.63397,-331.61794)"/><path style="fill:#999;fill-opacity:1;fill-rule:nonzero;stroke:none;stroke-width:22.51210976;stroke-linecap:round;stroke-linejoin:round;stroke-miterlimit:4;stroke-dasharray:none;stroke-dashoffset:0;stroke-opacity:1" id="path960" d="m 2511.0176,3441.9062 -131.7422,131.7422 a 93.747116,93.747116 0 0 0 14.1738,14.1094 l 131.7422,-131.7422 a 93.747116,93.747116 0 0 0 -14.1738,-14.1094 z" transform="matrix(0.26458333,0,0,0.26458333,-809.63397,-331.61794)"/></g><g id="g900" transform="translate(380.4501,266.20892)"><circle id="circle890" cx="-697.966" cy="65.002" r="49.518" style="fill:#b3b3b3;fill-opacity:1;fill-rule:nonzero;stroke:gray;stroke-width:9.90299988;stroke-linecap:round;stroke-linejoin:round;stroke-miterlimit:4;stroke-dasharray:none;stroke-dashoffset:0;stroke-opacity:1"/><path style="fill:gray;fill-opacity:1;fill-rule:nonzero;stroke:none;stroke-width:3.16186619;stroke-linecap:round;stroke-linejoin:round;stroke-miterlimit:4;stroke-dasharray:none;stroke-dashoffset:0;stroke-opacity:1" id="path892" d="m 422.05078,1311.8809 a 187.15366,187.15366 0 0 0 -20,1.289 v 371.8848 a 187.15366,187.15366 0 0 0 20,1.1328 187.15366,187.15366 0 0 0 20,-1.2891 v -371.8828 a 187.15366,187.15366 0 0 0 -20,-1.1347 z" transform="matrix(0.26458333,0,0,0.26458333,-809.63397,-331.61794)"/><path style="fill:gray;fill-opacity:1;fill-rule:nonzero;stroke:none;stroke-width:3.16186619;stroke-linecap:round;stroke-linejoin:round;stroke-miterlimit:4;stroke-dasharray:none;stroke-dashoffset:0;stroke-opacity:1" id="path894" d="m 539.375,1353.4258 -263,263 a 187.15366,187.15366 0 0 0 28.35156,28.2168 l 263,-263 A 187.15366,187.15366 0 0 0 539.375,1353.4258 Z" transform="matrix(0.26458333,0,0,0.26458333,-809.63397,-331.61794)"/><path style="fill:gray;fill-opacity:1;fill-rule:nonzero;stroke:none;stroke-width:3.16186619;stroke-linecap:round;stroke-linejoin:round;stroke-miterlimit:4;stroke-dasharray:none;stroke-dashoffset:0;stroke-opacity:1" id="path896" d="m 301.56445,1356.0781 a 187.15366,187.15366 0 0 0 -27.63476,28.9356 l 262.22265,262.2207 a 187.15366,187.15366 0 0 0 28.99024,-27.5782 z" transform="matrix(0.26458333,0,0,0.26458333,-809.63397,-331.61794)"/><path style="fill:gray;fill-opacity:1;fill-rule:nonzero;stroke:none;stroke-width:3.16186619;stroke-linecap:round;stroke-linejoin:round;stroke-miterlimit:4;stroke-dasharray:none;stroke-dashoffset:0;stroke-opacity:1" id="path898" d="m 235.60742,1484.8496 a 187.15366,187.15366 0 0 0 -0.71094,14.1856 187.15366,187.15366 0 0 0 1.9961,25.8144 h 370.29883 a 187.15366,187.15366 0 0 0 2.01367,-25.8144 187.15366,187.15366 0 0 0 -0.58399,-14.1856 z" transform="matrix(0.26458333,0,0,0.26458333,-809.63397,-331.61794)"/></g><g id="g950" transform="translate(-4.3585663,-242.09238)"><circle id="circle914" cx="-160.814" cy="598.348" r="24.804" style="fill:#ccc;fill-opacity:1;fill-rule:nonzero;stroke:#999;stroke-width:9.24030876;stroke-linecap:round;stroke-linejoin:round;stroke-miterlimit:4;stroke-dasharray:none;stroke-dashoffset:0;stroke-opacity:1"/><path id="rect924" d="m 2452.2324,3421.084 a 93.747116,93.747116 0 0 0 -10,0.6445 v 186.2852 a 93.747116,93.747116 0 0 0 10,0.5644 93.747116,93.747116 0 0 0 10,-0.6426 v -186.2851 a 93.747116,93.747116 0 0 0 -10,-0.5664 z" transform="matrix(0.26458333,0,0,0.26458333,-809.63397,-331.61794)" style="fill:#999;fill-opacity:1;fill-rule:nonzero;stroke:none;stroke-width:22.51210976;stroke-linecap:round;stroke-linejoin:round;stroke-miterlimit:4;stroke-dasharray:none;stroke-dashoffset:0;stroke-opacity:1"/><path id="rect926" d="m 2359.0527,3504.832 a 93.747116,93.747116 0 0 0 -0.5664,10 93.747116,93.747116 0 0 0 0.6426,10 h 186.2852 a 93.747116,93.747116 0 0 0 0.5664,-10 93.747116,93.747116 0 0 0 -0.6446,-10 z" transform="matrix(0.26458333,0,0,0.26458333,-809.63397,-331.61794)" style="fill:#999;fill-opacity:1;fill-rule:nonzero;stroke:none;stroke-width:22.51210976;stroke-linecap:round;stroke-linejoin:round;stroke-miterlimit:4;stroke-dasharray:none;stroke-dashoffset:0;stroke-opacity:1"/><path id="rect928" d="m 2393.416,3441.873 a 93.747116,93.747116 0 0 0 -14.1094,14.1739 l 131.7442,131.7441 a 93.747116,93.747116 0 0 0 14.1074,-14.1758 z" transform="matrix(0.26458333,0,0,0.26458333,-809.63397,-331.61794)" style="fill:#999;fill-opacity:1;fill-rule:nonzero;stroke:none;stroke-width:22.51210976;stroke-linecap:round;stroke-linejoin:round;stroke-miterlimit:4;stroke-dasharray:none;stroke-dashoffset:0;stroke-opacity:1"/><path id="rect930" d="m 2511.0176,3441.9062 -131.7422,131.7422 a 93.747116,93.747116 0 0 0 14.1738,14.1094 l 131.7422,-131.7422 a 93.747116,93.747116 0 0 0 -14.1738,-14.1094 z" transform="matrix(0.26458333,0,0,0.26458333,-809.63397,-331.61794)" style="fill:#999;fill-opacity:1;fill-rule:nonzero;stroke:none;stroke-width:22.51210976;stroke-linecap:round;stroke-linejoin:round;stroke-miterlimit:4;stroke-dasharray:none;stroke-dashoffset:0;stroke-opacity:1"/></g><g id="g983"><rect id="rect964" width="192.081" height="25.839" x="-474.252" y="318.291" ry="12.919" style="fill:#4d4d4d;fill-opacity:1;fill-rule:nonzero;stroke:#000;stroke-width:2.46490979;stroke-linecap:round;stroke-linejoin:round;stroke-miterlimit:4;stroke-dasharray:none;stroke-dashoffset:0;stroke-opacity:1"/><path id="rect972" d="m -1743.6191,1202.9902 c -16.2442,0 -30.58,7.8583 -39.4473,19.9903 h 707.209 c -8.8673,-12.132 -23.2031,-19.9903 -39.4473,-19.9903 z" transform="scale(0.26458333)" style="fill:#ccc;fill-opacity:1;fill-rule:nonzero;stroke:#000;stroke-width:10;stroke-linecap:round;stroke-linejoin:round;stroke-miterlimit:4;stroke-dasharray:none;stroke-dashoffset:0;stroke-opacity:1"/><path style="fill:#333;fill-opacity:1;fill-rule:nonzero;stroke:#000;stroke-width:2.64583325;stroke-linecap:round;stroke-linejoin:round;stroke-miterlimit:4;stroke-dasharray:none;stroke-dashoffset:0;stroke-opacity:1" id="path978" d="m -295.09103,344.03949 c 4.29794,0 8.09096,-2.07917 10.4371,-5.2891 h -187.11572 c 2.34614,3.20993 6.13916,5.2891 10.4371,5.2891 z"/></g><rect style="fill:gray;fill-opacity:1;fill-rule:nonzero;stroke:#000;stroke-width:2.64583325;stroke-linecap:round;stroke-linejoin:round;stroke-miterlimit:4;stroke-dasharray:none;stroke-dashoffset:0;stroke-opacity:1" id="rect935" width="78.028" height="116.396" x="-299.383" y="256.976" ry="10.736"/><path style="fill:#ccc;fill-opacity:1;fill-rule:nonzero;stroke:#000;stroke-width:10;stroke-linecap:round;stroke-linejoin:round;stroke-miterlimit:4;stroke-dasharray:none;stroke-dashoffset:0;stroke-opacity:1" id="rect937" d="m -1090.9512,971.24805 c -22.4787,0 -40.5761,18.09743 -40.5761,40.57615 v 35.9434 h 294.91207 v -35.9434 c 0,-22.47872 -18.09744,-40.57615 -40.57618,-40.57615 z" transform="scale(0.26458333)"/><path style="fill:#1a1a1a;fill-opacity:1;fill-rule:nonzero;stroke:#000;stroke-width:10;stroke-linecap:round;stroke-linejoin:round;stroke-miterlimit:4;stroke-dasharray:none;stroke-dashoffset:0;stroke-opacity:1" id="rect944" d="m -1131.5273,1335.7715 v 34.8242 c 0,22.4787 18.0974,40.5762 40.5761,40.5762 h 213.75979 c 22.47874,0 40.57618,-18.0975 40.57618,-40.5762 v -34.8242 z" transform="scale(0.26458333)"/><path style="fill:#a02c2c;fill-opacity:1;fill-rule:nonzero;stroke:#000;stroke-width:10.00062943;stroke-linecap:round;stroke-linejoin:round;stroke-miterlimit:4;stroke-dasharray:none;stroke-dashoffset:0;stroke-opacity:1" id="rect949" d="m -473.05273,1316.5391 v 76.7714 h 370.31835 v -11.3183 l -65.21093,-65.4531 z" transform="scale(0.26458333)"/><path style="fill:#e9afaf;fill-opacity:1;fill-rule:nonzero;stroke:#000;stroke-width:8.8764677;stroke-linecap:round;stroke-linejoin:round;stroke-miterlimit:4;stroke-dasharray:none;stroke-dashoffset:0;stroke-opacity:1" id="rect954" d="m -473.05273,1021.2734 v 129.7578 h 140.21093 l -129.27734,-129.7578 z" transform="scale(0.26458333)"/><path style="fill:#a02c2c;fill-opacity:1;fill-rule:nonzero;stroke:#000;stroke-width:10.00062943;stroke-linecap:round;stroke-linejoin:round;stroke-miterlimit:4;stroke-dasharray:none;stroke-dashoffset:0;stroke-opacity:1" id="rect959" d="M -1866.7617,886.14453 V 993.2207 h 547.5019 V 886.14453 Z" transform="scale(0.26458333)"/><rect style="fill:#4d4d4d;fill-opacity:1;fill-rule:nonzero;stroke:#000;stroke-width:2.64326406;stroke-linecap:round;stroke-linejoin:round;stroke-miterlimit:4;stroke-dasharray:none;stroke-dashoffset:0;stroke-opacity:1" id="rect990" width="107.516" height="36.28" x="-223.282" y="-52.601"/><path style="fill:#ececec;fill-opacity:1;fill-rule:nonzero;stroke:#000;stroke-width:9.99028969;stroke-linecap:round;stroke-linejoin:round;stroke-miterlimit:4;stroke-dasharray:none;stroke-dashoffset:0;stroke-opacity:1" id="rect997" d="m -843.89844,-198.80469 v 32.75196 h 406.35938 v -32.75196 z" transform="scale(0.26458333)"/><path id="path1002" d="m -115.76554,-16.32095 v -8.665623 h -107.51592 v 8.665623 z" style="fill:#1a1a1a;fill-opacity:1;fill-rule:nonzero;stroke:#000;stroke-width:2.64326406;stroke-linecap:round;stroke-linejoin:round;stroke-miterlimit:4;stroke-dasharray:none;stroke-dashoffset:0;stroke-opacity:1"/></g><rect id="rect1008" width="55.058" height="30.469" x="-197.052" y="-40.829" ry="15.234" style="fill:#f0f;fill-opacity:1;fill-rule:nonzero;stroke:none;stroke-width:2.64583325;stroke-linecap:round;stroke-linejoin:round;stroke-miterlimit:4;stroke-dasharray:none;stroke-dashoffset:0;stroke-opacity:1"/><circle id="path1046" cx="-169.523" cy="-24.793" r="17.64" style="fill:#0ff;fill-opacity:1;fill-rule:nonzero;stroke:none;stroke-width:2.64583325;stroke-linecap:round;stroke-linejoin:round;stroke-miterlimit:4;stroke-dasharray:none;stroke-dashoffset:0;stroke-opacity:1"/><rect style="fill:#f0f;fill-opacity:1;fill-rule:nonzero;stroke:none;stroke-width:12.62573051;stroke-linecap:round;stroke-linejoin:round;stroke-miterlimit:4;stroke-dasharray:none;stroke-dashoffset:0;stroke-opacity:1" id="rect1089" width="262.731" height="145.395" x="-809.634" y="-329.48" ry="72.697"/><circle style="fill:#0ff;fill-opacity:1;fill-rule:nonzero;stroke:none;stroke-width:11.1445713;stroke-linecap:round;stroke-linejoin:round;stroke-miterlimit:4;stroke-dasharray:none;stroke-dashoffset:0;stroke-opacity:1" id="circle1087" cx="-734.531" cy="-257.317" r="74.301"/></g></g></svg>