<svg xmlns="http://www.w3.org/2000/svg" xmlns:svg="http://www.w3.org/2000/svg" id="svg8" width="815.119" height="815.119" version="1.1" viewBox="0 0 215.667 215.667"><metadata id="metadata5"/><g id="layer1" transform="translate(72.303717,-37.976212)" style="display:inline"><g id="g996" transform="translate(0.38118962)"><circle id="path815" cx="35.53" cy="145.81" r="105.833" style="opacity:1;fill:#5df;fill-opacity:1;fill-rule:nonzero;stroke:none;stroke-width:.54075414;stroke-linecap:round;stroke-linejoin:round;stroke-miterlimit:4;stroke-dasharray:none;stroke-dashoffset:0;stroke-opacity:1"/><path id="path817" d="M -102.97461,229.61914 A 399.99992,399.99992 0 0 0 -265.71484,551.0918 399.99992,399.99992 0 0 0 -249.375,663.39258 c 2.53683,-9.39853 4.19995,-21.23254 11.82812,-22.69336 14.95042,-2.86301 22.51595,31.51945 36.98438,26.78906 29.40287,-9.61319 10.71634,-62.99881 28.48047,-88.32422 24.70885,-35.22613 -11.74226,2.91903 102.027342,-79.07812 13.222738,-12.96779 14.976679,-33.96594 20.458985,-51.65625 5.363542,-17.30711 9.008274,-35.14146 12.070312,-53 2.873244,-16.75743 15.014512,-36.32201 5.886719,-50.66602 -11.326341,-17.79894 -53.942798,0.1856 -60.044922,-20.00976 -8.509926,-28.16412 61.463691,-41.07541 54.275391,-69.60547 -5.589315,-22.18377 -56.085246,-7.49634 -65.566407,-25.5293 z" transform="scale(0.26458333)" style="opacity:1;fill:#71c837;fill-opacity:1;fill-rule:nonzero;stroke:none;stroke-width:6.36145687;stroke-linecap:round;stroke-linejoin:round;stroke-miterlimit:4;stroke-dasharray:none;stroke-dashoffset:0;stroke-opacity:1"/><path id="ellipse821" d="m -41.292969,689.12695 c -10.0001,0.0595 -20.001693,0.53516 -29.421875,0.53516 -30.144586,0 -62.220156,1.24698 -89.248046,14.5957 -20.92072,10.33249 -33.23347,32.74816 -50.86523,48.0918 71.53911,122.87612 202.9290887,198.54035 345.11328,198.74219 1.72629,-0.05 3.45223,-0.11122 5.17773,-0.1836 0.38809,-1.07038 0.75826,-2.14728 1.08984,-3.24218 7.02357,-23.19209 -7.69531,-48.05678 -7.69531,-72.28907 0,-24.23229 48.44596,-72.8435 27.69531,-100.86049 C 136.90772,742.59158 66.183778,795.52161 41.416016,771.19922 24.590585,754.67633 36.542667,719.48148 18.533203,704.25781 2.7059333,690.87878 -19.292748,688.99601 -41.292969,689.12695 Z" transform="scale(0.26458333)" style="opacity:1;fill:#71c837;fill-opacity:1;fill-rule:nonzero;stroke:none;stroke-width:6.75395393;stroke-linecap:round;stroke-linejoin:round;stroke-miterlimit:4;stroke-dasharray:none;stroke-dashoffset:0;stroke-opacity:1"/><path id="ellipse823" d="m 148.66602,151.81055 c -12.58619,25.9188 -22.90639,53.67123 -8.16797,74.28125 38.86013,54.34152 153.5159,-26.42163 199.16992,22.35156 26.6281,28.44739 -18.21345,85.73378 5.3418,116.77344 29.65554,39.07823 106.71947,9.80284 139.7832,46.04297 29.96066,32.83894 -8.20034,107.1478 29.95898,129.94921 5.85288,3.49729 12.44752,3.88293 19.27149,2.48633 A 399.99992,399.99992 0 0 0 148.66602,151.81055 Z" transform="scale(0.26458333)" style="opacity:1;fill:#71c837;fill-opacity:1;fill-rule:nonzero;stroke:none;stroke-width:9.03451252;stroke-linecap:round;stroke-linejoin:round;stroke-miterlimit:4;stroke-dasharray:none;stroke-dashoffset:0;stroke-opacity:1"/><path id="ellipse825" d="m 533.08008,575.16406 c -10.68606,0.12221 -19.81209,3.8483 -28.82617,8.14258 -22.97586,10.94563 -38.40106,35.53809 -62.40988,43.98047 -34.81999,12.24398 -85.78835,-20.49997 -110.51452,6.90374 -35.89008,39.77655 10.45531,107.16833 6.46708,160.59459 -2.84204,38.07185 -30.53091,76.64014 -21.54854,112.488 C 442.1856,842.72163 524.64077,716.4297 533.08008,575.16406 Z" transform="scale(0.26458333)" style="opacity:1;fill:#71c837;fill-opacity:1;fill-rule:nonzero;stroke:none;stroke-width:4.50412893;stroke-linecap:round;stroke-linejoin:round;stroke-miterlimit:4;stroke-dasharray:none;stroke-dashoffset:0;stroke-opacity:1"/><path id="ellipse827" d="m 75.973045,76.229266 c 6.431396,6.7983 6.481928,17.193899 0.112868,23.21922 -6.36906,6.025324 -5.708872,-8.709847 -9.233159,-12.509895 -4.20543,-4.534487 -20.426041,-6.08361 -14.056981,-12.10893 6.36906,-6.02532 16.745878,-5.398695 23.177272,1.399605 z" style="opacity:1;fill:#71c837;fill-opacity:1;fill-rule:nonzero;stroke:none;stroke-width:.5368132;stroke-linecap:round;stroke-linejoin:round;stroke-miterlimit:4;stroke-dasharray:none;stroke-dashoffset:0;stroke-opacity:1"/><ellipse id="ellipse837" cx="8.951" cy="54.96" rx="10.724" ry="6.993" transform="rotate(-12.043911)" style="opacity:1;fill:#71c837;fill-opacity:1;fill-rule:nonzero;stroke:none;stroke-width:.28342241;stroke-linecap:round;stroke-linejoin:round;stroke-miterlimit:4;stroke-dasharray:none;stroke-dashoffset:0;stroke-opacity:1"/><path id="path867" d="M 134.28516,193.08984 A 400.00004,400.00004 0 0 0 -264.84375,575.68555 399.99992,399.99992 0 0 0 134.28516,951.0918 399.99992,399.99992 0 0 0 533.41406,568.49609 400.00004,400.00004 0 0 0 134.28516,193.08984 Z" transform="scale(0.26458333)" style="opacity:1;fill:#000;fill-opacity:.09803922;fill-rule:nonzero;stroke:none;stroke-width:4.62809896;stroke-linecap:round;stroke-linejoin:round;stroke-miterlimit:4;stroke-dasharray:none;stroke-dashoffset:0;stroke-opacity:1"/><path id="path872" d="m 140.46119,157.86014 a 125.11012,125.11012 0 0 1 -104.883513,57.11899 125.11012,125.11012 0 0 1 -104.97964,-57.09729 105.83331,105.83331 0 0 0 104.97964,93.7612 105.83331,105.83331 0 0 0 104.883513,-93.7829 z" style="opacity:1;fill:#000;fill-opacity:.09803922;fill-rule:nonzero;stroke:none;stroke-width:1.66813481;stroke-linecap:round;stroke-linejoin:round;stroke-miterlimit:4;stroke-dasharray:none;stroke-dashoffset:0;stroke-opacity:1"/></g></g><g id="layer2" transform="translate(72.303717,-37.976212)" style="display:inline"><g id="g937" transform="translate(-1.3229166)"><g id="g957"><g id="g941" transform="translate(1.3229166,-2.6458333)"><circle style="opacity:1;fill:#000;fill-opacity:1;fill-rule:nonzero;stroke:none;stroke-width:2.49019599;stroke-linecap:round;stroke-linejoin:round;stroke-miterlimit:4;stroke-dasharray:none;stroke-dashoffset:0;stroke-opacity:1" id="path882" cx="35.53" cy="145.81" r="15.119"/><path style="opacity:1;fill:red;fill-opacity:1;fill-rule:nonzero;stroke:none;stroke-width:3.99999976;stroke-linecap:round;stroke-linejoin:round;stroke-miterlimit:4;stroke-dasharray:none;stroke-dashoffset:0;stroke-opacity:1" id="path910" d="m 135.71484,576.80469 a 32.857145,32.857145 0 0 0 -31.30468,22.91406 57.142859,57.142859 0 0 0 29.875,8.51563 57.142859,57.142859 0 0 0 32.20898,-10.01172 32.857145,32.857145 0 0 0 -30.7793,-21.41797 z" transform="scale(0.26458333)"/></g><g id="g923"><circle style="opacity:1;fill:#000;fill-opacity:1;fill-rule:nonzero;stroke:none;stroke-width:2.24117637;stroke-linecap:round;stroke-linejoin:round;stroke-miterlimit:4;stroke-dasharray:none;stroke-dashoffset:0;stroke-opacity:1" id="circle906" cx="0" cy="131.446" r="13.607"/><circle id="path886" cx="-6.161" cy="126.646" r="2.91" style="opacity:1;fill:#fff;fill-opacity:1;fill-rule:nonzero;stroke:none;stroke-width:.81491667;stroke-linecap:round;stroke-linejoin:round;stroke-miterlimit:4;stroke-dasharray:none;stroke-dashoffset:0;stroke-opacity:1"/></g><g id="g929" transform="translate(73.705357,0.75595238)"><circle id="circle925" cx="0" cy="131.446" r="13.607" style="opacity:1;fill:#000;fill-opacity:1;fill-rule:nonzero;stroke:none;stroke-width:2.24117637;stroke-linecap:round;stroke-linejoin:round;stroke-miterlimit:4;stroke-dasharray:none;stroke-dashoffset:0;stroke-opacity:1"/><circle style="opacity:1;fill:#fff;fill-opacity:1;fill-rule:nonzero;stroke:none;stroke-width:.81491667;stroke-linecap:round;stroke-linejoin:round;stroke-miterlimit:4;stroke-dasharray:none;stroke-dashoffset:0;stroke-opacity:1" id="circle927" cx="-6.161" cy="126.646" r="2.91"/></g></g></g></g><g style="display:inline" id="g881" transform="translate(72.303717,-37.976212)"><g id="g879" transform="translate(-1.3229166)"><g id="g876"><path style="opacity:1;fill:none;fill-opacity:1;fill-rule:nonzero;stroke:#000;stroke-width:3.29167604;stroke-linecap:round;stroke-linejoin:round;stroke-miterlimit:4;stroke-dasharray:none;stroke-dashoffset:0;stroke-opacity:1" id="circle858" d="m 50.288093,145.05357 a 13.435412,13.435412 0 0 1 -6.717707,11.63541 13.435412,13.435412 0 0 1 -13.435412,0 13.435412,13.435412 0 0 1 -6.717706,-11.63541"/><g id="g868"><circle id="circle864" cx="0" cy="131.446" r="13.607" style="opacity:1;fill:#000;fill-opacity:1;fill-rule:nonzero;stroke:none;stroke-width:2.24117637;stroke-linecap:round;stroke-linejoin:round;stroke-miterlimit:4;stroke-dasharray:none;stroke-dashoffset:0;stroke-opacity:1"/><circle style="opacity:1;fill:#fff;fill-opacity:1;fill-rule:nonzero;stroke:none;stroke-width:.81491667;stroke-linecap:round;stroke-linejoin:round;stroke-miterlimit:4;stroke-dasharray:none;stroke-dashoffset:0;stroke-opacity:1" id="circle866" cx="-6.161" cy="126.646" r="2.91"/></g><g id="g874" transform="translate(73.705357,0.75595238)"><circle style="opacity:1;fill:#000;fill-opacity:1;fill-rule:nonzero;stroke:none;stroke-width:2.24117637;stroke-linecap:round;stroke-linejoin:round;stroke-miterlimit:4;stroke-dasharray:none;stroke-dashoffset:0;stroke-opacity:1" id="circle870" cx="0" cy="131.446" r="13.607"/><circle id="circle872" cx="-6.161" cy="126.646" r="2.91" style="opacity:1;fill:#fff;fill-opacity:1;fill-rule:nonzero;stroke:none;stroke-width:.81491667;stroke-linecap:round;stroke-linejoin:round;stroke-miterlimit:4;stroke-dasharray:none;stroke-dashoffset:0;stroke-opacity:1"/></g></g></g></g><g id="g855" transform="translate(72.303717,-37.976212)" style="display:inline"><g id="g853" transform="translate(-1.3229166)"><g id="g851"><g id="g878" transform="translate(0,-2.1166667)"><path id="circle833" d="m 77.244141,543.94922 a 57.142859,57.142859 0 0 0 57.041019,54.28516 57.142859,57.142859 0 0 0 57,-54.28516 z" transform="matrix(0.26458333,0,0,0.26458333,1.3229166,0)" style="opacity:1;fill:#000;fill-opacity:1;fill-rule:nonzero;stroke:none;stroke-width:9.41176414;stroke-linecap:round;stroke-linejoin:round;stroke-miterlimit:4;stroke-dasharray:none;stroke-dashoffset:0;stroke-opacity:1"/><path id="path835" d="m 37.230801,149.96707 a 8.6934528,8.6934528 0 0 0 -8.282697,6.06268 15.119048,15.119048 0 0 0 7.904427,2.25309 15.119048,15.119048 0 0 0 8.52196,-2.64893 8.6934528,8.6934528 0 0 0 -8.14369,-5.66684 z" style="opacity:1;fill:red;fill-opacity:1;fill-rule:nonzero;stroke:none;stroke-width:1.05833328;stroke-linecap:round;stroke-linejoin:round;stroke-miterlimit:4;stroke-dasharray:none;stroke-dashoffset:0;stroke-opacity:1"/></g><path style="opacity:1;fill:none;fill-opacity:1;fill-rule:nonzero;stroke:#000;stroke-width:3.05118322;stroke-linecap:round;stroke-linejoin:round;stroke-miterlimit:4;stroke-dasharray:none;stroke-dashoffset:0;stroke-opacity:1" id="circle839" d="m -12.081399,133.11922 c 10e-7,-6.67245 5.4090867,-12.08153 12.08153167755,-12.08153 C 6.6725775,121.03769 12.081663,126.44678 12.081664,133.11922"/><path id="path883" d="m 61.623826,133.11922 c 10e-7,-6.67245 5.409087,-12.08153 12.081532,-12.08153 6.672445,0 12.08153,5.40909 12.081531,12.08153" style="opacity:1;fill:none;fill-opacity:1;fill-rule:nonzero;stroke:#000;stroke-width:3.05118322;stroke-linecap:round;stroke-linejoin:round;stroke-miterlimit:4;stroke-dasharray:none;stroke-dashoffset:0;stroke-opacity:1"/></g></g></g><g style="display:inline" id="g967" transform="translate(72.303717,-37.976212)"><g id="g965" transform="translate(-1.3229166,-1.5875)" style="stroke:#000"><g id="g963" style="stroke:#000"><g id="g977" transform="matrix(0.89004512,0,0,0.7014397,4.5674307e-8,39.244689)" style="stroke:#000;stroke-width:3.27439976;stroke-miterlimit:4;stroke-dasharray:none"><path style="opacity:1;fill:none;fill-opacity:1;fill-rule:nonzero;stroke:#000;stroke-width:3.27439976;stroke-linecap:round;stroke-linejoin:round;stroke-miterlimit:4;stroke-dasharray:none;stroke-dashoffset:0;stroke-opacity:1" id="circle973" d="M -13.607143,131.44644 C -13.607141,123.93142 -7.5150161,117.8393 4.1539135e-7,117.8393 7.515017,117.8393 13.607142,123.93142 13.607144,131.44644"/></g><g style="stroke:#000;stroke-width:3.27439976;stroke-miterlimit:4;stroke-dasharray:none" id="g982" transform="matrix(0.89004512,0,0,0.7014397,73.705357,39.244689)"><path id="path980" d="M -13.607143,131.44644 C -13.607141,123.93142 -7.5150161,117.8393 4.1539135e-7,117.8393 7.515017,117.8393 13.607142,123.93142 13.607144,131.44644" style="opacity:1;fill:none;fill-opacity:1;fill-rule:nonzero;stroke:#000;stroke-width:3.27439976;stroke-linecap:round;stroke-linejoin:round;stroke-miterlimit:4;stroke-dasharray:none;stroke-dashoffset:0;stroke-opacity:1"/></g></g></g><g style="display:inline" id="g943" transform="translate(-0.13656123)"><path id="path933" d="M 26.413617,144.65637 H 44.91903" style="fill:none;stroke:#000;stroke-width:3.70416665;stroke-linecap:round;stroke-linejoin:miter;stroke-miterlimit:4;stroke-dasharray:none;stroke-opacity:1"/><path id="path935" d="m 52.279305,153.03439 c -2.487837,0 -4.786693,-1.59684 -6.030612,-4.18901 -1.243918,-2.59216 -1.243918,-5.78586 0,-8.37802 1.243919,-2.59217 3.542775,-4.18901 6.030612,-4.18901" style="opacity:1;fill:none;fill-opacity:1;fill-rule:nonzero;stroke:#000;stroke-width:3.70416665;stroke-linecap:round;stroke-linejoin:round;stroke-miterlimit:4;stroke-dasharray:none;stroke-dashoffset:0;stroke-opacity:1"/><path style="opacity:1;fill:none;fill-opacity:1;fill-rule:nonzero;stroke:#000;stroke-width:3.70416665;stroke-linecap:round;stroke-linejoin:round;stroke-miterlimit:4;stroke-dasharray:none;stroke-dashoffset:0;stroke-opacity:1" id="path938" d="m 19.053342,153.03439 c 2.487837,0 4.786693,-1.59684 6.030612,-4.18901 1.243918,-2.59216 1.243918,-5.78586 0,-8.37802 -1.243919,-2.59217 -3.542775,-4.18901 -6.030612,-4.18901"/></g></g><g id="layer3" transform="translate(72.303717,-37.976212)" style="opacity:.48300003"><circle style="opacity:1;fill:#f0f;fill-opacity:1;fill-rule:nonzero;stroke:none;stroke-width:2.64583325;stroke-linecap:round;stroke-linejoin:round;stroke-miterlimit:4;stroke-dasharray:none;stroke-dashoffset:0;stroke-opacity:1" id="path985" cx="35.53" cy="145.81" r="52.917"/><g id="g875"><circle id="path868" cx="-31.558" cy="141.989" r="9.525" style="opacity:1;fill:#f0f;fill-opacity:1;fill-rule:nonzero;stroke:none;stroke-width:2.64583325;stroke-linecap:round;stroke-linejoin:round;stroke-miterlimit:4;stroke-dasharray:none;stroke-dashoffset:0;stroke-opacity:1"/><circle style="opacity:1;fill:#f0f;fill-opacity:1;fill-rule:nonzero;stroke:none;stroke-width:2.64583325;stroke-linecap:round;stroke-linejoin:round;stroke-miterlimit:4;stroke-dasharray:none;stroke-dashoffset:0;stroke-opacity:1" id="circle871" cx="103.38" cy="141.989" r="9.525"/></g></g><g id="layer4"><g id="g884" transform="matrix(-1,0,0,1,211.54298,0)"><path id="rect878" d="M 22.754163,-8.6998413 C 39.243036,-22.862065 65.497553,-33.589437 85.724995,-25.633175 93.467805,-22.587618 105.53135,-9.6590731 98.954163,-4.466507 79.568308,10.838262 51.084568,8.0214487 26.987499,16.70016 1.8278177,30.789367 -4.2333333,52.683492 -4.2333333,52.683492 -19.024024,47.404436 5.798461,5.8633393 22.754163,-8.6998413 Z" style="opacity:1;fill:red;fill-opacity:1;fill-rule:nonzero;stroke:none;stroke-width:2.64583325;stroke-linecap:round;stroke-linejoin:round;stroke-miterlimit:4;stroke-dasharray:none;stroke-dashoffset:0;stroke-opacity:1"/><rect id="rect874" width="96.308" height="22.754" x="6.183" y="22.509" ry="8.467" transform="rotate(-22.707599)" style="opacity:1;fill:maroon;fill-opacity:1;fill-rule:nonzero;stroke:none;stroke-width:2.64583325;stroke-linecap:round;stroke-linejoin:round;stroke-miterlimit:4;stroke-dasharray:none;stroke-dashoffset:0;stroke-opacity:1"/><circle id="path876" cx="-4.762" cy="54.8" r="11.113" style="opacity:1;fill:maroon;fill-opacity:1;fill-rule:nonzero;stroke:none;stroke-width:2.64583325;stroke-linecap:round;stroke-linejoin:round;stroke-miterlimit:4;stroke-dasharray:none;stroke-dashoffset:0;stroke-opacity:1"/></g></g></svg>