<svg xmlns="http://www.w3.org/2000/svg" xmlns:svg="http://www.w3.org/2000/svg" id="svg8" width="600" height="600" version="1.1" viewBox="0 0 158.75 158.75"><defs id="defs2"><filter style="color-interpolation-filters:sRGB" id="filter1340" width="1.955" height="1.137" x="-.478" y="-.069"><feGaussianBlur id="feGaussianBlur1342" stdDeviation=".519"/></filter><filter style="color-interpolation-filters:sRGB" id="filter1524" width="2.644" height="1.652" x="-.822" y="-.326"><feGaussianBlur id="feGaussianBlur1526" stdDeviation=".866"/></filter><filter style="color-interpolation-filters:sRGB" id="filter1528" width="2.417" height="1.331" x="-.709" y="-.165"><feGaussianBlur id="feGaussianBlur1530" stdDeviation=".866"/></filter><filter style="color-interpolation-filters:sRGB" id="filter2015" width="1.132" height="2.3" x="-.066" y="-.65"><feGaussianBlur id="feGaussianBlur2017" stdDeviation=".717"/></filter></defs><metadata id="metadata5"/><g id="layer1" transform="translate(0,-138.24998)"><g id="g1618" transform="translate(41.066038,12.482628)"><g id="g1991"><ellipse id="path1620" cx="117.64" cy="242.637" rx="26.413" ry="1.538" transform="translate(-41.066038,-12.482628)" style="fill:#000;stroke:none;stroke-width:.26458332;stroke-linecap:round;stroke-linejoin:round;stroke-miterlimit:4;stroke-dasharray:none;stroke-opacity:.73303169"/><g id="g1152" transform="matrix(-0.99574431,0.0921589,0.0921589,0.99574431,131.32599,-3.7789888)"><g id="g1146" transform="translate(0,-1.0583333)"><rect id="rect1138" width="1.35" height="4.089" x="59.607" y="214.483" ry=".675" style="fill:#00f;stroke:none;stroke-width:1.07015705;stroke-linecap:round;stroke-miterlimit:4;stroke-dasharray:none;stroke-opacity:1"/><rect style="fill:#00f;stroke:none;stroke-width:1.07015705;stroke-linecap:round;stroke-miterlimit:4;stroke-dasharray:none;stroke-opacity:1" id="rect1140" width="1.35" height="4.089" x="61.337" y="214.483" ry=".675"/><rect id="rect1142" width="1.35" height="4.089" x="63.066" y="214.483" ry=".675" style="fill:#00f;stroke:none;stroke-width:1.07015705;stroke-linecap:round;stroke-miterlimit:4;stroke-dasharray:none;stroke-opacity:1"/><rect id="rect1144" width="5.868" height="2.335" x="59.078" y="214.483" ry="1.167" style="fill:#00f;stroke:none;stroke-width:1.05833328;stroke-linecap:round;stroke-miterlimit:4;stroke-dasharray:none;stroke-opacity:1"/></g><rect style="fill:purple;stroke:none;stroke-width:1.05833328;stroke-linecap:round;stroke-miterlimit:4;stroke-dasharray:none;stroke-opacity:1" id="rect1148" width="6.603" height="16.644" x="58.885" y="199.491" ry="3.075"/><rect style="fill:#ff2a2a;stroke:none;stroke-width:.95108461;stroke-linecap:round;stroke-miterlimit:4;stroke-dasharray:none;stroke-opacity:1" id="rect1150" width="9.407" height="3.688" x="57.483" y="212.447" ry=".905"/></g><g id="g1136" transform="rotate(5.2878193,51.971803,237.48821)"><g id="g1102" transform="translate(0,-1.0583333)"><rect style="fill:#00f;stroke:none;stroke-width:1.07015705;stroke-linecap:round;stroke-miterlimit:4;stroke-dasharray:none;stroke-opacity:1" id="rect1080" width="1.35" height="4.089" x="59.607" y="214.483" ry=".675"/><rect id="rect1082" width="1.35" height="4.089" x="61.337" y="214.483" ry=".675" style="fill:#00f;stroke:none;stroke-width:1.07015705;stroke-linecap:round;stroke-miterlimit:4;stroke-dasharray:none;stroke-opacity:1"/><rect style="fill:#00f;stroke:none;stroke-width:1.07015705;stroke-linecap:round;stroke-miterlimit:4;stroke-dasharray:none;stroke-opacity:1" id="rect1084" width="1.35" height="4.089" x="63.066" y="214.483" ry=".675"/><rect style="fill:#00f;stroke:none;stroke-width:1.05833328;stroke-linecap:round;stroke-miterlimit:4;stroke-dasharray:none;stroke-opacity:1" id="rect1086" width="5.868" height="2.335" x="59.078" y="214.483" ry="1.167"/></g><rect id="rect1076" width="6.603" height="16.644" x="58.885" y="199.491" ry="3.075" style="fill:purple;stroke:none;stroke-width:1.05833328;stroke-linecap:round;stroke-miterlimit:4;stroke-dasharray:none;stroke-opacity:1"/><rect id="rect1078" width="9.407" height="3.688" x="57.483" y="212.447" ry=".905" style="fill:#ff2a2a;stroke:none;stroke-width:.95108461;stroke-linecap:round;stroke-miterlimit:4;stroke-dasharray:none;stroke-opacity:1"/></g><path style="fill:#676c53;stroke:none;stroke-width:3.99999976;stroke-linecap:round;stroke-miterlimit:4;stroke-dasharray:none;stroke-opacity:1" id="rect1039" d="m 245.63867,200.94336 c -4.98019,18.18903 0.31309,139.91797 -13.59179,139.91797 -2.65157,0 -4.78516,2.13359 -4.78516,4.78515 0,2.65157 2.13359,4.78711 4.78516,4.78711 h 3.59179 108.71289 3.58985 c 2.65156,0 4.78711,-2.13554 4.78711,-4.78711 0,-2.65156 -2.13555,-4.78515 -4.78711,-4.78515 -10.69784,1.00258 -11.0267,-101.60015 -13.58985,-139.91797 z" transform="matrix(0.26458333,0,0,0.26458333,0,138.24998)"/><g id="g998" transform="matrix(-1,0,0,1,153.14804,0)"><path id="path994" d="m 39.015503,184.68554 c -0.470445,-0.0289 -0.872198,0.31787 -0.900804,0.77759 -0.02861,0.45972 0.358349,0.71398 0.79754,0.88204 l 1.644992,0.62946 c 3.244491,1.24151 4.330178,7.60965 7.959,9.16279 4.507702,1.92931 23.12323,0.27747 23.12323,0.27747 0,0 -0.131245,-0.007 0,-2.11666 0.10394,-1.67047 -2.179859,-6.90753 -3.017471,-6.13226 0.442313,-0.005 0.810317,-0.33658 0.837612,-0.77527 0.02861,-0.45972 -0.32709,-0.8531 -0.797538,-0.88203 z" style="fill:#445016;stroke:none;stroke-width:.88957715;stroke-linecap:round;stroke-miterlimit:4;stroke-dasharray:none;stroke-opacity:1"/><path style="fill:#efa;stroke:none;stroke-width:.88957715;stroke-linecap:round;stroke-miterlimit:4;stroke-dasharray:none;stroke-opacity:1" id="path996" d="m 39.015503,184.68554 c -0.470445,-0.0289 -0.872198,0.31787 -0.900804,0.77759 -0.02861,0.45972 0.358349,0.71398 0.79754,0.88204 l 1.644992,0.62946 c 3.244491,1.24151 12.453946,-0.91985 17.926464,1.40504 6.227882,2.64579 2.182484,13.58649 8.153475,6.55049 1.78954,0.28961 1.758185,1.67187 1.889429,-0.43747 0.103941,-1.67047 1.2701,-4.8574 0.09539,-6.32672 0.442313,-0.005 0.810317,-0.33658 0.837612,-0.77527 0.02861,-0.45972 -0.32709,-0.8531 -0.797538,-0.88203 z"/></g><g id="g992"><path style="fill:#445016;stroke:none;stroke-width:.88957715;stroke-linecap:round;stroke-miterlimit:4;stroke-dasharray:none;stroke-opacity:1" id="path956" d="m 39.015503,184.68554 c -0.470445,-0.0289 -0.872198,0.31787 -0.900804,0.77759 -0.02861,0.45972 0.358349,0.71398 0.79754,0.88204 l 1.644992,0.62946 c 3.244491,1.24151 4.330178,7.60965 7.959,9.16279 4.507702,1.92931 23.12323,0.27747 23.12323,0.27747 0,0 -0.131245,-0.007 0,-2.11666 0.10394,-1.67047 -2.179859,-6.90753 -3.017471,-6.13226 0.442313,-0.005 0.810317,-0.33658 0.837612,-0.77527 0.02861,-0.45972 -0.32709,-0.8531 -0.797538,-0.88203 z"/><path id="path958" d="m 39.015503,184.68554 c -0.470445,-0.0289 -0.872198,0.31787 -0.900804,0.77759 -0.02861,0.45972 0.358349,0.71398 0.79754,0.88204 l 1.644992,0.62946 c 3.244491,1.24151 12.453946,-0.91985 17.926464,1.40504 6.227882,2.64579 2.182484,13.58649 8.153475,6.55049 1.78954,0.28961 1.758185,1.67187 1.889429,-0.43747 0.103941,-1.67047 1.2701,-4.8574 0.09539,-6.32672 0.442313,-0.005 0.810317,-0.33658 0.837612,-0.77527 0.02861,-0.45972 -0.32709,-0.8531 -0.797538,-0.88203 z" style="fill:#efa;stroke:none;stroke-width:.88957715;stroke-linecap:round;stroke-miterlimit:4;stroke-dasharray:none;stroke-opacity:1"/></g><path style="fill:#6f0;stroke:none;stroke-width:1.0404774;stroke-linecap:round;stroke-miterlimit:4;stroke-dasharray:none;stroke-opacity:1" id="path861" d="m 89.690593,192.57475 c -2e-6,2.57285 0.960124,5.6732 -1.64705,7.35926 -2.607175,1.68606 -7.495302,1.70082 -11.473716,1.70082 -6.811368,0 -8.737905,-0.27178 -11.34508,-1.95784 -2.607175,-1.68606 -1.647048,-4.40088 -1.64705,-6.97373 -2e-6,-2.57285 0.06895,-5.15915 2.676124,-6.84522 2.607175,-1.68606 6.466224,-2.21488 10.444641,-2.21488 3.978417,0 8.094736,0.78584 10.701911,2.4719 2.607175,1.68607 2.290222,3.88684 2.29022,6.45969 z"/><path style="fill:none;stroke:#000;stroke-width:1.06373072;stroke-linecap:round;stroke-miterlimit:4;stroke-dasharray:none;stroke-opacity:1" id="path12" d="m 74.598185,193.83429 a 1.9938416,1.734911 0 0 1 1.959308,-1.41341 1.9938416,1.734911 0 0 1 1.959292,1.41334"/><path style="fill:none;stroke:#000;stroke-width:1.06373072;stroke-linecap:round;stroke-miterlimit:4;stroke-dasharray:none;stroke-opacity:1" id="path834" d="m 72.939188,197.68903 a 4.6951753,1.9919349 0 0 1 4.261477,-1.15577 4.6951753,1.9919349 0 0 1 4.261655,1.15593"/><g id="g890" transform="matrix(0.99997386,0,0,1.0046194,0.4459355,-2.4989382)"><ellipse id="path830" cx="68.252" cy="193.023" rx="3.069" ry="3.069" style="fill:#000;stroke:#000;stroke-width:1.26967835;stroke-linecap:round;stroke-miterlimit:4;stroke-dasharray:none;stroke-opacity:1"/><circle id="path844" cx="66.161" cy="192.974" r=".402" style="fill:#fff;stroke:none;stroke-width:.78371131;stroke-linecap:round;stroke-miterlimit:4;stroke-dasharray:none;stroke-opacity:1"/><circle style="fill:#fff;stroke:none;stroke-width:1.53206599;stroke-linecap:round;stroke-miterlimit:4;stroke-dasharray:none;stroke-opacity:1" id="circle846" cx="66.673" cy="191.439" r=".786"/><path id="rect868" d="m 243.95898,207.01758 a 14,14 0 0 0 14,14 14,14 0 0 0 14,-14 z" transform="matrix(0.26458333,0,0,0.26458333,0,138.24998)" style="fill:#bcd35f;stroke:none;stroke-width:2.46095419;stroke-linecap:round;stroke-miterlimit:4;stroke-dasharray:none;stroke-opacity:1"/><path style="fill:#bcd35f;stroke:none;stroke-width:.65112746;stroke-linecap:round;stroke-miterlimit:4;stroke-dasharray:none;stroke-opacity:1" id="path883" d="m 71.955809,193.02338 a 3.7041666,3.7041666 0 0 0 -3.70417,-3.70417 3.7041666,3.7041666 0 0 0 -3.70416,3.70417 z"/></g><path style="fill:#f60;stroke:none;stroke-width:3.99999976;stroke-linecap:round;stroke-miterlimit:4;stroke-dasharray:none;stroke-opacity:1" id="path1029" d="m 289.47266,233.86719 -11.39844,2.6582 c -0.70601,0.16461 -1.34619,0.46373 -1.89649,0.86328 -0.55029,0.39955 -1.01195,0.90065 -1.36523,1.46875 -0.35328,0.5681 -0.59791,1.20279 -0.71289,1.87305 -0.11498,0.67025 -0.10015,1.37602 0.0645,2.08203 l 3.32032,14.23828 11.98828,2.79492 11.98828,-2.79492 3.32031,-14.23828 c 0.65842,-2.82405 -1.08415,-5.62869 -3.9082,-6.28711 z" transform="matrix(0.26458333,0,0,0.26458333,0,138.24998)"/><path style="fill:#d38d5f;stroke:none;stroke-width:3.99999976;stroke-linecap:round;stroke-miterlimit:4;stroke-dasharray:none;stroke-opacity:1" id="rect1000" d="m 237.73633,222.22656 c -2.01077,0.34495 -3.71127,1.85658 -4.20508,3.97461 l -3.36719,14.44141 c -0.65842,2.82405 1.08611,5.62869 3.91016,6.28711 l 43.41016,10.12109 -3.32032,-14.23828 c -0.1646,-0.70601 -0.17943,-1.41178 -0.0645,-2.08203 0.11498,-0.67026 0.35961,-1.30495 0.71289,-1.87305 0.35328,-0.5681 0.81494,-1.0692 1.36523,-1.46875 0.5503,-0.39955 1.19048,-0.69867 1.89649,-0.86328 l 11.39844,-2.6582 -49.6543,-11.57617 c -0.70601,-0.16461 -1.41178,-0.17944 -2.08203,-0.0645 z" transform="matrix(0.26458333,0,0,0.26458333,0,138.24998)"/><rect id="rect1002" width="19.357" height="6.694" x="-44.024" y="212.291" ry="1.385" transform="matrix(-0.97388129,0.22705777,0.22705777,0.97388129,0,0)" style="fill:#c87137;stroke:none;stroke-width:1.05833328;stroke-linecap:round;stroke-miterlimit:4;stroke-dasharray:none;stroke-opacity:1"/><g id="g1256" transform="matrix(0.99997386,0,0,1.0046194,16.32094,-2.4989382)"><ellipse style="fill:#000;stroke:#000;stroke-width:1.26967835;stroke-linecap:round;stroke-miterlimit:4;stroke-dasharray:none;stroke-opacity:1" id="ellipse1246" cx="68.252" cy="193.023" rx="3.069" ry="3.069"/><circle style="fill:#fff;stroke:none;stroke-width:.78371131;stroke-linecap:round;stroke-miterlimit:4;stroke-dasharray:none;stroke-opacity:1" id="circle1248" cx="66.161" cy="192.974" r=".402"/><circle id="circle1250" cx="66.673" cy="191.439" r=".786" style="fill:#fff;stroke:none;stroke-width:1.53206599;stroke-linecap:round;stroke-miterlimit:4;stroke-dasharray:none;stroke-opacity:1"/><path style="fill:#bcd35f;stroke:none;stroke-width:2.46095419;stroke-linecap:round;stroke-miterlimit:4;stroke-dasharray:none;stroke-opacity:1" id="path1252" d="m 243.95898,207.01758 a 14,14 0 0 0 14,14 14,14 0 0 0 14,-14 z" transform="matrix(0.26458333,0,0,0.26458333,0,138.24998)"/><path id="path1254" d="m 71.955809,193.02338 a 3.7041666,3.7041666 0 0 0 -3.70417,-3.70417 3.7041666,3.7041666 0 0 0 -3.70416,3.70417 z" style="fill:#bcd35f;stroke:none;stroke-width:.65112746;stroke-linecap:round;stroke-miterlimit:4;stroke-dasharray:none;stroke-opacity:1"/></g><g id="g1346"><path style="fill:none;stroke:#000;stroke-width:.26458332;stroke-linecap:round;stroke-linejoin:miter;stroke-miterlimit:4;stroke-dasharray:none;stroke-opacity:1;filter:url(#filter1340)" id="path1330" d="m 67.885597,210.20953 c 0,0 -1.154458,2.80579 0.317184,4.63883 1.800822,2.24306 4.055546,4.84784 4.115056,6.3513 0.108651,2.74497 -2.261348,5.74382 -2.261348,5.74382"/><path id="path1350" d="m 67.885597,210.20953 c 0,0 -1.154458,2.80579 0.317184,4.63883 1.800822,2.24306 4.055546,4.84784 4.115056,6.3513 0.108651,2.74497 -2.261348,5.74382 -2.261348,5.74382" style="fill:none;stroke:#000;stroke-width:.26458332;stroke-linecap:round;stroke-linejoin:miter;stroke-miterlimit:4;stroke-dasharray:none;stroke-opacity:1"/></g><path id="path1360" d="m 67.614235,219.70718 c 0,0 0.59105,1.70275 -0.72363,3.88951 -0.209008,0.34766 -1.673396,2.48749 -1.673396,2.48749" style="fill:none;stroke:#000;stroke-width:.26458332px;stroke-linecap:butt;stroke-linejoin:miter;stroke-opacity:1;filter:url(#filter1524)"/><path style="fill:none;stroke:#000;stroke-width:.26458332px;stroke-linecap:round;stroke-linejoin:miter;stroke-opacity:1" id="path1348" d="m 67.614235,219.70718 c 0,0 0.59105,1.70275 -0.72363,3.88951 -0.209008,0.34766 -1.673396,2.48749 -1.673396,2.48749"/><path id="path1490" d="m 84.393422,214.8679 c 0,0 -0.23542,5.30396 0.452269,7.82426 0.468563,1.71723 2.442252,4.74882 2.442252,4.74882" style="fill:none;stroke:#000;stroke-width:.26458332px;stroke-linecap:round;stroke-linejoin:miter;stroke-opacity:1;filter:url(#filter1528)"/><path style="fill:none;stroke:#000;stroke-width:.26458332;stroke-linecap:round;stroke-linejoin:miter;stroke-miterlimit:4;stroke-dasharray:none;stroke-opacity:1" id="path1488" d="m 84.393422,214.8679 c 0,0 -0.23542,5.30396 0.452269,7.82426 0.468563,1.71723 2.442252,4.74882 2.442252,4.74882"/><path style="fill:none;stroke:#000;stroke-width:.26458332px;stroke-linecap:round;stroke-linejoin:round;stroke-opacity:1" id="path1506" d="m 76.670453,190.61776 c 0,0 0.02137,-0.82564 -0.02807,-1.23415 -0.04018,-0.33197 -0.217118,-0.97939 -0.217118,-0.97939"/><path style="fill:none;stroke:#000;stroke-width:.26458332px;stroke-linecap:butt;stroke-linejoin:miter;stroke-opacity:1" id="path1532" d="m 74.081684,184.43019 -0.361815,-0.94977"/><path style="fill:none;stroke:#000;stroke-width:.26458332px;stroke-linecap:butt;stroke-linejoin:miter;stroke-opacity:1" id="path1534" d="m 76.523939,184.47542 0.316587,-0.94977"/><path style="fill:none;stroke:#000;stroke-width:.26458332px;stroke-linecap:butt;stroke-linejoin:miter;stroke-opacity:1" id="path1536" d="M 79.011419,184.43019 78.649604,183.4352"/><path style="fill:none;stroke:#000;stroke-width:.26458332px;stroke-linecap:butt;stroke-linejoin:miter;stroke-opacity:1" id="path1538" d="M 77.699837,183.84224 77.83552,182.9377"/><path style="fill:none;stroke:#000;stroke-width:.26458332px;stroke-linecap:butt;stroke-linejoin:miter;stroke-opacity:1" id="path1540" d="m 75.438491,183.93269 -0.452268,-0.85931"/><path style="fill:none;stroke:#eee;stroke-width:.26458332px;stroke-linecap:round;stroke-linejoin:miter;stroke-opacity:.73303169" id="path1542" d="m 73.629415,186.69153 c 0,0 1.857321,-0.4459 2.804068,-0.45226 0.929549,-0.006 2.758844,0.40704 2.758844,0.40704"/><path style="fill:#784421;stroke:none;stroke-width:3.99999976;stroke-linecap:round;stroke-miterlimit:4;stroke-dasharray:none;stroke-opacity:1" id="rect1544" d="m 340.18164,222.1543 c -0.34822,0.01 -0.69973,0.0544 -1.05273,0.13672 l -8.09961,1.88867 -0.1875,26.02148 14.03125,-3.27148 c 2.82405,-0.65842 4.56662,-3.46306 3.9082,-6.28711 l -3.36719,-14.44336 c -0.57611,-2.47104 -2.7949,-4.1137 -5.23242,-4.04492 z" transform="matrix(0.26458333,0,0,0.26458333,0,138.24998)"/><path style="fill:#c87137;stroke:none;stroke-width:3.99999976;stroke-linecap:round;stroke-miterlimit:4;stroke-dasharray:none;stroke-opacity:1" id="path1555" d="m 238.76367,222.1543 c -0.34847,-0.01 -0.69222,0.0148 -1.02734,0.0723 -2.01077,0.34495 -3.71127,1.85658 -4.20508,3.97461 l -3.36719,14.44141 c -0.65842,2.82405 1.08611,5.62869 3.91016,6.28711 l 16.93555,3.94922 c -0.0874,-0.92396 -0.14922,-1.8612 -0.15821,-2.80664 l -0.2207,-23.25977 -10.8125,-2.52148 c -0.35301,-0.0823 -0.70621,-0.12681 -1.05469,-0.13672 z" transform="matrix(0.26458333,0,0,0.26458333,0,138.24998)"/><path style="fill:#784421;stroke:none;stroke-width:3.99999976;stroke-linecap:round;stroke-miterlimit:4;stroke-dasharray:none;stroke-opacity:1" id="path1550" d="m 238.76367,222.1543 c -0.34847,-0.01 -0.69222,0.0148 -1.02734,0.0723 -2.01077,0.34495 -3.71127,1.85658 -4.20508,3.97461 l -3.36719,14.44141 c -0.65842,2.82405 1.08611,5.62869 3.91016,6.28711 l 10.24414,2.38867 0.74219,-24.42969 c 0.0142,-0.46708 0.052,-0.91393 0.0976,-1.35351 l -5.33984,-1.24414 c -0.35301,-0.0823 -0.70621,-0.12681 -1.05469,-0.13672 z" transform="matrix(0.26458333,0,0,0.26458333,0,138.24998)"/></g></g><path style="fill:none;stroke:#000;stroke-width:1.05833327;stroke-linecap:square;stroke-linejoin:round;stroke-opacity:1;stroke-miterlimit:4;stroke-dasharray:1.05833327,3.17499981;stroke-dashoffset:0" id="path1624" d="m 23.879811,185.37995 c 3.826783,-2.81159 10.26104,-0.93403 13.568074,-4.34179 4.107242,-4.23234 0.07431,-13.59297 4.884507,-17.00532 6.896942,-4.89268 18.831668,-3.96715 25.32707,1.44726 4.909501,4.09244 4.733213,12.24546 4.522692,18.63349 -0.212331,6.44295 -7.607876,12.26803 -5.789046,18.45258 1.594606,5.42212 11.302075,5.47185 13.025353,10.85446 1.957841,6.11526 -0.0571,14.39962 -4.884507,18.63349 -4.706678,4.12799 -12.536998,3.77514 -18.633488,2.3518 -4.364926,-1.01908 -6.956443,-6.0226 -11.216274,-7.41721 -5.909825,-1.93479 -13.382534,2.42666 -18.63349,-0.90454 -4.555865,-2.89024 -7.876742,-8.9036 -7.598121,-14.29171 0.217654,-4.20909 6.715126,-6.29169 7.055398,-10.49264 0.326769,-4.03425 -5.435002,-7.00481 -5.065414,-11.03537 0.181796,-1.98258 1.832834,-3.70572 3.437246,-4.8845 z"/><g id="g2130"><rect id="rect2001" width="1.833" height="1.191" x="49.723" y="278.046" ry="0" style="fill:#999;stroke:none;stroke-width:.67537403;stroke-linecap:square;stroke-linejoin:round;stroke-miterlimit:4;stroke-dasharray:.67537397,2.02612191;stroke-dashoffset:0;stroke-opacity:.73303169"/><rect style="fill:#e6e6e6;stroke:none;stroke-width:1.07971251;stroke-linecap:square;stroke-linejoin:round;stroke-miterlimit:4;stroke-dasharray:1.07971245,3.23913740000000017;stroke-dashoffset:0;stroke-opacity:.73303169" id="rect1918" width="15.694" height="2.646" x="35.051" y="278.253" ry="0"/><g id="g2026" transform="translate(0.06396052,8.4835204e-6)"><rect style="fill:#91ff82;fill-opacity:1;stroke:none;stroke-width:1.39012659;stroke-linecap:square;stroke-linejoin:round;stroke-miterlimit:4;stroke-dasharray:1.39012647,4.17037948;stroke-dashoffset:0;stroke-opacity:.73303169;filter:url(#filter2015)" id="rect2005" width="26.015" height="2.646" x="-76.759" y="277.989" ry="1.323" transform="matrix(-1.0086119,0,0,0.99791237,-0.39790294,0.84767963)"/><rect id="rect2003" width="26.015" height="2.117" x="-76.759" y="278.518" ry="1.058" transform="scale(-1,1)" style="fill:#d8ffd3;fill-opacity:1;stroke:none;stroke-width:1.24336696;stroke-linecap:square;stroke-linejoin:round;stroke-miterlimit:4;stroke-dasharray:1.24336688,3.73010071;stroke-dashoffset:0;stroke-opacity:.73303169"/><rect style="fill:#f5fff3;fill-opacity:1;stroke:none;stroke-width:1.0695169;stroke-linecap:square;stroke-linejoin:round;stroke-miterlimit:4;stroke-dasharray:1.06951686,3.20855064;stroke-dashoffset:0;stroke-opacity:.73303169" id="rect2021" width="25.665" height="1.587" x="-76.272" y="278.783" ry=".794" transform="scale(-1,1)"/></g><rect id="rect1908" width="9.923" height="2.646" x="40.822" y="278.253" ry="0" style="fill:#000;stroke:none;stroke-width:.85853833;stroke-linecap:square;stroke-linejoin:round;stroke-miterlimit:4;stroke-dasharray:.85853832,2.57561501;stroke-dashoffset:0;stroke-opacity:.73303169"/><rect id="rect1910" width="5.821" height="3.969" x="35.77" y="277.592" style="fill:#b3b3b3;stroke:none;stroke-width:.55887926;stroke-linecap:square;stroke-linejoin:round;stroke-miterlimit:4;stroke-dasharray:.55887929,1.6766378500000001;stroke-dashoffset:0;stroke-opacity:.73303169"/><rect style="fill:#000;stroke:none;stroke-width:.22607778;stroke-linecap:square;stroke-linejoin:round;stroke-miterlimit:4;stroke-dasharray:.2260778,.67823341;stroke-dashoffset:0;stroke-opacity:.73303169" id="rect1912" width="4.762" height=".794" x="36.299" y="280.767"/><rect id="rect1914" width="4.762" height=".794" x="36.299" y="277.592" style="fill:#000;stroke:none;stroke-width:.22607778;stroke-linecap:square;stroke-linejoin:round;stroke-miterlimit:4;stroke-dasharray:.2260778,.67823341;stroke-dashoffset:0;stroke-opacity:.73303169"/><rect style="fill:#000;stroke:none;stroke-width:.22607778;stroke-linecap:square;stroke-linejoin:round;stroke-miterlimit:4;stroke-dasharray:.2260778,.67823341;stroke-dashoffset:0;stroke-opacity:.73303169" id="rect1916" width="4.762" height=".794" x="36.299" y="279.179"/><rect style="fill:#333;stroke:none;stroke-width:.45339102;stroke-linecap:square;stroke-linejoin:round;stroke-miterlimit:4;stroke-dasharray:.45339106,1.36017317;stroke-dashoffset:0;stroke-opacity:.73303169" id="rect1929" width="3.831" height="3.969" x="42.12" y="277.592"/><rect id="rect1993" width="3.747" height="3.696" x="46.204" y="277.728" style="fill:#ccc;stroke:none;stroke-width:.43275872;stroke-linecap:square;stroke-linejoin:round;stroke-miterlimit:4;stroke-dasharray:.43275878,1.29827634;stroke-dashoffset:0;stroke-opacity:.73303169"/><rect style="fill:#000;stroke:none;stroke-width:.29167277;stroke-linecap:square;stroke-linejoin:round;stroke-miterlimit:4;stroke-dasharray:.29167277,.87501833;stroke-dashoffset:0;stroke-opacity:.73303169" id="rect1995" width=".954" height="3.175" x="-51.699" y="277.989" ry=".342" transform="scale(-1,1)"/><rect id="rect1997" width=".837" height=".362" x="48.23" y="277.362" style="fill:red;stroke:none;stroke-width:1.05833328;stroke-linecap:square;stroke-linejoin:round;stroke-miterlimit:4;stroke-dasharray:1.05833326,3.17499977;stroke-dashoffset:0;stroke-opacity:.73303169"/><rect id="rect1999" width="1.799" height="1.582" x="50.553" y="277.317" ry=".32" style="fill:#999;stroke:none;stroke-width:1.05833328;stroke-linecap:square;stroke-linejoin:round;stroke-miterlimit:4;stroke-dasharray:1.05833326,3.17499976999999989;stroke-dashoffset:0;stroke-opacity:.73303169"/></g></g></svg>