<svg xmlns="http://www.w3.org/2000/svg" xmlns:svg="http://www.w3.org/2000/svg" id="svg8" width="500" height="150" version="1.1" viewBox="0 0 132.292 39.688"><defs id="defs2"><marker style="overflow:visible" id="Arrow1Lend" orient="auto" refX="0" refY="0"><path style="fill:#000;fill-opacity:1;fill-rule:evenodd;stroke:#000;stroke-width:1.00000003pt;stroke-opacity:1" id="path923" d="M 0,0 5,-5 -12.5,0 5,5 Z" transform="matrix(-0.8,0,0,-0.8,-10,0)"/></marker></defs><metadata id="metadata5"/><g id="layer1" transform="translate(24.997992,-260.96617)"><g id="g1304" transform="translate(2.1779461)"><circle style="fill:#000;fill-opacity:1;stroke:none;stroke-width:1.91377676;stroke-linecap:round;stroke-linejoin:round;stroke-miterlimit:4;stroke-dasharray:none;stroke-opacity:1" id="path823" cx="17.057" cy="282.254" r="5.658"/><circle id="circle848" cx="39.688" cy="282.322" r="5.658" style="fill:#000;fill-opacity:1;stroke:none;stroke-width:1.91377676;stroke-linecap:round;stroke-linejoin:round;stroke-miterlimit:4;stroke-dasharray:none;stroke-opacity:1"/><circle id="circle850" cx="28.372" cy="282.254" r="5.658" style="fill:#000;fill-opacity:1;stroke:none;stroke-width:1.91377676;stroke-linecap:round;stroke-linejoin:round;stroke-miterlimit:4;stroke-dasharray:none;stroke-opacity:1"/><circle style="fill:#000;fill-opacity:1;stroke:none;stroke-width:1.91377676;stroke-linecap:round;stroke-linejoin:round;stroke-miterlimit:4;stroke-dasharray:none;stroke-opacity:1" id="circle852" cx="51.003" cy="282.322" r="5.658"/><circle id="circle854" cx="62.318" cy="282.254" r="5.658" style="fill:#000;fill-opacity:1;stroke:none;stroke-width:1.91377676;stroke-linecap:round;stroke-linejoin:round;stroke-miterlimit:4;stroke-dasharray:none;stroke-opacity:1"/><g id="g885" transform="translate(23.451656,38.795044)"><circle id="circle856" cx="38.867" cy="243.459" r="5.658" style="fill:#fc0;fill-opacity:1;stroke:none;stroke-width:1.91377676;stroke-linecap:round;stroke-linejoin:round;stroke-miterlimit:4;stroke-dasharray:none;stroke-opacity:1"/><rect id="rect858" width="1.7" height="6.734" x="38.016" y="240.092" ry=".85" style="fill:red;fill-opacity:1;stroke:none;stroke-width:2.64583325;stroke-linecap:round;stroke-linejoin:round;stroke-miterlimit:4;stroke-dasharray:none;stroke-opacity:1"/><rect style="fill:red;fill-opacity:1;stroke:none;stroke-width:2.64583325;stroke-linecap:round;stroke-linejoin:round;stroke-miterlimit:4;stroke-dasharray:none;stroke-opacity:1" id="rect860" width="1.7" height="6.734" x="38.016" y="240.092" ry=".85"/><rect id="rect862" width="1.7" height="6.734" x="38.016" y="240.092" ry=".85" style="fill:red;fill-opacity:1;stroke:none;stroke-width:2.64583325;stroke-linecap:round;stroke-linejoin:round;stroke-miterlimit:4;stroke-dasharray:none;stroke-opacity:1"/><rect style="fill:red;fill-opacity:1;stroke:none;stroke-width:2.64583325;stroke-linecap:round;stroke-linejoin:round;stroke-miterlimit:4;stroke-dasharray:none;stroke-opacity:1" id="rect864" width="1.7" height="6.734" x="38.016" y="240.092" ry=".85"/><rect id="rect866" width="1.7" height="6.734" x="38.016" y="240.092" ry=".85" style="fill:red;fill-opacity:1;stroke:none;stroke-width:2.64583325;stroke-linecap:round;stroke-linejoin:round;stroke-miterlimit:4;stroke-dasharray:none;stroke-opacity:1"/><rect style="fill:red;fill-opacity:1;stroke:none;stroke-width:2.64583325;stroke-linecap:round;stroke-linejoin:round;stroke-miterlimit:4;stroke-dasharray:none;stroke-opacity:1" id="rect868" width="1.7" height="6.734" x="38.016" y="240.092" ry=".85"/><rect id="rect870" width="1.7" height="6.734" x="38.016" y="240.092" ry=".85" style="fill:red;fill-opacity:1;stroke:none;stroke-width:2.64583325;stroke-linecap:round;stroke-linejoin:round;stroke-miterlimit:4;stroke-dasharray:none;stroke-opacity:1"/><rect id="rect874" width="1.7" height="6.734" x="38.016" y="240.092" ry=".85" style="fill:red;fill-opacity:1;stroke:none;stroke-width:2.64583325;stroke-linecap:round;stroke-linejoin:round;stroke-miterlimit:4;stroke-dasharray:none;stroke-opacity:1"/></g><g id="g1217" transform="translate(-40.401672,36.252686)"><circle id="circle889" cx="57.458" cy="246.001" r="5.658" style="fill:#0ff;fill-opacity:1;stroke:none;stroke-width:1.91377676;stroke-linecap:round;stroke-linejoin:round;stroke-miterlimit:4;stroke-dasharray:none;stroke-opacity:1"/><path id="circle891" d="m 201.74219,90.494141 a 21.897552,21.897552 0 0 0 -21.83203,20.566409 13.157192,13.157192 0 0 0 -3.10352,-0.38672 13.157192,13.157192 0 0 0 -13.1582,13.15625 13.157192,13.157192 0 0 0 13.1582,13.1582 h 63.62305 a 12.00038,12.00038 0 0 0 12.00195,-12.00195 12.00038,12.00038 0 0 0 -11.84375,-11.99219 14.956678,14.956678 0 0 0 0.0176,-0.3457 14.956678,14.956678 0 0 0 -14.95703,-14.957034 14.956678,14.956678 0 0 0 -6.46875,1.486328 21.897552,21.897552 0 0 0 -17.4375,-8.683593 z" transform="matrix(0.26458333,0,0,0.26458333,0,217.62498)" style="fill:#df5;fill-opacity:1;stroke:none;stroke-width:4.05925894;stroke-linecap:round;stroke-linejoin:round;stroke-miterlimit:4;stroke-dasharray:none;stroke-opacity:1"/><path id="path1417" d="m 50.764078,262.88412 c 0,-11.73512 0,-11.9756 0,-11.9756 z" style="fill:none;stroke:#000;stroke-width:.26458332;stroke-linecap:round;stroke-linejoin:miter;stroke-miterlimit:4;stroke-dasharray:1.05833327,1.05833327;stroke-dashoffset:0;stroke-opacity:1"/><path style="fill:none;stroke:#000;stroke-width:.26458332;stroke-linecap:round;stroke-linejoin:miter;stroke-miterlimit:4;stroke-dasharray:1.05833327,1.05833327;stroke-dashoffset:0;stroke-opacity:1" id="path1419" d="m 52.964412,262.88412 c 0,-11.73512 0,-11.9756 0,-11.9756 z"/><path id="path1421" d="m 59.565422,262.88412 c 0,-11.73512 0,-11.9756 0,-11.9756 z" style="fill:none;stroke:#000;stroke-width:.26458332;stroke-linecap:round;stroke-linejoin:miter;stroke-miterlimit:4;stroke-dasharray:1.05833327,1.05833327;stroke-dashoffset:0;stroke-opacity:1"/><path style="fill:none;stroke:#000;stroke-width:.26458332;stroke-linecap:round;stroke-linejoin:miter;stroke-miterlimit:4;stroke-dasharray:1.05833327,1.05833327;stroke-dashoffset:0;stroke-opacity:1" id="path1423" d="m 57.365087,262.88412 c 0,-11.73512 0,-11.9756 0,-11.9756 z"/><path id="path1425" d="m 55.16475,262.88412 c 0,-11.73512 0,-11.9756 0,-11.9756 z" style="fill:none;stroke:#000;stroke-width:.26458332;stroke-linecap:round;stroke-linejoin:miter;stroke-miterlimit:4;stroke-dasharray:1.05833327,1.05833327;stroke-dashoffset:0;stroke-opacity:1"/></g><circle id="circle1219" cx="87.826" cy="271.977" r="5.658" style="fill:#fc0;fill-opacity:1;stroke:none;stroke-width:1.91377676;stroke-linecap:round;stroke-linejoin:round;stroke-miterlimit:4;stroke-dasharray:none;stroke-opacity:1"/><rect id="rect1221" width="1.7" height="6.734" x="85.035" y="269.364" ry=".85" style="fill:red;fill-opacity:1;stroke:none;stroke-width:2.64583325;stroke-linecap:round;stroke-linejoin:round;stroke-miterlimit:4;stroke-dasharray:none;stroke-opacity:1"/><rect style="fill:red;fill-opacity:1;stroke:none;stroke-width:2.64583325;stroke-linecap:round;stroke-linejoin:round;stroke-miterlimit:4;stroke-dasharray:none;stroke-opacity:1" id="rect1223" width="1.7" height="6.734" x="85.035" y="269.364" ry=".85"/><rect id="rect1225" width="1.7" height="6.734" x="85.035" y="269.364" ry=".85" style="fill:red;fill-opacity:1;stroke:none;stroke-width:2.64583325;stroke-linecap:round;stroke-linejoin:round;stroke-miterlimit:4;stroke-dasharray:none;stroke-opacity:1"/><rect style="fill:red;fill-opacity:1;stroke:none;stroke-width:2.64583325;stroke-linecap:round;stroke-linejoin:round;stroke-miterlimit:4;stroke-dasharray:none;stroke-opacity:1" id="rect1227" width="1.7" height="6.734" x="85.035" y="269.364" ry=".85"/><rect id="rect1229" width="1.7" height="6.734" x="85.035" y="269.364" ry=".85" style="fill:red;fill-opacity:1;stroke:none;stroke-width:2.64583325;stroke-linecap:round;stroke-linejoin:round;stroke-miterlimit:4;stroke-dasharray:none;stroke-opacity:1"/><rect style="fill:red;fill-opacity:1;stroke:none;stroke-width:2.64583325;stroke-linecap:round;stroke-linejoin:round;stroke-miterlimit:4;stroke-dasharray:none;stroke-opacity:1" id="rect1231" width="1.7" height="6.734" x="85.035" y="269.364" ry=".85"/><rect id="rect1233" width="1.7" height="6.734" x="85.035" y="269.364" ry=".85" style="fill:red;fill-opacity:1;stroke:none;stroke-width:2.64583325;stroke-linecap:round;stroke-linejoin:round;stroke-miterlimit:4;stroke-dasharray:none;stroke-opacity:1"/><rect id="rect1235" width="1.7" height="6.734" x="270.753" y="-102.938" ry=".85" transform="rotate(90)" style="fill:red;fill-opacity:1;stroke:none;stroke-width:2.64583325;stroke-linecap:round;stroke-linejoin:round;stroke-miterlimit:4;stroke-dasharray:none;stroke-opacity:1"/><g id="g1262" transform="translate(-68.296641,24.325182)"><circle style="fill:#0ff;fill-opacity:1;stroke:none;stroke-width:1.91377676;stroke-linecap:round;stroke-linejoin:round;stroke-miterlimit:4;stroke-dasharray:none;stroke-opacity:1" id="circle1248" cx="57.458" cy="246.001" r="5.658"/><path style="fill:#df5;fill-opacity:1;stroke:none;stroke-width:4.05925894;stroke-linecap:round;stroke-linejoin:round;stroke-miterlimit:4;stroke-dasharray:none;stroke-opacity:1" id="path1250" d="m 201.74219,90.494141 a 21.897552,21.897552 0 0 0 -21.83203,20.566409 13.157192,13.157192 0 0 0 -3.10352,-0.38672 13.157192,13.157192 0 0 0 -13.1582,13.15625 13.157192,13.157192 0 0 0 13.1582,13.1582 h 63.62305 a 12.00038,12.00038 0 0 0 12.00195,-12.00195 12.00038,12.00038 0 0 0 -11.84375,-11.99219 14.956678,14.956678 0 0 0 0.0176,-0.3457 14.956678,14.956678 0 0 0 -14.95703,-14.957034 14.956678,14.956678 0 0 0 -6.46875,1.486328 21.897552,21.897552 0 0 0 -17.4375,-8.683593 z" transform="matrix(0.26458333,0,0,0.26458333,0,217.62498)"/><path style="fill:none;stroke:#000;stroke-width:.39687499;stroke-linecap:round;stroke-linejoin:miter;stroke-miterlimit:0;stroke-dasharray:1.190625,1.190625;stroke-dashoffset:0;stroke-opacity:1" id="path1252" d="M 45.209085,261.55413 49.87428,251.11756"/><path id="path1254" d="m 51.172838,261.55413 4.665195,-10.43657" style="fill:none;stroke:#000;stroke-width:.39687499;stroke-linecap:round;stroke-linejoin:miter;stroke-miterlimit:0;stroke-dasharray:1.190625,1.190625;stroke-dashoffset:0;stroke-opacity:1"/><path style="fill:none;stroke:#000;stroke-width:.39687499;stroke-linecap:round;stroke-linejoin:miter;stroke-miterlimit:0;stroke-dasharray:1.190625,1.190625;stroke-dashoffset:0;stroke-opacity:1" id="path1256" d="m 57.136589,261.55413 4.665195,-10.43657"/><path id="path1258" d="m 48.190961,261.55413 4.665195,-10.43657" style="fill:none;stroke:#000;stroke-width:.39687499;stroke-linecap:round;stroke-linejoin:miter;stroke-miterlimit:0;stroke-dasharray:1.190625,1.190625;stroke-dashoffset:0;stroke-opacity:1"/><path style="fill:none;stroke:#000;stroke-width:.39687499;stroke-linecap:round;stroke-linejoin:miter;stroke-miterlimit:0;stroke-dasharray:1.190625,1.190625;stroke-dashoffset:0;stroke-opacity:1" id="path1260" d="M 54.154715,261.55413 58.81991,251.11756"/></g></g></g></svg>