<svg xmlns="http://www.w3.org/2000/svg" xmlns:svg="http://www.w3.org/2000/svg" id="svg8" width="268.951" height="364.721" version="1.1" viewBox="0 0 71.16 96.499"><metadata id="metadata5"/><g id="layer1" transform="translate(-27.937649,-180.18925)"><path id="path1420" d="m -277.0738,232.73697 c -3.59886,0 -6.49624,2.89686 -6.49624,6.49572 v 98.13303 c 0,3.59886 2.89738,6.49624 6.49624,6.49624 h 28.17038 38.21213 6.49624 v -6.49624 -98.13303 -6.49572 h -6.49624 -38.21213 z" style="fill:none;fill-opacity:.90410958;fill-rule:nonzero;stroke:none;stroke-width:1.32291663;stroke-linecap:round;stroke-linejoin:round;stroke-miterlimit:4;stroke-dasharray:none;stroke-dashoffset:0;stroke-opacity:1"/><path style="fill:none;fill-opacity:.90410958;fill-rule:nonzero;stroke:none;stroke-width:1.32291663;stroke-linecap:round;stroke-linejoin:round;stroke-miterlimit:4;stroke-dasharray:none;stroke-dashoffset:0;stroke-opacity:1" id="path1291" d="m -127.21578,107.04011 c -3.59886,0 -6.49624,2.89686 -6.49624,6.49572 v 98.13303 c 0,3.59886 2.89738,6.49624 6.49624,6.49624 h 28.170382 38.212131 6.496246 v -6.49624 -98.13303 -6.49572 h -6.496246 -38.212131 z"/><g id="g1275" transform="translate(64.497439,-5.3370056)"><path id="path1024" d="M 14.132248,186.18776 2.9871908,200.17864 H -35.89829 v 74.68899 c 0,3.59887 2.89738,6.49624 6.49625,6.49624 H -1.2316702 33.938792 v -95.17611 z" style="fill:#fff;fill-opacity:.90410958;fill-rule:nonzero;stroke:#000;stroke-width:1.32299995;stroke-linecap:round;stroke-linejoin:round;stroke-miterlimit:4;stroke-dasharray:none;stroke-dashoffset:0;stroke-opacity:1"/><path id="path1254" d="m 54.634766,703.70117 -37.34375,46.87891 h -1.220704 l -4.779296,6 H -129.67773 v 276.28902 c 0,13.6021 10.9507,24.5528 24.55273,24.5528 H 1.3457031 128.27344 V 703.70117 Z" transform="scale(0.26458333)" style="fill:red;fill-opacity:.90410958;fill-rule:nonzero;stroke:none;stroke-width:5.00031471;stroke-linecap:round;stroke-linejoin:round;stroke-miterlimit:4;stroke-dasharray:none;stroke-dashoffset:0;stroke-opacity:1"/><path style="fill:none;fill-opacity:.90410958;fill-rule:nonzero;stroke:#000;stroke-width:1.32299995;stroke-linecap:round;stroke-linejoin:round;stroke-miterlimit:4;stroke-dasharray:none;stroke-dashoffset:0;stroke-opacity:1" id="path1259" d="M 14.132248,186.18776 2.9871908,200.17864 H -35.89829 v 74.68899 c 0,3.59887 2.89738,6.49624 6.49625,6.49624 H -1.2316702 33.938792 v -95.17611 z"/><path id="rect1261" d="m -30.805059,231.41634 9.260417,9.35491 -9.260417,9.35491 z" style="fill:#ff0;fill-opacity:.90410958;fill-rule:nonzero;stroke:#000;stroke-width:1.32299995;stroke-linecap:round;stroke-linejoin:round;stroke-miterlimit:4;stroke-dasharray:none;stroke-dashoffset:0;stroke-opacity:1"/><rect id="rect1268" width="32.317" height="2.646" x="-16.344" y="274.888" ry="1.323" style="fill:#4d4d4d;fill-opacity:.90410958;fill-rule:nonzero;stroke:#000;stroke-width:1.32299995;stroke-linecap:round;stroke-linejoin:round;stroke-miterlimit:4;stroke-dasharray:none;stroke-dashoffset:0;stroke-opacity:1"/></g></g></svg>