<svg xmlns="http://www.w3.org/2000/svg" xmlns:svg="http://www.w3.org/2000/svg" id="svg8" width="305.658" height="425" version="1.1" viewBox="0 0 80.872 112.448"><metadata id="metadata5"/><g id="layer1" transform="translate(148.57374,-96.514292)"><path id="path1420" d="m -277.0738,232.73697 c -3.59886,0 -6.49624,2.89686 -6.49624,6.49572 v 98.13303 c 0,3.59886 2.89738,6.49624 6.49624,6.49624 h 28.17038 38.21213 6.49624 v -6.49624 -98.13303 -6.49572 h -6.49624 -38.21213 z" style="fill:none;fill-opacity:.90410958;fill-rule:nonzero;stroke:none;stroke-width:1.32291663;stroke-linecap:round;stroke-linejoin:round;stroke-miterlimit:4;stroke-dasharray:none;stroke-dashoffset:0;stroke-opacity:1"/><path style="fill:none;fill-opacity:.90410958;fill-rule:nonzero;stroke:none;stroke-width:1.32291663;stroke-linecap:round;stroke-linejoin:round;stroke-miterlimit:4;stroke-dasharray:none;stroke-dashoffset:0;stroke-opacity:1" id="path1291" d="m -127.21578,107.04011 c -3.59886,0 -6.49624,2.89686 -6.49624,6.49572 v 98.13303 c 0,3.59886 2.89738,6.49624 6.49624,6.49624 h 28.170382 38.212131 6.496246 v -6.49624 -98.13303 -6.49572 h -6.496246 -38.212131 z"/><g id="g2025"><g id="g3792"><rect id="rect3511" width="80.698" height="112.448" x="-148.487" y="96.514" ry="0" style="fill:green;fill-opacity:.90410958;fill-rule:nonzero;stroke:#000;stroke-width:1.32291663;stroke-linecap:round;stroke-linejoin:round;stroke-miterlimit:4;stroke-dasharray:none;stroke-dashoffset:0;stroke-opacity:1"/><path style="fill:#500;fill-opacity:.90410958;fill-rule:nonzero;stroke:none;stroke-width:1.32291663;stroke-linecap:round;stroke-linejoin:round;stroke-miterlimit:4;stroke-dasharray:none;stroke-dashoffset:0;stroke-opacity:1" id="path1004" d="m -97.794929,101.03219 -11.145061,0.17415 h -4.30568 -28.17037 c -3.59886,0 -6.49624,2.89686 -6.49624,6.49572 v 23.2699 h 38.97229 l 11.145061,-13.99088 h 29.431789 v -12.46849 -3.4804 h -6.573759 z"/><path style="fill:#500;fill-opacity:.90410958;fill-rule:nonzero;stroke:none;stroke-width:1.32291663;stroke-linecap:round;stroke-linejoin:round;stroke-miterlimit:4;stroke-dasharray:none;stroke-dashoffset:0;stroke-opacity:1" id="path1605" d="M -80.926977,97.175754 V 208.30075 h 5.58364 6.496243 v -6.49624 -98.13303 -6.495726 h -6.496243 z"/><g id="g3711" transform="matrix(0.99969362,0,0,1.005021,-31.365732,-0.61922219)"><path style="fill:#0ff;fill-opacity:.90410958;fill-rule:nonzero;stroke:#000;stroke-width:1.32291663;stroke-linecap:round;stroke-linejoin:round;stroke-miterlimit:4;stroke-dasharray:none;stroke-dashoffset:0;stroke-opacity:1" id="path1030" d="M -45.973584,97.308042 V 208.43304 h 3.041677 6.496243 v -6.49625 -98.13302 -6.495728 h -6.496243 z"/><g id="g1942" transform="translate(32.014579,0.132291)"><path style="fill:#fff;fill-opacity:.90410958;fill-rule:nonzero;stroke:none;stroke-width:.78877228;stroke-linecap:round;stroke-linejoin:round;stroke-miterlimit:4;stroke-dasharray:none;stroke-dashoffset:0;stroke-opacity:1" id="path1122" d="m -78.120456,97.17575 v 111.125 h 1.081313 2.309408 v -6.49625 -98.13302 -6.49573 h -2.309408 z"/><path style="fill:none;fill-opacity:.90410958;fill-rule:nonzero;stroke:#000;stroke-width:1.32291663;stroke-linecap:round;stroke-linejoin:round;stroke-miterlimit:4;stroke-dasharray:none;stroke-dashoffset:0;stroke-opacity:1" id="path1124" d="m -77.988165,97.17575 v 111.125 h 3.041677 6.496243 v -6.49625 -98.13302 -6.49573 h -6.496243 z"/><rect style="fill:none;fill-opacity:.90410958;fill-rule:nonzero;stroke:#000;stroke-width:1.30717587;stroke-linecap:round;stroke-linejoin:round;stroke-miterlimit:4;stroke-dasharray:none;stroke-dashoffset:0;stroke-opacity:1" id="rect1315" width="9.554" height="3.796" x="-77.996" y="189.462" ry="0"/><rect id="rect1317" width="9.554" height="3.796" x="-77.996" y="128.623" ry="0" style="fill:none;fill-opacity:.90410958;fill-rule:nonzero;stroke:#000;stroke-width:1.30717587;stroke-linecap:round;stroke-linejoin:round;stroke-miterlimit:4;stroke-dasharray:none;stroke-dashoffset:0;stroke-opacity:1"/></g></g><g id="g1900" transform="translate(0.96878989,-1.7692442)"><g id="g1826" transform="translate(-14.218739,-6.1739266)"><path style="fill:#ececec;fill-opacity:.90410958;fill-rule:nonzero;stroke:#000;stroke-width:1.74518812;stroke-linecap:round;stroke-linejoin:round;stroke-miterlimit:4;stroke-dasharray:none;stroke-dashoffset:0;stroke-opacity:1" id="rect1510" d="m -127.13807,141.85783 v 31.93293 l 6.03684,13.23537 h 49.903928 v -45.1683 z"/><rect style="fill:#000;fill-opacity:.90410958;fill-rule:nonzero;stroke:#000;stroke-width:1.10789788;stroke-linecap:round;stroke-linejoin:round;stroke-miterlimit:4;stroke-dasharray:none;stroke-dashoffset:0;stroke-opacity:1" id="rect1512" width="38.476" height="26.466" x="-118.406" y="148.034"/><circle style="fill:red;fill-opacity:.90410958;fill-rule:nonzero;stroke:#000;stroke-width:1.32299995;stroke-linecap:round;stroke-linejoin:round;stroke-miterlimit:4;stroke-dasharray:none;stroke-dashoffset:0;stroke-opacity:1" id="path1517" cx="-115.388" cy="180.487" r="2.91"/><path style="fill:none;stroke:#000;stroke-width:1.32291663;stroke-linecap:butt;stroke-linejoin:miter;stroke-miterlimit:4;stroke-dasharray:none;stroke-opacity:1" id="path1519" d="m -87.61697,178.10578 h 7.408333"/><path id="path1521" d="m -87.61697,180.75163 h 7.408333" style="fill:none;stroke:#000;stroke-width:1.32291663;stroke-linecap:butt;stroke-linejoin:miter;stroke-miterlimit:4;stroke-dasharray:none;stroke-opacity:1"/><path style="fill:none;stroke:#000;stroke-width:1.32291663;stroke-linecap:butt;stroke-linejoin:miter;stroke-miterlimit:4;stroke-dasharray:none;stroke-opacity:1" id="path1523" d="m -87.61697,183.39745 h 7.408333"/><circle style="fill:#b3b3b3;fill-opacity:.90410958;fill-rule:nonzero;stroke:none;stroke-width:1.32291663;stroke-linecap:round;stroke-linejoin:round;stroke-miterlimit:4;stroke-dasharray:none;stroke-dashoffset:0;stroke-opacity:1" id="path1525" cx="-104.459" cy="145.033" r=".794"/><circle id="circle1527" cx="-93.876" cy="145.033" r=".794" style="fill:#b3b3b3;fill-opacity:.90410958;fill-rule:nonzero;stroke:none;stroke-width:1.32291663;stroke-linecap:round;stroke-linejoin:round;stroke-miterlimit:4;stroke-dasharray:none;stroke-dashoffset:0;stroke-opacity:1"/><path style="fill:#fff;fill-opacity:.90410958;fill-rule:nonzero;stroke:none;stroke-width:1.33371365;stroke-linecap:round;stroke-linejoin:round;stroke-miterlimit:4;stroke-dasharray:none;stroke-dashoffset:0;stroke-opacity:1" id="rect1536" d="m -110.20009,148.03419 -8.2057,11.78119 v 6.01876 l 12.39718,-17.79995 z"/><path style="fill:#fff;fill-opacity:.90410958;fill-rule:nonzero;stroke:none;stroke-width:2.48140216;stroke-linecap:round;stroke-linejoin:round;stroke-miterlimit:4;stroke-dasharray:none;stroke-dashoffset:0;stroke-opacity:1" id="rect1538" d="m -104.07385,148.03419 -14.33194,20.57704 v 5.88853 h 10.40867 l 18.432981,-26.46557 z"/></g><g id="g1862" transform="translate(-14.218742,-8.4189901)"><g id="g1831"><circle id="path1552" cx="-121.264" cy="201.654" r="6.085" style="fill:#4d4d4d;fill-opacity:.90410958;fill-rule:nonzero;stroke:#000;stroke-width:1.32291663;stroke-linecap:round;stroke-linejoin:round;stroke-miterlimit:4;stroke-dasharray:none;stroke-dashoffset:0;stroke-opacity:1"/><path id="circle1554" d="m -121.26401,195.56824 a 6.0854166,6.0854166 0 0 0 -6.08542,6.08542 6.0854166,6.0854166 0 0 0 0.2837,1.81384 6.0491845,7.206412 0 0 0 4.70773,2.68408 6.0491845,7.206412 0 0 0 5.95312,-5.96657 6.0491845,7.206412 0 0 0 -1.5074,-3.60546 6.0854166,6.0854166 0 0 0 -3.35173,-1.01131 z" style="fill:#ccc;fill-opacity:.90410958;fill-rule:nonzero;stroke:none;stroke-width:1.43532467;stroke-linecap:round;stroke-linejoin:round;stroke-miterlimit:4;stroke-dasharray:none;stroke-dashoffset:0;stroke-opacity:1"/><circle style="fill:none;fill-opacity:.90410958;fill-rule:nonzero;stroke:#000;stroke-width:1.32291663;stroke-linecap:round;stroke-linejoin:round;stroke-miterlimit:4;stroke-dasharray:none;stroke-dashoffset:0;stroke-opacity:1" id="circle1564" cx="-121.264" cy="201.654" r="6.085"/></g><g id="g1585" transform="translate(51.719511,11.599498)"><rect id="rect1570" width="11.11" height="2.931" x="-162.61" y="181.807" ry="1.465" style="fill:red;fill-opacity:.90410958;fill-rule:nonzero;stroke:#000;stroke-width:1.32291663;stroke-linecap:round;stroke-linejoin:round;stroke-miterlimit:4;stroke-dasharray:none;stroke-dashoffset:0;stroke-opacity:1"/><rect style="fill:#782121;fill-opacity:.90410958;fill-rule:nonzero;stroke:none;stroke-width:.86286998;stroke-linecap:round;stroke-linejoin:round;stroke-miterlimit:4;stroke-dasharray:none;stroke-dashoffset:0;stroke-opacity:1" id="rect1578" width="11.11" height="1.247" x="-162.61" y="183.49" ry=".623"/><rect style="fill:none;fill-opacity:.90410958;fill-rule:nonzero;stroke:#000;stroke-width:1.32291663;stroke-linecap:round;stroke-linejoin:round;stroke-miterlimit:4;stroke-dasharray:none;stroke-dashoffset:0;stroke-opacity:1" id="rect1580" width="11.11" height="2.931" x="-162.61" y="181.807" ry="1.465"/></g><g id="g1593" transform="translate(67.594521,11.599498)"><rect style="fill:red;fill-opacity:.90410958;fill-rule:nonzero;stroke:#000;stroke-width:1.32291663;stroke-linecap:round;stroke-linejoin:round;stroke-miterlimit:4;stroke-dasharray:none;stroke-dashoffset:0;stroke-opacity:1" id="rect1587" width="11.11" height="2.931" x="-162.61" y="181.807" ry="1.465"/><rect id="rect1589" width="11.11" height="1.247" x="-162.61" y="183.49" ry=".623" style="fill:#782121;fill-opacity:.90410958;fill-rule:nonzero;stroke:none;stroke-width:.86286998;stroke-linecap:round;stroke-linejoin:round;stroke-miterlimit:4;stroke-dasharray:none;stroke-dashoffset:0;stroke-opacity:1"/><rect id="rect1591" width="11.11" height="2.931" x="-162.61" y="181.807" ry="1.465" style="fill:none;fill-opacity:.90410958;fill-rule:nonzero;stroke:#000;stroke-width:1.32291663;stroke-linecap:round;stroke-linejoin:round;stroke-miterlimit:4;stroke-dasharray:none;stroke-dashoffset:0;stroke-opacity:1"/></g><g id="g1632" transform="translate(9.5415222,-32.17925)"><path id="rect1599" d="m -89.560324,229.28093 c -0.535448,0 -0.966348,0.4309 -0.966348,0.96635 v 2.93626 h -2.93574 c -0.535448,0 -0.966864,0.4309 -0.966864,0.96634 v 3.28353 c 0,0.53544 0.431416,0.96634 0.966864,0.96634 h 2.93574 v 2.93626 c 0,0.53545 0.4309,0.96635 0.966348,0.96635 h 3.284038 c 0.535448,0 0.966348,-0.4309 0.966348,-0.96635 v -2.93626 h 2.93574 c 0.535448,0 0.966864,-0.4309 0.966864,-0.96634 v -3.28353 c 0,-0.53544 -0.431416,-0.96634 -0.966864,-0.96634 h -2.93574 v -2.93626 c 0,-0.53545 -0.4309,-0.96635 -0.966348,-0.96635 z" style="fill:gray;fill-opacity:.90410958;fill-rule:nonzero;stroke:#000;stroke-width:1.32291663;stroke-linecap:round;stroke-linejoin:round;stroke-miterlimit:4;stroke-dasharray:none;stroke-dashoffset:0;stroke-opacity:1"/><circle id="path1610" cx="-87.918" cy="235.792" r="1.323" style="fill:#333;fill-opacity:.90410958;fill-rule:nonzero;stroke:none;stroke-width:.71957177;stroke-linecap:round;stroke-linejoin:round;stroke-miterlimit:4;stroke-dasharray:none;stroke-dashoffset:0;stroke-opacity:1"/><path id="rect1612" d="m -342.14844,903.28906 v 8.84766 c 0,2.02375 1.62861,3.65234 3.65235,3.65234 h 12.41211 c 2.02374,0 3.65234,-1.62859 3.65234,-3.65234 v -8.84766 z" transform="scale(0.26458333)" style="fill:#333;fill-opacity:.90410958;fill-rule:nonzero;stroke:none;stroke-width:5.14941788;stroke-linecap:round;stroke-linejoin:round;stroke-miterlimit:4;stroke-dasharray:none;stroke-dashoffset:0;stroke-opacity:1"/><path style="fill:#333;fill-opacity:.90410958;fill-rule:nonzero;stroke:none;stroke-width:1.36245012;stroke-linecap:round;stroke-linejoin:round;stroke-miterlimit:4;stroke-dasharray:none;stroke-dashoffset:0;stroke-opacity:1" id="path1617" d="m -91.783444,233.18328 h -2.34095 c -0.53545,0 -0.96634,0.43091 -0.96634,0.96635 v 3.28404 c 0,0.53545 0.43089,0.96635 0.96634,0.96635 h 2.34095 z"/><path id="path1619" d="m -84.053176,238.40002 h 2.34095 c 0.53545,0 0.96635,-0.4309 0.96635,-0.96635 v -3.28404 c 0,-0.53545 -0.4309,-0.96635 -0.96635,-0.96635 h -2.34095 z" style="fill:#333;fill-opacity:.90410958;fill-rule:nonzero;stroke:none;stroke-width:1.36245012;stroke-linecap:round;stroke-linejoin:round;stroke-miterlimit:4;stroke-dasharray:none;stroke-dashoffset:0;stroke-opacity:1"/><path style="fill:#333;fill-opacity:.90410958;fill-rule:nonzero;stroke:none;stroke-width:1.36245012;stroke-linecap:round;stroke-linejoin:round;stroke-miterlimit:4;stroke-dasharray:none;stroke-dashoffset:0;stroke-opacity:1" id="path1621" d="m -85.309937,231.92676 v -2.34094 c 0,-0.53545 -0.430903,-0.96635 -0.966351,-0.96635 h -3.284037 c -0.535448,0 -0.966348,0.4309 -0.966348,0.96635 v 2.34094 z"/><path style="fill:none;fill-opacity:.90410958;fill-rule:nonzero;stroke:#000;stroke-width:1.32291663;stroke-linecap:round;stroke-linejoin:round;stroke-miterlimit:4;stroke-dasharray:none;stroke-dashoffset:0;stroke-opacity:1" id="path1623" d="m -89.560324,229.28093 c -0.535448,0 -0.966348,0.4309 -0.966348,0.96635 v 2.93626 h -2.93574 c -0.535448,0 -0.966864,0.4309 -0.966864,0.96634 v 3.28353 c 0,0.53544 0.431416,0.96634 0.966864,0.96634 h 2.93574 v 2.93626 c 0,0.53545 0.4309,0.96635 0.966348,0.96635 h 3.284038 c 0.535448,0 0.966348,-0.4309 0.966348,-0.96635 v -2.93626 h 2.93574 c 0.535448,0 0.966864,-0.4309 0.966864,-0.96634 v -3.28353 c 0,-0.53544 -0.431416,-0.96634 -0.966864,-0.96634 h -2.93574 v -2.93626 c 0,-0.53545 -0.4309,-0.96635 -0.966348,-0.96635 z"/></g><g id="g1836"><rect id="rect1568" width="22.296" height="9.743" x="-110.88" y="200.38" ry="1.817" style="fill:#cdde87;fill-opacity:.90410958;fill-rule:nonzero;stroke:#000;stroke-width:1.32291663;stroke-linecap:round;stroke-linejoin:round;stroke-miterlimit:4;stroke-dasharray:none;stroke-dashoffset:0;stroke-opacity:1"/><path id="path1637" d="m -99.731992,207.57164 a 11.038231,3.7417734 0 0 0 -10.211258,2.32544 c 0.26038,0.1438 0.55988,0.22583 0.87953,0.22583 h 18.662942 c 0.318831,0 0.618056,-0.0817 0.877982,-0.22479 a 11.038231,3.7417734 0 0 0 -10.209196,-2.32648 z" style="fill:#fff;fill-opacity:.90410958;fill-rule:nonzero;stroke:none;stroke-width:1.32291663;stroke-linecap:round;stroke-linejoin:round;stroke-miterlimit:4;stroke-dasharray:none;stroke-dashoffset:0;stroke-opacity:1"/><rect style="fill:none;fill-opacity:.90410958;fill-rule:nonzero;stroke:#000;stroke-width:1.32291663;stroke-linecap:round;stroke-linejoin:round;stroke-miterlimit:4;stroke-dasharray:none;stroke-dashoffset:0;stroke-opacity:1" id="rect1642" width="22.296" height="9.743" x="-110.88" y="200.38" ry="1.817"/></g></g></g><g id="g3703" transform="translate(129.64583,47.889583)"><path style="fill:#fff;fill-opacity:.90410958;fill-rule:nonzero;stroke:#000;stroke-width:1.33215272;stroke-linecap:round;stroke-linejoin:round;stroke-miterlimit:4;stroke-dasharray:none;stroke-dashoffset:0;stroke-opacity:1" id="path3630" d="m -278.12788,48.629333 v 6.667814 23.26273 h 39.53057 l 11.30471,-13.98656 h 29.8534 v -12.46465 -3.479334 h -6.66792 -23.18548 z"/><path style="fill:red;fill-opacity:.90410958;fill-rule:nonzero;stroke:none;stroke-width:5.03490782;stroke-linecap:round;stroke-linejoin:round;stroke-miterlimit:4;stroke-dasharray:none;stroke-dashoffset:0;stroke-opacity:1" id="path3665" d="m -483.6543,-174.98242 v 25.20117 81.921875 h 143.40821 l 42.72656,-52.863285 h 112.83203 v -47.10937 -7.15039 h -19.20312 -87.62891 z" transform="matrix(0.26458333,0,0,0.26458333,-148.57374,96.514292)"/><path id="path3670" d="m -278.12788,48.629333 v 6.667814 23.26273 h 39.53057 l 11.30471,-13.98656 h 29.8534 v -12.46465 -3.479334 h -6.66792 -23.18548 z" style="fill:none;fill-opacity:.90410958;fill-rule:nonzero;stroke:#000;stroke-width:1.33215272;stroke-linecap:round;stroke-linejoin:round;stroke-miterlimit:4;stroke-dasharray:none;stroke-dashoffset:0;stroke-opacity:1"/><g id="g985" transform="translate(-176.82517,-81.595155)"><g id="g903" transform="matrix(0.85676518,0,0,0.85676518,59.010866,48.966768)"><circle id="path891" cx="-169.035" cy="113.507" r="11.906" style="fill:#000;fill-opacity:.90410958;fill-rule:nonzero;stroke:none;stroke-width:.96611369;stroke-linecap:round;stroke-linejoin:round;stroke-miterlimit:4;stroke-dasharray:none;stroke-dashoffset:0;stroke-opacity:1"/><g id="g887" transform="translate(-79.117154,-28.392755)"><circle style="fill:#e6e6e6;fill-opacity:.90410958;fill-rule:nonzero;stroke:none;stroke-width:2.03337932;stroke-linecap:round;stroke-linejoin:round;stroke-miterlimit:4;stroke-dasharray:none;stroke-dashoffset:0;stroke-opacity:1" id="path850" cx="-90.363" cy="141.06" r="11.906"/><path style="fill:#999;fill-opacity:.90410958;fill-rule:nonzero;stroke:none;stroke-width:7.68521309;stroke-linecap:round;stroke-linejoin:round;stroke-miterlimit:4;stroke-dasharray:none;stroke-dashoffset:0;stroke-opacity:1" id="circle852" d="m -386.5293,533.14062 a 45,45 0 0 0 45,45 45,45 0 0 0 45,-45 z" transform="scale(0.26458333)"/><circle style="fill:#fff;fill-opacity:.90410958;fill-rule:nonzero;stroke:none;stroke-width:1.13514793;stroke-linecap:round;stroke-linejoin:round;stroke-miterlimit:4;stroke-dasharray:none;stroke-dashoffset:0;stroke-opacity:1" id="path860" cx="-90.363" cy="141.06" r="10.054"/><circle id="circle862" cx="-90.363" cy="141.06" r="9.015" style="fill:#000;fill-opacity:.90410958;fill-rule:nonzero;stroke:none;stroke-width:1.01779246;stroke-linecap:round;stroke-linejoin:round;stroke-miterlimit:4;stroke-dasharray:none;stroke-dashoffset:0;stroke-opacity:1"/><circle style="fill:#00f;fill-opacity:.90410958;fill-rule:nonzero;stroke:none;stroke-width:.89616942;stroke-linecap:round;stroke-linejoin:round;stroke-miterlimit:4;stroke-dasharray:none;stroke-dashoffset:0;stroke-opacity:1" id="circle864" cx="-90.363" cy="141.06" r="7.938"/><path style="fill:#0ff;fill-opacity:.90410958;fill-rule:nonzero;stroke:none;stroke-width:3.68578792;stroke-linecap:round;stroke-linejoin:round;stroke-miterlimit:4;stroke-dasharray:none;stroke-dashoffset:0;stroke-opacity:1" id="circle866" d="m -341.5293,503.14062 a 30,30 0 0 0 -30,30 30,30 0 0 0 12.45899,24.30274 33.282995,32.020306 0 0 0 8.70312,1.15039 33.282995,32.020306 0 0 0 33.28321,-32.01953 33.282995,32.020306 0 0 0 -4.24024,-15.56055 30,30 0 0 0 -20.20508,-7.87305 z" transform="scale(0.26458333)"/><circle style="fill:#fff;fill-opacity:.90410958;fill-rule:nonzero;stroke:none;stroke-width:1.32291663;stroke-linecap:round;stroke-linejoin:round;stroke-miterlimit:4;stroke-dasharray:none;stroke-dashoffset:0;stroke-opacity:1" id="path871" cx="-91.941" cy="140.915" r="1.203"/><circle style="fill:#fff;fill-opacity:.90410958;fill-rule:nonzero;stroke:none;stroke-width:1.32291663;stroke-linecap:round;stroke-linejoin:round;stroke-miterlimit:4;stroke-dasharray:none;stroke-dashoffset:0;stroke-opacity:1" id="path873" cx="-93.678" cy="137.173" r="2.138"/></g></g><g id="g956" transform="translate(0,-2.4550103)"><g id="g919" transform="translate(91.940718,-5.6126601)"><circle style="fill:#000;fill-opacity:.90410958;fill-rule:nonzero;stroke:none;stroke-width:1.30962074;stroke-linecap:round;stroke-linejoin:round;stroke-miterlimit:4;stroke-dasharray:none;stroke-dashoffset:0;stroke-opacity:1" id="path905" cx="-151.034" cy="144.951" r="2.646"/><g id="g913" transform="translate(30.061111,-32.73381)"><circle id="path907" cx="-181.095" cy="177.684" r="1.984" style="fill:red;fill-opacity:.90410958;fill-rule:nonzero;stroke:none;stroke-width:.89292318;stroke-linecap:round;stroke-linejoin:round;stroke-miterlimit:4;stroke-dasharray:none;stroke-dashoffset:0;stroke-opacity:1"/><circle id="path909" cx="-181.616" cy="177.404" r=".661" style="fill:#0f0;fill-opacity:.90410958;fill-rule:nonzero;stroke:none;stroke-width:.81851298;stroke-linecap:round;stroke-linejoin:round;stroke-miterlimit:4;stroke-dasharray:none;stroke-dashoffset:0;stroke-opacity:1"/></g></g><g id="g929" transform="translate(85.526251,-5.6126601)"><circle id="circle921" cx="-151.034" cy="144.951" r="2.646" style="fill:#000;fill-opacity:.90410958;fill-rule:nonzero;stroke:none;stroke-width:1.30962074;stroke-linecap:round;stroke-linejoin:round;stroke-miterlimit:4;stroke-dasharray:none;stroke-dashoffset:0;stroke-opacity:1"/><g id="g927" transform="translate(30.061111,-32.73381)"><circle style="fill:red;fill-opacity:.90410958;fill-rule:nonzero;stroke:none;stroke-width:.89292318;stroke-linecap:round;stroke-linejoin:round;stroke-miterlimit:4;stroke-dasharray:none;stroke-dashoffset:0;stroke-opacity:1" id="circle923" cx="-181.095" cy="177.684" r="1.984"/><circle style="fill:#0f0;fill-opacity:.90410958;fill-rule:nonzero;stroke:none;stroke-width:.81851298;stroke-linecap:round;stroke-linejoin:round;stroke-miterlimit:4;stroke-dasharray:none;stroke-dashoffset:0;stroke-opacity:1" id="circle925" cx="-181.616" cy="177.404" r=".661"/></g></g><g id="g939" transform="translate(79.11178,-5.6126601)"><circle style="fill:#000;fill-opacity:.90410958;fill-rule:nonzero;stroke:none;stroke-width:1.30962074;stroke-linecap:round;stroke-linejoin:round;stroke-miterlimit:4;stroke-dasharray:none;stroke-dashoffset:0;stroke-opacity:1" id="circle931" cx="-151.034" cy="144.951" r="2.646"/><g id="g937" transform="translate(30.061111,-32.73381)"><circle id="circle933" cx="-181.095" cy="177.684" r="1.984" style="fill:red;fill-opacity:.90410958;fill-rule:nonzero;stroke:none;stroke-width:.89292318;stroke-linecap:round;stroke-linejoin:round;stroke-miterlimit:4;stroke-dasharray:none;stroke-dashoffset:0;stroke-opacity:1"/><circle id="circle935" cx="-181.616" cy="177.404" r=".661" style="fill:#0f0;fill-opacity:.90410958;fill-rule:nonzero;stroke:none;stroke-width:.81851298;stroke-linecap:round;stroke-linejoin:round;stroke-miterlimit:4;stroke-dasharray:none;stroke-dashoffset:0;stroke-opacity:1"/></g></g></g></g></g></g></g></g></svg>