<svg xmlns="http://www.w3.org/2000/svg" xmlns:svg="http://www.w3.org/2000/svg" id="svg8" width="268.951" height="364.721" version="1.1" viewBox="0 0 71.16 96.499"><metadata id="metadata5"/><g id="layer1" transform="translate(-27.937649,-180.18925)"><g id="g4385"><g id="g5068"><path style="fill:#fff;fill-opacity:.90410958;fill-rule:nonzero;stroke:#000;stroke-width:5.00031471;stroke-linecap:round;stroke-linejoin:round;stroke-miterlimit:4;stroke-dasharray:none;stroke-dashoffset:0;stroke-opacity:1" id="path1254" d="M 191.5918 2.5 L 154.25 49.378906 L 149.46875 55.378906 L 8.5019531 55.378906 L 2.5 55.378906 L 2.5 337.66797 L 2.5 362.2207 L 27.052734 362.2207 L 266.45117 362.2207 L 266.45117 356.2207 L 266.45312 356.2207 L 266.45312 2.5 L 266.45117 2.5 L 192.81445 2.5 L 191.5918 2.5 z" transform="matrix(0.26458333,0,0,0.26458333,27.937649,180.18925)"/><path id="path5053" d="M 192.8125 2.5 L 160.25 43.378906 L 155.46875 49.378906 L 154.25 49.378906 L 149.46875 55.378906 L 8.5019531 55.378906 L 8.5 55.378906 L 8.5 331.66797 L 8.5 356.2207 L 33.052734 356.2207 L 266.45117 356.2207 L 266.45312 356.2207 L 266.45312 2.5 L 266.45117 2.5 L 192.81445 2.5 L 192.8125 2.5 z" transform="matrix(0.26458333,0,0,0.26458333,27.937649,180.18925)" style="fill:red;fill-opacity:.90410958;fill-rule:nonzero;stroke:none;stroke-width:5.00031471;stroke-linecap:round;stroke-linejoin:round;stroke-miterlimit:4;stroke-dasharray:none;stroke-dashoffset:0;stroke-opacity:1"/><path id="path1420" d="m -277.0738,232.73697 c -3.59886,0 -6.49624,2.89686 -6.49624,6.49572 v 98.13303 c 0,3.59886 2.89738,6.49624 6.49624,6.49624 h 28.17038 38.21213 6.49624 v -6.49624 -98.13303 -6.49572 h -6.49624 -38.21213 z" style="fill:none;fill-opacity:.90410958;fill-rule:nonzero;stroke:none;stroke-width:1.32291663;stroke-linecap:round;stroke-linejoin:round;stroke-miterlimit:4;stroke-dasharray:none;stroke-dashoffset:0;stroke-opacity:1"/><path style="fill:none;fill-opacity:.90410958;fill-rule:nonzero;stroke:none;stroke-width:1.32291663;stroke-linecap:round;stroke-linejoin:round;stroke-miterlimit:4;stroke-dasharray:none;stroke-dashoffset:0;stroke-opacity:1" id="path1291" d="m -127.21578,107.04011 c -3.59886,0 -6.49624,2.89686 -6.49624,6.49572 v 98.13303 c 0,3.59886 2.89738,6.49624 6.49624,6.49624 h 28.170382 38.212131 6.496246 v -6.49624 -98.13303 -6.49572 h -6.496246 -38.212131 z"/><path style="fill:#ff0;fill-opacity:.90410958;fill-rule:nonzero;stroke:#000;stroke-width:1.32299995;stroke-linecap:round;stroke-linejoin:round;stroke-miterlimit:4;stroke-dasharray:none;stroke-dashoffset:0;stroke-opacity:1" id="rect1261" d="m 33.69238,226.07933 9.260417,9.35491 -9.260417,9.35491 z"/><rect style="fill:#4d4d4d;fill-opacity:.90410958;fill-rule:nonzero;stroke:#000;stroke-width:1.32299995;stroke-linecap:round;stroke-linejoin:round;stroke-miterlimit:4;stroke-dasharray:none;stroke-dashoffset:0;stroke-opacity:1" id="rect1268" width="32.317" height="2.646" x="48.153" y="269.551" ry="1.323"/><path id="path5058" d="M 191.5918 2.5 L 154.25 49.378906 L 149.46875 55.378906 L 8.5019531 55.378906 L 2.5 55.378906 L 2.5 337.66797 L 2.5 362.2207 L 27.052734 362.2207 L 266.45117 362.2207 L 266.45117 356.2207 L 266.45312 356.2207 L 266.45312 2.5 L 266.45117 2.5 L 192.81445 2.5 L 191.5918 2.5 z" transform="matrix(0.26458333,0,0,0.26458333,27.937649,180.18925)" style="fill:none;fill-opacity:.90410958;fill-rule:nonzero;stroke:#000;stroke-width:5.00031471;stroke-linecap:round;stroke-linejoin:round;stroke-miterlimit:4;stroke-dasharray:none;stroke-dashoffset:0;stroke-opacity:1"/></g></g></g></svg>