<svg xmlns="http://www.w3.org/2000/svg" width="305.658" height="425" viewBox="0 0 80.872 112.448"><path fill="none" d="M-128.5 136.2227c-3.599 0-6.4963 2.8968-6.4963 6.4957v98.133c0 3.5989 2.8974 6.4963 6.4962 6.4963h72.8788v-111.125h-44.7083zM21.358 10.5258c-3.5989 0-6.4963 2.8969-6.4963 6.4957v98.133c0 3.599 2.8974 6.4963 6.4963 6.4963H94.2367V10.5258H49.5283z"/><g transform="translate(148.5737 -96.5143)"><rect width="80.698" height="112.448" x="-148.487" y="96.514" fill="green" fill-opacity=".904" stroke="#000" stroke-linecap="round" stroke-linejoin="round" stroke-width="1.323" ry="0"/><path fill="#500" fill-opacity=".904" d="M-97.795 101.0322l-11.145.1741h-32.476c-3.5989 0-6.4963 2.8969-6.4963 6.4958v23.2699h38.9723l11.145-13.991h29.4319v-15.9488h-6.5738z"/><path fill="#500" fill-opacity=".904" d="M-80.927 97.1758v111.125h12.0799V97.1757h-6.4962z"/><path fill="#0ff" fill-opacity=".904" stroke="#000" stroke-linecap="round" stroke-linejoin="round" stroke-width="1.323" d="M-45.9736 97.308v111.125h9.5379V97.308h-6.4962z" transform="matrix(.9997 0 0 1.00502 -31.3657 -.6192)"/><g transform="matrix(.9997 0 0 1.00502 .639 -.4863)"><path fill="#fff" fill-opacity=".904" d="M-78.1205 97.1757v111.125h3.3908V97.1757h-2.3094z"/><path fill="none" stroke="#000" stroke-linecap="round" stroke-linejoin="round" stroke-width="1.323" d="M-77.9882 97.1757v111.125h9.538V97.1757h-6.4963z"/><rect width="9.554" height="3.796" x="-77.996" y="189.462" fill="none" stroke="#000" stroke-linecap="round" stroke-linejoin="round" stroke-width="1.307" ry="0"/><rect width="9.554" height="3.796" x="-77.996" y="128.623" fill="none" stroke="#000" stroke-linecap="round" stroke-linejoin="round" stroke-width="1.307" ry="0"/></g><g transform="translate(-13.25 -7.9432)"><path fill="#ececec" fill-opacity=".904" stroke="#000" stroke-linecap="round" stroke-linejoin="round" stroke-width="1.745" d="M-127.138 141.8578v31.933l6.0368 13.2353h49.9039v-45.1683z"/><path fill-opacity=".904" stroke="#000" stroke-linecap="round" stroke-linejoin="round" stroke-width="1.108" d="M-118.4059 148.0342h38.4762v26.4656h-38.4762z"/><circle cx="-115.388" cy="180.487" r="2.91" fill="red" fill-opacity=".904" stroke="#000" stroke-linecap="round" stroke-linejoin="round" stroke-width="1.323"/><path fill="none" stroke="#000" stroke-width="1.323" d="M-87.617 178.1058h7.4084M-87.617 180.7516h7.4084M-87.617 183.3974h7.4084"/><circle cx="-104.459" cy="145.033" r=".794" fill="#b3b3b3" fill-opacity=".904"/><circle cx="-93.876" cy="145.033" r=".794" fill="#b3b3b3" fill-opacity=".904"/><path fill="#fff" fill-opacity=".904" d="M-110.2 148.0342l-8.2058 11.7812v6.0187l12.3972-17.8zM-104.0738 148.0342l-14.332 20.577v5.8886h10.4087l18.433-26.4656z"/></g><g transform="translate(-13.25 -10.1882)"><circle cx="-121.264" cy="201.654" r="6.085" fill="#4d4d4d" fill-opacity=".904" stroke="#000" stroke-linecap="round" stroke-linejoin="round" stroke-width="1.323"/><path fill="#ccc" fill-opacity=".904" d="M-121.264 195.5682a6.0854 6.0854 0 00-6.0854 6.0855 6.0854 6.0854 0 00.2837 1.8138 6.0492 7.2064 0 004.7077 2.684 6.0492 7.2064 0 005.9531-5.9665 6.0492 7.2064 0 00-1.5074-3.6054 6.0854 6.0854 0 00-3.3517-1.0114z"/><circle cx="-121.264" cy="201.654" r="6.085" fill="none" stroke="#000" stroke-linecap="round" stroke-linejoin="round" stroke-width="1.323"/></g><g transform="translate(38.4696 1.4113)"><rect width="11.111" height="2.93" x="-162.61" y="181.806" fill="red" fill-opacity=".904" stroke="#000" stroke-linecap="round" stroke-linejoin="round" stroke-width="1.323" ry="1.465"/><rect width="11.111" height="1.247" x="-162.61" y="183.49" fill="#782121" fill-opacity=".904" ry=".623"/><rect width="11.111" height="2.93" x="-162.61" y="181.806" fill="none" stroke="#000" stroke-linecap="round" stroke-linejoin="round" stroke-width="1.323" ry="1.465"/></g><g transform="translate(54.3446 1.4113)"><rect width="11.111" height="2.93" x="-162.61" y="181.806" fill="red" fill-opacity=".904" stroke="#000" stroke-linecap="round" stroke-linejoin="round" stroke-width="1.323" ry="1.465"/><rect width="11.111" height="1.247" x="-162.61" y="183.49" fill="#782121" fill-opacity=".904" ry=".623"/><rect width="11.111" height="2.93" x="-162.61" y="181.806" fill="none" stroke="#000" stroke-linecap="round" stroke-linejoin="round" stroke-width="1.323" ry="1.465"/></g><g transform="translate(-3.7084 -42.3675)"><path fill="gray" fill-opacity=".904" stroke="#000" stroke-linecap="round" stroke-linejoin="round" stroke-width="1.323" d="M-89.5603 229.281a.9641.9641 0 00-.9664.9663v2.9362h-2.9357a.9646.9646 0 00-.9669.9664v3.2835c0 .5355.4314.9664.9669.9664h2.9357v2.9362c0 .5355.431.9664.9664.9664h3.284a.9641.9641 0 00.9664-.9664v-2.9362h2.9357a.9646.9646 0 00.9669-.9664V234.15a.9646.9646 0 00-.9669-.9664h-2.9357v-2.9362a.9641.9641 0 00-.9664-.9664z"/><circle cx="-87.918" cy="235.792" r="1.323" fill="#333" fill-opacity=".904"/><path fill="#333" fill-opacity=".904" d="M-90.5268 238.9952v2.341c0 .5354.431.9663.9664.9663h3.284a.9641.9641 0 00.9664-.9663v-2.341zM-91.7834 233.1833h-2.341a.9641.9641 0 00-.9663.9663v3.284c0 .5355.4309.9664.9663.9664h2.341zM-84.0532 238.4h2.341a.9641.9641 0 00.9663-.9663v-3.284a.9641.9641 0 00-.9663-.9664h-2.341zM-85.31 231.9268v-2.341a.9641.9641 0 00-.9663-.9663h-3.284a.9641.9641 0 00-.9664.9663v2.341z"/><path fill="none" stroke="#000" stroke-linecap="round" stroke-linejoin="round" stroke-width="1.323" d="M-89.5603 229.281a.9641.9641 0 00-.9664.9663v2.9362h-2.9357a.9646.9646 0 00-.9669.9664v3.2835c0 .5355.4314.9664.9669.9664h2.9357v2.9362c0 .5355.431.9664.9664.9664h3.284a.9641.9641 0 00.9664-.9664v-2.9362h2.9357a.9646.9646 0 00.9669-.9664V234.15a.9646.9646 0 00-.9669-.9664h-2.9357v-2.9362a.9641.9641 0 00-.9664-.9664z"/></g><g transform="translate(-13.25 -10.1882)"><rect width="22.296" height="9.743" x="-110.88" y="200.38" fill="#cdde87" fill-opacity=".904" stroke="#000" stroke-linecap="round" stroke-linejoin="round" stroke-width="1.323" ry="1.817"/><path fill="#fff" fill-opacity=".904" d="M-99.732 207.5716a11.0382 3.7418 0 00-10.2113 2.3255c.2604.1438.56.2258.8796.2258h18.663c.3188 0 .618-.0817.8779-.2248a11.0382 3.7418 0 00-10.2092-2.3265z"/><rect width="22.296" height="9.743" x="-110.88" y="200.38" fill="none" stroke="#000" stroke-linecap="round" stroke-linejoin="round" stroke-width="1.323" ry="1.817"/></g><g><path fill="#fff" fill-opacity=".904" stroke="#000" stroke-linecap="round" stroke-linejoin="round" stroke-width="1.332" d="M-148.482 96.519v29.9305h39.5305l11.3047-13.9866h29.8534v-15.944h-29.8534z"/><path fill="red" fill-opacity=".904" d="M-146.8948 98.1064v28.343h37.9434l11.3048-13.9867h29.8535V98.1064h-28.266z"/><path fill="none" stroke="#000" stroke-linecap="round" stroke-linejoin="round" stroke-width="1.332" d="M-148.482 96.519v29.9305h39.5305l11.3047-13.9866h29.8534v-15.944h-29.8534z"/><g fill-opacity=".904"><g transform="matrix(.85677 0 0 .85677 11.8315 15.2612)"><circle cx="-169.035" cy="113.507" r="11.906"/><g transform="translate(-79.1172 -28.3928)"><circle cx="-90.363" cy="141.06" r="11.906" fill="#e6e6e6"/><path fill="#999" d="M-102.2692 141.0601a11.9062 11.9062 0 0011.9062 11.9063A11.9062 11.9062 0 00-78.4567 141.06z"/><circle cx="-90.363" cy="141.06" r="10.054" fill="#fff"/><circle cx="-90.363" cy="141.06" r="9.015"/><circle cx="-90.363" cy="141.06" r="7.938" fill="#00f"/><path fill="#0ff" d="M-90.363 133.1226a7.9375 7.9375 0 00-7.9375 7.9375 7.9375 7.9375 0 003.2965 6.4301 8.8061 8.472 0 002.3027.3044 8.8061 8.472 0 008.8062-8.4718 8.8061 8.472 0 00-1.122-4.1171 7.9375 7.9375 0 00-5.3459-2.083z"/><circle cx="-91.941" cy="140.915" r="1.203" fill="#fff"/><circle cx="-93.678" cy="137.173" r="2.138" fill="#fff"/></g></g><g transform="translate(44.7614 -41.7732)"><circle cx="-151.034" cy="144.951" r="2.646"/><g transform="translate(30.0611 -32.7338)"><circle cx="-181.095" cy="177.684" r="1.984" fill="red"/><circle cx="-181.616" cy="177.404" r=".661" fill="#0f0"/></g></g><g transform="translate(38.347 -41.7732)"><circle cx="-151.034" cy="144.951" r="2.646"/><g transform="translate(30.0611 -32.7338)"><circle cx="-181.095" cy="177.684" r="1.984" fill="red"/><circle cx="-181.616" cy="177.404" r=".661" fill="#0f0"/></g></g><g transform="translate(31.9324 -41.7732)"><circle cx="-151.034" cy="144.951" r="2.646"/><g transform="translate(30.0611 -32.7338)"><circle cx="-181.095" cy="177.684" r="1.984" fill="red"/><circle cx="-181.616" cy="177.404" r=".661" fill="#0f0"/></g></g></g></g></g></svg>