<svg class="shades" preserveAspectRatio="xMinYMin" viewBox="0 0 1650 250"><g id="layer1" transform="translate(300.44931,-163.51227)"><g id="g4237"><path style="fill:#000;fill-opacity:1;stroke:none;stroke-width:5;stroke-linecap:round;stroke-linejoin:round;stroke-miterlimit:4;stroke-dasharray:none;stroke-opacity:1" id="rect4136" d="m -300,0 0,50 -50,0 0,50 100,0 0,-50 250,0 0,50 50,0 0,50 50,0 0,50 50,0 0,50 300,0 0,-50 50,0 0,-50 50,0 0,-50 50,0 0,-50 50,0 50,0 0,50 50,0 0,50 50,0 0,50 50,0 0,50 300,0 0,-50 50,0 0,-50 50,0 0,-50 50,0 0,-50 0,-50 L 650,0 0,0 -300,0 Z" transform="translate(49.55069,163.51226)"/><g id="g4179"><rect id="rect4166" width="50" height="50" x="149.551" y="213.512" ry="0" style="fill:#fff;fill-opacity:1;stroke:none;stroke-width:5;stroke-linecap:round;stroke-linejoin:round;stroke-miterlimit:4;stroke-dasharray:none;stroke-opacity:1"/><rect style="fill:#fff;fill-opacity:1;stroke:none;stroke-width:5;stroke-linecap:round;stroke-linejoin:round;stroke-miterlimit:4;stroke-dasharray:none;stroke-opacity:1" id="rect4168" width="50" height="50" x="249.551" y="213.512" ry="0"/><rect id="rect4170" width="50" height="50" x="199.551" y="263.512" ry="0" style="fill:#fff;fill-opacity:1;stroke:none;stroke-width:5;stroke-linecap:round;stroke-linejoin:round;stroke-miterlimit:4;stroke-dasharray:none;stroke-opacity:1"/><rect style="fill:#fff;fill-opacity:1;stroke:none;stroke-width:5;stroke-linecap:round;stroke-linejoin:round;stroke-miterlimit:4;stroke-dasharray:none;stroke-opacity:1" id="rect4172" width="50" height="50" x="299.551" y="263.512" ry="0"/><rect id="rect4174" width="50" height="50" x="249.551" y="313.512" ry="0" style="fill:#fff;fill-opacity:1;stroke:none;stroke-width:5;stroke-linecap:round;stroke-linejoin:round;stroke-miterlimit:4;stroke-dasharray:none;stroke-opacity:1"/><rect style="fill:#fff;fill-opacity:1;stroke:none;stroke-width:5;stroke-linecap:round;stroke-linejoin:round;stroke-miterlimit:4;stroke-dasharray:none;stroke-opacity:1" id="rect4176" width="50" height="50" x="349.551" y="313.512" ry="0"/></g><g id="g4189" transform="translate(700,0)"><rect style="fill:#fff;fill-opacity:1;stroke:none;stroke-width:5;stroke-linecap:round;stroke-linejoin:round;stroke-miterlimit:4;stroke-dasharray:none;stroke-opacity:1" id="rect4191" width="50" height="50" x="149.551" y="213.512" ry="0"/><rect id="rect4193" width="50" height="50" x="249.551" y="213.512" ry="0" style="fill:#fff;fill-opacity:1;stroke:none;stroke-width:5;stroke-linecap:round;stroke-linejoin:round;stroke-miterlimit:4;stroke-dasharray:none;stroke-opacity:1"/><rect style="fill:#fff;fill-opacity:1;stroke:none;stroke-width:5;stroke-linecap:round;stroke-linejoin:round;stroke-miterlimit:4;stroke-dasharray:none;stroke-opacity:1" id="rect4195" width="50" height="50" x="199.551" y="263.512" ry="0"/><rect id="rect4197" width="50" height="50" x="299.551" y="263.512" ry="0" style="fill:#fff;fill-opacity:1;stroke:none;stroke-width:5;stroke-linecap:round;stroke-linejoin:round;stroke-miterlimit:4;stroke-dasharray:none;stroke-opacity:1"/><rect style="fill:#fff;fill-opacity:1;stroke:none;stroke-width:5;stroke-linecap:round;stroke-linejoin:round;stroke-miterlimit:4;stroke-dasharray:none;stroke-opacity:1" id="rect4199" width="50" height="50" x="249.551" y="313.512" ry="0"/><rect id="rect4201" width="50" height="50" x="349.551" y="313.512" ry="0" style="fill:#fff;fill-opacity:1;stroke:none;stroke-width:5;stroke-linecap:round;stroke-linejoin:round;stroke-miterlimit:4;stroke-dasharray:none;stroke-opacity:1"/></g></g></g></svg>