<svg xmlns="http://www.w3.org/2000/svg" xmlns:svg="http://www.w3.org/2000/svg" id="svg4293" width="300" height="544.127" preserveAspectRatio="xMinYMin" version="1.1" viewBox="0 0 300 544.127"><metadata id="metadata4315"/><g id="layer14" transform="translate(-0.17695185,7.5667892e-6)"><g id="g5675"><path id="path4903" d="m 259.63421,392.18527 c 0,20.04898 -3.06285,39.14894 -8.60169,56.52133 -5.53884,17.37239 2.67061,81.423 -11.33876,89.58173 -14.00937,8.15873 -36.26349,5.62794 -63.06955,4.86169 -26.80606,-0.76625 -16.88881,-9.79683 -25.9423,-43.12362 -9.05348,31.30699 -2.01586,42.84196 -26.95221,43.12362 -24.936349,0.28166 -48.302225,2.48139 -62.059643,-8.9013 -13.757418,-11.38269 -6.809823,-68.16973 -12.348661,-85.54212 -5.538839,-17.37239 -8.601693,-36.47235 -8.601692,-56.52133 4e-6,-80.19591 49.005684,-145.20753 109.457256,-145.20753 60.45157,0 109.45725,65.01163 109.45725,145.20753 z" style="fill:#784421;fill-opacity:1;stroke:none;stroke-width:10;stroke-linecap:round;stroke-linejoin:round;stroke-miterlimit:4;stroke-dasharray:none;stroke-opacity:1"/><path id="path4915" d="m 63.676831,519.15731 a 36.776623,13.21102 0 0 1 36.655509,-12.13974 36.776623,13.21102 0 0 1 36.65536,12.13908" style="fill:none;fill-opacity:1;stroke:#502d16;stroke-width:5;stroke-linecap:round;stroke-linejoin:round;stroke-miterlimit:4;stroke-dasharray:none;stroke-opacity:1"/><path style="fill:none;fill-opacity:1;stroke:#502d16;stroke-width:5;stroke-linecap:round;stroke-linejoin:round;stroke-miterlimit:4;stroke-dasharray:none;stroke-opacity:1" id="path4927" d="m 163.65212,519.15731 a 36.776623,13.21102 0 0 1 36.65551,-12.13974 36.776623,13.21102 0 0 1 36.65536,12.13908"/></g></g><g id="layer13" transform="translate(-0.17695185,7.5667892e-6)" style="display:inline"><g id="g5665"><path id="ellipse4905" d="m 150.17773,246.97852 c -60.452098,-0.001 -109.458772,65.01042 -109.45898,145.20703 0.02581,4.2459 0.191981,60.78925 0.498047,65.01583 l 217.937503,0 c 0.3002,-4.22692 0.46051,-60.77027 0.48047,-65.01583 -2.1e-4,-80.1956 -49.0057,-145.20688 -109.45704,-145.20703 z" style="fill:#1a1a1a;fill-opacity:1;stroke:none;stroke-width:10;stroke-linecap:round;stroke-linejoin:round;stroke-miterlimit:4;stroke-dasharray:none;stroke-opacity:1"/><g style="fill:none;stroke:#fff;stroke-width:2;stroke-linecap:round;stroke-linejoin:round;stroke-miterlimit:4;stroke-dasharray:none;stroke-opacity:1" id="layer11" transform="translate(82.17671,342.20053)"><path style="fill:none;stroke:#fff;stroke-width:2;stroke-linecap:round;stroke-linejoin:round;stroke-miterlimit:4;stroke-dasharray:none;stroke-opacity:1" id="path5056" d="m 80,6 -9,0 0,14 9,0 m 34,-14 -9,0 0,14 9,0 m -3,-7 -6,0 m -28,0 -6,0 m 51,7 0,-14 11,14 0,-14 M 22,16.7 33,24 44,16.7 44,9.3 33,2 22,9.3 l 0,7.4 z m 22,0 L 33,9.3 22,16.7 M 22,9.3 33,16.6 44,9.3 M 33,2 33,9.3 m 0,7.4 0,7.3 m 55,-10 6,0 c 2.2,0 4,-1.8 4,-4 0,-2.2 -1.8,-4 -4,-4 l -6,0 0,14 M 15,8 C 13.7,6.7 12,6 10,6 6,6 3,9 3,13 c 0,4 3,7 7,7 2,0 3.7,-0.8 5,-2 m 49,-5 c 0,4 -3,7 -7,7 l -5,0 0,-14 5,0 c 4,0 7,3 7,7 z"/></g></g></g><g id="layer15" transform="translate(-0.17695185,7.5667892e-6)"><g id="g5711"><g id="g5695"><path style="fill:#784421;fill-opacity:1;stroke:none;stroke-width:2;stroke-linecap:round;stroke-linejoin:round;stroke-miterlimit:4;stroke-dasharray:none;stroke-opacity:1" id="path5685" d="m 140.95985,346.41539 c 0,27.77624 -1.58579,49.68109 13.95488,66.81997 9.72745,22.43369 -2.59534,30.81 -16.34044,31.19625 -26.67342,1.21209 -34.27488,-47.35857 -34.27488,-102.91107 0,-55.5525 16.68186,-100.58669 37.25998,-100.58669 20.57812,0 -0.59954,49.92904 -0.59954,105.48154 z" transform="matrix(0.95254138,0.30440912,-0.23145787,0.97284493,0,0)"/><path style="fill:#1a1a1a;fill-opacity:1;stroke:none;stroke-width:2;stroke-linecap:round;stroke-linejoin:round;stroke-miterlimit:4;stroke-dasharray:none;stroke-opacity:1" id="path5690" d="m 74.367188,276.82422 c -12.957019,0.36956 -27.95553,17.75795 -39.933594,44.66992 l 36.019531,9.71289 c 11.835891,-29.18753 21.752724,-49.52806 8.621094,-53.72461 -1.531368,-0.48939 -3.103345,-0.70394 -4.707031,-0.6582 z"/></g><path id="path5707" d="m 34.430843,445.45324 12.909151,26.25599" style="fill:none;fill-rule:evenodd;stroke:#502d16;stroke-width:4;stroke-linecap:round;stroke-linejoin:round;stroke-miterlimit:4;stroke-dasharray:none;stroke-opacity:1"/><path id="path5709" d="M 30.094711,474.2453 23.162783,448.03923" style="fill:none;fill-rule:evenodd;stroke:#502d16;stroke-width:4;stroke-linecap:round;stroke-linejoin:round;stroke-miterlimit:4;stroke-dasharray:none;stroke-opacity:1"/></g><g id="g5730" transform="matrix(-1,0,0,1,295.51412,0)"><g id="g5732"><path id="path5734" d="m 140.95985,346.41539 c 0,27.77624 -1.58579,49.68109 13.95488,66.81997 9.72745,22.43369 -2.59534,30.81 -16.34044,31.19625 -26.67342,1.21209 -34.27488,-47.35857 -34.27488,-102.91107 0,-55.5525 16.68186,-100.58669 37.25998,-100.58669 20.57812,0 -0.59954,49.92904 -0.59954,105.48154 z" transform="matrix(0.95254138,0.30440912,-0.23145787,0.97284493,0,0)" style="fill:#784421;fill-opacity:1;stroke:none;stroke-width:2;stroke-linecap:round;stroke-linejoin:round;stroke-miterlimit:4;stroke-dasharray:none;stroke-opacity:1"/><path id="path5736" d="m 74.367188,276.82422 c -12.957019,0.36956 -27.95553,17.75795 -39.933594,44.66992 l 36.019531,9.71289 c 11.835891,-29.18753 21.752724,-49.52806 8.621094,-53.72461 -1.531368,-0.48939 -3.103345,-0.70394 -4.707031,-0.6582 z" style="fill:#1a1a1a;fill-opacity:1;stroke:none;stroke-width:2;stroke-linecap:round;stroke-linejoin:round;stroke-miterlimit:4;stroke-dasharray:none;stroke-opacity:1"/></g><path style="fill:none;fill-rule:evenodd;stroke:#502d16;stroke-width:4;stroke-linecap:round;stroke-linejoin:round;stroke-miterlimit:4;stroke-dasharray:none;stroke-opacity:1" id="path5738" d="m 34.430843,445.45324 12.909151,26.25599"/><path style="fill:none;fill-rule:evenodd;stroke:#502d16;stroke-width:4;stroke-linecap:round;stroke-linejoin:round;stroke-miterlimit:4;stroke-dasharray:none;stroke-opacity:1" id="path5740" d="M 30.094711,474.2453 23.162783,448.03923"/></g></g><g id="layer12" transform="translate(-0.17695185,7.5667892e-6)" style="display:inline"><g id="g5640"><path style="fill:#784421;fill-opacity:1;stroke:none;stroke-width:6;stroke-linecap:round;stroke-linejoin:round;stroke-miterlimit:4;stroke-dasharray:none;stroke-opacity:1" id="path5634" d="m 280.60325,147.50516 c 4e-5,86.06635 -58.12221,149.34341 -133.0237,149.34341 -74.90148,0 -127.828922,-63.27706 -127.828895,-149.34341 5e-6,-86.066317 52.927437,-120.771915 127.828895,-120.771915 74.90148,0 133.0237,34.705598 133.0237,120.771915 z"/><path style="fill:#e9c6af;fill-opacity:1;stroke:none;stroke-width:6;stroke-linecap:round;stroke-linejoin:round;stroke-miterlimit:4;stroke-dasharray:none;stroke-opacity:1" id="path5639" d="m 237.18994,237.7649 c 4e-5,27.97288 -39.53846,54.54549 -88.31169,54.54549 -48.77322,0 -85.71431,-26.57261 -85.714285,-54.54549 0,-27.97287 36.941095,-46.75325 85.714285,-46.75325 48.77321,0 88.31169,18.78038 88.31169,46.75325 z"/><path style="fill:#000;fill-opacity:1;stroke:none;stroke-width:6;stroke-linecap:round;stroke-linejoin:round;stroke-miterlimit:4;stroke-dasharray:none;stroke-opacity:1" id="path5636" d="m 194.00812,200.75192 c 0,10.75878 -26.75291,34.41558 -42.53247,34.41558 -15.77957,0 -45.12987,-23.6568 -45.12987,-34.41558 0,-10.7588 29.3503,-17.53247 45.12987,-17.53247 15.77956,0 42.53247,6.77367 42.53247,17.53247 z"/><g id="g5681" transform="matrix(1.2987013,0,0,1.2987013,-44.628243,-1025.6925)"><ellipse id="path5657" cx="69" cy="823.073" rx="34.5" ry="33.289" style="fill:#784421;fill-opacity:1;stroke:none;stroke-width:6;stroke-linecap:round;stroke-linejoin:round;stroke-miterlimit:4;stroke-dasharray:none;stroke-opacity:1"/><path id="ellipse5659" d="M 69,47.310547 A 24.25,23.399124 0 0 0 44.75,70.710938 24.25,23.399124 0 0 0 64.720703,93.720703 c 0.276316,-0.40734 0.503874,-0.867778 0.787109,-1.267578 1.70087,-2.400855 3.527087,-4.666237 5.470704,-6.798828 1.943616,-2.132591 4.004963,-4.133318 6.179687,-6.003906 2.174725,-1.870589 4.461274,-3.611714 6.855469,-5.226563 2.394195,-1.614848 4.896019,-3.10338 7.498047,-4.46875 0.539935,-0.283322 1.133058,-0.500695 1.68164,-0.773437 A 24.25,23.399124 0 0 0 69,47.310547 Z" transform="translate(0,752.36216)" style="fill:#e9c6af;fill-opacity:1;stroke:none;stroke-width:6;stroke-linecap:round;stroke-linejoin:round;stroke-miterlimit:4;stroke-dasharray:none;stroke-opacity:1"/></g><g id="g5685" transform="matrix(-1.2987013,0,0,1.2987013,344.98216,-1025.6925)"><ellipse style="fill:#784421;fill-opacity:1;stroke:none;stroke-width:6;stroke-linecap:round;stroke-linejoin:round;stroke-miterlimit:4;stroke-dasharray:none;stroke-opacity:1" id="ellipse5687" cx="69" cy="823.073" rx="34.5" ry="33.289"/><path style="fill:#e9c6af;fill-opacity:1;stroke:none;stroke-width:6;stroke-linecap:round;stroke-linejoin:round;stroke-miterlimit:4;stroke-dasharray:none;stroke-opacity:1" id="path5689" d="M 69,47.310547 A 24.25,23.399124 0 0 0 44.75,70.710938 24.25,23.399124 0 0 0 64.720703,93.720703 c 0.276316,-0.40734 0.503874,-0.867778 0.787109,-1.267578 1.70087,-2.400855 3.527087,-4.666237 5.470704,-6.798828 1.943616,-2.132591 4.004963,-4.133318 6.179687,-6.003906 2.174725,-1.870589 4.461274,-3.611714 6.855469,-5.226563 2.394195,-1.614848 4.896019,-3.10338 7.498047,-4.46875 0.539935,-0.283322 1.133058,-0.500695 1.68164,-0.773437 A 24.25,23.399124 0 0 0 69,47.310547 Z" transform="translate(0,752.36216)"/></g><ellipse style="fill:#000;fill-opacity:1;stroke:none;stroke-width:4.05340338;stroke-linecap:round;stroke-linejoin:round;stroke-miterlimit:4;stroke-dasharray:none;stroke-opacity:1" id="path4368" cx="92.814" cy="143.644" rx="12.039" ry="12.57"/><ellipse id="ellipse4370" cx="198.098" cy="143.644" rx="12.039" ry="12.57" style="fill:#000;fill-opacity:1;stroke:none;stroke-width:4.05340338;stroke-linecap:round;stroke-linejoin:round;stroke-miterlimit:4;stroke-dasharray:none;stroke-opacity:1"/></g></g></svg>