<svg xmlns="http://www.w3.org/2000/svg" xmlns:svg="http://www.w3.org/2000/svg" id="svg821" width="210mm" height="297mm" version="1.1" viewBox="0 0 210 297"><metadata id="metadata818"/><g id="layer1"><g id="g877" transform="matrix(1.621526,0,0,1.621526,250.24888,-279.96426)"><circle id="path845" cx="-127.756" cy="59.13" r="35.814" style="opacity:1;fill:none;fill-opacity:1;fill-rule:nonzero;stroke:#fc0;stroke-width:13.22916698;stroke-linecap:round;stroke-linejoin:round;stroke-miterlimit:4;stroke-dasharray:none;stroke-dashoffset:0;stroke-opacity:1"/><circle id="path1370" cx="-127.756" cy="262.982" r="161.774" style="opacity:1;fill:red;fill-opacity:1;fill-rule:nonzero;stroke:#fc0;stroke-width:7.9375;stroke-linecap:square;stroke-linejoin:round;stroke-miterlimit:4;stroke-dasharray:none;stroke-dashoffset:0;stroke-opacity:1"/><circle id="path1377" cx="-127.756" cy="447.813" r="20.411" style="opacity:1;fill:#fc0;fill-opacity:1;fill-rule:nonzero;stroke:none;stroke-width:5.29166651;stroke-linecap:square;stroke-linejoin:round;stroke-miterlimit:4;stroke-dasharray:none;stroke-dashoffset:0;stroke-opacity:1"/><rect id="rect1379" width="65.768" height="16.631" x="-160.64" y="422.11" ry="8.315" style="opacity:1;fill:#fc0;fill-opacity:1;fill-rule:nonzero;stroke:none;stroke-width:5.29166651;stroke-linecap:square;stroke-linejoin:round;stroke-miterlimit:4;stroke-dasharray:none;stroke-dashoffset:0;stroke-opacity:1"/><circle style="opacity:1;fill:#450;fill-opacity:1;fill-rule:nonzero;stroke:none;stroke-width:17.16216278;stroke-linecap:round;stroke-linejoin:round;stroke-miterlimit:4;stroke-dasharray:none;stroke-dashoffset:0;stroke-opacity:1;paint-order:markers stroke fill" id="circle1491" cx="-27.214" cy="309.095" r="30.238"/><path id="rect1372" d="m -1086.207,899.66211 a 611.42861,611.42861 0 0 0 -8.0782,94.28711 611.42861,611.42861 0 0 0 7.7266,94.28518 H 120.49219 a 611.42861,611.42861 0 0 0 8.08008,-94.28518 611.42861,611.42861 0 0 0 -7.72657,-94.28711 z" transform="scale(0.26458333)" style="opacity:1;fill:#fc0;fill-opacity:1;fill-rule:nonzero;stroke:none;stroke-width:20;stroke-linecap:square;stroke-linejoin:round;stroke-miterlimit:4;stroke-dasharray:none;stroke-dashoffset:0;stroke-opacity:1"/><rect id="rect1387" width="34.774" height="337.155" x="-145.143" y="99.696" ry="8.062" style="opacity:1;fill:#fc0;fill-opacity:1;fill-rule:nonzero;stroke:none;stroke-width:9.84355927;stroke-linecap:square;stroke-linejoin:round;stroke-miterlimit:4;stroke-dasharray:none;stroke-dashoffset:0;stroke-opacity:1"/><circle id="path1485" cx="-205.997" cy="216.869" r="27.97" style="opacity:1;fill:#450;fill-opacity:1;fill-rule:nonzero;stroke:none;stroke-width:15.875;stroke-linecap:round;stroke-linejoin:round;stroke-miterlimit:4;stroke-dasharray:none;stroke-dashoffset:0;stroke-opacity:1;paint-order:markers stroke fill"/><path id="path1433" d="m -285.61376,238.0356 a 267.76381,161.77382 0 0 0 -3.5377,24.94679 267.76381,161.77382 0 0 0 3.38372,24.94629 h 141.75892 V 238.0356 Z" style="opacity:1;fill:#fff6d5;fill-opacity:1;fill-rule:nonzero;stroke:none;stroke-width:6.80791759;stroke-linecap:square;stroke-linejoin:round;stroke-miterlimit:4;stroke-dasharray:none;stroke-dashoffset:0;stroke-opacity:1"/><path style="opacity:1;fill:#fff6d5;fill-opacity:1;fill-rule:nonzero;stroke:#fff6d5;stroke-width:15.875;stroke-linecap:round;stroke-linejoin:round;stroke-miterlimit:4;stroke-dasharray:none;stroke-dashoffset:0;stroke-opacity:1" id="circle1454" d="m -250.06388,196.37338 a 139.26936,139.26936 0 0 1 3.76102,-6.48423"/><path id="circle1456" d="m -233.40031,172.23401 a 139.26936,139.26936 0 0 1 69.4999,-43.7492" style="opacity:1;fill:none;fill-opacity:1;fill-rule:nonzero;stroke:#fff6d5;stroke-width:15.875;stroke-linecap:round;stroke-linejoin:round;stroke-miterlimit:4;stroke-dasharray:none;stroke-dashoffset:0;stroke-opacity:1"/><path id="path1465" d="M -482.85742,1615.377 A 77.14286,77.14286 0 0 0 -560,1692.5195 a 77.14286,77.14286 0 0 0 77.14258,77.1426 77.14286,77.14286 0 0 0 18.0039,-2.2187 77.14286,77.14286 0 0 1 -59.14648,-74.9239 77.14286,77.14286 0 0 1 59.14062,-74.9218 77.14286,77.14286 0 0 0 -17.99804,-2.2207 z" transform="scale(0.26458333)" style="opacity:1;fill:#fff6d5;fill-opacity:1;fill-rule:nonzero;stroke:none;stroke-width:20;stroke-linecap:square;stroke-linejoin:round;stroke-miterlimit:4;stroke-dasharray:none;stroke-dashoffset:0;stroke-opacity:1"/><rect style="opacity:1;fill:#fff6d5;fill-opacity:1;fill-rule:nonzero;stroke:none;stroke-width:4.21429014;stroke-linecap:square;stroke-linejoin:round;stroke-miterlimit:4;stroke-dasharray:none;stroke-dashoffset:0;stroke-opacity:1" id="rect1467" width="41.714" height="16.631" x="-160.64" y="422.11" ry="8.315"/><path style="opacity:1;fill:none;fill-opacity:1;fill-rule:nonzero;stroke:#fff6d5;stroke-width:7.9375;stroke-linecap:round;stroke-linejoin:round;stroke-miterlimit:4;stroke-dasharray:none;stroke-dashoffset:0;stroke-opacity:1" id="circle1469" d="m -124.04837,424.71347 a 161.77382,161.77382 0 0 1 -143.37204,-80.09427 161.77382,161.77382 0 0 1 0.56103,-164.22643 161.77382,161.77382 0 0 1 143.91593,-79.11284"/><path style="opacity:1;fill:none;fill-opacity:1;fill-rule:nonzero;stroke:#fc0;stroke-width:7.9375;stroke-linecap:square;stroke-linejoin:round;stroke-miterlimit:4;stroke-dasharray:none;stroke-dashoffset:0;stroke-opacity:1" id="circle1473" d="M -8.5158081,262.98215 A 119.24014,162.32942 0 0 1 -107.17752,422.8759"/><circle id="circle1489" cx="-206.375" cy="351.429" r="31.372" style="opacity:1;fill:#450;fill-opacity:1;fill-rule:nonzero;stroke:none;stroke-width:17.80574417;stroke-linecap:round;stroke-linejoin:round;stroke-miterlimit:4;stroke-dasharray:none;stroke-dashoffset:0;stroke-opacity:1;paint-order:markers stroke fill"/><path id="ellipse1475" d="m -123.15882,425.19088 a 119.24014,162.32942 0 0 1 -87.28561,-45.25144 119.24014,162.32942 0 0 1 -36.55166,-117.01121" style="opacity:1;fill:none;fill-opacity:1;fill-rule:nonzero;stroke:#fff6d5;stroke-width:7.9375;stroke-linecap:square;stroke-linejoin:round;stroke-miterlimit:4;stroke-dasharray:none;stroke-dashoffset:0;stroke-opacity:1"/><circle id="circle1493" cx="-71.437" cy="379.777" r="14.363" style="opacity:1;fill:#450;fill-opacity:1;fill-rule:nonzero;stroke:none;stroke-width:8.15202713;stroke-linecap:round;stroke-linejoin:round;stroke-miterlimit:4;stroke-dasharray:none;stroke-dashoffset:0;stroke-opacity:1;paint-order:markers stroke fill"/><path style="opacity:1;fill:none;fill-opacity:1;fill-rule:nonzero;stroke:#fc0;stroke-width:7.9375;stroke-linecap:square;stroke-linejoin:round;stroke-miterlimit:4;stroke-dasharray:none;stroke-dashoffset:0;stroke-opacity:1" id="circle1477" d="m -61.74049,257.29793 a 66.055542,163.19542 0 0 1 -50.16664,164.11266"/><path id="ellipse1479" d="M -123.29175,425.80445 A 66.055542,163.19542 0 0 1 -172.69046,382.60063 66.055542,163.19542 0 0 1 -193.8099,264.1156" style="opacity:1;fill:none;fill-opacity:1;fill-rule:nonzero;stroke:#fff6d5;stroke-width:7.9375;stroke-linecap:square;stroke-linejoin:round;stroke-miterlimit:4;stroke-dasharray:none;stroke-dashoffset:0;stroke-opacity:1"/><rect style="opacity:1;fill:#fc0;fill-opacity:1;fill-rule:nonzero;stroke:none;stroke-width:5.29166651;stroke-linecap:square;stroke-linejoin:round;stroke-miterlimit:4;stroke-dasharray:none;stroke-dashoffset:0;stroke-opacity:1" id="rect1481" width="65.768" height="16.631" x="-160.64" y="88.017" ry="8.315"/><rect style="opacity:1;fill:#fff6d5;fill-opacity:1;fill-rule:nonzero;stroke:none;stroke-width:8.76414871;stroke-linecap:square;stroke-linejoin:round;stroke-miterlimit:4;stroke-dasharray:none;stroke-dashoffset:0;stroke-opacity:1" id="rect1471" width="26.756" height="347.36" x="-145.143" y="89.491" ry="8.306"/><rect id="rect1483" width="41.955" height="16.631" x="-160.64" y="88.017" ry="8.315" style="opacity:1;fill:#fff6d5;fill-opacity:1;fill-rule:nonzero;stroke:none;stroke-width:4.22648478;stroke-linecap:square;stroke-linejoin:round;stroke-miterlimit:4;stroke-dasharray:none;stroke-dashoffset:0;stroke-opacity:1"/><circle style="opacity:1;fill:#450;fill-opacity:1;fill-rule:nonzero;stroke:none;stroke-width:12.44256783;stroke-linecap:round;stroke-linejoin:round;stroke-miterlimit:4;stroke-dasharray:none;stroke-dashoffset:0;stroke-opacity:1;paint-order:markers stroke fill" id="circle1487" cx="-75.973" cy="167.732" r="21.923"/><path style="opacity:1;fill:none;fill-opacity:1;fill-rule:nonzero;stroke:#fff6d5;stroke-width:13.22916698;stroke-linecap:round;stroke-linejoin:round;stroke-miterlimit:4;stroke-dasharray:none;stroke-dashoffset:0;stroke-opacity:1" id="circle847" d="m -126.49017,94.921861 a 35.814117,35.814117 0 0 1 -31.84271,-17.144955 35.814117,35.814117 0 0 1 -0.66369,-36.158915 35.814117,35.814117 0 0 1 31.19208,-18.301956"/><circle id="circle849" cx="-13.229" cy="211.577" r="14.363" style="opacity:1;fill:#450;fill-opacity:1;fill-rule:nonzero;stroke:none;stroke-width:8.15202713;stroke-linecap:round;stroke-linejoin:round;stroke-miterlimit:4;stroke-dasharray:none;stroke-dashoffset:0;stroke-opacity:1;paint-order:markers stroke fill"/></g></g><g id="layer2"><path style="opacity:1;fill:#aad400;fill-opacity:1;fill-rule:nonzero;stroke:none;stroke-width:10;stroke-linecap:round;stroke-linejoin:round;stroke-miterlimit:4;stroke-dasharray:none;stroke-dashoffset:0;stroke-opacity:1" id="path949" d="m 459.38649,80.129938 c -22.00509,6e-6 -41.21461,12.181379 -41.21461,34.186472 0,22.00509 24.45213,36.2413 47.84374,35.84375 16.02747,-0.2724 35.86818,-11.71276 55.8418,-3.53516 4.31532,0.5731 0.98067,-1.67465 2.46875,-5.76562 l 3.13867,-8.63282 c 1.48809,-4.09097 -0.78819,-7.84487 -5.10351,-8.41797 -11.43952,-1.53617 -13.94911,-3.68258 -16.50195,-9.49218 -6.43827,-14.651865 -24.46779,-34.186477 -46.47289,-34.186472 z" transform="scale(0.26458333)"/><path style="opacity:1;fill:#c87137;fill-opacity:1;fill-rule:nonzero;stroke:none;stroke-width:41.56216812;stroke-linecap:round;stroke-linejoin:round;stroke-miterlimit:4;stroke-dasharray:none;stroke-dashoffset:0;stroke-opacity:1" id="path884" d="m 637.56127,74.336642 c -65.97738,0.07392 -124.29859,8.189787 -134.50463,66.491478 36.82173,15.23192 83.75093,25.61384 132.29492,25.62891 48.59861,-0.0427 95.55636,-10.47006 132.35742,-25.75391 C 757.4375,82.430198 703.51707,74.373368 637.56127,74.336642 Z" transform="scale(0.26458333)"/><path style="opacity:1;fill:#f0f;fill-opacity:1;fill-rule:nonzero;stroke:none;stroke-width:10.16641235;stroke-linecap:round;stroke-linejoin:round;stroke-miterlimit:4;stroke-dasharray:none;stroke-dashoffset:0;stroke-opacity:1" id="path891" d="m 168.10343,13.350089 c -17.45652,0.01672 -32.30269,9.739696 -35.00303,22.924018 9.74241,3.44454 22.1591,3.530907 35.00303,3.534315 12.85838,-0.0097 25.28262,-0.106299 35.01956,-3.562583 -2.71766,-13.177816 -17.56876,-22.887445 -35.01956,-22.89575 z"/><path id="path893" d="m 133.1004,36.20244 c 9.74241,4.030112 22.1591,4.131162 35.00303,4.135149 12.85838,-0.0113 25.28262,-0.12437 35.01956,-4.168222" style="opacity:1;fill:#f0f;fill-opacity:1;fill-rule:nonzero;stroke:#ff0;stroke-width:2.64583325;stroke-linecap:round;stroke-linejoin:round;stroke-miterlimit:4;stroke-dasharray:none;stroke-dashoffset:0;stroke-opacity:1"/><circle style="opacity:1;fill:#000;fill-opacity:1;fill-rule:nonzero;stroke:none;stroke-width:4.16869879;stroke-linecap:round;stroke-linejoin:round;stroke-miterlimit:4;stroke-dasharray:none;stroke-dashoffset:0;stroke-opacity:1" id="path954" cx="120.012" cy="28.064" r="1.323"/><circle id="circle956" cx="113.035" cy="34.111" r=".444" style="opacity:1;fill:#000;fill-opacity:1;fill-rule:nonzero;stroke:none;stroke-width:1.4004221;stroke-linecap:round;stroke-linejoin:round;stroke-miterlimit:4;stroke-dasharray:none;stroke-dashoffset:0;stroke-opacity:1"/><circle style="opacity:1;fill:#aad400;fill-opacity:1;fill-rule:nonzero;stroke:#000;stroke-width:1.05833328;stroke-linecap:round;stroke-linejoin:round;stroke-miterlimit:4;stroke-dasharray:none;stroke-dashoffset:0;stroke-opacity:1" id="path958" cx="118.597" cy="36.034" r="3.152"/></g></svg>