<svg xmlns="http://www.w3.org/2000/svg" xmlns:svg="http://www.w3.org/2000/svg" id="svg8" width="1430.236" height="813.263" version="1.1" viewBox="0 0 378.417 215.176"><metadata id="metadata5"/><g id="layer1" transform="translate(622.67509,-19.70004)"><g id="g924" transform="translate(-164.84207,37.98969)"><path id="path841" d="M -269.50046,18.856837 A 132.29141,132.29167 0 0 0 -401.79266,151.1485 h 13.2297 A 119.06226,119.0625 0 0 1 -269.50046,32.086004 119.06226,119.0625 0 0 1 -150.43849,151.1485 h 13.22916 A 132.29141,132.29167 0 0 0 -269.50046,18.856837 Z" style="fill:#ff2a2a;fill-opacity:1;stroke:#000;stroke-width:1.32291663;stroke-linecap:round;stroke-linejoin:round;stroke-miterlimit:4;stroke-dasharray:none;stroke-dashoffset:0;stroke-opacity:1"/><path id="circle853" d="M -269.50046,25.47142 A 125.67709,125.67709 0 0 0 -395.17754,151.1485 h 13.22916 A 112.4479,112.4479 0 0 1 -269.50046,38.700587 112.4479,112.4479 0 0 1 -157.05255,151.1485 h 13.22917 A 125.67709,125.67709 0 0 0 -269.50046,25.47142 Z" style="fill:#ffd42a;fill-opacity:1;stroke:#000;stroke-width:1.32291663;stroke-linecap:round;stroke-linejoin:round;stroke-miterlimit:4;stroke-dasharray:none;stroke-dashoffset:0;stroke-opacity:1"/><path id="circle843" d="M -269.50046,32.086004 A 119.0625,119.0625 0 0 0 -388.56296,151.1485 h 13.22917 A 105.83334,105.83334 0 0 1 -269.50046,45.314653 105.83334,105.83334 0 0 1 -163.66713,151.1485 h 13.22917 A 119.0625,119.0625 0 0 0 -269.50046,32.086004 Z" style="fill:#f60;fill-opacity:1;stroke:#000;stroke-width:1.32291663;stroke-linecap:round;stroke-linejoin:round;stroke-miterlimit:4;stroke-dasharray:none;stroke-dashoffset:0;stroke-opacity:1"/><path id="circle847" d="M -269.50046,38.700587 A 112.4479,112.4479 0 0 0 -381.94838,151.1485 h 13.22917 a 99.218749,99.218749 0 0 1 99.21875,-99.218747 99.218749,99.218749 0 0 1 99.21875,99.218747 h 13.22916 A 112.4479,112.4479 0 0 0 -269.50046,38.700587 Z" style="fill:#6f0;fill-opacity:1;stroke:#000;stroke-width:1.32291663;stroke-linecap:round;stroke-linejoin:round;stroke-miterlimit:4;stroke-dasharray:none;stroke-dashoffset:0;stroke-opacity:1"/><path id="circle849" d="M -269.50046,45.31517 A 105.83334,105.83334 0 0 0 -375.33379,151.1485 h 13.22916 a 92.604163,92.604163 0 0 1 92.60417,-92.604162 92.604163,92.604163 0 0 1 92.60416,92.604162 h 13.22917 A 105.83334,105.83334 0 0 0 -269.50046,45.31517 Z" style="fill:#00aad4;fill-opacity:1;stroke:#000;stroke-width:1.32291663;stroke-linecap:round;stroke-linejoin:round;stroke-miterlimit:4;stroke-dasharray:none;stroke-dashoffset:0;stroke-opacity:1"/><path id="circle851" d="m -269.50046,51.929753 a 99.218749,99.218749 0 0 0 -99.21875,99.218747 h 13.22917 a 85.989585,85.989585 0 0 1 85.98958,-85.989579 85.989585,85.989585 0 0 1 85.98958,85.989579 h 13.22917 a 99.218749,99.218749 0 0 0 -99.21875,-99.218747 z" style="fill:purple;fill-opacity:1;stroke:#000;stroke-width:1.32291663;stroke-linecap:round;stroke-linejoin:round;stroke-miterlimit:4;stroke-dasharray:none;stroke-dashoffset:0;stroke-opacity:1"/><path id="circle845" d="m -269.50046,58.544338 a 92.604163,92.604163 0 0 0 -92.60417,92.604162 h 6.61459 a 85.989585,85.989585 0 0 1 85.98958,-85.989579 85.989585,85.989585 0 0 1 85.98958,85.989579 h 6.61458 a 92.604163,92.604163 0 0 0 -92.60416,-92.604162 z" style="fill:#f0f;fill-opacity:1;stroke:#000;stroke-width:1.32291663;stroke-linecap:round;stroke-linejoin:round;stroke-miterlimit:4;stroke-dasharray:none;stroke-dashoffset:0;stroke-opacity:1"/></g><g id="g1153" transform="translate(-128.53989,50.004564)"><path id="path926" d="m -398.29255,91.344811 a 25.771587,25.896694 0 0 0 -21.55064,11.734169 19.465772,19.560268 0 0 0 -12.18375,-4.327384 19.465772,19.560268 0 0 0 -19.16524,16.258444 24.013851,24.130424 0 0 0 -3.11299,-0.22893 24.013851,24.130424 0 0 0 -24.01403,24.13031 24.013851,24.130424 0 0 0 24.01403,24.13031 24.013851,24.130424 0 0 0 10.30635,-2.36161 19.465772,19.560268 0 0 0 15.94063,8.3752 19.465772,19.560268 0 0 0 13.42916,-5.41156 19.465772,19.560268 0 0 0 13.40745,5.41156 19.465772,19.560268 0 0 0 14.93914,-7.02696 19.465772,19.560268 0 0 0 14.92106,7.02696 19.465772,19.560268 0 0 0 19.46548,-19.56057 19.465772,19.560268 0 0 0 -8.17366,-15.91375 19.465772,19.560268 0 0 0 2.12596,-8.84339 19.465772,19.560268 0 0 0 -17.50487,-19.46031 25.771587,25.896694 0 0 0 -22.84408,-13.932489 z" style="fill:#ccc;fill-opacity:1;stroke:#000;stroke-width:1.63200927;stroke-linecap:round;stroke-linejoin:round;stroke-miterlimit:4;stroke-dasharray:none;stroke-dashoffset:0;stroke-opacity:1"/><g id="g1019" transform="translate(-0.2414001,2.6600079)"><g id="g1003"><g id="g980" transform="translate(0,0.80180858)"><circle style="fill:#000;fill-opacity:1;stroke:none;stroke-width:1.56925273;stroke-linecap:round;stroke-linejoin:round;stroke-miterlimit:4;stroke-dasharray:none;stroke-dashoffset:0;stroke-opacity:1" id="path972" cx="-439.191" cy="126.014" r="2.873"/><circle style="fill:#fff;fill-opacity:1;stroke:none;stroke-width:1.05833328;stroke-linecap:round;stroke-linejoin:round;stroke-miterlimit:4;stroke-dasharray:none;stroke-dashoffset:0;stroke-opacity:1" id="path976" cx="-440.249" cy="124.956" r=".935"/></g><g id="g986" transform="translate(46.237628,0.80180858)"><circle id="circle982" cx="-439.191" cy="126.014" r="2.873" style="fill:#000;fill-opacity:1;stroke:none;stroke-width:1.56925273;stroke-linecap:round;stroke-linejoin:round;stroke-miterlimit:4;stroke-dasharray:none;stroke-dashoffset:0;stroke-opacity:1"/><circle id="circle984" cx="-440.249" cy="124.956" r=".935" style="fill:#fff;fill-opacity:1;stroke:none;stroke-width:1.05833328;stroke-linecap:round;stroke-linejoin:round;stroke-miterlimit:4;stroke-dasharray:none;stroke-dashoffset:0;stroke-opacity:1"/></g></g><path style="fill:none;fill-opacity:1;stroke:#000;stroke-width:1.32291663;stroke-linecap:round;stroke-linejoin:round;stroke-miterlimit:4;stroke-dasharray:none;stroke-dashoffset:0;stroke-opacity:1" id="path995" d="m -412.05444,137.0741 a 4.0183834,3.2760123 0 0 1 10e-4,0.0828 4.0183834,3.2760123 0 0 1 -4.01839,3.27602 4.0183834,3.2760123 0 0 1 -4.01839,-3.27602 v 0 a 4.0183834,3.2760123 0 0 1 10e-4,-0.0829"/><ellipse style="fill:#ff0;fill-opacity:1;stroke:none;stroke-width:1.29970753;stroke-linecap:round;stroke-linejoin:round;stroke-miterlimit:4;stroke-dasharray:none;stroke-dashoffset:0;stroke-opacity:1" id="path1005" cx="-448.553" cy="135.793" rx="3.203" ry="2.646"/><ellipse id="ellipse1007" cx="-381.179" cy="135.793" rx="3.203" ry="2.646" style="fill:#ff0;fill-opacity:1;stroke:none;stroke-width:1.29970753;stroke-linecap:round;stroke-linejoin:round;stroke-miterlimit:4;stroke-dasharray:none;stroke-dashoffset:0;stroke-opacity:1"/></g><g id="g1063" transform="translate(-0.2414001,2.6600092)"><g id="g1055"><g id="g1047" transform="translate(0,0.80180858)"><circle id="circle1043" cx="-439.191" cy="126.014" r="2.873" style="fill:#000;fill-opacity:1;stroke:none;stroke-width:1.56925273;stroke-linecap:round;stroke-linejoin:round;stroke-miterlimit:4;stroke-dasharray:none;stroke-dashoffset:0;stroke-opacity:1"/><circle id="circle1045" cx="-440.249" cy="124.956" r=".935" style="fill:#fff;fill-opacity:1;stroke:none;stroke-width:1.05833328;stroke-linecap:round;stroke-linejoin:round;stroke-miterlimit:4;stroke-dasharray:none;stroke-dashoffset:0;stroke-opacity:1"/></g><g id="g1053" transform="translate(46.237628,0.80180858)"><circle style="fill:#000;fill-opacity:1;stroke:none;stroke-width:1.56925273;stroke-linecap:round;stroke-linejoin:round;stroke-miterlimit:4;stroke-dasharray:none;stroke-dashoffset:0;stroke-opacity:1" id="circle1049" cx="-439.191" cy="126.014" r="2.873"/><circle style="fill:#fff;fill-opacity:1;stroke:none;stroke-width:1.05833328;stroke-linecap:round;stroke-linejoin:round;stroke-miterlimit:4;stroke-dasharray:none;stroke-dashoffset:0;stroke-opacity:1" id="circle1051" cx="-440.249" cy="124.956" r=".935"/></g></g><path id="path1057" d="m -420.08922,140.4234 a 4.0183834,3.2760123 0 0 1 -10e-4,-0.0828 4.0183834,3.2760123 0 0 1 4.01839,-3.27602 4.0183834,3.2760123 0 0 1 4.01839,3.27602 v 0 a 4.0183834,3.2760123 0 0 1 -10e-4,0.0829" style="fill:none;fill-opacity:1;stroke:#000;stroke-width:1.32291663;stroke-linecap:round;stroke-linejoin:round;stroke-miterlimit:4;stroke-dasharray:none;stroke-dashoffset:0;stroke-opacity:1"/><ellipse id="ellipse1059" cx="-448.553" cy="135.793" rx="3.203" ry="2.646" style="fill:#ff0;fill-opacity:1;stroke:none;stroke-width:1.29970753;stroke-linecap:round;stroke-linejoin:round;stroke-miterlimit:4;stroke-dasharray:none;stroke-dashoffset:0;stroke-opacity:1"/><ellipse style="fill:#ff0;fill-opacity:1;stroke:none;stroke-width:1.29970753;stroke-linecap:round;stroke-linejoin:round;stroke-miterlimit:4;stroke-dasharray:none;stroke-dashoffset:0;stroke-opacity:1" id="ellipse1061" cx="-381.179" cy="135.793" rx="3.203" ry="2.646"/></g><g id="g1085" transform="translate(-0.2414001,2.5513391)"><g id="g1077"><g style="fill:none;stroke:red;stroke-width:1.34737039;stroke-miterlimit:4;stroke-dasharray:none" id="g1069" transform="matrix(0.7854806,0,0,0.7854806,-94.999575,27.834323)"><path id="circle1065" d="m -441.07333,125.97806 a 2.8731475,2.8731475 0 0 1 2.87289,-2.83689 2.8731475,2.8731475 0 0 1 2.87294,2.83694" style="fill:none;fill-opacity:1;stroke:red;stroke-width:1.34737039;stroke-linecap:round;stroke-linejoin:round;stroke-miterlimit:4;stroke-dasharray:none;stroke-dashoffset:0;stroke-opacity:1"/><path style="fill:none;fill-opacity:1;stroke:red;stroke-width:1.34737039;stroke-linecap:round;stroke-linejoin:round;stroke-miterlimit:4;stroke-dasharray:none;stroke-dashoffset:0;stroke-opacity:1" id="path1111" d="m -382.1992,125.86708 a 2.8731475,2.8731475 0 0 1 2.87289,-2.8369 2.8731475,2.8731475 0 0 1 2.87293,2.83695"/></g></g><ellipse id="ellipse1081" cx="-448.553" cy="134.82" rx="3.203" ry="1.673" style="fill:#ff0;fill-opacity:1;stroke:none;stroke-width:1.03343594;stroke-linecap:round;stroke-linejoin:round;stroke-miterlimit:4;stroke-dasharray:none;stroke-dashoffset:0;stroke-opacity:1"/><ellipse style="fill:#ff0;fill-opacity:1;stroke:none;stroke-width:1.03343594;stroke-linecap:round;stroke-linejoin:round;stroke-miterlimit:4;stroke-dasharray:none;stroke-dashoffset:0;stroke-opacity:1" id="ellipse1083" cx="-381.179" cy="134.82" rx="3.203" ry="1.673"/><g id="g1118" transform="translate(0,-2.1166667)"><path style="fill:#000;fill-opacity:1;stroke:none;stroke-width:5.93379784;stroke-linecap:round;stroke-linejoin:round;stroke-miterlimit:4;stroke-dasharray:none;stroke-dashoffset:0;stroke-opacity:1" id="path1087" d="m -1591.1445,529.85938 a 17.6875,17.6875 0 0 0 -0.01,0.1875 17.6875,17.6875 0 0 0 17.6875,17.6875 17.6875,17.6875 0 0 0 17.6875,-17.6875 17.6875,17.6875 0 0 0 -0.01,-0.1875 z" transform="matrix(0.26458333,0,0,0.26458333,0.2414001,-1.4930057)"/><path style="fill:red;fill-opacity:1;stroke:none;stroke-width:5.93379784;stroke-linecap:round;stroke-linejoin:round;stroke-miterlimit:4;stroke-dasharray:none;stroke-dashoffset:0;stroke-opacity:1" id="circle1091" d="m -1573.4668,534.57617 a 14.394673,13.510789 0 0 0 -12.9004,7.55469 17.6875,17.6875 0 0 0 12.9004,5.60352 17.6875,17.6875 0 0 0 12.9023,-5.6211 14.394673,13.510789 0 0 0 -12.9023,-7.53711 z" transform="matrix(0.26458333,0,0,0.26458333,0.2414001,-1.4930057)"/></g></g></g><g id="g1289" transform="translate(91.82142,50.004564)"><path id="path1223" d="m -398.29255,91.344811 a 25.771587,25.896694 0 0 0 -21.55064,11.734169 19.465772,19.560268 0 0 0 -12.18375,-4.327384 19.465772,19.560268 0 0 0 -19.16524,16.258444 24.013851,24.130424 0 0 0 -3.11299,-0.22893 24.013851,24.130424 0 0 0 -24.01403,24.13031 24.013851,24.130424 0 0 0 24.01403,24.13031 24.013851,24.130424 0 0 0 10.30635,-2.36161 19.465772,19.560268 0 0 0 15.94063,8.3752 19.465772,19.560268 0 0 0 13.42916,-5.41156 19.465772,19.560268 0 0 0 13.40745,5.41156 19.465772,19.560268 0 0 0 14.93914,-7.02696 19.465772,19.560268 0 0 0 14.92106,7.02696 19.465772,19.560268 0 0 0 19.46548,-19.56057 19.465772,19.560268 0 0 0 -8.17366,-15.91375 19.465772,19.560268 0 0 0 2.12596,-8.84339 19.465772,19.560268 0 0 0 -17.50487,-19.46031 25.771587,25.896694 0 0 0 -22.84408,-13.932489 z" style="fill:#ccc;fill-opacity:1;stroke:#000;stroke-width:1.63200927;stroke-linecap:round;stroke-linejoin:round;stroke-miterlimit:4;stroke-dasharray:none;stroke-dashoffset:0;stroke-opacity:1"/><g id="g1245" transform="translate(-0.2414001,2.6600079)"><g id="g1237"><g id="g1229" transform="translate(0,0.80180858)"><circle style="fill:#000;fill-opacity:1;stroke:none;stroke-width:1.56925273;stroke-linecap:round;stroke-linejoin:round;stroke-miterlimit:4;stroke-dasharray:none;stroke-dashoffset:0;stroke-opacity:1" id="circle1225" cx="-439.191" cy="126.014" r="2.873"/><circle style="fill:#fff;fill-opacity:1;stroke:none;stroke-width:1.05833328;stroke-linecap:round;stroke-linejoin:round;stroke-miterlimit:4;stroke-dasharray:none;stroke-dashoffset:0;stroke-opacity:1" id="circle1227" cx="-440.249" cy="124.956" r=".935"/></g><g id="g1235" transform="translate(46.237628,0.80180858)"><circle id="circle1231" cx="-439.191" cy="126.014" r="2.873" style="fill:#000;fill-opacity:1;stroke:none;stroke-width:1.56925273;stroke-linecap:round;stroke-linejoin:round;stroke-miterlimit:4;stroke-dasharray:none;stroke-dashoffset:0;stroke-opacity:1"/><circle id="circle1233" cx="-440.249" cy="124.956" r=".935" style="fill:#fff;fill-opacity:1;stroke:none;stroke-width:1.05833328;stroke-linecap:round;stroke-linejoin:round;stroke-miterlimit:4;stroke-dasharray:none;stroke-dashoffset:0;stroke-opacity:1"/></g></g><path style="fill:none;fill-opacity:1;stroke:#000;stroke-width:1.32291663;stroke-linecap:round;stroke-linejoin:round;stroke-miterlimit:4;stroke-dasharray:none;stroke-dashoffset:0;stroke-opacity:1" id="path1239" d="m -412.05444,137.0741 a 4.0183834,3.2760123 0 0 1 10e-4,0.0828 4.0183834,3.2760123 0 0 1 -4.01839,3.27602 4.0183834,3.2760123 0 0 1 -4.01839,-3.27602 v 0 a 4.0183834,3.2760123 0 0 1 10e-4,-0.0829"/><ellipse style="fill:#ff0;fill-opacity:1;stroke:none;stroke-width:1.29970753;stroke-linecap:round;stroke-linejoin:round;stroke-miterlimit:4;stroke-dasharray:none;stroke-dashoffset:0;stroke-opacity:1" id="ellipse1241" cx="-448.553" cy="135.793" rx="3.203" ry="2.646"/><ellipse id="ellipse1243" cx="-381.179" cy="135.793" rx="3.203" ry="2.646" style="fill:#ff0;fill-opacity:1;stroke:none;stroke-width:1.29970753;stroke-linecap:round;stroke-linejoin:round;stroke-miterlimit:4;stroke-dasharray:none;stroke-dashoffset:0;stroke-opacity:1"/></g><g id="g1267" transform="translate(-0.2414001,2.6600092)"><g id="g1259"><g id="g1251" transform="translate(0,0.80180858)"><circle id="circle1247" cx="-439.191" cy="126.014" r="2.873" style="fill:#000;fill-opacity:1;stroke:none;stroke-width:1.56925273;stroke-linecap:round;stroke-linejoin:round;stroke-miterlimit:4;stroke-dasharray:none;stroke-dashoffset:0;stroke-opacity:1"/><circle id="circle1249" cx="-440.249" cy="124.956" r=".935" style="fill:#fff;fill-opacity:1;stroke:none;stroke-width:1.05833328;stroke-linecap:round;stroke-linejoin:round;stroke-miterlimit:4;stroke-dasharray:none;stroke-dashoffset:0;stroke-opacity:1"/></g><g id="g1257" transform="translate(46.237628,0.80180858)"><circle style="fill:#000;fill-opacity:1;stroke:none;stroke-width:1.56925273;stroke-linecap:round;stroke-linejoin:round;stroke-miterlimit:4;stroke-dasharray:none;stroke-dashoffset:0;stroke-opacity:1" id="circle1253" cx="-439.191" cy="126.014" r="2.873"/><circle style="fill:#fff;fill-opacity:1;stroke:none;stroke-width:1.05833328;stroke-linecap:round;stroke-linejoin:round;stroke-miterlimit:4;stroke-dasharray:none;stroke-dashoffset:0;stroke-opacity:1" id="circle1255" cx="-440.249" cy="124.956" r=".935"/></g></g><path id="path1261" d="m -420.08922,140.4234 a 4.0183834,3.2760123 0 0 1 -10e-4,-0.0828 4.0183834,3.2760123 0 0 1 4.01839,-3.27602 4.0183834,3.2760123 0 0 1 4.01839,3.27602 v 0 a 4.0183834,3.2760123 0 0 1 -10e-4,0.0829" style="fill:none;fill-opacity:1;stroke:#000;stroke-width:1.32291663;stroke-linecap:round;stroke-linejoin:round;stroke-miterlimit:4;stroke-dasharray:none;stroke-dashoffset:0;stroke-opacity:1"/><ellipse id="ellipse1263" cx="-448.553" cy="135.793" rx="3.203" ry="2.646" style="fill:#ff0;fill-opacity:1;stroke:none;stroke-width:1.29970753;stroke-linecap:round;stroke-linejoin:round;stroke-miterlimit:4;stroke-dasharray:none;stroke-dashoffset:0;stroke-opacity:1"/><ellipse style="fill:#ff0;fill-opacity:1;stroke:none;stroke-width:1.29970753;stroke-linecap:round;stroke-linejoin:round;stroke-miterlimit:4;stroke-dasharray:none;stroke-dashoffset:0;stroke-opacity:1" id="ellipse1265" cx="-381.179" cy="135.793" rx="3.203" ry="2.646"/></g><g id="g1287" transform="translate(-0.2414001,2.5513391)"><g id="g1275"><g style="fill:none;stroke:red;stroke-width:1.34737039;stroke-miterlimit:4;stroke-dasharray:none" id="g1273" transform="matrix(0.7854806,0,0,0.7854806,-94.999575,27.834323)"><path id="path1269" d="m -441.07333,125.97806 a 2.8731475,2.8731475 0 0 1 2.87289,-2.83689 2.8731475,2.8731475 0 0 1 2.87294,2.83694" style="fill:none;fill-opacity:1;stroke:red;stroke-width:1.34737039;stroke-linecap:round;stroke-linejoin:round;stroke-miterlimit:4;stroke-dasharray:none;stroke-dashoffset:0;stroke-opacity:1"/><path style="fill:none;fill-opacity:1;stroke:red;stroke-width:1.34737039;stroke-linecap:round;stroke-linejoin:round;stroke-miterlimit:4;stroke-dasharray:none;stroke-dashoffset:0;stroke-opacity:1" id="path1271" d="m -382.1992,125.86708 a 2.8731475,2.8731475 0 0 1 2.87289,-2.8369 2.8731475,2.8731475 0 0 1 2.87293,2.83695"/></g></g><ellipse id="ellipse1277" cx="-448.553" cy="134.82" rx="3.203" ry="1.673" style="fill:#ff0;fill-opacity:1;stroke:none;stroke-width:1.03343594;stroke-linecap:round;stroke-linejoin:round;stroke-miterlimit:4;stroke-dasharray:none;stroke-dashoffset:0;stroke-opacity:1"/><ellipse style="fill:#ff0;fill-opacity:1;stroke:none;stroke-width:1.03343594;stroke-linecap:round;stroke-linejoin:round;stroke-miterlimit:4;stroke-dasharray:none;stroke-dashoffset:0;stroke-opacity:1" id="ellipse1279" cx="-381.179" cy="134.82" rx="3.203" ry="1.673"/><g id="g1285" transform="translate(0,-2.1166667)"><path style="fill:#000;fill-opacity:1;stroke:none;stroke-width:5.93379784;stroke-linecap:round;stroke-linejoin:round;stroke-miterlimit:4;stroke-dasharray:none;stroke-dashoffset:0;stroke-opacity:1" id="path1281" d="m -1591.1445,529.85938 a 17.6875,17.6875 0 0 0 -0.01,0.1875 17.6875,17.6875 0 0 0 17.6875,17.6875 17.6875,17.6875 0 0 0 17.6875,-17.6875 17.6875,17.6875 0 0 0 -0.01,-0.1875 z" transform="matrix(0.26458333,0,0,0.26458333,0.2414001,-1.4930057)"/><path style="fill:red;fill-opacity:1;stroke:none;stroke-width:5.93379784;stroke-linecap:round;stroke-linejoin:round;stroke-miterlimit:4;stroke-dasharray:none;stroke-dashoffset:0;stroke-opacity:1" id="path1283" d="m -1573.4668,534.57617 a 14.394673,13.510789 0 0 0 -12.9004,7.55469 17.6875,17.6875 0 0 0 12.9004,5.60352 17.6875,17.6875 0 0 0 12.9023,-5.6211 14.394673,13.510789 0 0 0 -12.9023,-7.53711 z" transform="matrix(0.26458333,0,0,0.26458333,0.2414001,-1.4930057)"/></g></g></g><g id="g1357" transform="translate(-22.706563,-55.828766)"><path style="fill:#ccc;fill-opacity:1;stroke:#000;stroke-width:1.63200927;stroke-linecap:round;stroke-linejoin:round;stroke-miterlimit:4;stroke-dasharray:none;stroke-dashoffset:0;stroke-opacity:1" id="path1291" d="m -398.29255,91.344811 a 25.771587,25.896694 0 0 0 -21.55064,11.734169 19.465772,19.560268 0 0 0 -12.18375,-4.327384 19.465772,19.560268 0 0 0 -19.16524,16.258444 24.013851,24.130424 0 0 0 -3.11299,-0.22893 24.013851,24.130424 0 0 0 -24.01403,24.13031 24.013851,24.130424 0 0 0 24.01403,24.13031 24.013851,24.130424 0 0 0 10.30635,-2.36161 19.465772,19.560268 0 0 0 15.94063,8.3752 19.465772,19.560268 0 0 0 13.42916,-5.41156 19.465772,19.560268 0 0 0 13.40745,5.41156 19.465772,19.560268 0 0 0 14.93914,-7.02696 19.465772,19.560268 0 0 0 14.92106,7.02696 19.465772,19.560268 0 0 0 19.46548,-19.56057 19.465772,19.560268 0 0 0 -8.17366,-15.91375 19.465772,19.560268 0 0 0 2.12596,-8.84339 19.465772,19.560268 0 0 0 -17.50487,-19.46031 25.771587,25.896694 0 0 0 -22.84408,-13.932489 z"/><g id="g1313" transform="translate(-0.2414001,2.6600079)"><g id="g1305"><g id="g1297" transform="translate(0,0.80180858)"><circle id="circle1293" cx="-439.191" cy="126.014" r="2.873" style="fill:#000;fill-opacity:1;stroke:none;stroke-width:1.56925273;stroke-linecap:round;stroke-linejoin:round;stroke-miterlimit:4;stroke-dasharray:none;stroke-dashoffset:0;stroke-opacity:1"/><circle id="circle1295" cx="-440.249" cy="124.956" r=".935" style="fill:#fff;fill-opacity:1;stroke:none;stroke-width:1.05833328;stroke-linecap:round;stroke-linejoin:round;stroke-miterlimit:4;stroke-dasharray:none;stroke-dashoffset:0;stroke-opacity:1"/></g><g id="g1303" transform="translate(46.237628,0.80180858)"><circle style="fill:#000;fill-opacity:1;stroke:none;stroke-width:1.56925273;stroke-linecap:round;stroke-linejoin:round;stroke-miterlimit:4;stroke-dasharray:none;stroke-dashoffset:0;stroke-opacity:1" id="circle1299" cx="-439.191" cy="126.014" r="2.873"/><circle style="fill:#fff;fill-opacity:1;stroke:none;stroke-width:1.05833328;stroke-linecap:round;stroke-linejoin:round;stroke-miterlimit:4;stroke-dasharray:none;stroke-dashoffset:0;stroke-opacity:1" id="circle1301" cx="-440.249" cy="124.956" r=".935"/></g></g><path id="path1307" d="m -412.05444,137.0741 a 4.0183834,3.2760123 0 0 1 10e-4,0.0828 4.0183834,3.2760123 0 0 1 -4.01839,3.27602 4.0183834,3.2760123 0 0 1 -4.01839,-3.27602 v 0 a 4.0183834,3.2760123 0 0 1 10e-4,-0.0829" style="fill:none;fill-opacity:1;stroke:#000;stroke-width:1.32291663;stroke-linecap:round;stroke-linejoin:round;stroke-miterlimit:4;stroke-dasharray:none;stroke-dashoffset:0;stroke-opacity:1"/><ellipse id="ellipse1309" cx="-448.553" cy="135.793" rx="3.203" ry="2.646" style="fill:#ff0;fill-opacity:1;stroke:none;stroke-width:1.29970753;stroke-linecap:round;stroke-linejoin:round;stroke-miterlimit:4;stroke-dasharray:none;stroke-dashoffset:0;stroke-opacity:1"/><ellipse style="fill:#ff0;fill-opacity:1;stroke:none;stroke-width:1.29970753;stroke-linecap:round;stroke-linejoin:round;stroke-miterlimit:4;stroke-dasharray:none;stroke-dashoffset:0;stroke-opacity:1" id="ellipse1311" cx="-381.179" cy="135.793" rx="3.203" ry="2.646"/></g><g id="g1335" transform="translate(-0.2414001,2.6600092)"><g id="g1327"><g id="g1319" transform="translate(0,0.80180858)"><circle style="fill:#000;fill-opacity:1;stroke:none;stroke-width:1.56925273;stroke-linecap:round;stroke-linejoin:round;stroke-miterlimit:4;stroke-dasharray:none;stroke-dashoffset:0;stroke-opacity:1" id="circle1315" cx="-439.191" cy="126.014" r="2.873"/><circle style="fill:#fff;fill-opacity:1;stroke:none;stroke-width:1.05833328;stroke-linecap:round;stroke-linejoin:round;stroke-miterlimit:4;stroke-dasharray:none;stroke-dashoffset:0;stroke-opacity:1" id="circle1317" cx="-440.249" cy="124.956" r=".935"/></g><g id="g1325" transform="translate(46.237628,0.80180858)"><circle id="circle1321" cx="-439.191" cy="126.014" r="2.873" style="fill:#000;fill-opacity:1;stroke:none;stroke-width:1.56925273;stroke-linecap:round;stroke-linejoin:round;stroke-miterlimit:4;stroke-dasharray:none;stroke-dashoffset:0;stroke-opacity:1"/><circle id="circle1323" cx="-440.249" cy="124.956" r=".935" style="fill:#fff;fill-opacity:1;stroke:none;stroke-width:1.05833328;stroke-linecap:round;stroke-linejoin:round;stroke-miterlimit:4;stroke-dasharray:none;stroke-dashoffset:0;stroke-opacity:1"/></g></g><path style="fill:none;fill-opacity:1;stroke:#000;stroke-width:1.32291663;stroke-linecap:round;stroke-linejoin:round;stroke-miterlimit:4;stroke-dasharray:none;stroke-dashoffset:0;stroke-opacity:1" id="path1329" d="m -420.08922,140.4234 a 4.0183834,3.2760123 0 0 1 -10e-4,-0.0828 4.0183834,3.2760123 0 0 1 4.01839,-3.27602 4.0183834,3.2760123 0 0 1 4.01839,3.27602 v 0 a 4.0183834,3.2760123 0 0 1 -10e-4,0.0829"/><ellipse style="fill:#ff0;fill-opacity:1;stroke:none;stroke-width:1.29970753;stroke-linecap:round;stroke-linejoin:round;stroke-miterlimit:4;stroke-dasharray:none;stroke-dashoffset:0;stroke-opacity:1" id="ellipse1331" cx="-448.553" cy="135.793" rx="3.203" ry="2.646"/><ellipse id="ellipse1333" cx="-381.179" cy="135.793" rx="3.203" ry="2.646" style="fill:#ff0;fill-opacity:1;stroke:none;stroke-width:1.29970753;stroke-linecap:round;stroke-linejoin:round;stroke-miterlimit:4;stroke-dasharray:none;stroke-dashoffset:0;stroke-opacity:1"/></g><g id="g1355" transform="translate(-0.2414001,2.5513391)"><g id="g1343"><g id="g1341" transform="matrix(0.7854806,0,0,0.7854806,-94.999575,27.834323)" style="fill:none;stroke:red;stroke-width:1.34737039;stroke-miterlimit:4;stroke-dasharray:none"><path style="fill:none;fill-opacity:1;stroke:red;stroke-width:1.34737039;stroke-linecap:round;stroke-linejoin:round;stroke-miterlimit:4;stroke-dasharray:none;stroke-dashoffset:0;stroke-opacity:1" id="path1337" d="m -441.07333,125.97806 a 2.8731475,2.8731475 0 0 1 2.87289,-2.83689 2.8731475,2.8731475 0 0 1 2.87294,2.83694"/><path id="path1339" d="m -382.1992,125.86708 a 2.8731475,2.8731475 0 0 1 2.87289,-2.8369 2.8731475,2.8731475 0 0 1 2.87293,2.83695" style="fill:none;fill-opacity:1;stroke:red;stroke-width:1.34737039;stroke-linecap:round;stroke-linejoin:round;stroke-miterlimit:4;stroke-dasharray:none;stroke-dashoffset:0;stroke-opacity:1"/></g></g><ellipse style="fill:#ff0;fill-opacity:1;stroke:none;stroke-width:1.03343594;stroke-linecap:round;stroke-linejoin:round;stroke-miterlimit:4;stroke-dasharray:none;stroke-dashoffset:0;stroke-opacity:1" id="ellipse1345" cx="-448.553" cy="134.82" rx="3.203" ry="1.673"/><ellipse id="ellipse1347" cx="-381.179" cy="134.82" rx="3.203" ry="1.673" style="fill:#ff0;fill-opacity:1;stroke:none;stroke-width:1.03343594;stroke-linecap:round;stroke-linejoin:round;stroke-miterlimit:4;stroke-dasharray:none;stroke-dashoffset:0;stroke-opacity:1"/><g id="g1353" transform="translate(0,-2.1166667)"><path id="path1349" d="m -1591.1445,529.85938 a 17.6875,17.6875 0 0 0 -0.01,0.1875 17.6875,17.6875 0 0 0 17.6875,17.6875 17.6875,17.6875 0 0 0 17.6875,-17.6875 17.6875,17.6875 0 0 0 -0.01,-0.1875 z" transform="matrix(0.26458333,0,0,0.26458333,0.2414001,-1.4930057)" style="fill:#000;fill-opacity:1;stroke:none;stroke-width:5.93379784;stroke-linecap:round;stroke-linejoin:round;stroke-miterlimit:4;stroke-dasharray:none;stroke-dashoffset:0;stroke-opacity:1"/><path id="path1351" d="m -1573.4668,534.57617 a 14.394673,13.510789 0 0 0 -12.9004,7.55469 17.6875,17.6875 0 0 0 12.9004,5.60352 17.6875,17.6875 0 0 0 12.9023,-5.6211 14.394673,13.510789 0 0 0 -12.9023,-7.53711 z" transform="matrix(0.26458333,0,0,0.26458333,0.2414001,-1.4930057)" style="fill:red;fill-opacity:1;stroke:none;stroke-width:5.93379784;stroke-linecap:round;stroke-linejoin:round;stroke-miterlimit:4;stroke-dasharray:none;stroke-dashoffset:0;stroke-opacity:1"/></g></g></g></g></svg>