<svg xmlns="http://www.w3.org/2000/svg" xmlns:svg="http://www.w3.org/2000/svg" id="svg8" width="185.001" height="175.106" version="1.1" viewBox="0 0 48.948 46.33"><metadata id="metadata5"/><g id="layer1" transform="translate(-24.19025,-107.23728)"><g id="g1025"><rect id="rect946" width="32.808" height="32.279" x="35.567" y="121.279" style="opacity:1;fill:#f2f2f2;fill-opacity:1;fill-rule:nonzero;stroke:none;stroke-width:.51895297;stroke-linecap:round;stroke-linejoin:round;stroke-miterlimit:4;stroke-dasharray:none;stroke-dashoffset:0;stroke-opacity:1"/><rect id="rect815" width="42.333" height="37.042" x="30.805" y="116.516" style="opacity:1;fill:#000;fill-opacity:1;fill-rule:nonzero;stroke:none;stroke-width:.09973218;stroke-linecap:round;stroke-linejoin:round;stroke-miterlimit:4;stroke-dasharray:none;stroke-dashoffset:0;stroke-opacity:1"/><path id="rect879" d="m 116.42773,440.30664 v 0.0703 18 122 h 18 v -122 h 124 V 580.4121 h 18 V 440.3418 h -18 v 0.0352 h -124 v -0.0703 z" transform="scale(0.26458333)" style="opacity:1;fill:#666;fill-opacity:1;fill-rule:nonzero;stroke:none;stroke-width:2.24469519;stroke-linecap:round;stroke-linejoin:round;stroke-miterlimit:4;stroke-dasharray:none;stroke-dashoffset:0;stroke-opacity:1"/><path id="path869" d="m 51.971731,107.23728 a 6.6145835,6.6145835 0 0 0 -6.614583,6.61459 h 13.229166 a 6.6145835,6.6145835 0 0 0 -6.614583,-6.61459 z" style="opacity:1;fill:#999;fill-opacity:1;fill-rule:nonzero;stroke:none;stroke-width:.61736107;stroke-linecap:round;stroke-linejoin:round;stroke-miterlimit:4;stroke-dasharray:none;stroke-dashoffset:0;stroke-opacity:1"/><rect id="rect881" width="3.969" height="5.292" x="24.19" y="138.597" style="opacity:1;fill:#999;fill-opacity:1;fill-rule:nonzero;stroke:none;stroke-width:.51700026;stroke-linecap:round;stroke-linejoin:round;stroke-miterlimit:4;stroke-dasharray:none;stroke-dashoffset:0;stroke-opacity:1"/><rect id="rect948" width="32.808" height="10.583" x="35.568" y="142.975" style="opacity:1;fill:#333;fill-opacity:1;fill-rule:nonzero;stroke:none;stroke-width:.51484168;stroke-linecap:round;stroke-linejoin:round;stroke-miterlimit:4;stroke-dasharray:none;stroke-dashoffset:0;stroke-opacity:1"/><rect id="rect953" width="32.808" height="5.719" x="35.568" y="138.314" style="opacity:1;fill:#ccc;fill-opacity:1;fill-rule:nonzero;stroke:none;stroke-width:.77776468;stroke-linecap:round;stroke-linejoin:round;stroke-miterlimit:4;stroke-dasharray:none;stroke-dashoffset:0;stroke-opacity:1"/><rect id="rect955" width="32.809" height="18.999" x="35.567" y="121.279" style="opacity:1;fill:#afdde9;fill-opacity:1;fill-rule:nonzero;stroke:none;stroke-width:.55884582;stroke-linecap:round;stroke-linejoin:round;stroke-miterlimit:4;stroke-dasharray:none;stroke-dashoffset:0;stroke-opacity:1"/><path style="fill:red;stroke:none;stroke-width:.52734011" id="path957" d="m 53.370049,133.17497 c 0.26367,-0.12656 0.5748,-0.0105 0.701362,0.25313 l 1.212882,2.63142 0.949213,-0.44823 -1.218156,-2.62616 c -0.126562,-0.26367 -0.01055,-0.58007 0.253123,-0.70136 l 0.147656,-0.0422 1.212882,-0.2373 -4.350556,-3.65447 v 5.68473 l 0.959759,-0.77519 0.131835,-0.0844 m 1.882604,4.06051 c -0.26367,0.12657 -0.580074,0.0158 -0.701362,-0.24784 l -1.149602,-2.4996 -1.323624,1.06523 c -0.08965,0.0738 -0.200389,0.11601 -0.326951,0.11601 a 0.52734014,0.52734014 0 0 1 -0.52734,-0.52734 v -7.9101 a 0.52734014,0.52734014 0 0 1 0.52734,-0.52734 c 0.126562,0 0.24785,0.0475 0.337498,0.12129 l 0.0053,-0.005 6.059139,5.08356 c 0.226756,0.18984 0.253123,0.52207 0.06855,0.74355 -0.0791,0.0949 -0.189843,0.1582 -0.300584,0.17929 l -1.666395,0.32696 1.160148,2.49431 c 0.137109,0.26367 0.01055,0.57481 -0.253123,0.69609 z"/><path id="rect959" d="m 39.44707,121.27895 -3.879866,3.87986 v 11.37709 l 15.256949,-15.25695 z" style="opacity:1;fill:#f2f2f2;fill-opacity:1;fill-rule:nonzero;stroke:none;stroke-width:.52916664;stroke-linecap:round;stroke-linejoin:round;stroke-miterlimit:4;stroke-dasharray:none;stroke-dashoffset:0;stroke-opacity:1"/><path id="rect961" d="M 54.56656,121.27895 35.567204,140.2783 h 5.820833 l 18.999356,-18.99935 z" style="opacity:1;fill:#f2f2f2;fill-opacity:1;fill-rule:nonzero;stroke:none;stroke-width:.49640229;stroke-linecap:round;stroke-linejoin:round;stroke-miterlimit:4;stroke-dasharray:none;stroke-dashoffset:0;stroke-opacity:1"/><rect id="rect983" width=".661" height="4.498" x="51.641" y="108.617" ry=".308" style="opacity:1;fill:#1a1a1a;fill-opacity:1;fill-rule:nonzero;stroke:none;stroke-width:.52916664;stroke-linecap:round;stroke-linejoin:round;stroke-miterlimit:4;stroke-dasharray:none;stroke-dashoffset:0;stroke-opacity:1"/><path style="opacity:1;fill:#333;fill-opacity:1;fill-rule:nonzero;stroke:none;stroke-width:.51463014;stroke-linecap:round;stroke-linejoin:round;stroke-miterlimit:4;stroke-dasharray:none;stroke-dashoffset:0;stroke-opacity:1" id="path990" d="m 26.174626,143.31017 c -1.322917,-1.5875 0,0 -1.322917,-1.5875 h 2.645833 c -1.322916,1.5875 0,0 -1.322916,1.5875 z"/><path id="path992" d="m 26.174625,139.17606 c 1.322917,1.5875 0,0 1.322917,1.5875 h -2.645833 c 1.322916,-1.5875 0,0 1.322916,-1.5875 z" style="opacity:1;fill:#333;fill-opacity:1;fill-rule:nonzero;stroke:none;stroke-width:.51463014;stroke-linecap:round;stroke-linejoin:round;stroke-miterlimit:4;stroke-dasharray:none;stroke-dashoffset:0;stroke-opacity:1"/><path style="opacity:1;fill:#333;fill-opacity:1;fill-rule:nonzero;stroke:none;stroke-width:.51463014;stroke-linecap:round;stroke-linejoin:round;stroke-miterlimit:4;stroke-dasharray:none;stroke-dashoffset:0;stroke-opacity:1" id="path994" d="m 49.325898,141.52423 c 1.322917,1.5875 0,0 1.322917,1.5875 h -2.645833 c 1.322916,-1.5875 0,0 1.322916,-1.5875 z"/><path id="path996" d="m 54.617569,143.11173 c -1.322917,-1.5875 0,0 -1.322917,-1.5875 h 2.645833 c -1.322916,1.5875 0,0 -1.322916,1.5875 z" style="opacity:1;fill:#333;fill-opacity:1;fill-rule:nonzero;stroke:none;stroke-width:.51463014;stroke-linecap:round;stroke-linejoin:round;stroke-miterlimit:4;stroke-dasharray:none;stroke-dashoffset:0;stroke-opacity:1"/><path id="path2" d="m 49.457733,141.43986 c 0.26367,-0.12656 0.5748,-0.0105 0.701362,0.25313 l 1.212882,2.63142 0.949213,-0.44823 -1.218156,-2.62616 c -0.126562,-0.26367 -0.01055,-0.58007 0.253123,-0.70136 l 0.147656,-0.0422 1.212882,-0.2373 -4.350556,-3.65447 v 5.68473 l 0.959759,-0.77519 0.131835,-0.0844 m 1.882604,4.06051 c -0.26367,0.12657 -0.580074,0.0158 -0.701362,-0.24784 l -1.149602,-2.4996 -1.323624,1.06523 c -0.08965,0.0738 -0.200389,0.11601 -0.326951,0.11601 a 0.52734014,0.52734014 0 0 1 -0.52734,-0.52734 v -7.9101 a 0.52734014,0.52734014 0 0 1 0.52734,-0.52734 c 0.126562,0 0.24785,0.0475 0.337498,0.12129 l 0.0053,-0.005 6.059139,5.08356 c 0.226756,0.18984 0.253123,0.52207 0.06855,0.74355 -0.0791,0.0949 -0.189843,0.1582 -0.300584,0.17929 l -1.666395,0.32696 1.160148,2.49431 c 0.137109,0.26367 0.01055,0.57481 -0.253123,0.69609 z" style="fill:red;stroke:none;stroke-width:.52734011"/><g id="g944" transform="translate(-52.652096,-7.6264648)"><rect style="opacity:1;fill:#999;fill-opacity:1;fill-rule:nonzero;stroke:none;stroke-width:.33629149;stroke-linecap:round;stroke-linejoin:round;stroke-miterlimit:4;stroke-dasharray:none;stroke-dashoffset:0;stroke-opacity:1" id="rect886" width="16.404" height="32.279" x="88.219" y="128.905"/><path style="opacity:1;fill:#f2f2f2;fill-opacity:1;fill-rule:nonzero;stroke:none;stroke-width:1.99999988;stroke-linecap:round;stroke-linejoin:round;stroke-miterlimit:4;stroke-dasharray:none;stroke-dashoffset:0;stroke-opacity:1" id="rect888" d="m 370.94922,487.20117 -37.52149,37.52149 v 36.42773 l 62,-62 v -11.94922 z" transform="scale(0.26458333)"/><path style="opacity:1;fill:#f2f2f2;fill-opacity:1;fill-rule:nonzero;stroke:none;stroke-width:1.34310138;stroke-linecap:round;stroke-linejoin:round;stroke-miterlimit:4;stroke-dasharray:none;stroke-dashoffset:0;stroke-opacity:1" id="rect890" d="m 395.42773,513.29297 -62,62 v 16.42773 l 62,-62 z" transform="scale(0.26458333)"/></g><g id="g933" transform="translate(-52.652096,-7.6264648)"><rect id="rect917" width="16.404" height="32.279" x="104.624" y="128.905" style="opacity:1;fill:#999;fill-opacity:1;fill-rule:nonzero;stroke:none;stroke-width:.33629149;stroke-linecap:round;stroke-linejoin:round;stroke-miterlimit:4;stroke-dasharray:none;stroke-dashoffset:0;stroke-opacity:1"/><path style="opacity:1;fill:#f2f2f2;fill-opacity:1;fill-rule:nonzero;stroke:none;stroke-width:1.34310138;stroke-linecap:round;stroke-linejoin:round;stroke-miterlimit:4;stroke-dasharray:none;stroke-dashoffset:0;stroke-opacity:1" id="rect919" d="m 421.51953,487.20117 -26.0918,26.0918 v 16.42773 l 41.33008,-41.33008 -1.18945,-1.18945 z" transform="scale(0.26458333)"/><path style="opacity:1;fill:#f2f2f2;fill-opacity:1;fill-rule:nonzero;stroke:none;stroke-width:1.99999988;stroke-linecap:round;stroke-linejoin:round;stroke-miterlimit:4;stroke-dasharray:none;stroke-dashoffset:0;stroke-opacity:1" id="rect925" d="m 395.42773,487.20117 v 11.94922 l 11.94922,-11.94922 z" transform="scale(0.26458333)"/></g></g></g></svg>