<svg xmlns="http://www.w3.org/2000/svg" xmlns:svg="http://www.w3.org/2000/svg" id="svg8" width="223.25" height="207.546" version="1.1" viewBox="0 0 59.068 54.913"><metadata id="metadata5"/><g id="layer1" transform="translate(-70.967674,-112.10752)"><g id="g994" transform="translate(19.587616,-5.1859387)"><circle id="circle990" cx="89.268" cy="124.57" r="5.953" style="fill:#a05a2c;fill-opacity:1;stroke:none;stroke-width:1.71068001;stroke-linecap:round;stroke-linejoin:round;stroke-miterlimit:4;stroke-dasharray:none;stroke-dashoffset:0;stroke-opacity:1"/><circle style="fill:#fca;fill-opacity:1;stroke:none;stroke-width:1.241189;stroke-linecap:round;stroke-linejoin:round;stroke-miterlimit:4;stroke-dasharray:none;stroke-dashoffset:0;stroke-opacity:1" id="circle992" cx="89.268" cy="124.57" r="4.319"/></g><g id="g988" transform="translate(3.1834476,-5.1859387)"><circle style="fill:#a05a2c;fill-opacity:1;stroke:none;stroke-width:1.71068001;stroke-linecap:round;stroke-linejoin:round;stroke-miterlimit:4;stroke-dasharray:none;stroke-dashoffset:0;stroke-opacity:1" id="circle984" cx="89.268" cy="124.57" r="5.953"/><circle id="circle986" cx="89.268" cy="124.57" r="4.319" style="fill:#fca;fill-opacity:1;stroke:none;stroke-width:1.241189;stroke-linecap:round;stroke-linejoin:round;stroke-miterlimit:4;stroke-dasharray:none;stroke-dashoffset:0;stroke-opacity:1"/></g><rect id="rect892" width="5.196" height="19.637" x="174.938" y="-19.413" ry="2.598" transform="matrix(0.69012309,0.72369201,0.69115714,-0.72270451,0,0)" style="fill:#a05a2c;fill-opacity:1;stroke:none;stroke-width:1.51442385;stroke-linecap:round;stroke-linejoin:round;stroke-miterlimit:4;stroke-dasharray:none;stroke-dashoffset:0;stroke-opacity:1"/><rect style="fill:#a05a2c;fill-opacity:1;stroke:none;stroke-width:1.51442385;stroke-linecap:round;stroke-linejoin:round;stroke-miterlimit:4;stroke-dasharray:none;stroke-dashoffset:0;stroke-opacity:1" id="rect890" width="5.196" height="19.637" x="29.518" y="-165.031" ry="2.598" transform="matrix(-0.69012309,0.72369201,-0.69115714,-0.72270451,0,0)"/><path style="fill:#784421;fill-opacity:1;stroke:none;stroke-width:4.03573847;stroke-linecap:round;stroke-linejoin:round;stroke-miterlimit:4;stroke-dasharray:none;stroke-dashoffset:0;stroke-opacity:1" id="rect843" d="m 355.87695,602.44336 4.27149,15.0332 a 19.999999,19.999999 0 0 0 -2.25782,-0.14453 19.999999,19.999999 0 0 0 -19.00585,13.92774 h 82.01757 a 19.999999,19.999999 0 0 0 -19.01172,-13.92774 19.999999,19.999999 0 0 0 -2.25585,0.14063 l 4.26953,-15.0293 z" transform="scale(0.26458333)"/><g id="g837" transform="translate(22.048752)"><circle style="fill:#a05a2c;fill-opacity:1;stroke:none;stroke-width:1.71068001;stroke-linecap:round;stroke-linejoin:round;stroke-miterlimit:4;stroke-dasharray:none;stroke-dashoffset:0;stroke-opacity:1" id="circle833" cx="89.268" cy="124.57" r="5.953"/><circle id="circle835" cx="89.268" cy="124.57" r="4.319" style="fill:#fca;fill-opacity:1;stroke:none;stroke-width:1.241189;stroke-linecap:round;stroke-linejoin:round;stroke-miterlimit:4;stroke-dasharray:none;stroke-dashoffset:0;stroke-opacity:1"/></g><g id="g831"><circle id="path817" cx="89.268" cy="124.57" r="5.953" style="fill:#a05a2c;fill-opacity:1;stroke:none;stroke-width:1.71068001;stroke-linecap:round;stroke-linejoin:round;stroke-miterlimit:4;stroke-dasharray:none;stroke-dashoffset:0;stroke-opacity:1"/><circle style="fill:#fca;fill-opacity:1;stroke:none;stroke-width:1.241189;stroke-linecap:round;stroke-linejoin:round;stroke-miterlimit:4;stroke-dasharray:none;stroke-dashoffset:0;stroke-opacity:1" id="circle827" cx="89.268" cy="124.57" r="4.319"/></g><circle style="fill:#a05a2c;fill-opacity:1;stroke:none;stroke-width:1.10022092;stroke-linecap:round;stroke-linejoin:round;stroke-miterlimit:4;stroke-dasharray:none;stroke-dashoffset:0;stroke-opacity:1" id="path823" cx="100.513" cy="149.05" r="13.229"/><circle style="fill:#a05a2c;fill-opacity:1;stroke:none;stroke-width:.44829407;stroke-linecap:round;stroke-linejoin:round;stroke-miterlimit:4;stroke-dasharray:none;stroke-dashoffset:0;stroke-opacity:1" id="path815" cx="100.513" cy="128.759" r="13.229"/><circle style="fill:#e9c6af;fill-opacity:1;stroke:none;stroke-width:2.26772857;stroke-linecap:round;stroke-linejoin:round;stroke-miterlimit:4;stroke-dasharray:none;stroke-dashoffset:0;stroke-opacity:1" id="path821" cx="100.292" cy="132.974" r="5.945"/><ellipse style="fill:#000;fill-opacity:1;stroke:none;stroke-width:1.05833328;stroke-linecap:round;stroke-linejoin:round;stroke-miterlimit:4;stroke-dasharray:none;stroke-dashoffset:0;stroke-opacity:1" id="path825" cx="100.292" cy="129.552" rx="1.561" ry="1.162"/><g id="g936" transform="translate(17.991638)"><circle style="fill:#000;fill-opacity:1;stroke:none;stroke-width:1.12069666;stroke-linecap:round;stroke-linejoin:round;stroke-miterlimit:4;stroke-dasharray:none;stroke-dashoffset:0;stroke-opacity:1" id="circle932" cx="91.364" cy="128.156" r="1.323"/><circle style="fill:#fff;fill-opacity:1;stroke:none;stroke-width:.64326513;stroke-linecap:round;stroke-linejoin:round;stroke-miterlimit:4;stroke-dasharray:none;stroke-dashoffset:0;stroke-opacity:1" id="circle934" cx="91.894" cy="127.627" r=".265"/></g><circle style="fill:#e9c6af;fill-opacity:1;stroke:none;stroke-width:1.30991113;stroke-linecap:round;stroke-linejoin:round;stroke-miterlimit:4;stroke-dasharray:none;stroke-dashoffset:0;stroke-opacity:1" id="path888" cx="100.513" cy="149.05" r="8.599"/><g id="g924" transform="matrix(1.1695226,0,0,1.1695226,53.210041,-24.433414)"><path style="fill:red;fill-opacity:1;stroke:none;stroke-width:4.6780901;stroke-linecap:round;stroke-linejoin:round;stroke-miterlimit:4;stroke-dasharray:none;stroke-dashoffset:0;stroke-opacity:1" id="path917" d="M 103.31641 123.66211 C 100.85501 123.66211 98.393866 124.60418 96.507812 126.49023 C 92.735716 130.26233 92.735716 136.33533 96.507812 140.10742 L 98.367188 141.9707 L 111.98633 155.58789 L 125.60547 141.9707 L 126.82422 140.75 C 130.59633 136.9779 130.59633 130.90296 126.82422 127.13086 C 124.93818 125.24481 122.47724 124.30078 120.01562 124.30078 C 117.55401 124.30078 115.09113 125.24481 113.20508 127.13086 L 111.98633 128.35156 L 110.12695 126.49023 C 108.2409 124.60418 105.7778 123.66211 103.31641 123.66211 z" transform="matrix(0.22623191,0,0,0.22623191,15.18366,116.74929)"/></g><g id="g930"><circle id="path839" cx="91.364" cy="128.156" r="1.323" style="fill:#000;fill-opacity:1;stroke:none;stroke-width:1.12069666;stroke-linecap:round;stroke-linejoin:round;stroke-miterlimit:4;stroke-dasharray:none;stroke-dashoffset:0;stroke-opacity:1"/><circle id="path926" cx="91.894" cy="127.627" r=".265" style="fill:#fff;fill-opacity:1;stroke:none;stroke-width:.64326513;stroke-linecap:round;stroke-linejoin:round;stroke-miterlimit:4;stroke-dasharray:none;stroke-dashoffset:0;stroke-opacity:1"/></g><g id="g942" transform="translate(0,3.1750001)"><circle style="fill:#faa;fill-opacity:1;stroke:none;stroke-width:1.12069666;stroke-linecap:round;stroke-linejoin:round;stroke-miterlimit:4;stroke-dasharray:none;stroke-dashoffset:0;stroke-opacity:1" id="circle938" cx="91.364" cy="128.156" r="1.323"/></g><g id="g948" transform="translate(17.991638,3.1750001)" style="fill:#faa"><circle id="circle944" cx="91.364" cy="128.156" r="1.323" style="fill:#faa;fill-opacity:1;stroke:none;stroke-width:1.12069666;stroke-linecap:round;stroke-linejoin:round;stroke-miterlimit:4;stroke-dasharray:none;stroke-dashoffset:0;stroke-opacity:1"/></g><path style="fill:#000;fill-opacity:1;stroke:none;stroke-width:1.26229846;stroke-linecap:round;stroke-linejoin:round;stroke-miterlimit:4;stroke-dasharray:none;stroke-dashoffset:0;stroke-opacity:1" id="path950" d="m 98.069425,133.1097 a 2.2359423,2.2359423 0 0 0 2.221095,2.00623 2.2359423,2.2359423 0 0 0 2.22459,-2.00623 z"/><path style="fill:red;fill-opacity:1;stroke:none;stroke-width:3.99999976;stroke-linecap:round;stroke-linejoin:round;stroke-miterlimit:4;stroke-dasharray:none;stroke-dashoffset:0;stroke-opacity:1" id="path955" d="m 381.61914,506.93555 a 2.8816937,2.7444701 0 0 0 -2.88281,2.74414 2.8816937,2.7444701 0 0 0 0.19531,0.99023 8.4508055,8.4508055 0 0 0 0.11914,0.004 8.4508055,8.4508055 0 0 0 5.29492,-1.8711 2.8816937,2.7444701 0 0 0 -2.72656,-1.86718 z" transform="scale(0.26458333)"/><g id="g976" transform="translate(20.743392,-2.8237912)"><path id="circle961" d="m 261.96289,495.69531 a 4.9999998,4.9999998 0 0 0 4.94922,4.34766 4.9999998,4.9999998 0 0 0 4.95312,-4.34766 z" transform="scale(0.26458333)" style="fill:#000;fill-opacity:1;stroke:none;stroke-width:4.23570395;stroke-linecap:round;stroke-linejoin:round;stroke-miterlimit:4;stroke-dasharray:none;stroke-dashoffset:0;stroke-opacity:1"/><circle style="fill:#fff;fill-opacity:1;stroke:none;stroke-width:.64326513;stroke-linecap:round;stroke-linejoin:round;stroke-miterlimit:4;stroke-dasharray:none;stroke-dashoffset:0;stroke-opacity:1" id="circle963" cx="71.15" cy="131.51" r=".265"/></g><g id="g982" transform="translate(38.73503,-2.8237912)"><path style="fill:#000;fill-opacity:1;stroke:none;stroke-width:4.23570395;stroke-linecap:round;stroke-linejoin:round;stroke-miterlimit:4;stroke-dasharray:none;stroke-dashoffset:0;stroke-opacity:1" id="path978" d="m 261.96289,495.69531 a 4.9999998,4.9999998 0 0 0 4.94922,4.34766 4.9999998,4.9999998 0 0 0 4.95312,-4.34766 z" transform="scale(0.26458333)"/><circle id="circle980" cx="71.15" cy="131.51" r=".265" style="fill:#fff;fill-opacity:1;stroke:none;stroke-width:.64326513;stroke-linecap:round;stroke-linejoin:round;stroke-miterlimit:4;stroke-dasharray:none;stroke-dashoffset:0;stroke-opacity:1"/></g></g></svg>