<svg xmlns="http://www.w3.org/2000/svg" xmlns:svg="http://www.w3.org/2000/svg" id="svg8" width="2880" height="200" version="1.1" viewBox="0 0 762 52.917"><metadata id="metadata5"/><g id="layer1" transform="translate(376.46429,-238.03572)"><path id="rect816" d="m -376.46429,238.03572 c 22.86329,0 40.63671,25.92917 63.5,25.92917 22.86329,0 40.63671,-25.92917 63.5,-25.92917 22.86329,0 40.63671,25.92917 63.5,25.92917 22.86329,0 40.63671,-25.92917 63.5,-25.92917 22.863293,0 40.636707,25.92917 63.5,25.92917 22.863293,0 40.636707,-25.92917 63.5,-25.92917 22.863293,0 40.636707,25.92917 63.5,25.92917 22.863293,0 40.63671,-25.92917 63.5,-25.92917 22.86329,0 40.63671,25.92917 63.5,25.92917 22.86329,0 40.63671,-25.92917 63.5,-25.92917 22.86329,0 40.63671,25.92917 63.5,25.92917 22.86329,0 40.63671,-25.92917 63.5,-25.92917 0,52.91667 0,52.91667 0,52.91667 h -762 z" style="opacity:1;fill:purple;fill-opacity:1;fill-rule:nonzero;stroke:none;stroke-width:1.30113518;stroke-linecap:round;stroke-linejoin:round;stroke-miterlimit:4;stroke-dasharray:none;stroke-dashoffset:0;stroke-opacity:1"/></g></svg>