<svg xmlns="http://www.w3.org/2000/svg" xmlns:svg="http://www.w3.org/2000/svg" id="svg1537" width="104.979" height="103.029" version="1.1" viewBox="0 0 27.776 27.26"><metadata id="metadata1534"/><g id="layer1" transform="translate(-49.722722,-116.80432)"><path style="opacity:.47400004;fill:#f55;fill-opacity:1;fill-rule:nonzero;stroke:#000;stroke-width:.60581982;stroke-linecap:round;stroke-linejoin:round;stroke-miterlimit:4;stroke-dasharray:none;stroke-dashoffset:0;stroke-opacity:1" id="rect2084" d="m 62.189396,127.69166 c -0.414286,0.0148 -0.80923,0.17037 -1.110207,0.47135 -0.654162,0.65416 -0.620136,1.75202 0.05282,2.52652 2.478473,2.48826 0,0 2.478473,2.48826 2.478472,-2.48852 0,0 2.478472,-2.48852 0.672862,-0.77448 0.707201,-1.87212 0.05307,-2.52626 -0.655581,-0.65559 -1.756785,-0.61986 -2.531544,0.0574 -0.419046,-0.36623 -0.933027,-0.546 -1.421084,-0.5287 z"/><path id="path2091" d="m 62.189396,127.69166 c -0.414286,0.0148 -0.80923,0.17037 -1.110207,0.47135 -0.654162,0.65416 -0.620136,1.75202 0.05282,2.52652 2.478473,2.48826 0,0 2.478473,2.48826 2.478472,-2.48852 0,0 2.478472,-2.48852 0.672862,-0.77448 0.707201,-1.87212 0.05307,-2.52626 -0.655581,-0.65559 -1.756785,-0.61986 -2.531544,0.0574 -0.419046,-0.36623 -0.933027,-0.546 -1.421084,-0.5287 z" style="opacity:.47400004;fill:#f55;fill-opacity:1;fill-rule:nonzero;stroke:#000;stroke-width:.60581982;stroke-linecap:round;stroke-linejoin:round;stroke-miterlimit:4;stroke-dasharray:none;stroke-dashoffset:0;stroke-opacity:1"/><circle style="opacity:.47400004;fill:#f55;fill-opacity:1;fill-rule:nonzero;stroke:none;stroke-width:3.56433582;stroke-linecap:round;stroke-linejoin:round;stroke-miterlimit:4;stroke-dasharray:none;stroke-dashoffset:0;stroke-opacity:1" id="path2093" cx="63.611" cy="129.905" r=".661"/></g></svg>