<svg xmlns="http://www.w3.org/2000/svg" xmlns:svg="http://www.w3.org/2000/svg" id="svg4136" class="pancake" preserveAspectRatio="xMinYMin" version="1.1" viewBox="0 0 125 125"><metadata id="metadata4167"/><g id="layer7" style="display:inline"><path style="fill:#ffa4f2;fill-opacity:1" id="path4364" d="m 343.45031,659.9834 c 0,34.51779 -27.9822,62.49999 -62.49999,62.49999 -34.51779,0 -62.49999,-27.9822 -62.49999,-62.49999 0,-34.51779 27.9822,-62.49999 62.49999,-62.49999 34.51779,0 62.49999,27.9822 62.49999,62.49999 z" transform="translate(-218.45033,-597.48341)"/><circle style="opacity:1;fill:#a4a8ff;fill-opacity:1;stroke:none;stroke-width:2;stroke-linecap:round;stroke-linejoin:round;stroke-miterlimit:4;stroke-dasharray:none;stroke-opacity:1" id="path5075" cx="62.5" cy="62.5" r="57.5"/><path style="opacity:1;fill:none;fill-opacity:1;stroke:#000;stroke-width:2;stroke-linecap:round;stroke-linejoin:round;stroke-miterlimit:4;stroke-dasharray:none;stroke-opacity:1" id="path5094" d="m 39.876477,87.578884 a 16.605942,15.835202 0 0 1 10.114028,-3.275931 16.605942,15.835202 0 0 1 13.035631,6.025321"/><path style="opacity:1;fill:none;fill-opacity:1;stroke:#000;stroke-width:2;stroke-linecap:round;stroke-linejoin:round;stroke-miterlimit:4;stroke-dasharray:none;stroke-opacity:1" id="path5081" d="M 61.906521 110.36384 A 15.728429 15.44816 0 0 1 58.823153 101.17712 A 15.728429 15.44816 0 0 1 74.551582 85.728956 A 15.728429 15.44816 0 0 1 87.521224 92.437812"/></g></svg>