<svg xmlns="http://www.w3.org/2000/svg" fill="none" class="svg-saber" viewBox="0 2887 229 3677"><rect width="92" height="302" x="70" y="3375" fill="#939393" rx="14"/><rect width="92" height="302" x="70" y="3375" fill="url(#a)" rx="14"/><rect width="50" height="273" x="89" y="2887" fill="#000"/><rect width="50" height="273" x="89" y="2887" fill="url(#b)"/><rect width="93" height="200" x="70" y="3097" fill="#000"/><rect width="93" height="200" x="70" y="3097" fill="url(#c)"/><path fill="#000" d="M70 3286.5h93l10 36.5H60l10-36.5z"/><path fill="url(#d)" d="M70 3286.5h93l10 36.5H60l10-36.5z"/><rect width="66" height="63" x="81" y="2902" fill="#C4C4C4"/><rect width="66" height="63" x="81" y="2902" fill="url(#e)"/><rect width="88" height="59" x="70" y="2895" fill="#BDBDBD"/><rect width="88" height="59" x="70" y="2895" fill="url(#f)"/><rect width="112" height="11" x="60" y="3097" fill="#BDBDBD" rx="5.5"/><rect width="112" height="11" x="60" y="3097" fill="url(#g)" rx="5.5"/><rect width="112" height="11" x="60" y="3118" fill="#BDBDBD" rx="5.5"/><rect width="112" height="11" x="60" y="3118" fill="url(#h)" rx="5.5"/><rect width="112" height="11" x="60" y="3139" fill="#BDBDBD" rx="5.5"/><rect width="112" height="11" x="60" y="3139" fill="url(#i)" rx="5.5"/><rect width="112" height="11" x="60" y="3160" fill="#BDBDBD" rx="5.5"/><rect width="112" height="11" x="60" y="3160" fill="url(#j)" rx="5.5"/><rect width="112" height="11" x="60" y="3181" fill="#BDBDBD" rx="5.5"/><rect width="112" height="11" x="60" y="3181" fill="url(#k)" rx="5.5"/><rect width="112" height="11" x="60" y="3202" fill="#BDBDBD" rx="5.5"/><rect width="112" height="11" x="60" y="3202" fill="url(#l)" rx="5.5"/><rect width="112" height="11" x="60" y="3223" fill="#BDBDBD" rx="5.5"/><rect width="112" height="11" x="60" y="3223" fill="url(#m)" rx="5.5"/><rect width="112" height="11" x="60" y="3244" fill="#BDBDBD" rx="5.5"/><rect width="112" height="11" x="60" y="3244" fill="url(#n)" rx="5.5"/><rect width="112" height="11" x="60" y="3265" fill="#BDBDBD" rx="5.5"/><rect width="112" height="11" x="60" y="3265" fill="url(#o)" rx="5.5"/><rect width="112" height="11" x="60" y="3286" fill="#BDBDBD" rx="5.5"/><rect width="112" height="11" x="60" y="3286" fill="url(#p)" rx="5.5"/><rect width="86" height="45" x="71" y="3012" fill="#BDBDBD"/><rect width="86" height="45" x="71" y="3012" fill="url(#q)"/><rect width="113" height="248" x="60" y="3323" fill="#BDBDBD"/><rect width="113" height="248" x="60" y="3323" fill="url(#r)"/><rect width="113" height="63" x="60" y="3599" fill="#BDBDBD"/><rect width="113" height="63" x="60" y="3599" fill="url(#s)"/><rect width="115" height="26" x="57" y="2887" fill="#D0D0D0"/><rect width="115" height="26" x="57" y="2887" fill="url(#t)"/><rect width="141" height="8" x="44" y="2887" fill="#CBCBCB" rx="4"/><rect width="141" height="8" x="44" y="2887" fill="url(#u)" rx="4"/><circle cx="89" cy="3406" r="18" fill="#5A5A5A"/><circle cx="89" cy="3406" r="14" fill="#FD2626"/><g filter="url(#v)"><rect width="69" height="2836" x="80" y="80" fill="#FF2424" rx="34.5"/></g><g clip-path="url(#w)"><rect width="69" height="2836" x="80" y="80" fill="#FFECEC" rx="34.5"/></g><defs><linearGradient id="a" x1="162" x2="70" y1="3523.44" y2="3523.44" gradientUnits="userSpaceOnUse"><stop stop-opacity=".25"/><stop offset=".302" stop-color="#fff" stop-opacity="0"/><stop offset=".578" stop-color="#fff"/><stop offset=".781" stop-color="#404040"/><stop offset="1" stop-color="#fff" stop-opacity="0"/></linearGradient><linearGradient id="b" x1="139" x2="89" y1="3023.5" y2="3023.5" gradientUnits="userSpaceOnUse"><stop stop-color="#fff" stop-opacity="0"/><stop offset=".74"/><stop offset="1" stop-color="#fff" stop-opacity="0"/></linearGradient><linearGradient id="c" x1="163" x2="70" y1="3197" y2="3197" gradientUnits="userSpaceOnUse"><stop stop-color="#fff" stop-opacity="0"/><stop offset=".74"/><stop offset="1" stop-color="#fff" stop-opacity="0"/></linearGradient><linearGradient id="d" x1="173" x2="60" y1="3315.5" y2="3305" gradientUnits="userSpaceOnUse"><stop stop-color="#fff" stop-opacity="0"/><stop offset=".74"/><stop offset="1" stop-color="#fff" stop-opacity="0"/></linearGradient><linearGradient id="e" x1="147" x2="81" y1="2933" y2="2933" gradientUnits="userSpaceOnUse"><stop stop-opacity=".25"/><stop offset=".141" stop-color="#fff" stop-opacity="0"/><stop offset=".496" stop-color="#fff"/><stop offset=".693" stop-color="#404040"/><stop offset="1" stop-color="#fff" stop-opacity="0"/></linearGradient><linearGradient id="f" x1="158" x2="70" y1="2924" y2="2924" gradientUnits="userSpaceOnUse"><stop stop-opacity=".25"/><stop offset=".151" stop-color="#fff" stop-opacity="0"/><stop offset=".46" stop-color="#fff"/><stop offset=".682" stop-color="#404040"/><stop offset="1" stop-color="#fff" stop-opacity="0"/></linearGradient><linearGradient id="g" x1="172" x2="60" y1="3102.41" y2="3102.41" gradientUnits="userSpaceOnUse"><stop stop-opacity=".25"/><stop offset=".151" stop-color="#fff" stop-opacity="0"/><stop offset=".46" stop-color="#fff"/><stop offset=".682" stop-color="#404040"/><stop offset="1" stop-color="#fff" stop-opacity="0"/></linearGradient><linearGradient id="h" x1="172" x2="60" y1="3123.41" y2="3123.41" gradientUnits="userSpaceOnUse"><stop stop-opacity=".25"/><stop offset=".151" stop-color="#fff" stop-opacity="0"/><stop offset=".46" stop-color="#fff"/><stop offset=".682" stop-color="#404040"/><stop offset="1" stop-color="#fff" stop-opacity="0"/></linearGradient><linearGradient id="i" x1="172" x2="60" y1="3144.41" y2="3144.41" gradientUnits="userSpaceOnUse"><stop stop-opacity=".25"/><stop offset=".151" stop-color="#fff" stop-opacity="0"/><stop offset=".46" stop-color="#fff"/><stop offset=".682" stop-color="#404040"/><stop offset="1" stop-color="#fff" stop-opacity="0"/></linearGradient><linearGradient id="j" x1="172" x2="60" y1="3165.41" y2="3165.41" gradientUnits="userSpaceOnUse"><stop stop-opacity=".25"/><stop offset=".151" stop-color="#fff" stop-opacity="0"/><stop offset=".46" stop-color="#fff"/><stop offset=".682" stop-color="#404040"/><stop offset="1" stop-color="#fff" stop-opacity="0"/></linearGradient><linearGradient id="k" x1="172" x2="60" y1="3186.41" y2="3186.41" gradientUnits="userSpaceOnUse"><stop stop-opacity=".25"/><stop offset=".151" stop-color="#fff" stop-opacity="0"/><stop offset=".46" stop-color="#fff"/><stop offset=".682" stop-color="#404040"/><stop offset="1" stop-color="#fff" stop-opacity="0"/></linearGradient><linearGradient id="l" x1="172" x2="60" y1="3207.41" y2="3207.41" gradientUnits="userSpaceOnUse"><stop stop-opacity=".25"/><stop offset=".151" stop-color="#fff" stop-opacity="0"/><stop offset=".46" stop-color="#fff"/><stop offset=".682" stop-color="#404040"/><stop offset="1" stop-color="#fff" stop-opacity="0"/></linearGradient><linearGradient id="m" x1="172" x2="60" y1="3228.41" y2="3228.41" gradientUnits="userSpaceOnUse"><stop stop-opacity=".25"/><stop offset=".151" stop-color="#fff" stop-opacity="0"/><stop offset=".46" stop-color="#fff"/><stop offset=".682" stop-color="#404040"/><stop offset="1" stop-color="#fff" stop-opacity="0"/></linearGradient><linearGradient id="n" x1="172" x2="60" y1="3249.41" y2="3249.41" gradientUnits="userSpaceOnUse"><stop stop-opacity=".25"/><stop offset=".151" stop-color="#fff" stop-opacity="0"/><stop offset=".46" stop-color="#fff"/><stop offset=".682" stop-color="#404040"/><stop offset="1" stop-color="#fff" stop-opacity="0"/></linearGradient><linearGradient id="o" x1="172" x2="60" y1="3270.41" y2="3270.41" gradientUnits="userSpaceOnUse"><stop stop-opacity=".25"/><stop offset=".151" stop-color="#fff" stop-opacity="0"/><stop offset=".46" stop-color="#fff"/><stop offset=".682" stop-color="#404040"/><stop offset="1" stop-color="#fff" stop-opacity="0"/></linearGradient><linearGradient id="p" x1="172" x2="60" y1="3291.41" y2="3291.41" gradientUnits="userSpaceOnUse"><stop stop-opacity=".25"/><stop offset=".151" stop-color="#fff" stop-opacity="0"/><stop offset=".46" stop-color="#fff"/><stop offset=".682" stop-color="#404040"/><stop offset="1" stop-color="#fff" stop-opacity="0"/></linearGradient><linearGradient id="q" x1="157" x2="71" y1="3034.12" y2="3034.12" gradientUnits="userSpaceOnUse"><stop stop-opacity=".25"/><stop offset=".151" stop-color="#fff" stop-opacity="0"/><stop offset=".46" stop-color="#fff"/><stop offset=".682" stop-color="#404040"/><stop offset="1" stop-color="#fff" stop-opacity="0"/></linearGradient><linearGradient id="r" x1="173" x2="60" y1="3444.9" y2="3444.9" gradientUnits="userSpaceOnUse"><stop stop-opacity=".25"/><stop offset=".302" stop-color="#fff" stop-opacity="0"/><stop offset=".578" stop-color="#fff"/><stop offset=".781" stop-color="#404040"/><stop offset="1" stop-color="#fff" stop-opacity="0"/></linearGradient><linearGradient id="s" x1="173" x2="60" y1="3629.97" y2="3629.97" gradientUnits="userSpaceOnUse"><stop stop-opacity=".25"/><stop offset=".302" stop-color="#fff" stop-opacity="0"/><stop offset=".578" stop-color="#fff"/><stop offset=".781" stop-color="#404040"/><stop offset="1" stop-color="#fff" stop-opacity="0"/></linearGradient><linearGradient id="t" x1="172" x2="57" y1="2900" y2="2900" gradientUnits="userSpaceOnUse"><stop stop-opacity=".25"/><stop offset=".177" stop-color="#fff" stop-opacity="0"/><stop offset=".43" stop-color="#fff"/><stop offset=".677" stop-color="#404040"/><stop offset="1" stop-color="#fff" stop-opacity="0"/></linearGradient><linearGradient id="u" x1="44" x2="185" y1="2891" y2="2891" gradientUnits="userSpaceOnUse"><stop stop-color="#fff" stop-opacity="0"/><stop offset=".307" stop-color="#5E5E5E"/><stop offset=".583" stop-color="#fff"/><stop offset=".818" stop-color="#fff" stop-opacity="0"/><stop offset="1" stop-opacity=".25"/></linearGradient><clipPath id="w"><rect width="141" height="2807" fill="#fff" transform="translate(44 80)"/></clipPath><filter id="v" width="229" height="2996" x="0" y="0" color-interpolation-filters="sRGB" filterUnits="userSpaceOnUse"><feFlood flood-opacity="0" result="BackgroundImageFix"/><feBlend in="SourceGraphic" in2="BackgroundImageFix" result="shape"/><feGaussianBlur result="effect1_foregroundBlur" stdDeviation="40"/></filter></defs></svg>