<svg xmlns="http://www.w3.org/2000/svg" width="229" height="3706" fill="none" viewBox="0 0 229 3706"><rect width="92" height="302" x="70" y="3404" fill="#939393" rx="14"/><rect width="92" height="302" x="70" y="3404" fill="url(#paint0_linear)" rx="14"/><rect width="50" height="273" x="89" y="2916" fill="#000"/><rect width="50" height="273" x="89" y="2916" fill="url(#paint1_linear)"/><rect width="93" height="200" x="70" y="3126" fill="#000"/><rect width="93" height="200" x="70" y="3126" fill="url(#paint2_linear)"/><path fill="#000" d="M70 3315.5H163L173 3352H60L70 3315.5Z"/><path fill="url(#paint3_linear)" d="M70 3315.5H163L173 3352H60L70 3315.5Z"/><rect width="66" height="63" x="81" y="2931" fill="#C4C4C4"/><rect width="66" height="63" x="81" y="2931" fill="url(#paint4_linear)"/><rect width="88" height="59" x="70" y="2924" fill="#BDBDBD"/><rect width="88" height="59" x="70" y="2924" fill="url(#paint5_linear)"/><rect width="112" height="11" x="60" y="3126" fill="#BDBDBD" rx="5.5"/><rect width="112" height="11" x="60" y="3126" fill="url(#paint6_linear)" rx="5.5"/><rect width="112" height="11" x="60" y="3147" fill="#BDBDBD" rx="5.5"/><rect width="112" height="11" x="60" y="3147" fill="url(#paint7_linear)" rx="5.5"/><rect width="112" height="11" x="60" y="3168" fill="#BDBDBD" rx="5.5"/><rect width="112" height="11" x="60" y="3168" fill="url(#paint8_linear)" rx="5.5"/><rect width="112" height="11" x="60" y="3189" fill="#BDBDBD" rx="5.5"/><rect width="112" height="11" x="60" y="3189" fill="url(#paint9_linear)" rx="5.5"/><rect width="112" height="11" x="60" y="3210" fill="#BDBDBD" rx="5.5"/><rect width="112" height="11" x="60" y="3210" fill="url(#paint10_linear)" rx="5.5"/><rect width="112" height="11" x="60" y="3231" fill="#BDBDBD" rx="5.5"/><rect width="112" height="11" x="60" y="3231" fill="url(#paint11_linear)" rx="5.5"/><rect width="112" height="11" x="60" y="3252" fill="#BDBDBD" rx="5.5"/><rect width="112" height="11" x="60" y="3252" fill="url(#paint12_linear)" rx="5.5"/><rect width="112" height="11" x="60" y="3273" fill="#BDBDBD" rx="5.5"/><rect width="112" height="11" x="60" y="3273" fill="url(#paint13_linear)" rx="5.5"/><rect width="112" height="11" x="60" y="3294" fill="#BDBDBD" rx="5.5"/><rect width="112" height="11" x="60" y="3294" fill="url(#paint14_linear)" rx="5.5"/><rect width="112" height="11" x="60" y="3315" fill="#BDBDBD" rx="5.5"/><rect width="112" height="11" x="60" y="3315" fill="url(#paint15_linear)" rx="5.5"/><rect width="86" height="45" x="71" y="3041" fill="#BDBDBD"/><rect width="86" height="45" x="71" y="3041" fill="url(#paint16_linear)"/><rect width="113" height="248" x="60" y="3352" fill="#BDBDBD"/><rect width="113" height="248" x="60" y="3352" fill="url(#paint17_linear)"/><rect width="113" height="63" x="60" y="3628" fill="#BDBDBD"/><rect width="113" height="63" x="60" y="3628" fill="url(#paint18_linear)"/><rect width="115" height="26" x="57" y="2916" fill="#D0D0D0"/><rect width="115" height="26" x="57" y="2916" fill="url(#paint19_linear)"/><rect width="141" height="8" x="44" y="2916" fill="#CBCBCB" rx="4"/><rect width="141" height="8" x="44" y="2916" fill="url(#paint20_linear)" rx="4"/><circle cx="89" cy="3435" r="18" fill="#5A5A5A"/><circle cx="89" cy="3435" r="14" fill="#FD2626"/><g filter="url(#filter0_f)"><rect width="69" height="2836" x="80" y="80" fill="#FF2424" rx="34.5"/></g><g clip-path="url(#clip0)"><rect width="69" height="2836" x="80" y="109" fill="#FFECEC" rx="34.5"/></g><defs><filter id="filter0_f" width="229" height="2996" x="0" y="0" color-interpolation-filters="sRGB" filterUnits="userSpaceOnUse"><feFlood flood-opacity="0" result="BackgroundImageFix"/><feBlend in="SourceGraphic" in2="BackgroundImageFix" mode="normal" result="shape"/><feGaussianBlur result="effect1_foregroundBlur" stdDeviation="40"/></filter><linearGradient id="paint0_linear" x1="162" x2="70" y1="3552.44" y2="3552.44" gradientUnits="userSpaceOnUse"><stop stop-opacity=".25"/><stop offset=".302" stop-color="#fff" stop-opacity="0"/><stop offset=".578" stop-color="#fff"/><stop offset=".781" stop-color="#404040"/><stop offset="1" stop-color="#fff" stop-opacity="0"/></linearGradient><linearGradient id="paint1_linear" x1="139" x2="89" y1="3052.5" y2="3052.5" gradientUnits="userSpaceOnUse"><stop stop-color="#fff" stop-opacity="0"/><stop offset=".74"/><stop offset="1" stop-color="#fff" stop-opacity="0"/></linearGradient><linearGradient id="paint2_linear" x1="163" x2="70" y1="3226" y2="3226" gradientUnits="userSpaceOnUse"><stop stop-color="#fff" stop-opacity="0"/><stop offset=".74"/><stop offset="1" stop-color="#fff" stop-opacity="0"/></linearGradient><linearGradient id="paint3_linear" x1="173" x2="60" y1="3344.5" y2="3334" gradientUnits="userSpaceOnUse"><stop stop-color="#fff" stop-opacity="0"/><stop offset=".74"/><stop offset="1" stop-color="#fff" stop-opacity="0"/></linearGradient><linearGradient id="paint4_linear" x1="147" x2="81" y1="2962" y2="2962" gradientUnits="userSpaceOnUse"><stop stop-opacity=".25"/><stop offset=".141" stop-color="#fff" stop-opacity="0"/><stop offset=".496" stop-color="#fff"/><stop offset=".693" stop-color="#404040"/><stop offset="1" stop-color="#fff" stop-opacity="0"/></linearGradient><linearGradient id="paint5_linear" x1="158" x2="70" y1="2953" y2="2953" gradientUnits="userSpaceOnUse"><stop stop-opacity=".25"/><stop offset=".151" stop-color="#fff" stop-opacity="0"/><stop offset=".46" stop-color="#fff"/><stop offset=".682" stop-color="#404040"/><stop offset="1" stop-color="#fff" stop-opacity="0"/></linearGradient><linearGradient id="paint6_linear" x1="172" x2="60" y1="3131.41" y2="3131.41" gradientUnits="userSpaceOnUse"><stop stop-opacity=".25"/><stop offset=".151" stop-color="#fff" stop-opacity="0"/><stop offset=".46" stop-color="#fff"/><stop offset=".682" stop-color="#404040"/><stop offset="1" stop-color="#fff" stop-opacity="0"/></linearGradient><linearGradient id="paint7_linear" x1="172" x2="60" y1="3152.41" y2="3152.41" gradientUnits="userSpaceOnUse"><stop stop-opacity=".25"/><stop offset=".151" stop-color="#fff" stop-opacity="0"/><stop offset=".46" stop-color="#fff"/><stop offset=".682" stop-color="#404040"/><stop offset="1" stop-color="#fff" stop-opacity="0"/></linearGradient><linearGradient id="paint8_linear" x1="172" x2="60" y1="3173.41" y2="3173.41" gradientUnits="userSpaceOnUse"><stop stop-opacity=".25"/><stop offset=".151" stop-color="#fff" stop-opacity="0"/><stop offset=".46" stop-color="#fff"/><stop offset=".682" stop-color="#404040"/><stop offset="1" stop-color="#fff" stop-opacity="0"/></linearGradient><linearGradient id="paint9_linear" x1="172" x2="60" y1="3194.41" y2="3194.41" gradientUnits="userSpaceOnUse"><stop stop-opacity=".25"/><stop offset=".151" stop-color="#fff" stop-opacity="0"/><stop offset=".46" stop-color="#fff"/><stop offset=".682" stop-color="#404040"/><stop offset="1" stop-color="#fff" stop-opacity="0"/></linearGradient><linearGradient id="paint10_linear" x1="172" x2="60" y1="3215.41" y2="3215.41" gradientUnits="userSpaceOnUse"><stop stop-opacity=".25"/><stop offset=".151" stop-color="#fff" stop-opacity="0"/><stop offset=".46" stop-color="#fff"/><stop offset=".682" stop-color="#404040"/><stop offset="1" stop-color="#fff" stop-opacity="0"/></linearGradient><linearGradient id="paint11_linear" x1="172" x2="60" y1="3236.41" y2="3236.41" gradientUnits="userSpaceOnUse"><stop stop-opacity=".25"/><stop offset=".151" stop-color="#fff" stop-opacity="0"/><stop offset=".46" stop-color="#fff"/><stop offset=".682" stop-color="#404040"/><stop offset="1" stop-color="#fff" stop-opacity="0"/></linearGradient><linearGradient id="paint12_linear" x1="172" x2="60" y1="3257.41" y2="3257.41" gradientUnits="userSpaceOnUse"><stop stop-opacity=".25"/><stop offset=".151" stop-color="#fff" stop-opacity="0"/><stop offset=".46" stop-color="#fff"/><stop offset=".682" stop-color="#404040"/><stop offset="1" stop-color="#fff" stop-opacity="0"/></linearGradient><linearGradient id="paint13_linear" x1="172" x2="60" y1="3278.41" y2="3278.41" gradientUnits="userSpaceOnUse"><stop stop-opacity=".25"/><stop offset=".151" stop-color="#fff" stop-opacity="0"/><stop offset=".46" stop-color="#fff"/><stop offset=".682" stop-color="#404040"/><stop offset="1" stop-color="#fff" stop-opacity="0"/></linearGradient><linearGradient id="paint14_linear" x1="172" x2="60" y1="3299.41" y2="3299.41" gradientUnits="userSpaceOnUse"><stop stop-opacity=".25"/><stop offset=".151" stop-color="#fff" stop-opacity="0"/><stop offset=".46" stop-color="#fff"/><stop offset=".682" stop-color="#404040"/><stop offset="1" stop-color="#fff" stop-opacity="0"/></linearGradient><linearGradient id="paint15_linear" x1="172" x2="60" y1="3320.41" y2="3320.41" gradientUnits="userSpaceOnUse"><stop stop-opacity=".25"/><stop offset=".151" stop-color="#fff" stop-opacity="0"/><stop offset=".46" stop-color="#fff"/><stop offset=".682" stop-color="#404040"/><stop offset="1" stop-color="#fff" stop-opacity="0"/></linearGradient><linearGradient id="paint16_linear" x1="157" x2="71" y1="3063.12" y2="3063.12" gradientUnits="userSpaceOnUse"><stop stop-opacity=".25"/><stop offset=".151" stop-color="#fff" stop-opacity="0"/><stop offset=".46" stop-color="#fff"/><stop offset=".682" stop-color="#404040"/><stop offset="1" stop-color="#fff" stop-opacity="0"/></linearGradient><linearGradient id="paint17_linear" x1="173" x2="60" y1="3473.9" y2="3473.9" gradientUnits="userSpaceOnUse"><stop stop-opacity=".25"/><stop offset=".302" stop-color="#fff" stop-opacity="0"/><stop offset=".578" stop-color="#fff"/><stop offset=".781" stop-color="#404040"/><stop offset="1" stop-color="#fff" stop-opacity="0"/></linearGradient><linearGradient id="paint18_linear" x1="173" x2="60" y1="3658.97" y2="3658.97" gradientUnits="userSpaceOnUse"><stop stop-opacity=".25"/><stop offset=".302" stop-color="#fff" stop-opacity="0"/><stop offset=".578" stop-color="#fff"/><stop offset=".781" stop-color="#404040"/><stop offset="1" stop-color="#fff" stop-opacity="0"/></linearGradient><linearGradient id="paint19_linear" x1="172" x2="57" y1="2929" y2="2929" gradientUnits="userSpaceOnUse"><stop stop-opacity=".25"/><stop offset=".177" stop-color="#fff" stop-opacity="0"/><stop offset=".43" stop-color="#fff"/><stop offset=".677" stop-color="#404040"/><stop offset="1" stop-color="#fff" stop-opacity="0"/></linearGradient><linearGradient id="paint20_linear" x1="44" x2="185" y1="2920" y2="2920" gradientUnits="userSpaceOnUse"><stop stop-color="#fff" stop-opacity="0"/><stop offset=".307" stop-color="#5E5E5E"/><stop offset=".583" stop-color="#fff"/><stop offset=".818" stop-color="#fff" stop-opacity="0"/><stop offset="1" stop-opacity=".25"/></linearGradient><clipPath id="clip0"><rect width="141" height="2807" fill="#fff" transform="translate(44 109)"/></clipPath></defs></svg>