<svg xmlns="http://www.w3.org/2000/svg" fill="none" class="svg-saber" viewBox="0 0 141 790"><g clip-path="url(#clip0)"><rect width="92" height="302" x="26" y="488" fill="#939393" rx="14"/><rect width="92" height="302" x="26" y="488" fill="url(#paint0_linear)" rx="14"/><rect width="50" height="273" x="45" fill="#000"/><rect width="50" height="273" x="45" fill="url(#paint1_linear)"/><rect width="93" height="200" x="26" y="210" fill="#000"/><rect width="93" height="200" x="26" y="210" fill="url(#paint2_linear)"/><path fill="#000" d="M26 399.5H119L129 436H16L26 399.5Z"/><path fill="url(#paint3_linear)" d="M26 399.5H119L129 436H16L26 399.5Z"/><rect width="66" height="63" x="37" y="15" fill="#C4C4C4"/><rect width="66" height="63" x="37" y="15" fill="url(#paint4_linear)"/><rect width="88" height="59" x="26" y="8" fill="#BDBDBD"/><rect width="88" height="59" x="26" y="8" fill="url(#paint5_linear)"/><rect width="112" height="11" x="16" y="210" fill="#BDBDBD" rx="5.5"/><rect width="112" height="11" x="16" y="210" fill="url(#paint6_linear)" rx="5.5"/><rect width="112" height="11" x="16" y="231" fill="#BDBDBD" rx="5.5"/><rect width="112" height="11" x="16" y="231" fill="url(#paint7_linear)" rx="5.5"/><rect width="112" height="11" x="16" y="252" fill="#BDBDBD" rx="5.5"/><rect width="112" height="11" x="16" y="252" fill="url(#paint8_linear)" rx="5.5"/><rect width="112" height="11" x="16" y="273" fill="#BDBDBD" rx="5.5"/><rect width="112" height="11" x="16" y="273" fill="url(#paint9_linear)" rx="5.5"/><rect width="112" height="11" x="16" y="294" fill="#BDBDBD" rx="5.5"/><rect width="112" height="11" x="16" y="294" fill="url(#paint10_linear)" rx="5.5"/><rect width="112" height="11" x="16" y="315" fill="#BDBDBD" rx="5.5"/><rect width="112" height="11" x="16" y="315" fill="url(#paint11_linear)" rx="5.5"/><rect width="112" height="11" x="16" y="336" fill="#BDBDBD" rx="5.5"/><rect width="112" height="11" x="16" y="336" fill="url(#paint12_linear)" rx="5.5"/><rect width="112" height="11" x="16" y="357" fill="#BDBDBD" rx="5.5"/><rect width="112" height="11" x="16" y="357" fill="url(#paint13_linear)" rx="5.5"/><rect width="112" height="11" x="16" y="378" fill="#BDBDBD" rx="5.5"/><rect width="112" height="11" x="16" y="378" fill="url(#paint14_linear)" rx="5.5"/><rect width="112" height="11" x="16" y="399" fill="#BDBDBD" rx="5.5"/><rect width="112" height="11" x="16" y="399" fill="url(#paint15_linear)" rx="5.5"/><rect width="86" height="45" x="27" y="125" fill="#BDBDBD"/><rect width="86" height="45" x="27" y="125" fill="url(#paint16_linear)"/><rect width="113" height="248" x="16" y="436" fill="#BDBDBD"/><rect width="113" height="248" x="16" y="436" fill="url(#paint17_linear)"/><rect width="113" height="63" x="16" y="712" fill="#BDBDBD"/><rect width="113" height="63" x="16" y="712" fill="url(#paint18_linear)"/><rect width="115" height="26" x="13" fill="#D0D0D0"/><rect width="115" height="26" x="13" fill="url(#paint19_linear)"/><rect width="141" height="8" fill="#CBCBCB" rx="4"/><rect width="141" height="8" fill="url(#paint20_linear)" rx="4"/><circle cx="45" cy="519" r="18" fill="#5A5A5A"/><circle cx="45" cy="519" r="14" fill="#FD2626"/><g filter="url(#filter0_f)"><rect width="69" height="2836" x="36" y="-2836" fill="#FF2424" rx="34.5"/></g></g><defs><filter id="filter0_f" width="229" height="2996" x="-44" y="-2916" color-interpolation-filters="sRGB" filterUnits="userSpaceOnUse"><feFlood flood-opacity="0" result="BackgroundImageFix"/><feBlend in="SourceGraphic" in2="BackgroundImageFix" mode="normal" result="shape"/><feGaussianBlur result="effect1_foregroundBlur" stdDeviation="40"/></filter><linearGradient id="paint0_linear" x1="118" x2="26" y1="636.441" y2="636.441" gradientUnits="userSpaceOnUse"><stop stop-opacity=".25"/><stop offset=".302" stop-color="#fff" stop-opacity="0"/><stop offset=".578" stop-color="#fff"/><stop offset=".781" stop-color="#404040"/><stop offset="1" stop-color="#fff" stop-opacity="0"/></linearGradient><linearGradient id="paint1_linear" x1="95" x2="45" y1="136.5" y2="136.5" gradientUnits="userSpaceOnUse"><stop stop-color="#fff" stop-opacity="0"/><stop offset=".74"/><stop offset="1" stop-color="#fff" stop-opacity="0"/></linearGradient><linearGradient id="paint2_linear" x1="119" x2="26" y1="310" y2="310" gradientUnits="userSpaceOnUse"><stop stop-color="#fff" stop-opacity="0"/><stop offset=".74"/><stop offset="1" stop-color="#fff" stop-opacity="0"/></linearGradient><linearGradient id="paint3_linear" x1="129" x2="16" y1="428.5" y2="418" gradientUnits="userSpaceOnUse"><stop stop-color="#fff" stop-opacity="0"/><stop offset=".74"/><stop offset="1" stop-color="#fff" stop-opacity="0"/></linearGradient><linearGradient id="paint4_linear" x1="103" x2="37" y1="46" y2="46" gradientUnits="userSpaceOnUse"><stop stop-opacity=".25"/><stop offset=".141" stop-color="#fff" stop-opacity="0"/><stop offset=".496" stop-color="#fff"/><stop offset=".693" stop-color="#404040"/><stop offset="1" stop-color="#fff" stop-opacity="0"/></linearGradient><linearGradient id="paint5_linear" x1="114" x2="26" y1="37" y2="37" gradientUnits="userSpaceOnUse"><stop stop-opacity=".25"/><stop offset=".151" stop-color="#fff" stop-opacity="0"/><stop offset=".46" stop-color="#fff"/><stop offset=".682" stop-color="#404040"/><stop offset="1" stop-color="#fff" stop-opacity="0"/></linearGradient><linearGradient id="paint6_linear" x1="128" x2="16" y1="215.407" y2="215.407" gradientUnits="userSpaceOnUse"><stop stop-opacity=".25"/><stop offset=".151" stop-color="#fff" stop-opacity="0"/><stop offset=".46" stop-color="#fff"/><stop offset=".682" stop-color="#404040"/><stop offset="1" stop-color="#fff" stop-opacity="0"/></linearGradient><linearGradient id="paint7_linear" x1="128" x2="16" y1="236.407" y2="236.407" gradientUnits="userSpaceOnUse"><stop stop-opacity=".25"/><stop offset=".151" stop-color="#fff" stop-opacity="0"/><stop offset=".46" stop-color="#fff"/><stop offset=".682" stop-color="#404040"/><stop offset="1" stop-color="#fff" stop-opacity="0"/></linearGradient><linearGradient id="paint8_linear" x1="128" x2="16" y1="257.407" y2="257.407" gradientUnits="userSpaceOnUse"><stop stop-opacity=".25"/><stop offset=".151" stop-color="#fff" stop-opacity="0"/><stop offset=".46" stop-color="#fff"/><stop offset=".682" stop-color="#404040"/><stop offset="1" stop-color="#fff" stop-opacity="0"/></linearGradient><linearGradient id="paint9_linear" x1="128" x2="16" y1="278.407" y2="278.407" gradientUnits="userSpaceOnUse"><stop stop-opacity=".25"/><stop offset=".151" stop-color="#fff" stop-opacity="0"/><stop offset=".46" stop-color="#fff"/><stop offset=".682" stop-color="#404040"/><stop offset="1" stop-color="#fff" stop-opacity="0"/></linearGradient><linearGradient id="paint10_linear" x1="128" x2="16" y1="299.407" y2="299.407" gradientUnits="userSpaceOnUse"><stop stop-opacity=".25"/><stop offset=".151" stop-color="#fff" stop-opacity="0"/><stop offset=".46" stop-color="#fff"/><stop offset=".682" stop-color="#404040"/><stop offset="1" stop-color="#fff" stop-opacity="0"/></linearGradient><linearGradient id="paint11_linear" x1="128" x2="16" y1="320.407" y2="320.407" gradientUnits="userSpaceOnUse"><stop stop-opacity=".25"/><stop offset=".151" stop-color="#fff" stop-opacity="0"/><stop offset=".46" stop-color="#fff"/><stop offset=".682" stop-color="#404040"/><stop offset="1" stop-color="#fff" stop-opacity="0"/></linearGradient><linearGradient id="paint12_linear" x1="128" x2="16" y1="341.407" y2="341.407" gradientUnits="userSpaceOnUse"><stop stop-opacity=".25"/><stop offset=".151" stop-color="#fff" stop-opacity="0"/><stop offset=".46" stop-color="#fff"/><stop offset=".682" stop-color="#404040"/><stop offset="1" stop-color="#fff" stop-opacity="0"/></linearGradient><linearGradient id="paint13_linear" x1="128" x2="16" y1="362.407" y2="362.407" gradientUnits="userSpaceOnUse"><stop stop-opacity=".25"/><stop offset=".151" stop-color="#fff" stop-opacity="0"/><stop offset=".46" stop-color="#fff"/><stop offset=".682" stop-color="#404040"/><stop offset="1" stop-color="#fff" stop-opacity="0"/></linearGradient><linearGradient id="paint14_linear" x1="128" x2="16" y1="383.407" y2="383.407" gradientUnits="userSpaceOnUse"><stop stop-opacity=".25"/><stop offset=".151" stop-color="#fff" stop-opacity="0"/><stop offset=".46" stop-color="#fff"/><stop offset=".682" stop-color="#404040"/><stop offset="1" stop-color="#fff" stop-opacity="0"/></linearGradient><linearGradient id="paint15_linear" x1="128" x2="16" y1="404.407" y2="404.407" gradientUnits="userSpaceOnUse"><stop stop-opacity=".25"/><stop offset=".151" stop-color="#fff" stop-opacity="0"/><stop offset=".46" stop-color="#fff"/><stop offset=".682" stop-color="#404040"/><stop offset="1" stop-color="#fff" stop-opacity="0"/></linearGradient><linearGradient id="paint16_linear" x1="113" x2="27" y1="147.119" y2="147.119" gradientUnits="userSpaceOnUse"><stop stop-opacity=".25"/><stop offset=".151" stop-color="#fff" stop-opacity="0"/><stop offset=".46" stop-color="#fff"/><stop offset=".682" stop-color="#404040"/><stop offset="1" stop-color="#fff" stop-opacity="0"/></linearGradient><linearGradient id="paint17_linear" x1="129" x2="16" y1="557.898" y2="557.898" gradientUnits="userSpaceOnUse"><stop stop-opacity=".25"/><stop offset=".302" stop-color="#fff" stop-opacity="0"/><stop offset=".578" stop-color="#fff"/><stop offset=".781" stop-color="#404040"/><stop offset="1" stop-color="#fff" stop-opacity="0"/></linearGradient><linearGradient id="paint18_linear" x1="129" x2="16" y1="742.966" y2="742.966" gradientUnits="userSpaceOnUse"><stop stop-opacity=".25"/><stop offset=".302" stop-color="#fff" stop-opacity="0"/><stop offset=".578" stop-color="#fff"/><stop offset=".781" stop-color="#404040"/><stop offset="1" stop-color="#fff" stop-opacity="0"/></linearGradient><linearGradient id="paint19_linear" x1="128" x2="13" y1="13" y2="13" gradientUnits="userSpaceOnUse"><stop stop-opacity=".25"/><stop offset=".177" stop-color="#fff" stop-opacity="0"/><stop offset=".43" stop-color="#fff"/><stop offset=".677" stop-color="#404040"/><stop offset="1" stop-color="#fff" stop-opacity="0"/></linearGradient><linearGradient id="paint20_linear" x1="0" x2="141" y1="4" y2="4" gradientUnits="userSpaceOnUse"><stop stop-color="#fff" stop-opacity="0"/><stop offset=".307" stop-color="#5E5E5E"/><stop offset=".583" stop-color="#fff"/><stop offset=".818" stop-color="#fff" stop-opacity="0"/><stop offset="1" stop-opacity=".25"/></linearGradient><clipPath id="clip0"><rect width="141" height="790" fill="#fff"/></clipPath></defs></svg>