<svg xmlns="http://www.w3.org/2000/svg" fill="none" class="svg-saber" viewBox="0 0 229 3706"><g class="saber__handle"><rect width="92" height="302" x="70" y="3404" fill="#939393" rx="14"/><rect width="92" height="302" x="70" y="3404" fill="url(#a)" rx="14"/><rect width="50" height="273" x="89" y="2916" fill="#000"/><rect width="50" height="273" x="89" y="2916" fill="url(#b)"/><rect width="93" height="200" x="70" y="3126" fill="#000"/><rect width="93" height="200" x="70" y="3126" fill="url(#c)"/><path fill="#000" d="M70 3315.5h93l10 36.5H60l10-36.5z"/><path fill="url(#d)" d="M70 3315.5h93l10 36.5H60l10-36.5z"/><rect width="66" height="63" x="81" y="2931" fill="#C4C4C4"/><rect width="66" height="63" x="81" y="2931" fill="url(#e)"/><rect width="88" height="59" x="70" y="2924" fill="#BDBDBD"/><rect width="88" height="59" x="70" y="2924" fill="url(#f)"/><rect width="112" height="11" x="60" y="3126" fill="#BDBDBD" rx="5.5"/><rect width="112" height="11" x="60" y="3126" fill="url(#g)" rx="5.5"/><rect width="112" height="11" x="60" y="3147" fill="#BDBDBD" rx="5.5"/><rect width="112" height="11" x="60" y="3147" fill="url(#h)" rx="5.5"/><rect width="112" height="11" x="60" y="3168" fill="#BDBDBD" rx="5.5"/><rect width="112" height="11" x="60" y="3168" fill="url(#i)" rx="5.5"/><rect width="112" height="11" x="60" y="3189" fill="#BDBDBD" rx="5.5"/><rect width="112" height="11" x="60" y="3189" fill="url(#j)" rx="5.5"/><rect width="112" height="11" x="60" y="3210" fill="#BDBDBD" rx="5.5"/><rect width="112" height="11" x="60" y="3210" fill="url(#k)" rx="5.5"/><rect width="112" height="11" x="60" y="3231" fill="#BDBDBD" rx="5.5"/><rect width="112" height="11" x="60" y="3231" fill="url(#l)" rx="5.5"/><rect width="112" height="11" x="60" y="3252" fill="#BDBDBD" rx="5.5"/><rect width="112" height="11" x="60" y="3252" fill="url(#m)" rx="5.5"/><rect width="112" height="11" x="60" y="3273" fill="#BDBDBD" rx="5.5"/><rect width="112" height="11" x="60" y="3273" fill="url(#n)" rx="5.5"/><rect width="112" height="11" x="60" y="3294" fill="#BDBDBD" rx="5.5"/><rect width="112" height="11" x="60" y="3294" fill="url(#o)" rx="5.5"/><rect width="112" height="11" x="60" y="3315" fill="#BDBDBD" rx="5.5"/><rect width="112" height="11" x="60" y="3315" fill="url(#p)" rx="5.5"/><rect width="86" height="45" x="71" y="3041" fill="#BDBDBD"/><rect width="86" height="45" x="71" y="3041" fill="url(#q)"/><rect width="113" height="248" x="60" y="3352" fill="#BDBDBD"/><rect width="113" height="248" x="60" y="3352" fill="url(#r)"/><rect width="113" height="63" x="60" y="3628" fill="#BDBDBD"/><rect width="113" height="63" x="60" y="3628" fill="url(#s)"/><rect width="115" height="26" x="57" y="2916" fill="#D0D0D0"/><rect width="115" height="26" x="57" y="2916" fill="url(#t)"/><rect width="141" height="8" x="44" y="2916" fill="#CBCBCB" rx="4"/><rect width="141" height="8" x="44" y="2916" fill="url(#u)" rx="4"/><circle cx="89" cy="3435" r="18" fill="#5A5A5A"/><circle cx="89" cy="3435" r="14" fill="#FD2626"/></g><g class="saber__beam beam"><g filter="url(#v)"><g class="saber__beam beam__bleed"><rect width="69" height="2836" x="80" y="80" rx="34.5"/></g></g><g class="beam__core" clip-path="url(#w)"><rect width="69" height="2836" x="80" y="109" rx="34.5"/></g></g><defs><linearGradient id="a" x1="162" x2="70" y1="3552.44" y2="3552.44" gradientUnits="userSpaceOnUse"><stop stop-opacity=".25"/><stop offset=".302" stop-color="#fff" stop-opacity="0"/><stop offset=".578" stop-color="#fff"/><stop offset=".781" stop-color="#404040"/><stop offset="1" stop-color="#fff" stop-opacity="0"/></linearGradient><linearGradient id="b" x1="139" x2="89" y1="3052.5" y2="3052.5" gradientUnits="userSpaceOnUse"><stop stop-color="#fff" stop-opacity="0"/><stop offset=".74"/><stop offset="1" stop-color="#fff" stop-opacity="0"/></linearGradient><linearGradient id="c" x1="163" x2="70" y1="3226" y2="3226" gradientUnits="userSpaceOnUse"><stop stop-color="#fff" stop-opacity="0"/><stop offset=".74"/><stop offset="1" stop-color="#fff" stop-opacity="0"/></linearGradient><linearGradient id="d" x1="173" x2="60" y1="3344.5" y2="3334" gradientUnits="userSpaceOnUse"><stop stop-color="#fff" stop-opacity="0"/><stop offset=".74"/><stop offset="1" stop-color="#fff" stop-opacity="0"/></linearGradient><linearGradient id="e" x1="147" x2="81" y1="2962" y2="2962" gradientUnits="userSpaceOnUse"><stop stop-opacity=".25"/><stop offset=".141" stop-color="#fff" stop-opacity="0"/><stop offset=".496" stop-color="#fff"/><stop offset=".693" stop-color="#404040"/><stop offset="1" stop-color="#fff" stop-opacity="0"/></linearGradient><linearGradient id="f" x1="158" x2="70" y1="2953" y2="2953" gradientUnits="userSpaceOnUse"><stop stop-opacity=".25"/><stop offset=".151" stop-color="#fff" stop-opacity="0"/><stop offset=".46" stop-color="#fff"/><stop offset=".682" stop-color="#404040"/><stop offset="1" stop-color="#fff" stop-opacity="0"/></linearGradient><linearGradient id="g" x1="172" x2="60" y1="3131.41" y2="3131.41" gradientUnits="userSpaceOnUse"><stop stop-opacity=".25"/><stop offset=".151" stop-color="#fff" stop-opacity="0"/><stop offset=".46" stop-color="#fff"/><stop offset=".682" stop-color="#404040"/><stop offset="1" stop-color="#fff" stop-opacity="0"/></linearGradient><linearGradient id="h" x1="172" x2="60" y1="3152.41" y2="3152.41" gradientUnits="userSpaceOnUse"><stop stop-opacity=".25"/><stop offset=".151" stop-color="#fff" stop-opacity="0"/><stop offset=".46" stop-color="#fff"/><stop offset=".682" stop-color="#404040"/><stop offset="1" stop-color="#fff" stop-opacity="0"/></linearGradient><linearGradient id="i" x1="172" x2="60" y1="3173.41" y2="3173.41" gradientUnits="userSpaceOnUse"><stop stop-opacity=".25"/><stop offset=".151" stop-color="#fff" stop-opacity="0"/><stop offset=".46" stop-color="#fff"/><stop offset=".682" stop-color="#404040"/><stop offset="1" stop-color="#fff" stop-opacity="0"/></linearGradient><linearGradient id="j" x1="172" x2="60" y1="3194.41" y2="3194.41" gradientUnits="userSpaceOnUse"><stop stop-opacity=".25"/><stop offset=".151" stop-color="#fff" stop-opacity="0"/><stop offset=".46" stop-color="#fff"/><stop offset=".682" stop-color="#404040"/><stop offset="1" stop-color="#fff" stop-opacity="0"/></linearGradient><linearGradient id="k" x1="172" x2="60" y1="3215.41" y2="3215.41" gradientUnits="userSpaceOnUse"><stop stop-opacity=".25"/><stop offset=".151" stop-color="#fff" stop-opacity="0"/><stop offset=".46" stop-color="#fff"/><stop offset=".682" stop-color="#404040"/><stop offset="1" stop-color="#fff" stop-opacity="0"/></linearGradient><linearGradient id="l" x1="172" x2="60" y1="3236.41" y2="3236.41" gradientUnits="userSpaceOnUse"><stop stop-opacity=".25"/><stop offset=".151" stop-color="#fff" stop-opacity="0"/><stop offset=".46" stop-color="#fff"/><stop offset=".682" stop-color="#404040"/><stop offset="1" stop-color="#fff" stop-opacity="0"/></linearGradient><linearGradient id="m" x1="172" x2="60" y1="3257.41" y2="3257.41" gradientUnits="userSpaceOnUse"><stop stop-opacity=".25"/><stop offset=".151" stop-color="#fff" stop-opacity="0"/><stop offset=".46" stop-color="#fff"/><stop offset=".682" stop-color="#404040"/><stop offset="1" stop-color="#fff" stop-opacity="0"/></linearGradient><linearGradient id="n" x1="172" x2="60" y1="3278.41" y2="3278.41" gradientUnits="userSpaceOnUse"><stop stop-opacity=".25"/><stop offset=".151" stop-color="#fff" stop-opacity="0"/><stop offset=".46" stop-color="#fff"/><stop offset=".682" stop-color="#404040"/><stop offset="1" stop-color="#fff" stop-opacity="0"/></linearGradient><linearGradient id="o" x1="172" x2="60" y1="3299.41" y2="3299.41" gradientUnits="userSpaceOnUse"><stop stop-opacity=".25"/><stop offset=".151" stop-color="#fff" stop-opacity="0"/><stop offset=".46" stop-color="#fff"/><stop offset=".682" stop-color="#404040"/><stop offset="1" stop-color="#fff" stop-opacity="0"/></linearGradient><linearGradient id="p" x1="172" x2="60" y1="3320.41" y2="3320.41" gradientUnits="userSpaceOnUse"><stop stop-opacity=".25"/><stop offset=".151" stop-color="#fff" stop-opacity="0"/><stop offset=".46" stop-color="#fff"/><stop offset=".682" stop-color="#404040"/><stop offset="1" stop-color="#fff" stop-opacity="0"/></linearGradient><linearGradient id="q" x1="157" x2="71" y1="3063.12" y2="3063.12" gradientUnits="userSpaceOnUse"><stop stop-opacity=".25"/><stop offset=".151" stop-color="#fff" stop-opacity="0"/><stop offset=".46" stop-color="#fff"/><stop offset=".682" stop-color="#404040"/><stop offset="1" stop-color="#fff" stop-opacity="0"/></linearGradient><linearGradient id="r" x1="173" x2="60" y1="3473.9" y2="3473.9" gradientUnits="userSpaceOnUse"><stop stop-opacity=".25"/><stop offset=".302" stop-color="#fff" stop-opacity="0"/><stop offset=".578" stop-color="#fff"/><stop offset=".781" stop-color="#404040"/><stop offset="1" stop-color="#fff" stop-opacity="0"/></linearGradient><linearGradient id="s" x1="173" x2="60" y1="3658.97" y2="3658.97" gradientUnits="userSpaceOnUse"><stop stop-opacity=".25"/><stop offset=".302" stop-color="#fff" stop-opacity="0"/><stop offset=".578" stop-color="#fff"/><stop offset=".781" stop-color="#404040"/><stop offset="1" stop-color="#fff" stop-opacity="0"/></linearGradient><linearGradient id="t" x1="172" x2="57" y1="2929" y2="2929" gradientUnits="userSpaceOnUse"><stop stop-opacity=".25"/><stop offset=".177" stop-color="#fff" stop-opacity="0"/><stop offset=".43" stop-color="#fff"/><stop offset=".677" stop-color="#404040"/><stop offset="1" stop-color="#fff" stop-opacity="0"/></linearGradient><linearGradient id="u" x1="44" x2="185" y1="2920" y2="2920" gradientUnits="userSpaceOnUse"><stop stop-color="#fff" stop-opacity="0"/><stop offset=".307" stop-color="#5E5E5E"/><stop offset=".583" stop-color="#fff"/><stop offset=".818" stop-color="#fff" stop-opacity="0"/><stop offset="1" stop-opacity=".25"/></linearGradient><clipPath id="w"><rect width="141" height="2807" fill="#fff" transform="translate(44 109)"/></clipPath><filter id="v" width="329" height="2996" x="0" y="0" color-interpolation-filters="sRGB" filterUnits="userSpaceOnUse"><feFlood flood-opacity="0" result="BackgroundImageFix"/><feBlend in="SourceGraphic" in2="BackgroundImageFix" result="shape"/><feGaussianBlur result="effect1_foregroundBlur" stdDeviation="40"/></filter></defs></svg>