<svg xmlns="http://www.w3.org/2000/svg" width="679" height="483" fill="none" viewBox="0 0 679 483"><path stroke="#C4C4C4" stroke-width="3" d="M339 411L339 11"/><circle cx="339" cy="453" r="29" stroke="#000" stroke-width="2"/><circle cx="339" cy="453" r="30" fill="#FAFF13"/><path stroke="#fff" stroke-linecap="round" stroke-linejoin="round" stroke-width="5" d="M363.977 456.827C364.667 452.176 364.106 447.425 362.352 443.062C360.599 438.699 357.716 434.881 354 432"/><path stroke="#000" stroke-width="2" d="M339 437V450.5"/><path stroke="#000" stroke-width="2" d="M343 437V450.5"/><path stroke="#000" stroke-width="2" d="M347 420L347 444"/><path stroke="#000" stroke-width="2" d="M335 437V450.5"/><path stroke="#000" stroke-width="2" d="M331 420L331 444"/><g clip-path="url(#clip0)"><rect width="40" height="34" x="319" y="394" fill="#C4C4C4" rx="4"/><rect width="30" height="65" x="345" y="377" fill="#F7F7F7"/></g><rect width="38" height="32" x="320" y="395" stroke="#000" stroke-width="2" rx="3"/><path stroke="#000" stroke-width="4" d="M109 12H569"/><defs><clipPath id="clip0"/></defs></svg>