<svg xmlns="http://www.w3.org/2000/svg" fill="none" class="bulbs" viewBox="0 0 679 483"><g class="bulb"><path stroke="#C4C4C4" stroke-width="3" d="M339 411V11" class="bulb__chord"/><g class="bulb__bulb"><path stroke="none" stroke-width="3" d="M339 411V11"/><circle cx="339" cy="453" r="29" stroke="#000" stroke-width="2" class="bulb__glass"/><circle cx="339" cy="453" r="30" fill="#FAFF13" class="bulb__flash"/><path stroke="#fff" stroke-linecap="round" stroke-linejoin="round" stroke-width="5" d="M363.977 456.827C364.667 452.176 364.106 447.425 362.352 443.062C360.599 438.699 357.716 434.881 354 432" class="bulb__glare"/><path stroke="#000" stroke-width="2" d="M339 437v13.5M343 437v13.5M347 420v24M335 437v13.5M331 420v24" class="bulb__filament"/><g clip-path="url(#clip0)"><rect width="40" height="34" x="319" y="394" fill="#C4C4C4" class="bulb__holder" rx="4"/><rect width="20" height="34" x="346" y="394" fill="#F7F7F7" class="bulb__holder-shine"/></g><rect width="38" height="32" x="320" y="395" stroke="#000" stroke-width="2" class="bulb__holder-outline" rx="3"/></g></g><g class="bulb"><g class="bulb__bulb"><path stroke="red" stroke-width="3" d="M339 411V11" class="bulb__fake-chord"/><circle cx="339" cy="453" r="29" stroke="#000" stroke-width="2" class="bulb__glass"/><circle cx="339" cy="453" r="30" fill="#FAFF13" class="bulb__flash"/><path stroke="#fff" stroke-linecap="round" stroke-linejoin="round" stroke-width="5" d="M363.977 456.827C364.667 452.176 364.106 447.425 362.352 443.062C360.599 438.699 357.716 434.881 354 432" class="bulb__glare"/><path stroke="#000" stroke-width="2" d="M339 437v13.5M343 437v13.5M347 420v24M335 437v13.5M331 420v24" class="bulb__filament"/><g clip-path="url(#clip0)"><rect width="40" height="34" x="319" y="394" fill="#C4C4C4" class="bulb__holder" rx="4"/><rect width="20" height="34" x="346" y="394" fill="#F7F7F7" class="bulb__holder-shine"/></g><rect width="38" height="32" x="320" y="395" stroke="#000" stroke-width="2" class="bulb__holder-outline" rx="3"/></g></g><g class="bulb"><g class="bulb__bulb"><path stroke="red" stroke-width="3" d="M339 411V11" class="bulb__fake-chord"/><circle cx="339" cy="453" r="29" stroke="#000" stroke-width="2" class="bulb__glass"/><circle cx="339" cy="453" r="30" fill="#FAFF13" class="bulb__flash"/><path stroke="#fff" stroke-linecap="round" stroke-linejoin="round" stroke-width="5" d="M363.977 456.827C364.667 452.176 364.106 447.425 362.352 443.062C360.599 438.699 357.716 434.881 354 432" class="bulb__glare"/><path stroke="#000" stroke-width="2" d="M339 437v13.5M343 437v13.5M347 420v24M335 437v13.5M331 420v24" class="bulb__filament"/><g clip-path="url(#clip0)"><rect width="40" height="34" x="319" y="394" fill="#C4C4C4" class="bulb__holder" rx="4"/><rect width="20" height="34" x="346" y="394" fill="#F7F7F7" class="bulb__holder-shine"/></g><rect width="38" height="32" x="320" y="395" stroke="#000" stroke-width="2" class="bulb__holder-outline" rx="3"/></g></g><g class="bulb"><g class="bulb__bulb"><path stroke="red" stroke-width="3" d="M339 411V11" class="bulb__fake-chord"/><circle cx="339" cy="453" r="29" stroke="#000" stroke-width="2" class="bulb__glass"/><circle cx="339" cy="453" r="30" fill="#FAFF13" class="bulb__flash"/><path stroke="#fff" stroke-linecap="round" stroke-linejoin="round" stroke-width="5" d="M363.977 456.827C364.667 452.176 364.106 447.425 362.352 443.062C360.599 438.699 357.716 434.881 354 432" class="bulb__glare"/><path stroke="#000" stroke-width="2" d="M339 437v13.5M343 437v13.5M347 420v24M335 437v13.5M331 420v24" class="bulb__filament"/><g clip-path="url(#clip0)"><rect width="40" height="34" x="319" y="394" fill="#C4C4C4" class="bulb__holder" rx="4"/><rect width="20" height="34" x="346" y="394" fill="#F7F7F7" class="bulb__holder-shine"/></g><rect width="38" height="32" x="320" y="395" stroke="#000" stroke-width="2" class="bulb__holder-outline" rx="3"/></g></g><g class="bulb"><path stroke="#C4C4C4" stroke-width="3" d="M339 411V11" class="bulb__chord"/><g class="bulb__bulb"><path stroke="none" stroke-width="3" d="M339 411V11"/><circle cx="339" cy="453" r="29" stroke="#000" stroke-width="2" class="bulb__glass"/><circle cx="339" cy="453" r="30" fill="#FAFF13" class="bulb__flash"/><path stroke="#fff" stroke-linecap="round" stroke-linejoin="round" stroke-width="5" d="M363.977 456.827C364.667 452.176 364.106 447.425 362.352 443.062C360.599 438.699 357.716 434.881 354 432" class="bulb__glare"/><path stroke="#000" stroke-width="2" d="M339 437v13.5M343 437v13.5M347 420v24M335 437v13.5M331 420v24" class="bulb__filament"/><g clip-path="url(#clip0)"><rect width="40" height="34" x="319" y="394" fill="#C4C4C4" class="bulb__holder" rx="4"/><rect width="20" height="34" x="346" y="394" fill="#F7F7F7" class="bulb__holder-shine"/></g><rect width="38" height="32" x="320" y="395" stroke="#000" stroke-width="2" class="bulb__holder-outline" rx="3"/></g></g><path stroke="#000" stroke-width="4" d="M109 12h460" class="bulbs__ceiling"/><defs><clipPath id="clip0"><rect width="40" height="34" x="319" y="394" rx="4"/></clipPath></defs></svg>