<svg xmlns="http://www.w3.org/2000/svg" xmlns:svg="http://www.w3.org/2000/svg" xmlns:vectornator="http://vectornator.io" style="clip-rule:evenodd;fill-rule:evenodd;stroke-linecap:round;stroke-linejoin:round" id="svg137" width="1258.445" height="1185.455" version="1.1" viewBox="0 0 1258.445 1185.455" xml:space="preserve"><metadata id="metadata2"><vectornator:setting key="DisplayWhiteBackground" value="0"/><vectornator:setting key="RulersVisible" value="1"/><vectornator:setting key="GridSpacing" value="36"/><vectornator:setting key="Units" value="Pixels"/><vectornator:setting key="New" value="1"/><vectornator:setting key="DynamicGuides" value="0"/><vectornator:setting key="SnapToPoints" value="0"/><vectornator:setting key="SnapToGrid" value="0"/><vectornator:setting key="SnapToGuides" value="1"/><vectornator:setting key="SnapToEdges" value="0"/></metadata><g id="Layer 1" transform="translate(265.91795,261.98853)" vectornator:layerName="Layer 1"><g id="g34" style="opacity:1"><g id="g20" style="opacity:1"><path id="path6" d="m 495.281,346.286 h 5.932 v 262.563 h -5.932 z" style="opacity:1;fill:#00ff20"/><path id="path8" d="m 479.362,346.286 h 5.933 v 262.563 h -5.933 z" style="opacity:1;fill:red"/><path id="path10" d="m 489.216,346.286 h 5.933 v 262.563 h -5.933 z" style="opacity:1;fill:#fff200"/><path id="path12" d="m 483.275,346.286 h 5.933 v 262.563 h -5.933 z" style="opacity:1;fill:#ff9300"/><path id="path14" d="m 511.76,346.286 h 5.932 v 262.563 h -5.932 z" style="opacity:1;fill:#ff00b3"/><path id="path16" d="m 506.102,346.286 h 5.933 v 262.563 h -5.933 z" style="opacity:1;fill:#0c00ff"/><path id="path18" d="m 501.047,346.286 h 5.933 v 262.563 h -5.933 z" style="opacity:1;fill:#00f0ff"/></g><g id="g26" style="opacity:1"><path id="path22" d="m 477.151,339.574 h 42.753 v 9.393 h -42.753 z" style="opacity:1;fill:#686767"/><path id="path24" d="m 509.775,339.441 h 10.129 v 9.392 h -10.129 z" style="opacity:1;fill:#282828"/></g><g id="g32" style="opacity:1"><path id="path28" d="m 498.513,180.489 c -17.295,0 -31.294,14.753 -31.294,32.938 v 128.437 h 62.617 V 213.427 c 0,-18.185 -14.03,-32.938 -31.323,-32.938 z" style="opacity:1;fill:#bbb"/><path id="path30" d="m 498.513,180.489 c 17.294,0 31.313,14.753 31.313,32.938 v 128.437 h -7.719 V 213.427 c 0,-16.802 -11.98,-30.518 -27.438,-32.532 1.274,-0.165 2.528,-0.406 3.844,-0.406 z" style="opacity:1;fill:#434141"/></g></g><g id="g106" style="opacity:1"><path id="path36" d="m 431.652,356.371 c -1.641,15.641 -8.528,37.802 -5.169,53.021 2.603,11.797 13.309,21.134 14.527,34.214 1.56,16.752 -6.149,32.333 -7.672,46.851" style="opacity:1;fill:none;stroke:#e3ac9b;stroke-width:20.32999992;stroke-linecap:round;stroke-linejoin:round"/><path id="path38" d="m 435.137,357.178 c 1.641,15.641 8.528,37.802 5.169,53.021 -2.603,11.797 -13.309,21.134 -14.527,34.214 -1.56,16.752 6.149,32.333 7.673,46.851" style="opacity:1;fill:none;stroke:#e3ac9b;stroke-width:20.56999969;stroke-linecap:round;stroke-linejoin:round"/><g id="g44" style="opacity:1"><path id="path40" d="m 404.375,326.206 h 0.066 c 8.028,0 14.535,6.507 14.535,14.535 v 93.653 c 0,8.028 -6.507,14.535 -14.535,14.535 h -0.066 c -8.027,0 -14.535,-6.507 -14.535,-14.535 v -93.653 c 0,-8.028 6.508,-14.535 14.535,-14.535 z" style="opacity:1;fill:#ecb6a5"/><path id="path42" d="m 411.379,328.246 c 1.081,2.033 1.921,4.262 1.921,6.724 v 93.612 c 0,8.028 -6.556,14.584 -14.583,14.584 h -0.087 c -2.615,0 -4.866,-0.887 -6.986,-2.096 2.441,4.598 7.18,7.859 12.749,7.859 8.027,0 14.583,-6.556 14.583,-14.583 v -93.612 c 0,-5.451 -3.157,-10 -7.597,-12.488 z" style="opacity:1;fill:#c69b8e"/></g><g id="g50" style="opacity:1"><path id="path46" d="m 463.763,328.572 h 0.066 c 8.027,0 14.535,6.508 14.535,14.535 v 93.653 c 0,8.028 -6.508,14.535 -14.535,14.535 h -0.066 c -8.027,0 -14.535,-6.507 -14.535,-14.535 v -93.653 c 0,-8.027 6.508,-14.535 14.535,-14.535 z" style="opacity:1;fill:#ecb6a5"/><path id="path48" d="m 470.767,330.613 c 1.081,2.032 1.921,4.261 1.921,6.724 v 93.612 c 0,8.027 -6.557,14.583 -14.583,14.583 h -0.088 c -2.615,0 -4.866,-0.887 -6.986,-2.096 2.441,4.598 7.181,7.859 12.75,7.859 8.027,0 14.583,-6.556 14.583,-14.583 V 343.1 c 0,-5.451 -3.158,-10 -7.597,-12.487 z" style="opacity:1;fill:#c69b8e"/></g><g id="g56" style="opacity:1"><path id="path52" d="m 432.945,184.334 v 0 c 27.199,0 49.248,21.459 49.248,47.929 v 96.867 c 0,26.47 -22.049,47.929 -49.248,47.929 v 0 c -27.199,0 -49.248,-21.459 -49.248,-47.929 v -96.867 c 0,-26.47 22.049,-47.929 49.248,-47.929 z" style="opacity:1;fill:#ecb6a5"/><path id="path54" d="m 433.321,377.057 c 27.198,-0.215 49.08,-21.859 48.871,-48.329 l 0.49387,-97.23284 c -0.122,-15.507 -9.13887,-28.68416 -20.94487,-37.35116 5.61,7.712 8.955,17.007 9.035,27.174 l 0.766,96.928 c 0.209,26.469 -21.672,48.114 -48.871,48.329 -11.212,0.088 -21.441,-3.645 -29.768,-9.721 9.003,12.308 23.714,20.335 40.418,20.203 z" style="opacity:1;fill:#c69b8e"/></g><path id="path58" d="m 385.769,246.696 91.582,-10.74 c 4.66,-0.546 8.881,2.788 9.428,7.449 l 0.129,1.102 c 0.547,4.66 -2.788,8.881 -7.448,9.428 l -91.583,10.74 c -4.66,0.547 -8.881,-2.788 -9.427,-7.448 l -0.13,-1.103 c -0.546,-4.66 2.789,-8.881 7.449,-9.428 z" style="opacity:1;fill:#282828"/><g id="g64" style="opacity:1"><path id="path60" d="m 468.314,206.225 0.065,0.015 c 7.829,1.772 12.739,9.555 10.967,17.385 l -20.673,91.343 c -1.772,7.829 -9.556,12.739 -17.385,10.967 l -0.064,-0.014 c -7.83,-1.772 -12.74,-9.556 -10.968,-17.385 l 20.673,-91.343 c 1.773,-7.829 9.556,-12.74 17.385,-10.968 z" style="opacity:1;fill:#ecb6a5"/><path id="path62" d="m 474.89142,209.17174 c 0.605,2.221 0.73658,5.17026 0.19258,7.57126 l -20.664,91.303 c -1.772,7.83 -9.614,12.776 -17.443,11.004 l -0.085,-0.019 c -2.551,-0.577 -4.55,-1.939 -6.351,-3.586 1.365,5.024 5.268,9.25 10.7,10.48 7.829,1.772 15.67,-3.175 17.442,-11.005 l 20.94278,-91.57978 c 1.203,-5.317 -0.95336,-10.76148 -4.73436,-14.16848 z" style="opacity:1;fill:#c69b8e"/></g><g id="g70" style="opacity:1"><path id="path66" d="m 393.231,213.418 0.064,0.016 c 7.797,1.908 12.572,9.776 10.664,17.573 l -22.26,90.969 c -1.908,7.798 -9.776,12.572 -17.573,10.664 l -0.064,-0.015 c -7.798,-1.908 -12.572,-9.776 -10.664,-17.574 l 22.26,-90.969 c 1.908,-7.797 9.776,-12.572 17.573,-10.664 z" style="opacity:1;fill:#ecb6a5"/><path id="path68" d="m 399.549,217.065 c 0.567,2.231 0.853,4.596 0.268,6.988 l -22.25,90.929 c -1.908,7.798 -9.835,12.607 -17.632,10.699 l -0.084,-0.02 c -2.541,-0.622 -4.516,-2.019 -6.288,-3.697 1.278,5.047 5.107,9.341 10.516,10.665 7.797,1.908 15.723,-2.902 17.631,-10.699 L 403.96,231 c 1.296,-5.295 -0.69,-10.463 -4.411,-13.935 z" style="opacity:1;fill:#c69b8e"/></g><g id="g84" style="opacity:1"><path id="path72" d="m 281.949,204.743 c -18.263,10.223 -37.42,12.966 -53.675,26.577" style="opacity:1;fill:none;stroke:#000;stroke-width:5;stroke-linecap:round;stroke-linejoin:round"/><path id="path74" d="m 294.18,222.903 c -16.081,10.369 -32.161,20.739 -48.242,31.108" style="opacity:1;fill:none;stroke:#000;stroke-width:5;stroke-linecap:round;stroke-linejoin:round"/><path id="path76" d="m 307.838,233.18 c -8.641,6.88 -13.941,19.136 -16.847,29.948" style="opacity:1;fill:none;stroke:#000;stroke-width:5;stroke-linecap:round;stroke-linejoin:round"/><path id="path78" d="m 478.613,88.8342 c 7.447,-12.5833 31.06,-22.0382 43.07,-29.7827" style="opacity:1;fill:none;stroke:#000;stroke-width:5;stroke-linecap:round;stroke-linejoin:round"/><path id="path80" d="m 490.824,111.665 c 11.555,-7.451 24.312,-18.8496 38.581,-11.8218" style="opacity:1;fill:none;stroke:#000;stroke-width:5;stroke-linecap:round;stroke-linejoin:round"/><path id="path82" d="m 494.542,127.85 c 9.47,-6.107 37.157,4.005 46.219,9.368" style="opacity:1;fill:none;stroke:#000;stroke-width:5;stroke-linecap:round;stroke-linejoin:round"/></g><path id="path86" d="m 386.328,63.9696 c 3.737,-106.8745 89.486,-53.0042 72.864,8.008 47.617,34.2984 63.503,103.8444 -5.244,155.5134 -93.38,70.183 -188.33,8.925 -180.903,-68.89 C 236.37,101.727 250.871,16.3624 318.768,92.1702" style="opacity:1;fill:#ecb6a5"/><path id="path88" d="m 349.914,192.359 c -7.174,-14.062 5.229,-34.756 27.702,-46.222 22.474,-11.466 46.509,-9.362 53.683,4.699 7.174,14.061 -5.229,34.755 -27.703,46.221 -22.474,11.467 -46.508,9.363 -53.682,-4.698 z" style="opacity:1;fill:#efddd7"/><path id="path90" d="m 299.157,181.58 c -2.091,-3.242 -1.158,-7.566 2.085,-9.657 3.242,-2.091 7.566,-1.157 9.657,2.085 2.091,3.243 1.157,7.566 -2.085,9.657 -3.243,2.091 -7.566,1.158 -9.657,-2.085 z" style="opacity:1;fill:#000;stroke:#000;stroke-width:5;stroke-linecap:round;stroke-linejoin:round"/><path id="path92" d="m 445.877,115.103 c -2.091,-3.242 -1.158,-7.566 2.085,-9.657 3.242,-2.091 7.566,-1.157 9.657,2.085 2.091,3.243 1.158,7.566 -2.085,9.657 -3.243,2.091 -7.566,1.158 -9.657,-2.085 z" style="opacity:1;fill:#000;stroke:#000;stroke-width:5;stroke-linecap:round;stroke-linejoin:round"/><path id="path94" d="m 304.403,106.862 c 9.02,-7.9769 14.53,-19.4018 24.887,-26.6944 21.833,-15.3721 47.057,-18.0238 71.641,-16.5159" style="opacity:1;fill:#ecb6a5"/><path id="path96" d="m 424.303,24.553 c -18.176,-21.67186 -28.131,18.3793 -25.195,30.6811 0.148,0.6194 0.52,2.7901 0.039,3.1937" style="opacity:1;fill:none;stroke:#c69b8e;stroke-width:4;stroke-linecap:round;stroke-linejoin:round"/><path id="path98" d="m 270.54167,89.947956 c -6.585,-7.9846 1.77733,-21.436456 10.71633,-14.896656 6.124,4.4798 11.395,9.1032 16.486,15.2753 1.05,1.2739 7.459,9.5074 8.16,8.8074" style="opacity:1;fill:none;stroke:#c69b8e;stroke-width:3.99000001;stroke-linecap:round;stroke-linejoin:round"/><path id="path100" d="m 365.444,188.979 c 18.618,6.58 14.922,-12.172 25.321,-15.432 4.609,-1.445 10.239,3.694 16.151,0.29 2.577,-1.483 13.751,-10.973 11.548,-13.256" style="opacity:1;fill:none;stroke:#000;stroke-width:4;stroke-linecap:round;stroke-linejoin:round"/><path id="path102" d="m 378.197,163.527 c -0.98,-2.031 0.831,-4.822 4.044,-6.235 3.214,-1.412 6.613,-0.91 7.592,1.121 0.98,2.031 -0.831,4.822 -4.044,6.234 -3.214,1.412 -6.613,0.911 -7.592,-1.12 z" style="opacity:1;fill:#000;stroke:#000;stroke-width:2;stroke-linecap:round;stroke-linejoin:round"/><path id="path104" d="m 428.745,4.55003 c 14.099,12.37257 23.631,35.27257 17.042,59.45927 47.617,34.2984 63.541,103.8067 -5.206,155.4767 -47.142,35.431 -94.633,37.341 -129.201,20.555 34.976,24.623 89.027,27.699 142.644,-12.599 68.748,-51.67 52.823,-121.178 5.206,-155.4765 8.55,-31.3838 -9.957,-60.7169 -30.485,-67.41547 z" style="opacity:1;fill:#c69b8e"/><path id="path971" d="m 642.37997,394.57739 -10.39586,-8.23555 -12.67782,3.89499 4.61998,-12.43197 -7.62202,-10.85371 13.25116,0.55218 7.96715,-10.60296 3.56969,12.77324 12.54599,4.30072 -11.04497,7.34212 z" style="opacity:1;fill:#ffe680;fill-opacity:1;fill-rule:nonzero;stroke:none;stroke-width:3.40264821;stroke-linecap:round;stroke-linejoin:round;stroke-miterlimit:4;stroke-dasharray:none;stroke-dashoffset:0;stroke-opacity:1"/><path style="opacity:1;fill:#ffe680;fill-opacity:1;fill-rule:nonzero;stroke:none;stroke-width:3.40264821;stroke-linecap:round;stroke-linejoin:round;stroke-miterlimit:4;stroke-dasharray:none;stroke-dashoffset:0;stroke-opacity:1" id="path973" d="m 862.37991,-173.20039 -10.39586,-8.23556 -12.67782,3.895 4.61998,-12.43198 -7.62203,-10.8537 13.25117,0.55217 7.96715,-10.60296 3.56969,12.77324 12.54599,4.30072 -11.04497,7.34212 z"/><path id="path975" d="M 30.157763,24.577385 19.761907,16.341829 7.0840827,20.236824 11.704066,7.8048511 4.0820417,-3.0488562 17.333204,-2.4966824 25.300358,-13.099638 28.870044,-0.32640251 41.41604,3.974318 30.371065,11.316438 Z" style="opacity:1;fill:#ffe680;fill-opacity:1;fill-rule:nonzero;stroke:none;stroke-width:3.40264821;stroke-linecap:round;stroke-linejoin:round;stroke-miterlimit:4;stroke-dasharray:none;stroke-dashoffset:0;stroke-opacity:1"/><path style="opacity:1;fill:#ffe680;fill-opacity:1;fill-rule:nonzero;stroke:none;stroke-width:3.40264821;stroke-linecap:round;stroke-linejoin:round;stroke-miterlimit:4;stroke-dasharray:none;stroke-dashoffset:0;stroke-opacity:1" id="path985" d="m -77.620026,729.02185 -10.395855,-8.23555 -12.677829,3.89499 4.619987,-12.43197 -7.622027,-10.85371 13.251166,0.55217 7.967154,-10.60295 3.569686,12.77323 12.545996,4.30072 -11.044975,7.34212 z"/><path id="path987" d="m 961.26888,874.57739 -10.39585,-8.23555 -12.67783,3.89499 4.61999,-12.43197 -7.62203,-10.85371 13.25116,0.55218 7.96716,-10.60296 3.56968,12.77324 12.546,4.30072 -11.04497,7.34212 z" style="opacity:1;fill:#ffe680;fill-opacity:1;fill-rule:nonzero;stroke:none;stroke-width:3.40264821;stroke-linecap:round;stroke-linejoin:round;stroke-miterlimit:4;stroke-dasharray:none;stroke-dashoffset:0;stroke-opacity:1"/></g><path id="path108" d="m 451.33,607.13 c 0,-13.807 11.193,-25 25,-25 13.807,0 25,11.193 25,25 0,13.807 -11.193,25 -25,25 -13.807,0 -25,-11.193 -25,-25 z" style="opacity:1;fill:red"/><path id="path110" d="m 438.224,611.256 c 0,-13.807 11.193,-25 25,-25 13.808,0 25,11.193 25,25 0,13.807 -11.192,25 -25,25 -13.807,0 -25,-11.193 -25,-25 z" style="opacity:1;fill:red"/><path id="path112" d="m 470.392,600.678 c 0,-13.807 11.193,-25 25,-25 13.807,0 25,11.193 25,25 0,13.807 -11.193,25 -25,25 -13.807,0 -25,-11.193 -25,-25 z" style="opacity:1;fill:#00ff0c"/><path id="path114" d="m 454.253,622.259 c 0,-13.808 11.193,-25 25,-25 13.807,0 25,11.192 25,25 0,13.807 -11.193,25 -25,25 -13.807,0 -25,-11.193 -25,-25 z" style="opacity:1;fill:#00ffe7"/><path id="path116" d="m 453.039,614.492 c 0,-13.807 11.193,-25 25,-25 13.807,0 25,11.193 25,25 0,13.807 -11.193,25 -25,25 -13.807,0 -25,-11.193 -25,-25 z" style="opacity:1;fill:#00ffe7"/><path id="path118" d="m 499.062,616.932 c 0,-13.807 11.193,-25 25,-25 13.807,0 25,11.193 25,25 0,13.807 -11.193,25 -25,25 -13.807,0 -25,-11.193 -25,-25 z" style="opacity:1;fill:#ff008b"/><path id="path120" d="m 472.123,622.029 c 0,-13.807 11.193,-25 25,-25 13.807,0 25,11.193 25,25 0,13.807 -11.193,25 -25,25 -13.807,0 -25,-11.193 -25,-25 z" style="opacity:1;fill:#ff008b"/><path id="path122" d="m 454.788,589.174 c 0,-13.807 11.193,-25 25,-25 13.807,0 25,11.193 25,25 0,13.807 -11.193,25 -25,25 -13.807,0 -25,-11.193 -25,-25 z" style="opacity:1;fill:#2c00ff"/><path id="path124" d="m 449.934,614.172 c 0,-13.807 11.193,-25 25,-25 13.807,0 25,11.193 25,25 0,13.807 -11.193,25 -25,25 -13.807,0 -25,-11.193 -25,-25 z" style="opacity:1;fill:#2c00ff"/><path id="path126" d="m 481.445,618.822 c 0,-13.807 11.193,-25 25,-25 13.807,0 25,11.193 25,25 0,13.807 -11.193,25 -25,25 -13.807,0 -25,-11.193 -25,-25 z" style="opacity:1;fill:#fff300"/><path id="path128" d="m 497.948,619.55 c 0,-13.807 11.193,-25 25,-25 13.807,0 25,11.193 25,25 0,13.807 -11.193,25 -25,25 -13.807,0 -25,-11.193 -25,-25 z" style="opacity:1;fill:#fff300"/><path id="path130" d="m 500.02,589.858 c 0,-13.807 11.193,-25 25,-25 13.807,0 25,11.193 25,25 0,13.808 -11.193,25 -25,25 -13.807,0 -25,-11.192 -25,-25 z" style="opacity:1;fill:#ff8b00"/><path id="path132" d="m 508.272,603.207 c 0,-13.807 11.193,-25 25,-25 13.807,0 25,11.193 25,25 0,13.807 -11.193,25 -25,25 -13.807,0 -25,-11.193 -25,-25 z" style="opacity:1;fill:#00ff0c"/><path id="path134" d="m 468.712,585.49 c 0,-13.807 11.193,-25 25,-25 13.807,0 25,11.193 25,25 0,13.807 -11.193,25 -25,25 -13.807,0 -25,-11.193 -25,-25 z" style="opacity:1;fill:#ff8b00"/></g></svg>