<svg xmlns="http://www.w3.org/2000/svg" fill="none" class="pocket-watch" viewBox="0 0 383 334"><g class="pocket-watch__group"><g class="pocket-watch__watch"><rect width="6" height="12" x="188" y="247" fill="#C4C4C4" rx="2"/><path stroke="#B3B3B3" stroke-width="2" d="M198 246c0 1.272-.685 2.499-1.943 3.443-1.259.944-3.043 1.557-5.057 1.557-2.014 0-3.798-.613-5.057-1.557-1.258-.944-1.943-2.171-1.943-3.443 0-1.272.685-2.499 1.943-3.443 1.259-.944 3.043-1.557 5.057-1.557 2.014 0 3.798.613 5.057 1.557 1.258.944 1.943 2.171 1.943 3.443z"/><rect width="20" height="5" x="181" y="256" fill="#A9A6A6" rx="2"/><circle cx="191" cy="296" r="38" fill="#B8B8B8"/><circle cx="191" cy="296" r="36" fill="#BEBEBE"/><circle cx="191" cy="296" r="25" fill="#B5B5B5"/><path stroke="#F1F1F1" stroke-linecap="round" stroke-linejoin="round" stroke-width="2" d="M207 325.132A30.501 30.501 0 00219.629 312"/><path stroke="#F4F4F4" stroke-linecap="round" stroke-linejoin="round" stroke-width="4" d="M183.213 263.904a33.998 33.998 0 00-25.106 24.491"/></g><path stroke="#AFAFAF" stroke-linecap="round" stroke-linejoin="round" stroke-width="3" d="M191 19.5V243" class="pocket-watch__chain pocket-watch__chain--invisible"/></g><path stroke="#AFAFAF" stroke-linecap="round" stroke-linejoin="round" stroke-width="3" d="M191 19.5V243" class="pocket-watch__chain pocket-watch__chain--morpher"/></svg>