<svg xmlns="http://www.w3.org/2000/svg" viewBox="0 0 25.981 30"><path fill="#f0f" d="M12.99 20l4.33-2.5v-5L12.99 10l-4.33 2.5 4.33 2.5z"/><path fill="#f60" d="M8.66 12.5l4.33-2.5 4.33 2.5-4.33 2.5v5l-4.33-2.5z"/><path fill="#00f" d="M12.99 10l-4.33 2.5 4.33 2.5 4.33-2.5z"/><path fill="#f0f" d="M8.66 22.5l4.33-2.5v-5l-4.33-2.5L4.33 15l4.33 2.5z"/><path fill="#f60" d="M4.33 15l4.33-2.5 4.33 2.5-4.33 2.5v5L4.33 20z"/><path fill="#00f" d="M8.66 12.5L4.33 15l4.33 2.5 4.33-2.5z"/><path fill="#f0f" d="M4.33 25l4.33-2.5v-5L4.33 15 0 17.5 4.33 20z"/><path fill="#f60" d="M0 17.5L4.33 15l4.33 2.5L4.33 20v5L0 22.5z"/><path fill="#00f" d="M4.33 15L0 17.5 4.33 20l4.33-2.5z"/><path fill="#f0f" d="M17.32 22.5l4.33-2.5v-5l-4.33-2.5-4.33 2.5 4.33 2.5z"/><path fill="#f60" d="M12.99 15l4.33-2.5 4.33 2.5-4.33 2.5v5L12.99 20z"/><path fill="#00f" d="M17.32 12.5L12.99 15l4.33 2.5 4.33-2.5z"/><path fill="#f0f" d="M12.99 25l4.33-2.5v-5L12.99 15l-4.33 2.5 4.33 2.5z"/><path fill="#f60" d="M8.66 17.5l4.33-2.5 4.33 2.5-4.33 2.5v5l-4.33-2.5z"/><path fill="#00f" d="M12.99 15l-4.33 2.5 4.33 2.5 4.33-2.5z"/><path fill="#f0f" d="M8.66 27.5l4.33-2.5v-5l-4.33-2.5L4.33 20l4.33 2.5z"/><path fill="#f60" d="M4.33 20l4.33-2.5 4.33 2.5-4.33 2.5v5L4.33 25z"/><path fill="#00f" d="M8.66 17.5L4.33 20l4.33 2.5 4.33-2.5z"/><path fill="#f0f" d="M21.65 25l4.33-2.5v-5L21.65 15l-4.33 2.5 4.33 2.5z"/><path fill="#f60" d="M17.32 17.5l4.33-2.5 4.33 2.5-4.33 2.5v5l-4.33-2.5z"/><path fill="#00f" d="M21.65 15l-4.33 2.5 4.33 2.5 4.33-2.5z"/><path fill="#f0f" d="M17.32 27.5l4.33-2.5v-5l-4.33-2.5-4.33 2.5 4.33 2.5z"/><path fill="#f60" d="M12.99 20l4.33-2.5 4.33 2.5-4.33 2.5v5L12.99 25z"/><path fill="#00f" d="M17.32 17.5L12.99 20l4.33 2.5 4.33-2.5z"/><path fill="#f0f" d="M12.99 30l4.33-2.5v-5L12.99 20l-4.33 2.5 4.33 2.5z"/><path fill="#f60" d="M8.66 22.5l4.33-2.5 4.33 2.5-4.33 2.5v5l-4.33-2.5z"/><path fill="#00f" d="M12.99 20l-4.33 2.5 4.33 2.5 4.33-2.5z"/><g><path fill="#f0f" d="M12.99 15l4.33-2.5v-5L12.99 5 8.66 7.5l4.33 2.5z"/><path fill="#f60" d="M8.66 7.5L12.99 5l4.33 2.5-4.33 2.5v5l-4.33-2.5z"/><path fill="#00f" d="M12.99 5L8.66 7.5l4.33 2.5 4.33-2.5z"/></g><g><path fill="#f0f" d="M8.66 17.5l4.33-2.5v-5L8.66 7.5 4.33 10l4.33 2.5z"/><path fill="#f60" d="M4.33 10l4.33-2.5 4.33 2.5-4.33 2.5v5L4.33 15z"/><path fill="#00f" d="M8.66 7.5L4.33 10l4.33 2.5 4.33-2.5z"/></g><g><path fill="#f0f" d="M4.33 20l4.33-2.5v-5L4.33 10 0 12.5 4.33 15z"/><path fill="#f60" d="M0 12.5L4.33 10l4.33 2.5L4.33 15v5L0 17.5z"/><path fill="#00f" d="M4.33 10L0 12.5 4.33 15l4.33-2.5z"/></g><g><path fill="#f0f" d="M17.32 17.5l4.33-2.5v-5l-4.33-2.5-4.33 2.5 4.33 2.5z"/><path fill="#f60" d="M12.99 10l4.33-2.5 4.33 2.5-4.33 2.5v5L12.99 15z"/><path fill="#00f" d="M17.32 7.5L12.99 10l4.33 2.5 4.33-2.5z"/></g><g><path fill="#f0f" d="M12.99 20l4.33-2.5v-5L12.99 10l-4.33 2.5 4.33 2.5z"/><path fill="#f60" d="M8.66 12.5l4.33-2.5 4.33 2.5-4.33 2.5v5l-4.33-2.5z"/><path fill="#00f" d="M12.99 10l-4.33 2.5 4.33 2.5 4.33-2.5z"/></g><g><path fill="#f0f" d="M8.66 22.5l4.33-2.5v-5l-4.33-2.5L4.33 15l4.33 2.5z"/><path fill="#f60" d="M4.33 15l4.33-2.5 4.33 2.5-4.33 2.5v5L4.33 20z"/><path fill="#00f" d="M8.66 12.5L4.33 15l4.33 2.5 4.33-2.5z"/></g><g><path fill="#f0f" d="M21.65 20l4.33-2.5v-5L21.65 10l-4.33 2.5 4.33 2.5z"/><path fill="#f60" d="M17.32 12.5l4.33-2.5 4.33 2.5-4.33 2.5v5l-4.33-2.5z"/><path fill="#00f" d="M21.65 10l-4.33 2.5 4.33 2.5 4.33-2.5z"/></g><g><path fill="#f0f" d="M17.32 22.5l4.33-2.5v-5l-4.33-2.5-4.33 2.5 4.33 2.5z"/><path fill="#f60" d="M12.99 15l4.33-2.5 4.33 2.5-4.33 2.5v5L12.99 20z"/><path fill="#00f" d="M17.32 12.5L12.99 15l4.33 2.5 4.33-2.5z"/></g><g><path fill="#f0f" d="M12.99 25l4.33-2.5v-5L12.99 15l-4.33 2.5 4.33 2.5z"/><path fill="#f60" d="M8.66 17.5l4.33-2.5 4.33 2.5-4.33 2.5v5l-4.33-2.5z"/><path fill="#00f" d="M12.99 15l-4.33 2.5 4.33 2.5 4.33-2.5z"/></g><g><path fill="#f0f" d="M12.99 10l4.33-2.5v-5L12.99 0 8.66 2.5 12.99 5z"/><path fill="#f60" d="M8.66 2.5L12.99 0l4.33 2.5L12.99 5v5L8.66 7.5z"/><path fill="#00f" d="M12.99 0L8.66 2.5 12.99 5l4.33-2.5z"/></g><g><path fill="#f0f" d="M8.66 12.5l4.33-2.5V5L8.66 2.5 4.33 5l4.33 2.5z"/><path fill="#f60" d="M4.33 5l4.33-2.5L12.99 5 8.66 7.5v5L4.33 10z"/><path fill="#00f" d="M8.66 2.5L4.33 5l4.33 2.5L12.99 5z"/></g><g><path fill="#f0f" d="M4.33 15l4.33-2.5v-5L4.33 5 0 7.5 4.33 10z"/><path fill="#f60" d="M0 7.5L4.33 5l4.33 2.5L4.33 10v5L0 12.5z"/><path fill="#00f" d="M4.33 5L0 7.5 4.33 10l4.33-2.5z"/></g><g><path fill="#f0f" d="M17.32 12.5l4.33-2.5V5l-4.33-2.5L12.99 5l4.33 2.5z"/><path fill="#f60" d="M12.99 5l4.33-2.5L21.65 5l-4.33 2.5v5L12.99 10z"/><path fill="#00f" d="M17.32 2.5L12.99 5l4.33 2.5L21.65 5z"/></g><g><path fill="#f0f" d="M12.99 15l4.33-2.5v-5L12.99 5 8.66 7.5l4.33 2.5z"/><path fill="#f60" d="M8.66 7.5L12.99 5l4.33 2.5-4.33 2.5v5l-4.33-2.5z"/><path fill="#00f" d="M12.99 5L8.66 7.5l4.33 2.5 4.33-2.5z"/></g><g><path fill="#f0f" d="M8.66 17.5l4.33-2.5v-5L8.66 7.5 4.33 10l4.33 2.5z"/><path fill="#f60" d="M4.33 10l4.33-2.5 4.33 2.5-4.33 2.5v5L4.33 15z"/><path fill="#00f" d="M8.66 7.5L4.33 10l4.33 2.5 4.33-2.5z"/></g><g><path fill="#f0f" d="M21.65 15l4.33-2.5v-5L21.65 5l-4.33 2.5 4.33 2.5z"/><path fill="#f60" d="M17.32 7.5L21.65 5l4.33 2.5-4.33 2.5v5l-4.33-2.5z"/><path fill="#00f" d="M21.65 5l-4.33 2.5 4.33 2.5 4.33-2.5z"/></g><g><path fill="#f0f" d="M17.32 17.5l4.33-2.5v-5l-4.33-2.5-4.33 2.5 4.33 2.5z"/><path fill="#f60" d="M12.99 10l4.33-2.5 4.33 2.5-4.33 2.5v5L12.99 15z"/><path fill="#00f" d="M17.32 7.5L12.99 10l4.33 2.5 4.33-2.5z"/></g><g><path fill="#f0f" d="M12.99 20l4.33-2.5v-5L12.99 10l-4.33 2.5 4.33 2.5z"/><path fill="#f60" d="M8.66 12.5l4.33-2.5 4.33 2.5-4.33 2.5v5l-4.33-2.5z"/><path fill="#00f" d="M12.99 10l-4.33 2.5 4.33 2.5 4.33-2.5z"/></g></svg>