<svg xmlns="http://www.w3.org/2000/svg" xmlns:xlink="http://www.w3.org/1999/xlink" width="63.2" height="329.1" viewBox="0 0 16.7 87.1"><defs><pattern id="d" patternTransform="matrix(16.80595 7.78716 -40.7833 18.89723 438.8 -200.8)" xlink:href="#a"/><pattern id="a" width="2" height="1" patternTransform="scale(10)" patternUnits="userSpaceOnUse"><path d="M0-.5h1v2H0z"/></pattern><pattern id="c" patternTransform="matrix(13.03187 0 0 13.0843 -92.5 -217.6)" xlink:href="#b"/><pattern id="b" width="2" height="2" patternTransform="scale(10)" patternUnits="userSpaceOnUse"><path d="M0 0h1v1H0zM1 1h1v1H1z"/></pattern></defs><g transform="matrix(0 -1.00036 .99247 0 -219.8 98)"><path fill="red" fill-opacity=".7" stroke="#000" stroke-linecap="round" stroke-linejoin="round" stroke-width="1.3" d="M11.6 222.1h85.7v15.5H11.6z"/><rect width="20.4" height="1.9" x="63.2" y="223.7" fill="#fff" fill-opacity=".7" ry="1"/><g stroke="#000" stroke-linecap="round" stroke-linejoin="round"><path fill="#ffd42a" fill-opacity=".7" stroke-width="6.3" d="M-59.7 143v60.6h25.3v-60.7z" transform="matrix(-.26547 0 0 -.24756 81.3 272.7)"/><path fill="url(#d)" stroke-width="1.3" d="M-59.7 143v60.6h25.3v-60.7z" transform="matrix(-.26547 0 0 -.24756 81.3 272.7)"/></g></g><path fill="red" fill-opacity=".7" stroke="#000" stroke-linecap="round" stroke-linejoin="round" stroke-width="1.3" d="M55.1 223.9h22.7v12H55.1z" transform="matrix(0 -1.00036 .99247 0 -219.8 98)"/></svg>