<svg xmlns="http://www.w3.org/2000/svg" xmlns:svg="http://www.w3.org/2000/svg" id="svg8" width="245" height="230" version="1.1" viewBox="0 0 64.823 60.854"><metadata id="metadata5"/><g id="layer1" transform="translate(-49.127456,-150.32417)"><g id="g1018" transform="matrix(1.0003618,0,0,0.99246993,-0.02517499,1.5850166)"><g id="g1044"><path style="fill:red;fill-opacity:.67579908;fill-rule:nonzero;stroke:#000;stroke-width:5.01802455;stroke-linecap:square;stroke-linejoin:miter;stroke-miterlimit:4;stroke-dasharray:none;stroke-dashoffset:0;stroke-opacity:1" id="rect995" d="m 251.80664,109.1543 a 36.071431,17.500001 0 0 1 -33.94922,11.64843 36.071431,17.500001 0 0 1 -33.95508,-11.64648 l -31.45507,4.80859 -50.00196,50.00196 36.86914,36.87109 13.13282,-13.13281 V 330.49805 H 283.26758 V 187.70703 l 13.13086,13.13086 36.87109,-36.87109 -50.00195,-50.00196 z" transform="matrix(0.26458333,0,0,0.26458333,23.900395,122.41636)"/><path style="fill:red;fill-opacity:.67579908;fill-rule:nonzero;stroke:#000;stroke-width:1.32768559;stroke-linecap:square;stroke-linejoin:miter;stroke-miterlimit:4;stroke-dasharray:none;stroke-dashoffset:0;stroke-opacity:1" id="rect1009" d="m 90.524243,151.29891 a 9.5438993,4.6298673 0 0 1 -8.982402,3.08175 9.5438993,4.6298673 0 0 1 -8.983949,-3.08124 l -2.35541,0.36016 v 58.19887 h 22.678721 v -58.19939 z"/><rect id="rect1039" width="22.67" height="12.044" x="70.207" y="197.81" style="fill:red;fill-opacity:.67579908;fill-rule:nonzero;stroke:#000;stroke-width:1.33650851;stroke-linecap:round;stroke-linejoin:round;stroke-miterlimit:4;stroke-dasharray:none;stroke-dashoffset:0;stroke-opacity:1"/></g></g></g></svg>