<svg xmlns="http://www.w3.org/2000/svg" xmlns:svg="http://www.w3.org/2000/svg" id="svg8" width="1200" height="675" version="1.1" viewBox="0 0 317.5 178.594"><metadata id="metadata5"/><g id="layer1" transform="translate(0,-118.40623)"><path id="path818" d="m 14.67186,124.64984 c 0,0 96.01292,-5.82083 144.07814,-5.82083 48.06522,0 144.07814,5.82083 144.07814,5.82083 3.06918,0.124 5.54454,2.47287 5.54454,5.54454 v 155.01744 c 0,3.07168 -2.47286,5.54454 -5.54454,5.54454 H 14.67186 c -3.071675,0 -5.5445407,-2.47286 -5.5445407,-5.54454 V 130.19438 c 0,-3.07167 2.4728657,-5.54454 5.5445407,-5.54454 z" style="fill:#4d4d4d;fill-opacity:1;stroke:none;stroke-width:1.0151087;stroke-linecap:square;stroke-linejoin:round;stroke-miterlimit:4;stroke-dasharray:1.01510871,3.04532610999999998;stroke-dashoffset:0;stroke-opacity:.73303169"/><path style="fill:#999;fill-opacity:1;stroke:none;stroke-width:1.0151087;stroke-linecap:square;stroke-linejoin:round;stroke-miterlimit:4;stroke-dasharray:1.01510871,3.04532610999999998;stroke-dashoffset:0;stroke-opacity:.73303169" id="rect815" d="M 14.67186,124.64984 H 158.75 302.82814 c 3.07168,0 5.54454,2.47287 5.54454,5.54454 v 155.01744 c 0,3.07168 -2.47286,5.54454 -5.54454,5.54454 H 14.67186 c -3.071675,0 -5.5445407,-2.47286 -5.5445407,-5.54454 V 130.19438 c 0,-3.07167 2.4728657,-5.54454 5.5445407,-5.54454 z"/><path id="path820" d="M 30.436991,138.59782 H 158.75 287.06301 c 2.73558,0 4.93785,2.05757 4.93785,4.61339 v 128.98376 c 0,2.55584 -2.20227,4.6134 -4.93785,4.6134 H 30.436991 c -2.73557,0 -4.937853,-2.05756 -4.937853,-4.6134 V 143.21121 c 0,-2.55582 2.202283,-4.61339 4.937853,-4.61339 z" style="fill:#666;fill-opacity:1;stroke:none;stroke-width:.87382829;stroke-linecap:square;stroke-linejoin:round;stroke-miterlimit:4;stroke-dasharray:.87382832,2.62148495;stroke-dashoffset:0;stroke-opacity:.73303169"/><text style="font-style:normal;font-weight:400;font-size:10.58333302px;line-height:1.25;font-family:sans-serif;letter-spacing:0;word-spacing:0;fill:#000;fill-opacity:1;stroke:none;stroke-width:.26458332" id="text843" x="158.419" y="286.118" xml:space="preserve"><tspan id="tspan841" x="158.419" y="286.118" style="font-style:normal;font-variant:normal;font-weight:400;font-stretch:normal;font-size:9.87777805px;font-family:Copperplate;-inkscape-font-specification:'Copperplate, Normal';font-variant-ligatures:normal;font-variant-caps:normal;font-variant-numeric:normal;font-feature-settings:normal;text-align:center;writing-mode:lr-tb;text-anchor:middle;fill:#fff;stroke-width:.26458332">NAVNAV</tspan></text><path style="fill:#000;fill-opacity:1;stroke:none;stroke-width:.87382829;stroke-linecap:square;stroke-linejoin:round;stroke-miterlimit:4;stroke-dasharray:.87382832,2.62148495000000015;stroke-dashoffset:0;stroke-opacity:.73303169" id="path847" d="M 30.436991,138.59782 H 158.75 287.06301 c 2.73558,0 4.93785,2.05757 4.93785,4.61339 v 128.98376 c 0,2.55584 -2.20227,4.6134 -4.93785,4.6134 H 30.436991 c -2.73557,0 -4.937853,-2.05756 -4.937853,-4.6134 V 143.21121 c 0,-2.55582 2.202283,-4.61339 4.937853,-4.61339 z"/><rect id="rect926" width="260.987" height="134.028" x="28.256" y="140.689" ry="0" style="fill:#e6e6e6;fill-opacity:1;stroke:none;stroke-width:1.07557309;stroke-linecap:square;stroke-linejoin:round;stroke-miterlimit:4;stroke-dasharray:1.07557305,3.22671914;stroke-dashoffset:0;stroke-opacity:.73303169"/><rect style="fill:#cfa;fill-opacity:1;stroke:none;stroke-width:2;stroke-linecap:round;stroke-linejoin:round;stroke-miterlimit:4;stroke-dasharray:none;stroke-dashoffset:0;stroke-opacity:1" id="rect1006" width="124.804" height="29.367" x="164.44" y="214.318"/><path style="fill:#cfa;fill-opacity:1;stroke:none;stroke-width:2;stroke-linecap:round;stroke-linejoin:round;stroke-miterlimit:4;stroke-dasharray:none;stroke-dashoffset:0;stroke-opacity:1" id="rect1011" d="m 58.89976,215.98632 52.26271,-31.99217 46.66201,28.88952 v 49.58922 H 76.63097 Z"/><path style="color:#000;font-style:normal;font-variant:normal;font-weight:400;font-stretch:normal;font-size:medium;line-height:normal;font-family:sans-serif;font-variant-ligatures:normal;font-variant-position:normal;font-variant-caps:normal;font-variant-numeric:normal;font-variant-alternates:normal;font-feature-settings:normal;text-indent:0;text-align:start;text-decoration:none;text-decoration-line:none;text-decoration-style:solid;text-decoration-color:#000;letter-spacing:normal;word-spacing:normal;text-transform:none;writing-mode:lr-tb;direction:ltr;text-orientation:mixed;dominant-baseline:auto;baseline-shift:baseline;text-anchor:start;white-space:normal;shape-padding:0;clip-rule:nonzero;display:inline;overflow:visible;visibility:visible;opacity:1;isolation:auto;mix-blend-mode:normal;color-interpolation:sRGB;color-interpolation-filters:linearRGB;solid-color:#000;solid-opacity:1;vector-effect:none;fill:#80e5ff;fill-opacity:1;fill-rule:nonzero;stroke:none;stroke-width:11.90625;stroke-linecap:butt;stroke-linejoin:miter;stroke-miterlimit:4;stroke-dasharray:none;stroke-dashoffset:0;stroke-opacity:1;color-rendering:auto;image-rendering:auto;shape-rendering:auto;text-rendering:auto;enable-background:accumulate" id="path984" d="m 257.09128,221.2692 c -3.4032,-0.001 -6.92163,0.0225 -10.54251,0.0765 -12.87428,0.19199 -27.04483,0.76583 -41.94524,1.95699 -55.39727,4.42854 -121.213801,17.14854 -168.882721,51.41443 H 57.72721 c 43.24435,-24.97331 99.36726,-35.67172 147.82355,-39.54539 34.23439,-2.73675 64.49155,-2.16033 83.69308,-1.21439 v -11.91917 c -8.75853,-0.42238 -19.68217,-0.76398 -32.15256,-0.76895 z"/><path style="color:#000;font-style:normal;font-variant:normal;font-weight:400;font-stretch:normal;font-size:medium;line-height:normal;font-family:sans-serif;font-variant-ligatures:normal;font-variant-position:normal;font-variant-caps:normal;font-variant-numeric:normal;font-variant-alternates:normal;font-feature-settings:normal;text-indent:0;text-align:start;text-decoration:none;text-decoration-line:none;text-decoration-style:solid;text-decoration-color:#000;letter-spacing:normal;word-spacing:normal;text-transform:none;writing-mode:lr-tb;direction:ltr;text-orientation:mixed;dominant-baseline:auto;baseline-shift:baseline;text-anchor:start;white-space:normal;shape-padding:0;clip-rule:nonzero;display:inline;overflow:visible;visibility:visible;opacity:1;isolation:auto;mix-blend-mode:normal;color-interpolation:sRGB;color-interpolation-filters:linearRGB;solid-color:#000;solid-opacity:1;vector-effect:none;fill:#fff;fill-opacity:1;fill-rule:nonzero;stroke:none;stroke-width:24.99999809;stroke-linecap:butt;stroke-linejoin:miter;stroke-miterlimit:4;stroke-dasharray:none;stroke-dashoffset:0;stroke-opacity:1;color-rendering:auto;image-rendering:auto;shape-rendering:auto;text-rendering:auto;enable-background:accumulate" id="path928" d="M 106.79492 84.21875 L 106.79492 135.05078 L 239.58984 483.57227 L 106.79492 530.85156 L 106.79492 557.38867 L 248.49414 506.94141 L 280.43945 590.78125 L 307.19531 590.78125 L 299.08594 569.49805 L 596.50195 569.49805 L 596.50195 590.78125 L 621.50391 590.78125 L 621.50391 544.50391 L 621.50391 498.5 L 858.49805 498.5 L 858.49805 590.78125 L 883.50195 590.78125 L 883.50195 498.5 L 1093.2051 498.5 L 1093.2051 473.49609 L 621.50391 473.49609 L 621.50391 362.50195 L 686.50195 362.50195 L 1093.2051 362.50195 L 1093.2051 337.5 L 810.50195 337.5 L 810.50195 84.21875 L 785.5 84.21875 L 785.5 337.5 L 686.50195 337.5 L 686.50195 84.21875 L 661.49805 84.21875 L 661.49805 337.5 L 612.46094 337.5 L 431.50195 228.92188 L 431.50195 84.21875 L 406.49805 84.21875 L 406.49805 228.93555 L 213.56836 345.06641 L 114.17578 84.21875 L 106.79492 84.21875 z M 431.50195 258.07812 L 596.50195 357.08008 L 596.50195 544.50391 L 289.62891 544.50391 L 263.34961 475.11328 L 263.14844 475.18555 L 222.61328 368.80664 L 406.49805 258.11523 L 406.49805 360.07227 L 431.50195 360.07227 L 431.50195 258.07812 z" transform="matrix(0.26458333,0,0,0.26458333,0,118.40623)"/><path style="fill:#aef;fill-opacity:1;stroke:#fffffd;stroke-width:2;stroke-linecap:round;stroke-linejoin:round;stroke-miterlimit:4;stroke-dasharray:none;stroke-dashoffset:0;stroke-opacity:1" id="path997" d="m 235.56165,144.47441 a 12.5,12.5 0 0 0 -12.5,12.50001 12.5,12.5 0 0 0 12.5,12.50002 12.5,12.5 0 0 0 0.42995,-0.0155 17.2625,17.2625 0 0 0 16.76797,13.24467 17.2625,17.2625 0 0 0 17.26253,-17.26251 17.2625,17.2625 0 0 0 -17.26253,-17.26251 17.2625,17.2625 0 0 0 -7.04763,1.52755 12.5,12.5 0 0 0 -10.15029,-5.23172 z"/><rect style="fill:#deaa87;fill-opacity:1;stroke:none;stroke-width:2;stroke-linecap:round;stroke-linejoin:round;stroke-miterlimit:4;stroke-dasharray:none;stroke-dashoffset:0;stroke-opacity:1" id="rect1004" width="26.193" height="67.014" x="181.637" y="140.689"/><path style="fill:#cfa;fill-opacity:1;stroke:none;stroke-width:2;stroke-linecap:round;stroke-linejoin:round;stroke-miterlimit:4;stroke-dasharray:none;stroke-dashoffset:0;stroke-opacity:1" id="rect1008" d="m 30.20901,140.68911 h 77.34358 v 38.28965 l -51.04596,30.72629 z"/><rect style="fill:#e9afaf;fill-opacity:1;stroke:none;stroke-width:2;stroke-linecap:round;stroke-linejoin:round;stroke-miterlimit:4;stroke-dasharray:none;stroke-dashoffset:0;stroke-opacity:1" id="rect1014" width="55.484" height="24.416" x="233.76" y="250.301"/><circle style="fill:red;fill-opacity:1;stroke:none;stroke-width:2.45157599;stroke-linecap:round;stroke-linejoin:round;stroke-miterlimit:4;stroke-dasharray:none;stroke-dashoffset:0;stroke-opacity:1" id="path1077" cx="284.798" cy="283.52" r="3.307"/><path style="fill:none;stroke:#b2b2b2;stroke-width:3.96875;stroke-linecap:butt;stroke-linejoin:miter;stroke-opacity:1;stroke-miterlimit:4;stroke-dasharray:none" id="path1430" d="m 110.9555,214.39497 v -33.96303 l -56.413171,34.10694 -12.952004,-34.39476 32.955656,85.77105 86.490609,0 v -18.85236 l 69.22127,0 v 22.30623"/><g id="g1213"><g id="g1126"><path style="fill:red;fill-opacity:1;stroke:none;stroke-width:1.94382703;stroke-linecap:round;stroke-linejoin:round;stroke-miterlimit:4;stroke-dasharray:none;stroke-dashoffset:0;stroke-opacity:1" id="path1079" d="m 60.19964,162.99631 c 0,4.38376 -7.9375,15.13306 -7.9375,15.13306 0,0 -7.9375,-10.7493 -7.9375,-15.13306 0,-4.38376 3.55374,-7.9375 7.9375,-7.9375 4.38376,0 7.9375,3.55374 7.9375,7.9375 z"/><path id="path1122" d="m 55.666438,162.99631 a 3.4042985,3.4042988 0 0 1 -3.404299,3.4043 3.4042985,3.4042988 0 0 1 -3.404298,-3.4043 3.4042985,3.4042988 0 0 1 3.404298,-3.4043 3.4042985,3.4042988 0 0 1 3.404299,3.4043 z" style="fill:#fff;fill-opacity:1;stroke:none;stroke-width:.83368409;stroke-linecap:round;stroke-linejoin:round;stroke-miterlimit:4;stroke-dasharray:none;stroke-dashoffset:0;stroke-opacity:1"/></g><text id="text1194" x="61.807" y="170.377" xml:space="preserve" style="font-style:normal;font-weight:400;font-size:10.58333302px;line-height:1.25;font-family:sans-serif;letter-spacing:0;word-spacing:0;fill:#000;fill-opacity:1;stroke:none;stroke-width:.26458332"><tspan style="stroke-width:.26458332" id="tspan1192" x="61.807" y="170.377">Home</tspan></text></g><path style="fill:none;stroke:#b2b2b2;stroke-width:3.96875;stroke-linecap:butt;stroke-linejoin:miter;stroke-opacity:1;stroke-miterlimit:4;stroke-dasharray:none" id="path1432" d="m 41.590325,180.14412 12.952004,34.39476 56.413171,-34.10694 50.65673,30.79699 h 49.50544 v -12.52027"/><path style="fill:none;stroke:#c94cc0;stroke-width:3.96875;stroke-linecap:butt;stroke-linejoin:miter;stroke-opacity:1;stroke-miterlimit:4;stroke-dasharray:none" id="path1442" d="m 230.40176,268.64948 v -21.29885 h -68.78953 v -36.1217 L 110.9555,180.43194 v 33.96303"/><path style="fill:none;stroke:#ea3030;stroke-width:3.96875;stroke-linecap:butt;stroke-linejoin:miter;stroke-opacity:1;stroke-miterlimit:4;stroke-dasharray:none" id="path1434" d="m 41.590325,180.14412 12.952004,34.39476 56.413171,-34.10694 v 33.96303 -33.96303 l 50.65673,30.79699 h 49.50544 v -12.52027"/><path style="fill:none;stroke:#c84bc0;stroke-width:3.96875;stroke-linecap:butt;stroke-linejoin:miter;stroke-opacity:1;stroke-miterlimit:4;stroke-dasharray:none" id="path1444" d="m 230.40176,268.64948 v -21.29885 l -69.36517,-0.28782 v 18.85236 H 74.54598 L 41.590325,180.14412"/><path style="fill:none;stroke:#000;stroke-width:3.96875;stroke-linecap:butt;stroke-linejoin:miter;stroke-opacity:1;stroke-miterlimit:4;stroke-dasharray:none" id="path6342" d="m 41.590325,180.14412 12.952004,34.39476 56.413171,-34.10694 v 33.96303"/><path style="fill:none;stroke:#c148bc;stroke-width:3.96875;stroke-linecap:butt;stroke-linejoin:miter;stroke-opacity:1;stroke-miterlimit:4;stroke-dasharray:none" id="path1446" d="m 230.40176,268.64948 -0.1439,-21.58667 -68.64563,0.28782 v -36.1217 h 49.50544 v -12.52027"/><path style="fill:none;stroke:#c96722;stroke-width:3.96875;stroke-linecap:butt;stroke-linejoin:miter;stroke-opacity:1;stroke-miterlimit:4;stroke-dasharray:none" id="path1436" d="m 110.9555,214.39497 v -33.96303 l 50.65673,30.79699 v 36.1217 h 68.78953 v 21.29885"/><g id="g1220" transform="translate(-10.505515,4.3173348)"><g id="g1132" transform="translate(44.180726,58.715753)"><path id="path1128" d="m 60.19964,162.99631 c 0,4.38376 -7.9375,15.13306 -7.9375,15.13306 0,0 -7.9375,-10.7493 -7.9375,-15.13306 0,-4.38376 3.55374,-7.9375 7.9375,-7.9375 4.38376,0 7.9375,3.55374 7.9375,7.9375 z" style="fill:red;fill-opacity:1;stroke:none;stroke-width:1.94382703;stroke-linecap:round;stroke-linejoin:round;stroke-miterlimit:4;stroke-dasharray:none;stroke-dashoffset:0;stroke-opacity:1"/><path style="fill:#fff;fill-opacity:1;stroke:none;stroke-width:.83368409;stroke-linecap:round;stroke-linejoin:round;stroke-miterlimit:4;stroke-dasharray:none;stroke-dashoffset:0;stroke-opacity:1" id="path1130" d="m 55.666438,162.99631 a 3.4042985,3.4042988 0 0 1 -3.404299,3.4043 3.4042985,3.4042988 0 0 1 -3.404298,-3.4043 3.4042985,3.4042988 0 0 1 3.404298,-3.4043 3.4042985,3.4042988 0 0 1 3.404299,3.4043 z"/></g><text id="text1198" x="106.944" y="229.255" xml:space="preserve" style="font-style:normal;font-weight:400;font-size:10.58333302px;line-height:1.25;font-family:sans-serif;letter-spacing:0;word-spacing:0;fill:#000;fill-opacity:1;stroke:none;stroke-width:.26458332"><tspan style="stroke-width:.26458332" id="tspan1196" x="106.944" y="229.255">About</tspan></text></g><g id="g1227"><g id="g1138" transform="translate(174.85206,23.45752)"><path id="path1134" d="m 60.19964,162.99631 c 0,4.38376 -7.9375,15.13306 -7.9375,15.13306 0,0 -7.9375,-10.7493 -7.9375,-15.13306 0,-4.38376 3.55374,-7.9375 7.9375,-7.9375 4.38376,0 7.9375,3.55374 7.9375,7.9375 z" style="fill:red;fill-opacity:1;stroke:none;stroke-width:1.94382703;stroke-linecap:round;stroke-linejoin:round;stroke-miterlimit:4;stroke-dasharray:none;stroke-dashoffset:0;stroke-opacity:1"/><path style="fill:#fff;fill-opacity:1;stroke:none;stroke-width:.83368409;stroke-linecap:round;stroke-linejoin:round;stroke-miterlimit:4;stroke-dasharray:none;stroke-dashoffset:0;stroke-opacity:1" id="path1136" d="m 55.666438,162.99631 a 3.4042985,3.4042988 0 0 1 -3.404299,3.4043 3.4042985,3.4042988 0 0 1 -3.404298,-3.4043 3.4042985,3.4042988 0 0 1 3.404298,-3.4043 3.4042985,3.4042988 0 0 1 3.404299,3.4043 z"/></g><text id="text1202" x="237.346" y="193.997" xml:space="preserve" style="font-style:normal;font-weight:400;font-size:10.58333302px;line-height:1.25;font-family:sans-serif;letter-spacing:0;word-spacing:0;fill:#000;fill-opacity:1;stroke:none;stroke-width:.26458332"><tspan style="stroke-width:.26458332" id="tspan1200" x="237.346" y="193.997">Work</tspan></text></g><g id="g1623"><g id="g1144" transform="translate(166.94462,90.182933)"><path style="fill:red;fill-opacity:1;stroke:none;stroke-width:1.94382703;stroke-linecap:round;stroke-linejoin:round;stroke-miterlimit:4;stroke-dasharray:none;stroke-dashoffset:0;stroke-opacity:1" id="path1140" d="m 60.19964,162.99631 c 0,4.38376 -7.9375,15.13306 -7.9375,15.13306 0,0 -7.9375,-10.7493 -7.9375,-15.13306 0,-4.38376 3.55374,-7.9375 7.9375,-7.9375 4.38376,0 7.9375,3.55374 7.9375,7.9375 z"/><path id="path1142" d="m 55.666438,162.99631 a 3.4042985,3.4042988 0 0 1 -3.404299,3.4043 3.4042985,3.4042988 0 0 1 -3.404298,-3.4043 3.4042985,3.4042988 0 0 1 3.404298,-3.4043 3.4042985,3.4042988 0 0 1 3.404299,3.4043 z" style="fill:#fff;fill-opacity:1;stroke:none;stroke-width:.83368409;stroke-linecap:round;stroke-linejoin:round;stroke-miterlimit:4;stroke-dasharray:none;stroke-dashoffset:0;stroke-opacity:1"/></g><text id="text1206" x="167.665" y="260.629" xml:space="preserve" style="font-style:normal;font-weight:400;font-size:10.58333302px;line-height:1.25;font-family:sans-serif;letter-spacing:0;word-spacing:0;fill:#000;fill-opacity:1;stroke:none;stroke-width:.26458332"><tspan style="stroke-width:.26458332" id="tspan1204" x="167.665" y="260.629">Contact</tspan></text></g><circle id="circle1356" cx="110.837" cy="213.938" r="4.536" style="fill:#0cf;fill-opacity:1;stroke:#1495ff;stroke-width:1.51190472;stroke-linecap:round;stroke-linejoin:round;stroke-miterlimit:4;stroke-dasharray:none;stroke-dashoffset:0;stroke-opacity:1"/><circle style="fill:#0cf;fill-opacity:1;stroke:#1495ff;stroke-width:1.51190472;stroke-linecap:round;stroke-linejoin:round;stroke-miterlimit:4;stroke-dasharray:none;stroke-dashoffset:0;stroke-opacity:1" id="circle1358" cx="210.999" cy="198.684" r="4.536"/><circle id="circle1360" cx="230.427" cy="268.337" r="4.536" style="fill:#0cf;fill-opacity:1;stroke:#1495ff;stroke-width:1.51190472;stroke-linecap:round;stroke-linejoin:round;stroke-miterlimit:4;stroke-dasharray:none;stroke-dashoffset:0;stroke-opacity:1"/><g id="g1602" transform="rotate(45,279.2468,149.78418)"><circle id="path1593" cx="279.247" cy="149.784" r="6.615" style="fill:#fff;fill-opacity:1;stroke:#000;stroke-width:1.32291663;stroke-linecap:round;stroke-linejoin:round;stroke-miterlimit:4;stroke-dasharray:none;stroke-dashoffset:0;stroke-opacity:1"/><path id="path1595" d="m 279.2468,145.25098 v 9.0664" style="fill:none;stroke:#000;stroke-width:2.11666656;stroke-linecap:butt;stroke-linejoin:miter;stroke-miterlimit:4;stroke-dasharray:none;stroke-opacity:1"/><path style="fill:none;stroke:#000;stroke-width:2.11666656;stroke-linecap:butt;stroke-linejoin:miter;stroke-miterlimit:4;stroke-dasharray:none;stroke-opacity:1" id="path1597" d="m 283.78,149.78418 h -9.0664"/></g><g id="g6582" transform="translate(-10.500328)"><rect id="rect1641" width="62.414" height="22.905" x="138.043" y="140.689" style="fill:#194e8a;fill-opacity:1;stroke:none;stroke-width:1.11768484;stroke-linecap:round;stroke-linejoin:round;stroke-miterlimit:4;stroke-dasharray:none;stroke-dashoffset:0;stroke-opacity:1"/><text id="text1645" x="142.885" y="155.925" xml:space="preserve" style="font-style:normal;font-weight:400;font-size:10.58333302px;line-height:1.25;font-family:sans-serif;letter-spacing:0;word-spacing:0;fill:#fff;fill-opacity:1;stroke:none;stroke-width:.26458332"><tspan style="fill:#fff;fill-opacity:1;stroke-width:.26458332" id="tspan1643" x="142.885" y="155.925">Home</tspan></text><g id="g6574" transform="translate(0,-0.74836763)"><rect style="fill:#fff;fill-opacity:1;stroke:none;stroke-width:1.48898745;stroke-linecap:round;stroke-linejoin:round;stroke-miterlimit:4;stroke-dasharray:none;stroke-dashoffset:0;stroke-opacity:1" id="rect1649" width="13.283" height="7.109" x="176.222" y="149.336"/><path style="fill:#fff;fill-opacity:1;stroke:none;stroke-width:1.1447407;stroke-linecap:round;stroke-linejoin:round;stroke-miterlimit:4;stroke-dasharray:none;stroke-dashoffset:0;stroke-opacity:1" id="rect1651" d="m 188.01681,160.37202 7.48172,-7.48171 -7.48172,-7.48172 z"/></g></g><g id="g1688" transform="translate(-42.80014,-43.126851)"><g id="g6637" transform="translate(-244.29113,-0.26458272)"><rect id="rect1668" width="62.007" height="22.905" x="414.838" y="184.081" style="fill:#194e8a;fill-opacity:1;stroke:none;stroke-width:1.11403263;stroke-linecap:round;stroke-linejoin:round;stroke-miterlimit:4;stroke-dasharray:none;stroke-dashoffset:0;stroke-opacity:1"/><text id="text1672" x="419.617" y="199.479" xml:space="preserve" style="font-style:normal;font-weight:400;font-size:10.58333302px;line-height:1.25;font-family:sans-serif;letter-spacing:0;word-spacing:0;fill:#fff;fill-opacity:1;stroke:none;stroke-width:.26458332"><tspan style="fill:#fff;fill-opacity:1;stroke-width:.26458332" id="tspan1670" x="419.617" y="199.479">About</tspan></text><g id="g1678" transform="translate(-1.6994743,-0.25164391)"><g id="g6628" transform="translate(0,-0.8419)"><rect id="rect1674" width="13.283" height="7.296" x="455" y="192.979" style="fill:#fff;fill-opacity:1;stroke:none;stroke-width:1.50845218;stroke-linecap:round;stroke-linejoin:round;stroke-miterlimit:4;stroke-dasharray:none;stroke-dashoffset:0;stroke-opacity:1"/><path id="path1676" d="m 466.79465,204.10863 7.48172,-7.48171 -7.48172,-7.48172 z" style="fill:#fff;fill-opacity:1;stroke:none;stroke-width:1.1447407;stroke-linecap:round;stroke-linejoin:round;stroke-miterlimit:4;stroke-dasharray:none;stroke-dashoffset:0;stroke-opacity:1"/></g></g></g></g><g id="g1711" transform="translate(-204.98356,-8.4664337)"><g id="g1702" transform="translate(-81.359375,-34.925)"><g id="g6650"><rect id="rect1690" width="60.136" height="22.905" x="415.025" y="184.081" style="fill:#194e8a;fill-opacity:1;stroke:none;stroke-width:1.09709764;stroke-linecap:round;stroke-linejoin:round;stroke-miterlimit:4;stroke-dasharray:none;stroke-dashoffset:0;stroke-opacity:1"/><text id="text1694" x="419.934" y="198.356" xml:space="preserve" style="font-style:normal;font-weight:400;font-size:10.58333302px;line-height:1.25;font-family:sans-serif;letter-spacing:0;word-spacing:0;fill:#fff;fill-opacity:1;stroke:none;stroke-width:.26458332"><tspan style="fill:#fff;fill-opacity:1;stroke-width:.26458332" id="tspan1692" x="419.934" y="198.356">Work</tspan></text><g id="g1700" transform="translate(-3.9680691,-0.2516364)"><g id="g6641" transform="translate(0,-1.9644356)"><rect id="rect1696" width="13.283" height="7.296" x="455" y="192.979" style="fill:#fff;fill-opacity:1;stroke:none;stroke-width:1.50845218;stroke-linecap:round;stroke-linejoin:round;stroke-miterlimit:4;stroke-dasharray:none;stroke-dashoffset:0;stroke-opacity:1"/><path id="path1698" d="m 466.79465,204.10863 7.48172,-7.48171 -7.48172,-7.48172 z" style="fill:#fff;fill-opacity:1;stroke:none;stroke-width:1.1447407;stroke-linecap:round;stroke-linejoin:round;stroke-miterlimit:4;stroke-dasharray:none;stroke-dashoffset:0;stroke-opacity:1"/></g></g></g></g></g><g id="g6624" transform="translate(-232.5399,-48.418747)"><rect id="rect1713" width="69.491" height="22.905" x="356.544" y="189.108" style="fill:#194e8a;fill-opacity:1;stroke:none;stroke-width:1.17934346;stroke-linecap:round;stroke-linejoin:round;stroke-miterlimit:4;stroke-dasharray:none;stroke-dashoffset:0;stroke-opacity:1"/><text id="text1717" x="360.224" y="204.413" xml:space="preserve" style="font-style:normal;font-weight:400;font-size:10.58333302px;line-height:1.25;font-family:sans-serif;letter-spacing:0;word-spacing:0;fill:#fff;fill-opacity:1;stroke:none;stroke-width:.26458332"><tspan style="fill:#fff;fill-opacity:1;stroke-width:.26458332" id="tspan1715" x="360.224" y="204.413">Contact</tspan></text><g id="g6616" transform="translate(0,-0.74836068)"><rect style="fill:#fff;fill-opacity:1;stroke:none;stroke-width:1.48898745;stroke-linecap:round;stroke-linejoin:round;stroke-miterlimit:4;stroke-dasharray:none;stroke-dashoffset:0;stroke-opacity:1" id="rect1719" width="13.283" height="7.109" x="403.828" y="197.754"/><path style="fill:#fff;fill-opacity:1;stroke:none;stroke-width:1.1447407;stroke-linecap:round;stroke-linejoin:round;stroke-miterlimit:4;stroke-dasharray:none;stroke-dashoffset:0;stroke-opacity:1" id="path1721" d="m 415.62308,208.79076 7.48172,-7.48171 -7.48172,-7.48172 z"/></g></g><circle style="fill:#0cf;fill-opacity:1;stroke:#1495ff;stroke-width:1.51190472;stroke-linecap:round;stroke-linejoin:round;stroke-miterlimit:4;stroke-dasharray:none;stroke-dashoffset:0;stroke-opacity:1" id="path1289" cx="41.615" cy="179.831" r="4.536"/><path style="fill:none;stroke:#000;stroke-width:3.96875;stroke-linecap:butt;stroke-linejoin:miter;stroke-opacity:1;stroke-miterlimit:4;stroke-dasharray:none" id="path6444" d="m 110.9555,214.39497 v -33.96303 l 50.65673,30.79699 h 49.50544 v -12.52027"/></g></svg>