<svg class="mask mask--hockey" preserveAspectRatio="xMinYMin" viewBox="0 0 300.692 319.207"><g style="display:inline" id="hockey" transform="translate(0.17695356,7.5667892e-6)"><g id="g4458"><path style="fill:#fff;fill-opacity:1;stroke:#000;stroke-width:6.20660162;stroke-linecap:round;stroke-linejoin:round;stroke-miterlimit:4;stroke-dasharray:none;stroke-opacity:1" id="path4440" d="M 147.4043,26.835938 C 72.562156,26.835937 19.677739,64.003372 19.677734,156.17188 c -2.7e-5,92.16854 52.8844,159.93164 127.726566,159.93164 74.84216,0 132.91801,-67.76311 132.91797,-159.93164 0,-92.168508 -58.07582,-129.335942 -132.91797,-129.335942 z M 92.554688,118.18945 a 24.8025,26.012377 0 0 1 24.802732,26.01367 24.8025,26.012377 0 0 1 -24.802732,26.01172 24.8025,26.012377 0 0 1 -24.800782,-26.01172 24.8025,26.012377 0 0 1 24.800782,-26.01367 z m 104.535152,0 a 24.8025,26.012377 0 0 1 24.80274,26.01367 24.8025,26.012377 0 0 1 -24.80274,26.01172 24.8025,26.012377 0 0 1 -24.80273,-26.01172 24.8025,26.012377 0 0 1 24.80273,-26.01367 z"/><circle style="fill:#000;fill-opacity:1;stroke:none;stroke-width:10;stroke-linecap:round;stroke-linejoin:round;stroke-miterlimit:4;stroke-dasharray:none;stroke-opacity:1" id="path4446" cx="128.004" cy="216.787" r="5"/><circle id="circle4448" cx="164.301" cy="216.787" r="5" style="fill:#000;fill-opacity:1;stroke:none;stroke-width:10;stroke-linecap:round;stroke-linejoin:round;stroke-miterlimit:4;stroke-dasharray:none;stroke-opacity:1"/><circle id="circle4450" cx="124.858" cy="249.933" r="7.5" style="fill:#000;fill-opacity:1;stroke:none;stroke-width:10;stroke-linecap:round;stroke-linejoin:round;stroke-miterlimit:4;stroke-dasharray:none;stroke-opacity:1"/><circle style="fill:#000;fill-opacity:1;stroke:none;stroke-width:10;stroke-linecap:round;stroke-linejoin:round;stroke-miterlimit:4;stroke-dasharray:none;stroke-opacity:1" id="circle4452" cx="166.801" cy="249.53" r="7.5"/><circle style="fill:#000;fill-opacity:1;stroke:none;stroke-width:10;stroke-linecap:round;stroke-linejoin:round;stroke-miterlimit:4;stroke-dasharray:none;stroke-opacity:1" id="circle4454" cx="125.261" cy="279.53" r="7.5"/><circle id="circle4456" cx="166.801" cy="279.53" r="7.5" style="fill:#000;fill-opacity:1;stroke:none;stroke-width:10;stroke-linecap:round;stroke-linejoin:round;stroke-miterlimit:4;stroke-dasharray:none;stroke-opacity:1"/></g></g></svg>