<svg xmlns="http://www.w3.org/2000/svg" xmlns:svg="http://www.w3.org/2000/svg" id="svg8" version="1.1" viewBox="0 0 25.981 30"><metadata id="metadata5"/><g id="layer1" transform="translate(-60.621775,-124.5)"><g id="g8564" transform="translate(4.3301283,-2.5)"><path id="path8558" d="m 69.282032,147 4.330126,-2.5 v -5 l -4.330126,-2.5 -4.330129,2.5 4.330129,2.5 z" style="fill:#f0f;stroke:none;stroke-width:.26458332px;stroke-linecap:butt;stroke-linejoin:miter;stroke-opacity:1"/><path id="path8560" d="m 64.951903,139.5 4.330129,-2.5 4.330126,2.5 -4.330126,2.5 v 5 l -4.330129,-2.5 z" style="fill:#f60;stroke:none;stroke-width:.26458332px;stroke-linecap:butt;stroke-linejoin:miter;stroke-opacity:1"/><path id="path8562" d="m 69.282032,137 -4.330129,2.5 4.330129,2.5 4.330126,-2.5 z" style="fill:#00f;stroke:none;stroke-width:.26458332px;stroke-linecap:butt;stroke-linejoin:miter;stroke-opacity:1"/></g><g id="g8548"><path id="path4510" d="m 69.282032,147 4.330126,-2.5 v -5 l -4.330126,-2.5 -4.330129,2.5 4.330129,2.5 z" style="fill:#f0f;stroke:none;stroke-width:.26458332px;stroke-linecap:butt;stroke-linejoin:miter;stroke-opacity:1"/><path id="path4508" d="m 64.951903,139.5 4.330129,-2.5 4.330126,2.5 -4.330126,2.5 v 5 l -4.330129,-2.5 z" style="fill:#f60;stroke:none;stroke-width:.26458332px;stroke-linecap:butt;stroke-linejoin:miter;stroke-opacity:1"/><path id="path4506" d="m 69.282032,137 -4.330129,2.5 4.330129,2.5 4.330126,-2.5 z" style="fill:#00f;stroke:none;stroke-width:.26458332px;stroke-linecap:butt;stroke-linejoin:miter;stroke-opacity:1"/></g><g id="g8556" transform="translate(-4.3301267,2.5)"><path style="fill:#f0f;stroke:none;stroke-width:.26458332px;stroke-linecap:butt;stroke-linejoin:miter;stroke-opacity:1" id="path8550" d="m 69.282032,147 4.330126,-2.5 v -5 l -4.330126,-2.5 -4.330129,2.5 4.330129,2.5 z"/><path style="fill:#f60;stroke:none;stroke-width:.26458332px;stroke-linecap:butt;stroke-linejoin:miter;stroke-opacity:1" id="path8552" d="m 64.951903,139.5 4.330129,-2.5 4.330126,2.5 -4.330126,2.5 v 5 l -4.330129,-2.5 z"/><path style="fill:#00f;stroke:none;stroke-width:.26458332px;stroke-linecap:butt;stroke-linejoin:miter;stroke-opacity:1" id="path8554" d="m 69.282032,137 -4.330129,2.5 4.330129,2.5 4.330126,-2.5 z"/></g><g id="g8572" transform="translate(8.6602556)"><path style="fill:#f0f;stroke:none;stroke-width:.26458332px;stroke-linecap:butt;stroke-linejoin:miter;stroke-opacity:1" id="path8566" d="m 69.282032,147 4.330126,-2.5 v -5 l -4.330126,-2.5 -4.330129,2.5 4.330129,2.5 z"/><path style="fill:#f60;stroke:none;stroke-width:.26458332px;stroke-linecap:butt;stroke-linejoin:miter;stroke-opacity:1" id="path8568" d="m 64.951903,139.5 4.330129,-2.5 4.330126,2.5 -4.330126,2.5 v 5 l -4.330129,-2.5 z"/><path style="fill:#00f;stroke:none;stroke-width:.26458332px;stroke-linecap:butt;stroke-linejoin:miter;stroke-opacity:1" id="path8570" d="m 69.282032,137 -4.330129,2.5 4.330129,2.5 4.330126,-2.5 z"/></g><g id="g8580" transform="translate(4.3301273,2.5)"><path style="fill:#f0f;stroke:none;stroke-width:.26458332px;stroke-linecap:butt;stroke-linejoin:miter;stroke-opacity:1" id="path8574" d="m 69.282032,147 4.330126,-2.5 v -5 l -4.330126,-2.5 -4.330129,2.5 4.330129,2.5 z"/><path style="fill:#f60;stroke:none;stroke-width:.26458332px;stroke-linecap:butt;stroke-linejoin:miter;stroke-opacity:1" id="path8576" d="m 64.951903,139.5 4.330129,-2.5 4.330126,2.5 -4.330126,2.5 v 5 l -4.330129,-2.5 z"/><path style="fill:#00f;stroke:none;stroke-width:.26458332px;stroke-linecap:butt;stroke-linejoin:miter;stroke-opacity:1" id="path8578" d="m 69.282032,137 -4.330129,2.5 4.330129,2.5 4.330126,-2.5 z"/></g><g id="g8588" transform="translate(6.216773e-7,5)"><path id="path8582" d="m 69.282032,147 4.330126,-2.5 v -5 l -4.330126,-2.5 -4.330129,2.5 4.330129,2.5 z" style="fill:#f0f;stroke:none;stroke-width:.26458332px;stroke-linecap:butt;stroke-linejoin:miter;stroke-opacity:1"/><path id="path8584" d="m 64.951903,139.5 4.330129,-2.5 4.330126,2.5 -4.330126,2.5 v 5 l -4.330129,-2.5 z" style="fill:#f60;stroke:none;stroke-width:.26458332px;stroke-linecap:butt;stroke-linejoin:miter;stroke-opacity:1"/><path id="path8586" d="m 69.282032,137 -4.330129,2.5 4.330129,2.5 4.330126,-2.5 z" style="fill:#00f;stroke:none;stroke-width:.26458332px;stroke-linecap:butt;stroke-linejoin:miter;stroke-opacity:1"/></g><g id="g8596" transform="translate(12.990384,2.5)"><path id="path8590" d="m 69.282032,147 4.330126,-2.5 v -5 l -4.330126,-2.5 -4.330129,2.5 4.330129,2.5 z" style="fill:#f0f;stroke:none;stroke-width:.26458332px;stroke-linecap:butt;stroke-linejoin:miter;stroke-opacity:1"/><path id="path8592" d="m 64.951903,139.5 4.330129,-2.5 4.330126,2.5 -4.330126,2.5 v 5 l -4.330129,-2.5 z" style="fill:#f60;stroke:none;stroke-width:.26458332px;stroke-linecap:butt;stroke-linejoin:miter;stroke-opacity:1"/><path id="path8594" d="m 69.282032,137 -4.330129,2.5 4.330129,2.5 4.330126,-2.5 z" style="fill:#00f;stroke:none;stroke-width:.26458332px;stroke-linecap:butt;stroke-linejoin:miter;stroke-opacity:1"/></g><g id="g8604" transform="translate(8.6602554,5)"><path id="path8598" d="m 69.282032,147 4.330126,-2.5 v -5 l -4.330126,-2.5 -4.330129,2.5 4.330129,2.5 z" style="fill:#f0f;stroke:none;stroke-width:.26458332px;stroke-linecap:butt;stroke-linejoin:miter;stroke-opacity:1"/><path id="path8600" d="m 64.951903,139.5 4.330129,-2.5 4.330126,2.5 -4.330126,2.5 v 5 l -4.330129,-2.5 z" style="fill:#f60;stroke:none;stroke-width:.26458332px;stroke-linecap:butt;stroke-linejoin:miter;stroke-opacity:1"/><path id="path8602" d="m 69.282032,137 -4.330129,2.5 4.330129,2.5 4.330126,-2.5 z" style="fill:#00f;stroke:none;stroke-width:.26458332px;stroke-linecap:butt;stroke-linejoin:miter;stroke-opacity:1"/></g><g id="g8612" transform="translate(4.3301287,7.5)"><path style="fill:#f0f;stroke:none;stroke-width:.26458332px;stroke-linecap:butt;stroke-linejoin:miter;stroke-opacity:1" id="path8606" d="m 69.282032,147 4.330126,-2.5 v -5 l -4.330126,-2.5 -4.330129,2.5 4.330129,2.5 z"/><path style="fill:#f60;stroke:none;stroke-width:.26458332px;stroke-linecap:butt;stroke-linejoin:miter;stroke-opacity:1" id="path8608" d="m 64.951903,139.5 4.330129,-2.5 4.330126,2.5 -4.330126,2.5 v 5 l -4.330129,-2.5 z"/><path style="fill:#00f;stroke:none;stroke-width:.26458332px;stroke-linecap:butt;stroke-linejoin:miter;stroke-opacity:1" id="path8610" d="m 69.282032,137 -4.330129,2.5 4.330129,2.5 4.330126,-2.5 z"/></g><g id="g8620" transform="translate(4.3301293,-7.5)"><path style="fill:#f0f;stroke:none;stroke-width:.26458332px;stroke-linecap:butt;stroke-linejoin:miter;stroke-opacity:1" id="path8614" d="m 69.282032,147 4.330126,-2.5 v -5 l -4.330126,-2.5 -4.330129,2.5 4.330129,2.5 z"/><path style="fill:#f60;stroke:none;stroke-width:.26458332px;stroke-linecap:butt;stroke-linejoin:miter;stroke-opacity:1" id="path8616" d="m 64.951903,139.5 4.330129,-2.5 4.330126,2.5 -4.330126,2.5 v 5 l -4.330129,-2.5 z"/><path style="fill:#00f;stroke:none;stroke-width:.26458332px;stroke-linecap:butt;stroke-linejoin:miter;stroke-opacity:1" id="path8618" d="m 69.282032,137 -4.330129,2.5 4.330129,2.5 4.330126,-2.5 z"/></g><g id="g8628" transform="translate(1.0405995e-6,-5)"><path style="fill:#f0f;stroke:none;stroke-width:.26458332px;stroke-linecap:butt;stroke-linejoin:miter;stroke-opacity:1" id="path8622" d="m 69.282032,147 4.330126,-2.5 v -5 l -4.330126,-2.5 -4.330129,2.5 4.330129,2.5 z"/><path style="fill:#f60;stroke:none;stroke-width:.26458332px;stroke-linecap:butt;stroke-linejoin:miter;stroke-opacity:1" id="path8624" d="m 64.951903,139.5 4.330129,-2.5 4.330126,2.5 -4.330126,2.5 v 5 l -4.330129,-2.5 z"/><path style="fill:#00f;stroke:none;stroke-width:.26458332px;stroke-linecap:butt;stroke-linejoin:miter;stroke-opacity:1" id="path8626" d="m 69.282032,137 -4.330129,2.5 4.330129,2.5 4.330126,-2.5 z"/></g><g id="g8636" transform="translate(-4.3301257,-2.5)"><path id="path8630" d="m 69.282032,147 4.330126,-2.5 v -5 l -4.330126,-2.5 -4.330129,2.5 4.330129,2.5 z" style="fill:#f0f;stroke:none;stroke-width:.26458332px;stroke-linecap:butt;stroke-linejoin:miter;stroke-opacity:1"/><path id="path8632" d="m 64.951903,139.5 4.330129,-2.5 4.330126,2.5 -4.330126,2.5 v 5 l -4.330129,-2.5 z" style="fill:#f60;stroke:none;stroke-width:.26458332px;stroke-linecap:butt;stroke-linejoin:miter;stroke-opacity:1"/><path id="path8634" d="m 69.282032,137 -4.330129,2.5 4.330129,2.5 4.330126,-2.5 z" style="fill:#00f;stroke:none;stroke-width:.26458332px;stroke-linecap:butt;stroke-linejoin:miter;stroke-opacity:1"/></g><g id="g8644" transform="translate(8.6602566,-5)"><path id="path8638" d="m 69.282032,147 4.330126,-2.5 v -5 l -4.330126,-2.5 -4.330129,2.5 4.330129,2.5 z" style="fill:#f0f;stroke:none;stroke-width:.26458332px;stroke-linecap:butt;stroke-linejoin:miter;stroke-opacity:1"/><path id="path8640" d="m 64.951903,139.5 4.330129,-2.5 4.330126,2.5 -4.330126,2.5 v 5 l -4.330129,-2.5 z" style="fill:#f60;stroke:none;stroke-width:.26458332px;stroke-linecap:butt;stroke-linejoin:miter;stroke-opacity:1"/><path id="path8642" d="m 69.282032,137 -4.330129,2.5 4.330129,2.5 4.330126,-2.5 z" style="fill:#00f;stroke:none;stroke-width:.26458332px;stroke-linecap:butt;stroke-linejoin:miter;stroke-opacity:1"/></g><g id="g8652" transform="translate(4.3301283,-2.5)"><path id="path8646" d="m 69.282032,147 4.330126,-2.5 v -5 l -4.330126,-2.5 -4.330129,2.5 4.330129,2.5 z" style="fill:#f0f;stroke:none;stroke-width:.26458332px;stroke-linecap:butt;stroke-linejoin:miter;stroke-opacity:1"/><path id="path8648" d="m 64.951903,139.5 4.330129,-2.5 4.330126,2.5 -4.330126,2.5 v 5 l -4.330129,-2.5 z" style="fill:#f60;stroke:none;stroke-width:.26458332px;stroke-linecap:butt;stroke-linejoin:miter;stroke-opacity:1"/><path id="path8650" d="m 69.282032,137 -4.330129,2.5 4.330129,2.5 4.330126,-2.5 z" style="fill:#00f;stroke:none;stroke-width:.26458332px;stroke-linecap:butt;stroke-linejoin:miter;stroke-opacity:1"/></g><g id="g8660" transform="translate(1.6622768e-6)"><path style="fill:#f0f;stroke:none;stroke-width:.26458332px;stroke-linecap:butt;stroke-linejoin:miter;stroke-opacity:1" id="path8654" d="m 69.282032,147 4.330126,-2.5 v -5 l -4.330126,-2.5 -4.330129,2.5 4.330129,2.5 z"/><path style="fill:#f60;stroke:none;stroke-width:.26458332px;stroke-linecap:butt;stroke-linejoin:miter;stroke-opacity:1" id="path8656" d="m 64.951903,139.5 4.330129,-2.5 4.330126,2.5 -4.330126,2.5 v 5 l -4.330129,-2.5 z"/><path style="fill:#00f;stroke:none;stroke-width:.26458332px;stroke-linecap:butt;stroke-linejoin:miter;stroke-opacity:1" id="path8658" d="m 69.282032,137 -4.330129,2.5 4.330129,2.5 4.330126,-2.5 z"/></g><g id="g8668" transform="translate(12.990385,-2.5)"><path style="fill:#f0f;stroke:none;stroke-width:.26458332px;stroke-linecap:butt;stroke-linejoin:miter;stroke-opacity:1" id="path8662" d="m 69.282032,147 4.330126,-2.5 v -5 l -4.330126,-2.5 -4.330129,2.5 4.330129,2.5 z"/><path style="fill:#f60;stroke:none;stroke-width:.26458332px;stroke-linecap:butt;stroke-linejoin:miter;stroke-opacity:1" id="path8664" d="m 64.951903,139.5 4.330129,-2.5 4.330126,2.5 -4.330126,2.5 v 5 l -4.330129,-2.5 z"/><path style="fill:#00f;stroke:none;stroke-width:.26458332px;stroke-linecap:butt;stroke-linejoin:miter;stroke-opacity:1" id="path8666" d="m 69.282032,137 -4.330129,2.5 4.330129,2.5 4.330126,-2.5 z"/></g><g id="g8676" transform="translate(8.6602564)"><path style="fill:#f0f;stroke:none;stroke-width:.26458332px;stroke-linecap:butt;stroke-linejoin:miter;stroke-opacity:1" id="path8670" d="m 69.282032,147 4.330126,-2.5 v -5 l -4.330126,-2.5 -4.330129,2.5 4.330129,2.5 z"/><path style="fill:#f60;stroke:none;stroke-width:.26458332px;stroke-linecap:butt;stroke-linejoin:miter;stroke-opacity:1" id="path8672" d="m 64.951903,139.5 4.330129,-2.5 4.330126,2.5 -4.330126,2.5 v 5 l -4.330129,-2.5 z"/><path style="fill:#00f;stroke:none;stroke-width:.26458332px;stroke-linecap:butt;stroke-linejoin:miter;stroke-opacity:1" id="path8674" d="m 69.282032,137 -4.330129,2.5 4.330129,2.5 4.330126,-2.5 z"/></g><g id="g8684" transform="translate(4.3301297,2.5)"><path id="path8678" d="m 69.282032,147 4.330126,-2.5 v -5 l -4.330126,-2.5 -4.330129,2.5 4.330129,2.5 z" style="fill:#f0f;stroke:none;stroke-width:.26458332px;stroke-linecap:butt;stroke-linejoin:miter;stroke-opacity:1"/><path id="path8680" d="m 64.951903,139.5 4.330129,-2.5 4.330126,2.5 -4.330126,2.5 v 5 l -4.330129,-2.5 z" style="fill:#f60;stroke:none;stroke-width:.26458332px;stroke-linecap:butt;stroke-linejoin:miter;stroke-opacity:1"/><path id="path8682" d="m 69.282032,137 -4.330129,2.5 4.330129,2.5 4.330126,-2.5 z" style="fill:#00f;stroke:none;stroke-width:.26458332px;stroke-linecap:butt;stroke-linejoin:miter;stroke-opacity:1"/></g><g id="g8692" transform="translate(4.3301269,-12.5)"><path id="path8686" d="m 69.282032,147 4.330126,-2.5 v -5 l -4.330126,-2.5 -4.330129,2.5 4.330129,2.5 z" style="fill:#f0f;stroke:none;stroke-width:.26458332px;stroke-linecap:butt;stroke-linejoin:miter;stroke-opacity:1"/><path id="path8688" d="m 64.951903,139.5 4.330129,-2.5 4.330126,2.5 -4.330126,2.5 v 5 l -4.330129,-2.5 z" style="fill:#f60;stroke:none;stroke-width:.26458332px;stroke-linecap:butt;stroke-linejoin:miter;stroke-opacity:1"/><path id="path8690" d="m 69.282032,137 -4.330129,2.5 4.330129,2.5 4.330126,-2.5 z" style="fill:#00f;stroke:none;stroke-width:.26458332px;stroke-linecap:butt;stroke-linejoin:miter;stroke-opacity:1"/></g><g id="g8700" transform="translate(-1.3377232e-6,-10)"><path id="path8694" d="m 69.282032,147 4.330126,-2.5 v -5 l -4.330126,-2.5 -4.330129,2.5 4.330129,2.5 z" style="fill:#f0f;stroke:none;stroke-width:.26458332px;stroke-linecap:butt;stroke-linejoin:miter;stroke-opacity:1"/><path id="path8696" d="m 64.951903,139.5 4.330129,-2.5 4.330126,2.5 -4.330126,2.5 v 5 l -4.330129,-2.5 z" style="fill:#f60;stroke:none;stroke-width:.26458332px;stroke-linecap:butt;stroke-linejoin:miter;stroke-opacity:1"/><path id="path8698" d="m 69.282032,137 -4.330129,2.5 4.330129,2.5 4.330126,-2.5 z" style="fill:#00f;stroke:none;stroke-width:.26458332px;stroke-linecap:butt;stroke-linejoin:miter;stroke-opacity:1"/></g><g id="g8708" transform="translate(-4.3301281,-7.5)"><path style="fill:#f0f;stroke:none;stroke-width:.26458332px;stroke-linecap:butt;stroke-linejoin:miter;stroke-opacity:1" id="path8702" d="m 69.282032,147 4.330126,-2.5 v -5 l -4.330126,-2.5 -4.330129,2.5 4.330129,2.5 z"/><path style="fill:#f60;stroke:none;stroke-width:.26458332px;stroke-linecap:butt;stroke-linejoin:miter;stroke-opacity:1" id="path8704" d="m 64.951903,139.5 4.330129,-2.5 4.330126,2.5 -4.330126,2.5 v 5 l -4.330129,-2.5 z"/><path style="fill:#00f;stroke:none;stroke-width:.26458332px;stroke-linecap:butt;stroke-linejoin:miter;stroke-opacity:1" id="path8706" d="m 69.282032,137 -4.330129,2.5 4.330129,2.5 4.330126,-2.5 z"/></g><g id="g8716" transform="translate(8.6602542,-10)"><path style="fill:#f0f;stroke:none;stroke-width:.26458332px;stroke-linecap:butt;stroke-linejoin:miter;stroke-opacity:1" id="path8710" d="m 69.282032,147 4.330126,-2.5 v -5 l -4.330126,-2.5 -4.330129,2.5 4.330129,2.5 z"/><path style="fill:#f60;stroke:none;stroke-width:.26458332px;stroke-linecap:butt;stroke-linejoin:miter;stroke-opacity:1" id="path8712" d="m 64.951903,139.5 4.330129,-2.5 4.330126,2.5 -4.330126,2.5 v 5 l -4.330129,-2.5 z"/><path style="fill:#00f;stroke:none;stroke-width:.26458332px;stroke-linecap:butt;stroke-linejoin:miter;stroke-opacity:1" id="path8714" d="m 69.282032,137 -4.330129,2.5 4.330129,2.5 4.330126,-2.5 z"/></g><g id="g8724" transform="translate(4.3301259,-7.5)"><path style="fill:#f0f;stroke:none;stroke-width:.26458332px;stroke-linecap:butt;stroke-linejoin:miter;stroke-opacity:1" id="path8718" d="m 69.282032,147 4.330126,-2.5 v -5 l -4.330126,-2.5 -4.330129,2.5 4.330129,2.5 z"/><path style="fill:#f60;stroke:none;stroke-width:.26458332px;stroke-linecap:butt;stroke-linejoin:miter;stroke-opacity:1" id="path8720" d="m 64.951903,139.5 4.330129,-2.5 4.330126,2.5 -4.330126,2.5 v 5 l -4.330129,-2.5 z"/><path style="fill:#00f;stroke:none;stroke-width:.26458332px;stroke-linecap:butt;stroke-linejoin:miter;stroke-opacity:1" id="path8722" d="m 69.282032,137 -4.330129,2.5 4.330129,2.5 4.330126,-2.5 z"/></g><g id="g8732" transform="translate(-7.160459e-7,-5)"><path id="path8726" d="m 69.282032,147 4.330126,-2.5 v -5 l -4.330126,-2.5 -4.330129,2.5 4.330129,2.5 z" style="fill:#f0f;stroke:none;stroke-width:.26458332px;stroke-linecap:butt;stroke-linejoin:miter;stroke-opacity:1"/><path id="path8728" d="m 64.951903,139.5 4.330129,-2.5 4.330126,2.5 -4.330126,2.5 v 5 l -4.330129,-2.5 z" style="fill:#f60;stroke:none;stroke-width:.26458332px;stroke-linecap:butt;stroke-linejoin:miter;stroke-opacity:1"/><path id="path8730" d="m 69.282032,137 -4.330129,2.5 4.330129,2.5 4.330126,-2.5 z" style="fill:#00f;stroke:none;stroke-width:.26458332px;stroke-linecap:butt;stroke-linejoin:miter;stroke-opacity:1"/></g><g id="g8740" transform="translate(12.990383,-7.5)"><path id="path8734" d="m 69.282032,147 4.330126,-2.5 v -5 l -4.330126,-2.5 -4.330129,2.5 4.330129,2.5 z" style="fill:#f0f;stroke:none;stroke-width:.26458332px;stroke-linecap:butt;stroke-linejoin:miter;stroke-opacity:1"/><path id="path8736" d="m 64.951903,139.5 4.330129,-2.5 4.330126,2.5 -4.330126,2.5 v 5 l -4.330129,-2.5 z" style="fill:#f60;stroke:none;stroke-width:.26458332px;stroke-linecap:butt;stroke-linejoin:miter;stroke-opacity:1"/><path id="path8738" d="m 69.282032,137 -4.330129,2.5 4.330129,2.5 4.330126,-2.5 z" style="fill:#00f;stroke:none;stroke-width:.26458332px;stroke-linecap:butt;stroke-linejoin:miter;stroke-opacity:1"/></g><g id="g8748" transform="translate(8.6602543,-5)"><path id="path8742" d="m 69.282032,147 4.330126,-2.5 v -5 l -4.330126,-2.5 -4.330129,2.5 4.330129,2.5 z" style="fill:#f0f;stroke:none;stroke-width:.26458332px;stroke-linecap:butt;stroke-linejoin:miter;stroke-opacity:1"/><path id="path8744" d="m 64.951903,139.5 4.330129,-2.5 4.330126,2.5 -4.330126,2.5 v 5 l -4.330129,-2.5 z" style="fill:#f60;stroke:none;stroke-width:.26458332px;stroke-linecap:butt;stroke-linejoin:miter;stroke-opacity:1"/><path id="path8746" d="m 69.282032,137 -4.330129,2.5 4.330129,2.5 4.330126,-2.5 z" style="fill:#00f;stroke:none;stroke-width:.26458332px;stroke-linecap:butt;stroke-linejoin:miter;stroke-opacity:1"/></g><g id="g8756" transform="translate(4.3301273,-2.5)"><path style="fill:#f0f;stroke:none;stroke-width:.26458332px;stroke-linecap:butt;stroke-linejoin:miter;stroke-opacity:1" id="path8750" d="m 69.282032,147 4.330126,-2.5 v -5 l -4.330126,-2.5 -4.330129,2.5 4.330129,2.5 z"/><path style="fill:#f60;stroke:none;stroke-width:.26458332px;stroke-linecap:butt;stroke-linejoin:miter;stroke-opacity:1" id="path8752" d="m 64.951903,139.5 4.330129,-2.5 4.330126,2.5 -4.330126,2.5 v 5 l -4.330129,-2.5 z"/><path style="fill:#00f;stroke:none;stroke-width:.26458332px;stroke-linecap:butt;stroke-linejoin:miter;stroke-opacity:1" id="path8754" d="m 69.282032,137 -4.330129,2.5 4.330129,2.5 4.330126,-2.5 z"/></g></g></svg>