<svg xmlns="http://www.w3.org/2000/svg" xmlns:svg="http://www.w3.org/2000/svg" id="svg831" width="197.451" height="481.081" preserveAspectRatio="xMinYMin" version="1.1" viewBox="0 0 197.451 481.081"><metadata id="metadata837"/><defs id="defs835"><marker style="overflow:visible" id="marker2565" orient="auto" refX="0" refY="0"><path style="fill:#000;fill-opacity:1;fill-rule:evenodd;stroke:#000;stroke-width:1.00000003pt;stroke-opacity:1" id="path2563" d="m -2.5,-1 c 0,2.76 -2.24,5 -5,5 -2.76,0 -5,-2.24 -5,-5 0,-2.76 2.24,-5 5,-5 2.76,0 5,2.24 5,5 z" transform="matrix(0.2,0,0,0.2,1.48,0.2)"/></marker><marker id="marker2057" orient="auto" refX="0" refY="0" style="overflow:visible"><path id="path2055" d="m -2.5,-1 c 0,2.76 -2.24,5 -5,5 -2.76,0 -5,-2.24 -5,-5 0,-2.76 2.24,-5 5,-5 2.76,0 5,2.24 5,5 z" transform="matrix(0.2,0,0,0.2,1.48,0.2)" style="fill:#000;fill-opacity:1;fill-rule:evenodd;stroke:#000;stroke-width:1.00000003pt;stroke-opacity:1"/></marker><marker style="overflow:visible" id="marker1485" orient="auto" refX="0" refY="0"><path style="fill:#000;fill-opacity:1;fill-rule:evenodd;stroke:#000;stroke-width:1.00000003pt;stroke-opacity:1" id="path1483" d="m -2.5,-1 c 0,2.76 -2.24,5 -5,5 -2.76,0 -5,-2.24 -5,-5 0,-2.76 2.24,-5 5,-5 2.76,0 5,2.24 5,5 z" transform="matrix(0.2,0,0,0.2,1.48,0.2)"/></marker><marker id="marker1455" orient="auto" refX="0" refY="0" style="overflow:visible"><path id="path1453" d="m -2.5,-1 c 0,2.76 -2.24,5 -5,5 -2.76,0 -5,-2.24 -5,-5 0,-2.76 2.24,-5 5,-5 2.76,0 5,2.24 5,5 z" transform="matrix(0.2,0,0,0.2,1.48,0.2)" style="fill:#000;fill-opacity:1;fill-rule:evenodd;stroke:#000;stroke-width:1.00000003pt;stroke-opacity:1"/></marker><marker style="overflow:visible" id="marker1379" orient="auto" refX="0" refY="0"><path style="fill:#000;fill-opacity:1;fill-rule:evenodd;stroke:#000;stroke-width:1.00000003pt;stroke-opacity:1" id="path1377" d="m -2.5,-1 c 0,2.76 -2.24,5 -5,5 -2.76,0 -5,-2.24 -5,-5 0,-2.76 2.24,-5 5,-5 2.76,0 5,2.24 5,5 z" transform="matrix(0.2,0,0,0.2,1.48,0.2)"/></marker><marker id="marker1347" orient="auto" refX="0" refY="0" style="overflow:visible"><path id="path1345" d="m -2.5,-1 c 0,2.76 -2.24,5 -5,5 -2.76,0 -5,-2.24 -5,-5 0,-2.76 2.24,-5 5,-5 2.76,0 5,2.24 5,5 z" transform="matrix(0.2,0,0,0.2,1.48,0.2)" style="fill:#000;fill-opacity:1;fill-rule:evenodd;stroke:#000;stroke-width:1.00000003pt;stroke-opacity:1"/></marker><marker id="DotS" orient="auto" refX="0" refY="0" style="overflow:visible"><path id="path1102" d="m -2.5,-1 c 0,2.76 -2.24,5 -5,5 -2.76,0 -5,-2.24 -5,-5 0,-2.76 2.24,-5 5,-5 2.76,0 5,2.24 5,5 z" transform="matrix(0.2,0,0,0.2,1.48,0.2)" style="fill:#000;fill-opacity:1;fill-rule:evenodd;stroke:#000;stroke-width:1.00000003pt;stroke-opacity:1"/></marker><marker id="DiamondSstart" orient="auto" refX="0" refY="0" style="overflow:visible"><path id="path1129" d="M 0,-7.0710768 -7.0710894,0 0,7.0710589 7.0710462,0 Z" transform="matrix(0.2,0,0,0.2,1.2,0)" style="fill:#000;fill-opacity:1;fill-rule:evenodd;stroke:#000;stroke-width:1.00000003pt;stroke-opacity:1"/></marker><marker id="DotL" orient="auto" refX="0" refY="0" style="overflow:visible"><path id="path1096" d="m -2.5,-1 c 0,2.76 -2.24,5 -5,5 -2.76,0 -5,-2.24 -5,-5 0,-2.76 2.24,-5 5,-5 2.76,0 5,2.24 5,5 z" transform="matrix(0.8,0,0,0.8,5.92,0.8)" style="fill:#000;fill-opacity:1;fill-rule:evenodd;stroke:#000;stroke-width:1.00000003pt;stroke-opacity:1"/></marker><clipPath id="clipPath910" clipPathUnits="userSpaceOnUse"><path id="path912" d="m -774.54614,827.6286 c 0,0 12.91729,-13.47233 29.20289,-13.41153 16.5302,0.0617 29.2029,13.41153 29.2029,13.41153 v 53.59993 c 0,0 -8.82476,16 -29.2029,16 -21.67331,0 -29.20289,-16 -29.20289,-16 z" style="opacity:1;fill:#999;fill-opacity:1;fill-rule:nonzero;stroke:red;stroke-width:4.67732573;stroke-linecap:round;stroke-linejoin:round;stroke-miterlimit:4;stroke-dasharray:none;stroke-dashoffset:0;stroke-opacity:1"/></clipPath><clipPath id="clipPath946" clipPathUnits="userSpaceOnUse"><g id="g950" transform="translate(-8.246144,84.52297)"><path id="path948" d="m -860.172,860.52827 c -4.18776,73.01076 78.25474,53.24342 150.21568,52.94118 82.38711,-0.34602 98.92158,-19.44459 98.92157,-47.05883 0,-27.61424 -4.78794,-42.54902 -73.82353,-42.54902 -69.03559,0 -171.43607,-30.93764 -175.31372,36.66667 z" style="fill:red"/></g></clipPath></defs><g id="layer3" transform="translate(-24.502715,256.10611)"><g id="g3650"><g id="g849" transform="translate(930.1598,-853.13106)"><path id="path4971" d="m -868.41814,945.05124 c -4.18776,73.01076 78.25474,53.24342 150.21568,52.94118 82.38711,-0.34602 98.92158,-19.44459 98.92157,-47.05883 0,-27.61424 -4.78794,-42.54902 -73.82353,-42.54902 -69.03559,0 -171.43607,-30.93764 -175.31372,36.66667 z" style="fill:#784421"/><ellipse id="path4974" cx="804.83" cy="950.986" rx="29.911" ry="29.414" transform="scale(-1,1)" style="fill:#deaa87"/></g><path style="fill:none;stroke:#000;stroke-width:6;stroke-linecap:round;stroke-linejoin:miter;stroke-miterlimit:4;stroke-dasharray:none;stroke-opacity:1;marker-end:url(#marker1347)" id="path977" d="M 123.22816,-28.55961 V 121.93254"/><path id="path1375" d="m 123.22816,-28.568516 c 0,0 16,20.6225701 16,32.7819601 0,12.1593899 -10.66667,21.8546499 -16,32.7819699 -5.33333,10.92732 -16,20.62257 -16,32.78196 0,12.15939 16,32.781956 16,32.781956" style="fill:none;stroke:#000;stroke-width:6;stroke-linecap:round;stroke-linejoin:miter;stroke-miterlimit:4;stroke-dasharray:none;stroke-opacity:1;marker-end:url(#marker1379)"/><path style="fill:none;stroke:#000;stroke-width:6;stroke-linecap:round;stroke-linejoin:miter;stroke-miterlimit:4;stroke-dasharray:none;stroke-opacity:1;marker-end:url(#marker1455)" id="path1451" d="m 123.22816,-28.574681 c 0,0 -20,16.8707 -20,28.4676797 0,11.5969803 13.33333,18.9784503 20,28.4676803 6.66667,9.48923 20,16.8707 20,28.46768 0,11.59698 -20,28.46768 -20,28.46768"/><path style="fill:none;stroke:#000;stroke-width:6;stroke-linecap:round;stroke-linejoin:miter;stroke-miterlimit:4;stroke-dasharray:none;stroke-opacity:1;marker-end:url(#marker2057)" id="path2053" d="m 123.22816,-28.590205 c 0,0 28,8.13159 28,19.5065402 0,11.37495 -18.66667,13.00437 -28,19.5065498 -9.33333,6.50218 -28,8.13159 -28,19.50654 0,11.37495 28,19.50654 28,19.50654"/><path id="path2561" d="m 123.22816,-28.562723 c 0,0 -10,24.6465902 -10,37.6230402 0,12.9764498 6.66667,25.0820298 10,37.6230398 3.33333,12.54101 10,24.64659 10,37.62303 0,12.97645 -10,37.623043 -10,37.623043" style="fill:none;stroke:#000;stroke-width:6;stroke-linecap:round;stroke-linejoin:miter;stroke-miterlimit:4;stroke-dasharray:none;stroke-opacity:1;marker-end:url(#marker2565)"/><path id="path845" d="m -798.7246,945.05125 c 4.18776,73.01075 -78.25474,53.2434 -150.2157,52.9412 -82.3871,-0.3461 -98.9216,-19.4446 -98.9215,-47.0589 0,-27.6142 4.7879,-42.54898 73.8235,-42.54898 69.03557,0 171.43605,-30.93764 175.3137,36.66668 z" clip-path="url(#clipPath946)" transform="translate(930.1598,-853.13106)" style="fill:#784421"/></g></g><g id="layer2" transform="translate(-24.502715,256.10611)" style="display:inline"><g id="g997" transform="translate(868.57141,-901.31946)"><path style="fill:none;stroke:#000;stroke-width:6;stroke-linecap:round;stroke-linejoin:miter;stroke-miterlimit:4;stroke-dasharray:none;stroke-opacity:1" id="path958" d="M -745.34325,872.75985 V 1023.252"/><path id="rect901" d="m -774.54614,827.6286 c 0,0 12.91729,-13.47233 29.20289,-13.41153 16.5302,0.0617 29.2029,13.41153 29.2029,13.41153 v 53.59993 c 0,0 -8.82476,16 -29.2029,16 -21.67331,0 -29.20289,-16 -29.20289,-16 z" style="opacity:1;fill:#999;fill-opacity:1;fill-rule:nonzero;stroke:red;stroke-width:4.67732573;stroke-linecap:round;stroke-linejoin:round;stroke-miterlimit:4;stroke-dasharray:none;stroke-dashoffset:0;stroke-opacity:1"/><rect id="rect906" width="25.512" height="118.409" x="-778.379" y="802.873" clip-path="url(#clipPath910)" transform="matrix(0.52451921,0,0,0.90177168,-368.28181,82.975542)" style="opacity:1;fill:red;fill-opacity:1;fill-rule:nonzero;stroke:none;stroke-width:4.45459938;stroke-linecap:round;stroke-linejoin:round;stroke-miterlimit:4;stroke-dasharray:none;stroke-dashoffset:0;stroke-opacity:1"/><path style="opacity:1;fill:#f0f;fill-opacity:1;fill-rule:nonzero;stroke:red;stroke-width:4;stroke-linecap:round;stroke-linejoin:round;stroke-miterlimit:4;stroke-dasharray:none;stroke-dashoffset:0;stroke-opacity:1" id="path904" d="m -774.54614,827.6286 c 0,0 12.91729,-13.47233 29.20289,-13.41153 16.5302,0.0617 29.2029,13.41153 29.2029,13.41153 v 0 c 0,0 -8.43823,10.11531 -28.81637,10.11531 -21.67331,0 -29.58942,-10.11531 -29.58942,-10.11531 z"/><g id="g926" transform="translate(5.365155)"><path style="fill:none;stroke:#000;stroke-width:5;stroke-linecap:round;stroke-linejoin:miter;stroke-miterlimit:4;stroke-dasharray:none;stroke-opacity:1" id="path920" d="m -758.27924,823.87525 -8.85833,-33.05973"/><path id="path922" d="m -743.13757,823.87525 8.85833,-33.05973" style="fill:none;stroke:#000;stroke-width:5;stroke-linecap:round;stroke-linejoin:miter;stroke-miterlimit:4;stroke-dasharray:none;stroke-opacity:1"/></g><path style="fill:#fff6d5;fill-opacity:.55045872;stroke:#000;stroke-width:5;stroke-linecap:round;stroke-linejoin:miter;stroke-miterlimit:4;stroke-dasharray:none;stroke-opacity:1" id="path870" d="m -783.19188,803.85515 c 5.25136,8.8146 5.2951,21.31963 13.27149,27.77344 12.29921,8.04575 36.46086,8.11547 49.12691,0 7.97639,-6.45381 8.02208,-18.95884 13.27344,-27.77344 3.99224,-6.70109 14.40799,-19.81121 14.40799,-19.81121 8.27637,-11.53863 12.7688,-24.59393 12.7688,-38.69849 0,-35.89851 -29.10149,-65 -65,-65 -35.89851,0 -65,29.10149 -65,65 0,13.66639 4.21765,26.3477 12.40501,38.19861 0,0 10.75412,13.61 14.74636,20.31109 z"/><path style="opacity:1;fill:none;fill-opacity:1;fill-rule:nonzero;stroke:#000;stroke-width:4.67732573;stroke-linecap:round;stroke-linejoin:round;stroke-miterlimit:4;stroke-dasharray:none;stroke-dashoffset:0;stroke-opacity:1" id="path914" d="m -774.54614,827.6286 c 0,0 12.91729,-13.47233 29.20289,-13.41153 16.5302,0.0617 29.2029,13.41153 29.2029,13.41153 v 53.59993 c 0,0 -8.82476,16 -29.2029,16 -21.67331,0 -29.20289,-16 -29.20289,-16 z"/><circle id="path916" cx="-745.343" cy="743.939" r="83.725" style="opacity:1;fill:none;fill-opacity:.55045872;fill-rule:nonzero;stroke:#fc0;stroke-width:10;stroke-linecap:round;stroke-linejoin:round;stroke-miterlimit:4;stroke-dasharray:10,30;stroke-dashoffset:0;stroke-opacity:1"/><path style="opacity:1;fill:none;fill-opacity:.55045872;fill-rule:nonzero;stroke:red;stroke-width:12;stroke-linecap:round;stroke-linejoin:round;stroke-miterlimit:4;stroke-dasharray:none;stroke-dashoffset:0;stroke-opacity:1" id="circle918" d="m -789.19067,757.50136 a 45.897041,45.897041 0 0 1 3.91519,-36.18904 45.897041,45.897041 0 0 1 29.03185,-21.9574"/></g></g></svg>