<svg xmlns="http://www.w3.org/2000/svg" xmlns:svg="http://www.w3.org/2000/svg" id="svg8" width="130.814" height="209.255" version="1.1" viewBox="0 0 34.611 55.365"><metadata id="metadata5"/><g id="layer1" transform="translate(-39.710234,-165.74778)"><g id="g1048"><circle id="circle935" cx="43.184" cy="170.945" r="1.323" style="opacity:1;fill:#000;fill-opacity:1;fill-rule:nonzero;stroke:none;stroke-width:16.5655365;stroke-linecap:round;stroke-linejoin:round;stroke-miterlimit:4;stroke-dasharray:none;stroke-dashoffset:0;stroke-opacity:1"/><circle style="opacity:1;fill:#000;fill-opacity:1;fill-rule:nonzero;stroke:none;stroke-width:16.5655365;stroke-linecap:round;stroke-linejoin:round;stroke-miterlimit:4;stroke-dasharray:none;stroke-dashoffset:0;stroke-opacity:1" id="circle937" cx="51.121" cy="167.071" r="1.323"/><circle id="circle939" cx="61.421" cy="167.732" r="1.323" style="opacity:1;fill:#000;fill-opacity:1;fill-rule:nonzero;stroke:none;stroke-width:16.5655365;stroke-linecap:round;stroke-linejoin:round;stroke-miterlimit:4;stroke-dasharray:none;stroke-dashoffset:0;stroke-opacity:1"/><circle style="opacity:1;fill:#000;fill-opacity:1;fill-rule:nonzero;stroke:none;stroke-width:16.5655365;stroke-linecap:round;stroke-linejoin:round;stroke-miterlimit:4;stroke-dasharray:none;stroke-dashoffset:0;stroke-opacity:1" id="path933" cx="69.075" cy="171.417" r="1.323"/><path style="opacity:1;fill:#a05a2c;fill-opacity:1;fill-rule:nonzero;stroke:#000;stroke-width:1.24580967;stroke-linecap:round;stroke-linejoin:round;stroke-miterlimit:4;stroke-dasharray:none;stroke-dashoffset:0;stroke-opacity:1" id="rect827" d="m 52.664632,167.16322 c -2.33236,0.002 -4.548835,1.14857 -6.073531,3.14192 -0.158959,-0.0216 -0.318418,-0.0336 -0.478007,-0.0362 -4.670933,0.56685 -5.741935,5.42879 -5.77868,8.99133 -0.04803,4.65629 1.30491,8.70182 1.513382,13.0889 0.445337,9.37166 -0.566965,28.14099 -0.566965,28.14099 h 29.886032 c 0,0 -0.200015,-18.15587 0.566965,-27.188 0.373493,-4.39838 1.813798,-8.79438 1.960308,-13.09673 0.123217,-3.61829 -2.536055,-8.96542 -6.130671,-8.96549 -0.451948,0.003 -0.902412,0.073 -1.344104,0.20774 -1.387957,-2.13436 -3.47498,-3.37495 -5.680274,-3.37654 -1.075116,0.003 -2.136407,0.30197 -3.108338,0.87437 -1.379315,-1.1539 -3.049614,-1.77852 -4.766117,-1.78232 z"/><path style="opacity:1;fill:#d38d5f;fill-opacity:1;fill-rule:nonzero;stroke:none;stroke-width:4.70857191;stroke-linecap:round;stroke-linejoin:round;stroke-miterlimit:4;stroke-dasharray:none;stroke-dashoffset:0;stroke-opacity:1" id="path1012" d="m 209.33398,633.85547 c -9.92836,2.04771 -18.69785,10.86147 -25.19168,19.18164 -6.05857,7.7625 -9.43999,17.55058 -11.65167,27.14595 -3.65813,15.87074 -3.11449,32.22413 -2.32657,48.80522 1.61086,33.8988 -1.7468,98.71617 -2.04492,104.36133 h 100.85742 c 0,0 -0.75624,-68.62063 2.14258,-102.75781 1.41163,-16.6238 6.85642,-33.23915 7.41016,-49.5 0.4657,-13.67543 -9.58593,-33.8845 -23.17188,-33.88477 -1.70815,0.0113 -3.41069,0.2759 -5.08008,0.78516 -5.24582,-8.06687 -13.13378,-12.75571 -21.46875,-12.76172 -4.06343,0.0113 -8.0746,1.14128 -11.74804,3.30469 -2.37578,-1.98751 -4.98154,-3.55585 -7.72657,-4.67969 z" transform="scale(0.26458333)"/><g id="g959" transform="translate(-34.611404,-37.818638)"><circle id="path941" cx="79.942" cy="214.601" r="1.795" style="opacity:1;fill:#ff8080;fill-opacity:1;fill-rule:nonzero;stroke:#000;stroke-width:.79374999;stroke-linecap:round;stroke-linejoin:round;stroke-miterlimit:4;stroke-dasharray:none;stroke-dashoffset:0;stroke-opacity:1"/><path id="circle949" d="m 80.473639,213.02849 a 1.7953868,1.6469694 0 0 0 -1.268656,1.57288 1.7953868,1.6469694 0 0 0 1.262973,1.57288 1.7953868,1.6469694 0 0 0 1.269172,-1.57288 1.7953868,1.6469694 0 0 0 -1.263489,-1.57288 z" style="opacity:1;fill:#ffd5d5;fill-opacity:1;fill-rule:nonzero;stroke:none;stroke-width:.76023436;stroke-linecap:round;stroke-linejoin:round;stroke-miterlimit:4;stroke-dasharray:none;stroke-dashoffset:0;stroke-opacity:1"/><circle style="opacity:1;fill:none;fill-opacity:1;fill-rule:nonzero;stroke:#000;stroke-width:.79374999;stroke-linecap:round;stroke-linejoin:round;stroke-miterlimit:4;stroke-dasharray:none;stroke-dashoffset:0;stroke-opacity:1" id="circle954" cx="79.942" cy="214.601" r="1.795"/></g><g id="g983" transform="translate(-27.796031,-40.892238)"><circle style="opacity:1;fill:#ff8080;fill-opacity:1;fill-rule:nonzero;stroke:#000;stroke-width:.79374999;stroke-linecap:round;stroke-linejoin:round;stroke-miterlimit:4;stroke-dasharray:none;stroke-dashoffset:0;stroke-opacity:1" id="circle977" cx="79.942" cy="214.601" r="1.795"/><path style="opacity:1;fill:#ffd5d5;fill-opacity:1;fill-rule:nonzero;stroke:none;stroke-width:.76023436;stroke-linecap:round;stroke-linejoin:round;stroke-miterlimit:4;stroke-dasharray:none;stroke-dashoffset:0;stroke-opacity:1" id="path979" d="m 80.473639,213.02849 a 1.7953868,1.6469694 0 0 0 -1.268656,1.57288 1.7953868,1.6469694 0 0 0 1.262973,1.57288 1.7953868,1.6469694 0 0 0 1.269172,-1.57288 1.7953868,1.6469694 0 0 0 -1.263489,-1.57288 z"/><circle id="circle981" cx="79.942" cy="214.601" r="1.795" style="opacity:1;fill:none;fill-opacity:1;fill-rule:nonzero;stroke:#000;stroke-width:.79374999;stroke-linecap:round;stroke-linejoin:round;stroke-miterlimit:4;stroke-dasharray:none;stroke-dashoffset:0;stroke-opacity:1"/></g><g id="g991" transform="translate(-19.64431,-39.55589)"><circle id="circle985" cx="79.942" cy="214.601" r="1.795" style="opacity:1;fill:#ff8080;fill-opacity:1;fill-rule:nonzero;stroke:#000;stroke-width:.79374999;stroke-linecap:round;stroke-linejoin:round;stroke-miterlimit:4;stroke-dasharray:none;stroke-dashoffset:0;stroke-opacity:1"/><path id="path987" d="m 80.473639,213.02849 a 1.7953868,1.6469694 0 0 0 -1.268656,1.57288 1.7953868,1.6469694 0 0 0 1.262973,1.57288 1.7953868,1.6469694 0 0 0 1.269172,-1.57288 1.7953868,1.6469694 0 0 0 -1.263489,-1.57288 z" style="opacity:1;fill:#ffd5d5;fill-opacity:1;fill-rule:nonzero;stroke:none;stroke-width:.76023436;stroke-linecap:round;stroke-linejoin:round;stroke-miterlimit:4;stroke-dasharray:none;stroke-dashoffset:0;stroke-opacity:1"/><circle style="opacity:1;fill:none;fill-opacity:1;fill-rule:nonzero;stroke:#000;stroke-width:.79374999;stroke-linecap:round;stroke-linejoin:round;stroke-miterlimit:4;stroke-dasharray:none;stroke-dashoffset:0;stroke-opacity:1" id="circle989" cx="79.942" cy="214.601" r="1.795"/></g><g id="g999" transform="translate(-12.160763,-35.279578)"><circle style="opacity:1;fill:#ff8080;fill-opacity:1;fill-rule:nonzero;stroke:#000;stroke-width:.79374999;stroke-linecap:round;stroke-linejoin:round;stroke-miterlimit:4;stroke-dasharray:none;stroke-dashoffset:0;stroke-opacity:1" id="circle993" cx="79.942" cy="214.601" r="1.795"/><path style="opacity:1;fill:#ffd5d5;fill-opacity:1;fill-rule:nonzero;stroke:none;stroke-width:.76023436;stroke-linecap:round;stroke-linejoin:round;stroke-miterlimit:4;stroke-dasharray:none;stroke-dashoffset:0;stroke-opacity:1" id="path995" d="m 80.473639,213.02849 a 1.7953868,1.6469694 0 0 0 -1.268656,1.57288 1.7953868,1.6469694 0 0 0 1.262973,1.57288 1.7953868,1.6469694 0 0 0 1.269172,-1.57288 1.7953868,1.6469694 0 0 0 -1.263489,-1.57288 z"/><circle id="circle997" cx="79.942" cy="214.601" r="1.795" style="opacity:1;fill:none;fill-opacity:1;fill-rule:nonzero;stroke:#000;stroke-width:.79374999;stroke-linecap:round;stroke-linejoin:round;stroke-miterlimit:4;stroke-dasharray:none;stroke-dashoffset:0;stroke-opacity:1"/></g><ellipse style="opacity:1;fill:#ff8080;fill-opacity:1;fill-rule:nonzero;stroke:#000;stroke-width:.87823123;stroke-linecap:round;stroke-linejoin:round;stroke-miterlimit:4;stroke-dasharray:none;stroke-dashoffset:0;stroke-opacity:1" id="path1003" cx="69.846" cy="177.91" rx="7.588" ry="5.357" transform="matrix(0.99406597,0.10877889,-0.07928967,0.99685162,0,0)"/><path style="opacity:1;fill:#ffd5d5;fill-opacity:1;fill-rule:nonzero;stroke:none;stroke-width:3.31857109;stroke-linecap:round;stroke-linejoin:round;stroke-miterlimit:4;stroke-dasharray:none;stroke-dashoffset:0;stroke-opacity:1" id="ellipse1005" d="m 213.41406,680.10938 a 28.690344,20.229057 7.9257388 0 0 -25.24414,17.29882 28.690344,20.229057 7.9257388 0 0 19.69922,21.81836 28.690344,20.229057 7.9257388 0 0 29.74024,-17.09375 28.690344,20.229057 7.9257388 0 0 -19.70313,-21.81836 28.690344,20.229057 7.9257388 0 0 -4.49219,-0.20507 z" transform="scale(0.26458333)"/><ellipse id="ellipse1010" cx="69.846" cy="177.91" rx="7.588" ry="5.357" transform="matrix(0.99406597,0.10877889,-0.07928967,0.99685162,0,0)" style="opacity:1;fill:none;fill-opacity:1;fill-rule:nonzero;stroke:#000;stroke-width:.87823123;stroke-linecap:round;stroke-linejoin:round;stroke-miterlimit:4;stroke-dasharray:none;stroke-dashoffset:0;stroke-opacity:1"/><path id="path1020" d="m 52.664632,167.16322 c -2.33236,0.002 -4.548835,1.14857 -6.073531,3.14192 -0.158959,-0.0216 -0.318418,-0.0336 -0.478007,-0.0362 -4.670933,0.56685 -5.741935,5.42879 -5.77868,8.99133 -0.04803,4.65629 1.30491,8.70182 1.513382,13.0889 0.445337,9.37166 -0.566965,28.14099 -0.566965,28.14099 h 29.886032 c 0,0 -0.200015,-18.15587 0.566965,-27.188 0.373493,-4.39838 1.813798,-8.79438 1.960308,-13.09673 0.123217,-3.61829 -2.536055,-8.96542 -6.130671,-8.96549 -0.451948,0.003 -0.902412,0.073 -1.344104,0.20774 -1.387957,-2.13436 -3.47498,-3.37495 -5.680274,-3.37654 -1.075116,0.003 -2.136407,0.30197 -3.108338,0.87437 -1.379315,-1.1539 -3.049614,-1.77852 -4.766117,-1.78232 z" style="opacity:1;fill:none;fill-opacity:1;fill-rule:nonzero;stroke:#000;stroke-width:1.24580967;stroke-linecap:round;stroke-linejoin:round;stroke-miterlimit:4;stroke-dasharray:none;stroke-dashoffset:0;stroke-opacity:1"/></g></g></svg>