<svg xmlns="http://www.w3.org/2000/svg" xmlns:svg="http://www.w3.org/2000/svg" id="svg8" version="1.1" viewBox="0 0 619.328 1155.311"><defs id="defs2"><filter style="color-interpolation-filters:sRGB" id="filter5141"><feGaussianBlur id="feGaussianBlur5139" result="fbSourceGraphic" stdDeviation="2.5 2"/><feColorMatrix id="feColorMatrix5167" in="fbSourceGraphic" result="fbSourceGraphicAlpha" values="0 0 0 -1 0 0 0 0 -1 0 0 0 0 -1 0 0 0 0 1 0"/><feGaussianBlur id="feGaussianBlur5169" in="fbSourceGraphic" result="fbSourceGraphic" stdDeviation="10 10"/><feColorMatrix id="feColorMatrix5171" in="fbSourceGraphic" result="fbSourceGraphicAlpha" values="0 0 0 -1 0 0 0 0 -1 0 0 0 0 -1 0 0 0 0 1 0"/><feGaussianBlur id="feGaussianBlur5173" in="fbSourceGraphic" result="blur" stdDeviation="10 10"/></filter></defs><metadata id="metadata5"/><g id="layer1" transform="translate(355.49134,798.77981)"><path style="fill:#c87137;stroke:none;stroke-width:.26458332px;stroke-linecap:butt;stroke-linejoin:miter;stroke-opacity:1" id="path4552" d="M -355.16065,316.84373 263.50627,-40.343746 V -0.65624625 L -355.16065,356.53123"/><path style="fill:#deaa87;stroke:none;stroke-width:.26458332px;stroke-linecap:butt;stroke-linejoin:miter;stroke-opacity:1" id="path4554" d="m -355.16063,78.718753 618.66687,-357.187513 3e-5,238.125014 -618.66692,357.187476 z"/><path style="fill:#666;stroke:none;stroke-width:.26458332px;stroke-linecap:butt;stroke-linejoin:miter;stroke-opacity:1" id="path4649" d="m 263.50626,-185.86455 -618.66687,357.1875 v 26.45833 l 618.66687,-357.1875 v -26.45833"/><path style="fill:none;stroke:#fc0;stroke-width:1.32291663;stroke-linecap:butt;stroke-linejoin:miter;stroke-miterlimit:4;stroke-dasharray:15.875,15.875;stroke-dashoffset:0;stroke-opacity:1" id="path4651" d="M -355.16061,184.55211 263.50626,-172.63538"/><path style="fill:#999;stroke:#000;stroke-width:.26458332px;stroke-linecap:butt;stroke-linejoin:miter;stroke-opacity:1" id="path4659" d="m -332.24702,211.01045 68.74076,39.68749 68.74077,-39.68749 -68.74077,-39.6875 z"/><path style="fill:#e3dbdb;stroke:#000;stroke-width:.26458332px;stroke-linecap:butt;stroke-linejoin:miter;stroke-opacity:1" id="path4661" d="m -183.3087,191.1667 45.82718,-26.45834 -45.82718,-26.45833 -45.82718,26.45833 z"/><g id="g4746" style="stroke:none"><g id="g4684" transform="translate(-45.827179,13.229168)" style="stroke:none"><path style="fill:#c87137;stroke:none;stroke-width:.26458332px;stroke-linecap:butt;stroke-linejoin:miter;stroke-opacity:1" id="path4667" d="M -22.913584,58.87503 V 85.333363 L -11.456782,78.71878 V 52.260447 Z"/><path style="fill:#a40;stroke:none;stroke-width:.26458332px;stroke-linecap:butt;stroke-linejoin:miter;stroke-opacity:1" id="path4669" d="M -34.370386,52.260447 V 78.71878 l 11.456802,6.614583 V 58.87503 l -11.456802,-6.614583"/><path style="fill:#0a0;stroke:none;stroke-width:.26458332px;stroke-linecap:butt;stroke-linejoin:miter;stroke-opacity:1" id="path4673" d="m -22.913584,19.187531 -34.37038,19.84375 34.37038,19.843749 34.37038,-19.843749 z"/><path style="fill:#0f0;stroke:none;stroke-width:.26458332px;stroke-linecap:butt;stroke-linejoin:miter;stroke-opacity:1" id="path4675" d="m -57.283964,39.031281 v 13.229166 l 34.37038,19.84375 V 58.87503 Z"/><path style="fill:green;stroke:none;stroke-width:.26458332px;stroke-linecap:butt;stroke-linejoin:miter;stroke-opacity:1" id="path4677" d="m 11.456796,39.031281 v 13.229166 l -34.37038,19.84375 V 58.87503 Z"/></g><g id="g4720" transform="matrix(0.50000001,0,0,0.50000001,-85.925953,59.203141)" style="stroke:none"><path id="path4710" d="M -22.913584,58.87503 V 85.333363 L -11.456782,78.71878 V 52.260447 Z" style="fill:#c87137;stroke:none;stroke-width:.26458332px;stroke-linecap:butt;stroke-linejoin:miter;stroke-opacity:1"/><path id="path4712" d="M -34.370386,52.260447 V 78.71878 l 11.456802,6.614583 V 58.87503 l -11.456802,-6.614583" style="fill:#a40;stroke:none;stroke-width:.26458332px;stroke-linecap:butt;stroke-linejoin:miter;stroke-opacity:1"/><path id="path4714" d="m -22.913584,19.187531 -34.37038,19.84375 34.37038,19.843749 34.37038,-19.843749 z" style="fill:#0a0;stroke:none;stroke-width:.26458332px;stroke-linecap:butt;stroke-linejoin:miter;stroke-opacity:1"/><path id="path4716" d="m -57.283964,39.031281 v 13.229166 l 34.37038,19.84375 V 58.87503 Z" style="fill:#0f0;stroke:none;stroke-width:.26458332px;stroke-linecap:butt;stroke-linejoin:miter;stroke-opacity:1"/><path id="path4718" d="m 11.456796,39.031281 v 13.229166 l -34.37038,19.84375 V 58.87503 Z" style="fill:green;stroke:none;stroke-width:.26458332px;stroke-linecap:butt;stroke-linejoin:miter;stroke-opacity:1"/></g><g id="g4696" transform="matrix(0.53846154,0,0,0.53846154,-51.114925,77.036874)" style="stroke:none"><path id="path4686" d="M -22.913584,58.87503 V 85.333363 L -11.456782,78.71878 V 52.260447 Z" style="fill:#c87137;stroke:none;stroke-width:.26458332px;stroke-linecap:butt;stroke-linejoin:miter;stroke-opacity:1"/><path id="path4688" d="M -34.370386,52.260447 V 78.71878 l 11.456802,6.614583 V 58.87503 l -11.456802,-6.614583" style="fill:#a40;stroke:none;stroke-width:.26458332px;stroke-linecap:butt;stroke-linejoin:miter;stroke-opacity:1"/><path id="path4690" d="m -22.913584,19.187531 -34.37038,19.84375 34.37038,19.843749 34.37038,-19.843749 z" style="fill:#0a0;stroke:none;stroke-width:.26458332px;stroke-linecap:butt;stroke-linejoin:miter;stroke-opacity:1"/><path id="path4692" d="m -57.283964,39.031281 v 13.229166 l 34.37038,19.84375 V 58.87503 Z" style="fill:#0f0;stroke:none;stroke-width:.26458332px;stroke-linecap:butt;stroke-linejoin:miter;stroke-opacity:1"/><path id="path4694" d="m 11.456796,39.031281 v 13.229166 l -34.37038,19.84375 V 58.87503 Z" style="fill:green;stroke:none;stroke-width:.26458332px;stroke-linecap:butt;stroke-linejoin:miter;stroke-opacity:1"/></g><g id="g4708" transform="matrix(0.66666657,0,0,0.66666657,-7.6378581,46.08335)" style="stroke:none"><path style="fill:#c87137;stroke:none;stroke-width:.26458332px;stroke-linecap:butt;stroke-linejoin:miter;stroke-opacity:1" id="path4698" d="M -22.913584,58.87503 V 85.333363 L -11.456782,78.71878 V 52.260447 Z"/><path style="fill:#a40;stroke:none;stroke-width:.26458332px;stroke-linecap:butt;stroke-linejoin:miter;stroke-opacity:1" id="path4700" d="M -34.370386,52.260447 V 78.71878 l 11.456802,6.614583 V 58.87503 l -11.456802,-6.614583"/><path style="fill:#0a0;stroke:none;stroke-width:.26458332px;stroke-linecap:butt;stroke-linejoin:miter;stroke-opacity:1" id="path4702" d="m -22.913584,19.187531 -34.37038,19.84375 34.37038,19.843749 34.37038,-19.843749 z"/><path style="fill:#0f0;stroke:none;stroke-width:.26458332px;stroke-linecap:butt;stroke-linejoin:miter;stroke-opacity:1" id="path4704" d="m -57.283964,39.031281 v 13.229166 l 34.37038,19.84375 V 58.87503 Z"/><path style="fill:green;stroke:none;stroke-width:.26458332px;stroke-linecap:butt;stroke-linejoin:miter;stroke-opacity:1" id="path4706" d="m 11.456796,39.031281 v 13.229166 l -34.37038,19.84375 V 58.87503 Z"/></g></g><g id="g4804" transform="translate(-1.6609332e-6,-1.6905835e-6)" style="stroke:none"><path id="path4653" d="m 57.283978,-159.40622 v -158.74999 l 68.740762,39.68749 v 158.75 L 68.74078,-86.645804 V -245.3958 l 57.28396,-33.07292" style="fill:#c8b7b7;stroke:none;stroke-width:.26458332px;stroke-linecap:butt;stroke-linejoin:miter;stroke-opacity:1"/><path id="path4655" d="M 57.283978,-318.15621 -6.351819e-6,-285.0833 68.74078,-245.3958 l 57.28396,-33.07292 -68.740762,-39.68749" style="fill:#916f6f;stroke:none;stroke-width:.26458332px;stroke-linecap:butt;stroke-linejoin:miter;stroke-opacity:1"/><path id="path4657" d="m -6.351819e-6,-285.0833 v 158.75 L 68.74078,-86.645804 V -245.3958 Z" style="fill:gray;stroke:none;stroke-width:.26458332px;stroke-linecap:butt;stroke-linejoin:miter;stroke-opacity:1"/><path id="path4748" d="m 11.456799,-265.23954 v 26.45833 l 45.827182,26.45834 v -26.45834 l -45.827182,-26.45833" style="fill:#afe9dd;stroke:none;stroke-width:.26458332px;stroke-linecap:butt;stroke-linejoin:miter;stroke-opacity:1"/><path style="fill:#afe9dd;stroke:none;stroke-width:.26458332px;stroke-linecap:butt;stroke-linejoin:miter;stroke-opacity:1" id="path4750" d="m 11.456799,-185.86455 v 26.45833 l 45.827182,26.45834 v -26.45834 l -45.827182,-26.45833"/><path id="path4752" d="m 11.456804,-225.55205 v 26.45833 l 45.827182,26.45834 v -26.45834 l -45.827182,-26.45833" style="fill:#afe9dd;stroke:none;stroke-width:.26458332px;stroke-linecap:butt;stroke-linejoin:miter;stroke-opacity:1"/><path style="fill:#afe9dd;stroke:none;stroke-width:.26458332px;stroke-linecap:butt;stroke-linejoin:miter;stroke-opacity:1" id="path4754" d="m 11.456799,-146.17705 v 26.45833 l 45.827182,26.458344 v -26.458344 l -45.827182,-26.45833"/><path id="path4756" d="m 80.197562,-238.78122 v 13.22917 l 11.456802,-6.61458 v -13.22917 z" style="fill:#afe;stroke:none;stroke-width:.26458332px;stroke-linecap:butt;stroke-linejoin:miter;stroke-opacity:1"/><path style="fill:#afe;stroke:none;stroke-width:.26458332px;stroke-linecap:butt;stroke-linejoin:miter;stroke-opacity:1" id="path4758" d="m 80.19757,-119.71872 v 13.22917 l 11.456802,-6.61458 v -13.22917 z"/><path id="path4760" d="m 103.11115,-252.01038 v 13.22917 l 11.4568,-6.61458 v -13.22917 z" style="fill:#afe;stroke:none;stroke-width:.26458332px;stroke-linecap:butt;stroke-linejoin:miter;stroke-opacity:1"/><path style="fill:#afe;stroke:none;stroke-width:.26458332px;stroke-linecap:butt;stroke-linejoin:miter;stroke-opacity:1" id="path4762" d="m 103.11116,-132.94788 v 13.22917 l 11.4568,-6.61458 v -13.22917 z"/><path id="path4764" d="m 80.19757,-159.40622 v 13.22917 l 11.456802,-6.61458 v -13.22917 z" style="fill:#afe;stroke:none;stroke-width:.26458332px;stroke-linecap:butt;stroke-linejoin:miter;stroke-opacity:1"/><path style="fill:#afe;stroke:none;stroke-width:.26458332px;stroke-linecap:butt;stroke-linejoin:miter;stroke-opacity:1" id="path4766" d="m 103.11116,-212.32288 v 13.22917 l 11.4568,-6.61458 v -13.22917 z"/></g><g id="g4784" style="stroke:none"><path id="path4770" d="m -183.3087,111.7917 -45.82718,52.91666 45.82718,26.45834 z" style="fill:#b3b3b3;stroke:none;stroke-width:.26458332px;stroke-linecap:butt;stroke-linejoin:miter;stroke-opacity:1"/><path id="path4772" d="m -183.3087,111.7917 45.82718,52.91666 -45.82718,26.45834 v -79.375" style="fill:gray;stroke:none;stroke-width:.26458332px;stroke-linecap:butt;stroke-linejoin:miter;stroke-opacity:1"/></g><g style="stroke:none" id="g4912" transform="translate(-217.67909,-19.84375)"><g style="stroke:none" id="g4874" transform="translate(-45.827179,13.229168)"><path id="path4864" d="M -22.913584,58.87503 V 85.333363 L -11.456782,78.71878 V 52.260447 Z" style="fill:#c87137;stroke:none;stroke-width:.26458332px;stroke-linecap:butt;stroke-linejoin:miter;stroke-opacity:1"/><path id="path4866" d="M -34.370386,52.260447 V 78.71878 l 11.456802,6.614583 V 58.87503 l -11.456802,-6.614583" style="fill:#a40;stroke:none;stroke-width:.26458332px;stroke-linecap:butt;stroke-linejoin:miter;stroke-opacity:1"/><path id="path4868" d="m -22.913584,19.187531 -34.37038,19.84375 34.37038,19.843749 34.37038,-19.843749 z" style="fill:#0a0;stroke:none;stroke-width:.26458332px;stroke-linecap:butt;stroke-linejoin:miter;stroke-opacity:1"/><path id="path4870" d="m -57.283964,39.031281 v 13.229166 l 34.37038,19.84375 V 58.87503 Z" style="fill:#0f0;stroke:none;stroke-width:.26458332px;stroke-linecap:butt;stroke-linejoin:miter;stroke-opacity:1"/><path id="path4872" d="m 11.456796,39.031281 v 13.229166 l -34.37038,19.84375 V 58.87503 Z" style="fill:green;stroke:none;stroke-width:.26458332px;stroke-linecap:butt;stroke-linejoin:miter;stroke-opacity:1"/></g><g style="stroke:none" id="g4886" transform="matrix(0.50000001,0,0,0.50000001,-85.925953,59.203141)"><path style="fill:#c87137;stroke:none;stroke-width:.26458332px;stroke-linecap:butt;stroke-linejoin:miter;stroke-opacity:1" id="path4876" d="M -22.913584,58.87503 V 85.333363 L -11.456782,78.71878 V 52.260447 Z"/><path style="fill:#a40;stroke:none;stroke-width:.26458332px;stroke-linecap:butt;stroke-linejoin:miter;stroke-opacity:1" id="path4878" d="M -34.370386,52.260447 V 78.71878 l 11.456802,6.614583 V 58.87503 l -11.456802,-6.614583"/><path style="fill:#0a0;stroke:none;stroke-width:.26458332px;stroke-linecap:butt;stroke-linejoin:miter;stroke-opacity:1" id="path4880" d="m -22.913584,19.187531 -34.37038,19.84375 34.37038,19.843749 34.37038,-19.843749 z"/><path style="fill:#0f0;stroke:none;stroke-width:.26458332px;stroke-linecap:butt;stroke-linejoin:miter;stroke-opacity:1" id="path4882" d="m -57.283964,39.031281 v 13.229166 l 34.37038,19.84375 V 58.87503 Z"/><path style="fill:green;stroke:none;stroke-width:.26458332px;stroke-linecap:butt;stroke-linejoin:miter;stroke-opacity:1" id="path4884" d="m 11.456796,39.031281 v 13.229166 l -34.37038,19.84375 V 58.87503 Z"/></g><g style="stroke:none" id="g4898" transform="matrix(0.53846154,0,0,0.53846154,-51.114925,77.036874)"><path style="fill:#c87137;stroke:none;stroke-width:.26458332px;stroke-linecap:butt;stroke-linejoin:miter;stroke-opacity:1" id="path4888" d="M -22.913584,58.87503 V 85.333363 L -11.456782,78.71878 V 52.260447 Z"/><path style="fill:#a40;stroke:none;stroke-width:.26458332px;stroke-linecap:butt;stroke-linejoin:miter;stroke-opacity:1" id="path4890" d="M -34.370386,52.260447 V 78.71878 l 11.456802,6.614583 V 58.87503 l -11.456802,-6.614583"/><path style="fill:#0a0;stroke:none;stroke-width:.26458332px;stroke-linecap:butt;stroke-linejoin:miter;stroke-opacity:1" id="path4892" d="m -22.913584,19.187531 -34.37038,19.84375 34.37038,19.843749 34.37038,-19.843749 z"/><path style="fill:#0f0;stroke:none;stroke-width:.26458332px;stroke-linecap:butt;stroke-linejoin:miter;stroke-opacity:1" id="path4894" d="m -57.283964,39.031281 v 13.229166 l 34.37038,19.84375 V 58.87503 Z"/><path style="fill:green;stroke:none;stroke-width:.26458332px;stroke-linecap:butt;stroke-linejoin:miter;stroke-opacity:1" id="path4896" d="m 11.456796,39.031281 v 13.229166 l -34.37038,19.84375 V 58.87503 Z"/></g><g style="stroke:none" id="g4910" transform="matrix(0.66666657,0,0,0.66666657,-7.6378581,46.08335)"><path id="path4900" d="M -22.913584,58.87503 V 85.333363 L -11.456782,78.71878 V 52.260447 Z" style="fill:#c87137;stroke:none;stroke-width:.26458332px;stroke-linecap:butt;stroke-linejoin:miter;stroke-opacity:1"/><path id="path4902" d="M -34.370386,52.260447 V 78.71878 l 11.456802,6.614583 V 58.87503 l -11.456802,-6.614583" style="fill:#a40;stroke:none;stroke-width:.26458332px;stroke-linecap:butt;stroke-linejoin:miter;stroke-opacity:1"/><path id="path4904" d="m -22.913584,19.187531 -34.37038,19.84375 34.37038,19.843749 34.37038,-19.843749 z" style="fill:#0a0;stroke:none;stroke-width:.26458332px;stroke-linecap:butt;stroke-linejoin:miter;stroke-opacity:1"/><path id="path4906" d="m -57.283964,39.031281 v 13.229166 l 34.37038,19.84375 V 58.87503 Z" style="fill:#0f0;stroke:none;stroke-width:.26458332px;stroke-linecap:butt;stroke-linejoin:miter;stroke-opacity:1"/><path id="path4908" d="m 11.456796,39.031281 v 13.229166 l -34.37038,19.84375 V 58.87503 Z" style="fill:green;stroke:none;stroke-width:.26458332px;stroke-linecap:butt;stroke-linejoin:miter;stroke-opacity:1"/></g></g><g id="g4789" style="stroke:none"><path id="path4776" d="m -263.50626,78.71878 -22.91359,13.229167 22.91359,13.229163 22.91359,-13.229163 z" style="fill:#c87137;stroke:none;stroke-width:.26458332px;stroke-linecap:butt;stroke-linejoin:miter;stroke-opacity:1"/><path id="path4778" d="m -286.41985,91.947947 -45.82717,119.062503 68.74076,39.68749 V 105.17711 Z" style="fill:#a05a2c;stroke:none;stroke-width:.26458332px;stroke-linecap:butt;stroke-linejoin:miter;stroke-opacity:1"/><path id="path4780" d="m -240.59267,91.947947 45.82718,119.062503 -68.74077,39.68749 V 105.17711 l 22.91359,-13.229163" style="fill:#d45500;stroke:none;stroke-width:.26458332px;stroke-linecap:butt;stroke-linejoin:miter;stroke-opacity:1"/></g><g style="stroke:none" id="g4854" transform="translate(22.913588,-145.52083)"><g style="stroke:none" id="g4816" transform="translate(-45.827179,13.229168)"><path id="path4806" d="M -22.913584,58.87503 V 85.333363 L -11.456782,78.71878 V 52.260447 Z" style="fill:#c87137;stroke:none;stroke-width:.26458332px;stroke-linecap:butt;stroke-linejoin:miter;stroke-opacity:1"/><path id="path4808" d="M -34.370386,52.260447 V 78.71878 l 11.456802,6.614583 V 58.87503 l -11.456802,-6.614583" style="fill:#a40;stroke:none;stroke-width:.26458332px;stroke-linecap:butt;stroke-linejoin:miter;stroke-opacity:1"/><path id="path4810" d="m -22.913584,19.187531 -34.37038,19.84375 34.37038,19.843749 34.37038,-19.843749 z" style="fill:#0a0;stroke:none;stroke-width:.26458332px;stroke-linecap:butt;stroke-linejoin:miter;stroke-opacity:1"/><path id="path4812" d="m -57.283964,39.031281 v 13.229166 l 34.37038,19.84375 V 58.87503 Z" style="fill:#0f0;stroke:none;stroke-width:.26458332px;stroke-linecap:butt;stroke-linejoin:miter;stroke-opacity:1"/><path id="path4814" d="m 11.456796,39.031281 v 13.229166 l -34.37038,19.84375 V 58.87503 Z" style="fill:green;stroke:none;stroke-width:.26458332px;stroke-linecap:butt;stroke-linejoin:miter;stroke-opacity:1"/></g><g style="stroke:none" id="g4828" transform="matrix(0.50000001,0,0,0.50000001,-85.925953,59.203141)"><path style="fill:#c87137;stroke:none;stroke-width:.26458332px;stroke-linecap:butt;stroke-linejoin:miter;stroke-opacity:1" id="path4818" d="M -22.913584,58.87503 V 85.333363 L -11.456782,78.71878 V 52.260447 Z"/><path style="fill:#a40;stroke:none;stroke-width:.26458332px;stroke-linecap:butt;stroke-linejoin:miter;stroke-opacity:1" id="path4820" d="M -34.370386,52.260447 V 78.71878 l 11.456802,6.614583 V 58.87503 l -11.456802,-6.614583"/><path style="fill:#0a0;stroke:none;stroke-width:.26458332px;stroke-linecap:butt;stroke-linejoin:miter;stroke-opacity:1" id="path4822" d="m -22.913584,19.187531 -34.37038,19.84375 34.37038,19.843749 34.37038,-19.843749 z"/><path style="fill:#0f0;stroke:none;stroke-width:.26458332px;stroke-linecap:butt;stroke-linejoin:miter;stroke-opacity:1" id="path4824" d="m -57.283964,39.031281 v 13.229166 l 34.37038,19.84375 V 58.87503 Z"/><path style="fill:green;stroke:none;stroke-width:.26458332px;stroke-linecap:butt;stroke-linejoin:miter;stroke-opacity:1" id="path4826" d="m 11.456796,39.031281 v 13.229166 l -34.37038,19.84375 V 58.87503 Z"/></g><g style="stroke:none" id="g4840" transform="matrix(0.53846154,0,0,0.53846154,-51.114925,77.036874)"><path style="fill:#c87137;stroke:none;stroke-width:.26458332px;stroke-linecap:butt;stroke-linejoin:miter;stroke-opacity:1" id="path4830" d="M -22.913584,58.87503 V 85.333363 L -11.456782,78.71878 V 52.260447 Z"/><path style="fill:#a40;stroke:none;stroke-width:.26458332px;stroke-linecap:butt;stroke-linejoin:miter;stroke-opacity:1" id="path4832" d="M -34.370386,52.260447 V 78.71878 l 11.456802,6.614583 V 58.87503 l -11.456802,-6.614583"/><path style="fill:#0a0;stroke:none;stroke-width:.26458332px;stroke-linecap:butt;stroke-linejoin:miter;stroke-opacity:1" id="path4834" d="m -22.913584,19.187531 -34.37038,19.84375 34.37038,19.843749 34.37038,-19.843749 z"/><path style="fill:#0f0;stroke:none;stroke-width:.26458332px;stroke-linecap:butt;stroke-linejoin:miter;stroke-opacity:1" id="path4836" d="m -57.283964,39.031281 v 13.229166 l 34.37038,19.84375 V 58.87503 Z"/><path style="fill:green;stroke:none;stroke-width:.26458332px;stroke-linecap:butt;stroke-linejoin:miter;stroke-opacity:1" id="path4838" d="m 11.456796,39.031281 v 13.229166 l -34.37038,19.84375 V 58.87503 Z"/></g><g style="stroke:none" id="g4852" transform="matrix(0.66666657,0,0,0.66666657,-7.6378581,46.08335)"><path id="path4842" d="M -22.913584,58.87503 V 85.333363 L -11.456782,78.71878 V 52.260447 Z" style="fill:#c87137;stroke:none;stroke-width:.26458332px;stroke-linecap:butt;stroke-linejoin:miter;stroke-opacity:1"/><path id="path4844" d="M -34.370386,52.260447 V 78.71878 l 11.456802,6.614583 V 58.87503 l -11.456802,-6.614583" style="fill:#a40;stroke:none;stroke-width:.26458332px;stroke-linecap:butt;stroke-linejoin:miter;stroke-opacity:1"/><path id="path4846" d="m -22.913584,19.187531 -34.37038,19.84375 34.37038,19.843749 34.37038,-19.843749 z" style="fill:#0a0;stroke:none;stroke-width:.26458332px;stroke-linecap:butt;stroke-linejoin:miter;stroke-opacity:1"/><path id="path4848" d="m -57.283964,39.031281 v 13.229166 l 34.37038,19.84375 V 58.87503 Z" style="fill:#0f0;stroke:none;stroke-width:.26458332px;stroke-linecap:butt;stroke-linejoin:miter;stroke-opacity:1"/><path id="path4850" d="m 11.456796,39.031281 v 13.229166 l -34.37038,19.84375 V 58.87503 Z" style="fill:green;stroke:none;stroke-width:.26458332px;stroke-linecap:butt;stroke-linejoin:miter;stroke-opacity:1"/></g></g><g id="g4929" transform="translate(91.654362,-26.458332)"><path id="path4858" d="m 11.456796,65.489614 v -79.374999 l 34.37038,-19.84375 v 79.374999 l -34.37038,19.84375" style="fill:#917c6f;stroke:#000;stroke-width:.26458332px;stroke-linecap:butt;stroke-linejoin:miter;stroke-opacity:1"/><path id="path4860" d="m 11.456796,-13.885385 -34.37038,-19.84375 34.37038,-19.84375 34.37038,19.84375 -34.37038,19.84375" style="fill:#241c1c;stroke:#000;stroke-width:.26458332px;stroke-linecap:butt;stroke-linejoin:miter;stroke-opacity:1"/><path id="path4862" d="m -22.913584,-33.729135 v 79.374999 l 34.37038,19.84375 v -79.374999 z" style="fill:#999;stroke:#000;stroke-width:.26458332px;stroke-linecap:butt;stroke-linejoin:miter;stroke-opacity:1"/><path id="path4914" d="m -22.913584,-20.499969 34.37038,19.84375021 34.37038,-19.84375021 v 13.229167 l -34.37038,19.84375 -34.37038,-19.84375 v -13.229167" style="fill:#afe;stroke:#000;stroke-width:.26458332px;stroke-linecap:butt;stroke-linejoin:miter;stroke-opacity:1"/><path id="path4916" d="M -11.456782,12.572948 V 39.031281 L -22.913584,32.416697 V 5.9583645 Z" style="fill:#afe;stroke:#000;stroke-width:.26458332px;stroke-linecap:butt;stroke-linejoin:miter;stroke-opacity:1"/><path id="path4918" d="M 22.913598,-33.729135 V -60.187471" style="fill:none;stroke:#6f0;stroke-width:2.64583325;stroke-linecap:round;stroke-linejoin:round;stroke-miterlimit:4;stroke-dasharray:none;stroke-opacity:1"/><path style="fill:none;stroke:#6f0;stroke-width:3.74177313;stroke-linecap:round;stroke-linejoin:round;stroke-miterlimit:4;stroke-dasharray:none;stroke-opacity:1" id="path4920" d="M 11.456804,-27.114551 V -80.031217"/></g><path style="opacity:.85799997;fill:#333;stroke:#000;stroke-width:.13423283px;stroke-linecap:butt;stroke-linejoin:miter;stroke-opacity:1;filter:url(#filter5141)" id="path5137" d="m -244.2324,84.40223 23.65838,-7.354841 67.33549,-38.876158 120.11216,-25.216958 -96.45358,-55.687477 -43.67724,69.346661 -67.33548,38.876157 -12.73915,13.659195 9.09939,5.253532"/><g id="g5229" transform="matrix(1.5654991,0,0,1.5654991,-70.673124,72.077935)"><path style="fill:#666;stroke:#666;stroke-width:1.32291663;stroke-linecap:round;stroke-linejoin:round;stroke-miterlimit:4;stroke-dasharray:none;stroke-opacity:1" id="path5175" d="m 51.80744,-506.80419 -229.13595,132.29167"/><path style="fill:#4d4d4d;stroke:none;stroke-width:.3170473px;stroke-linecap:butt;stroke-linejoin:miter;stroke-opacity:1" id="path5177" d="m 58.517006,-511.03747 -15.275729,-1.42468 v 14.2468 l 9.165444,4.27404 6.110285,-17.09616"/><path style="fill:#4d4d4d;stroke:none;stroke-width:.26458332px;stroke-linecap:butt;stroke-linejoin:miter;stroke-opacity:1" id="path5179" d="m -148.93832,-397.53121 -6.87407,-3.96875 13.74815,-7.9375 v 7.9375 z"/><path style="fill:gray;stroke:none;stroke-width:.26458332px;stroke-linecap:butt;stroke-linejoin:miter;stroke-opacity:1" id="path5181" d="m -144.3556,-408.11454 -27.49631,23.8125 11.4568,6.61458 18.33087,-29.10417 -2.29136,-1.32291 -11.45679,6.61458 -16.03951,17.19791 27.4963,-23.81249"/><path style="fill:gray;stroke:none;stroke-width:.26458332px;stroke-linecap:butt;stroke-linejoin:miter;stroke-opacity:1" id="path5183" d="m 50.409891,-499.39579 54.992609,31.75 -151.229667,31.74999 z"/><path style="fill:#1a1a1a;stroke:none;stroke-width:.26458332px;stroke-linecap:butt;stroke-linejoin:miter;stroke-opacity:1" id="path5185" d="m 32.079034,-509.97913 -48.118532,-27.78125 -54.992616,87.3125 z"/><path style="fill:#4d4d4d;stroke:none;stroke-width:.26458332px;stroke-linecap:butt;stroke-linejoin:miter;stroke-opacity:1" id="path5187" d="m -22.913584,-449.12496 -107.693866,62.17708 -6.87407,-3.96875 96.237074,-55.5625 z"/><path style="fill:#999;stroke:none;stroke-width:.99999994px;stroke-linecap:butt;stroke-linejoin:miter;stroke-opacity:1" id="path5189" d="m 1516.25,-744.42383 -710.14062,410 -69.28126,110 112.58399,-35 710.14059,-410 z" transform="matrix(0.26458333,0,0,0.26458333,-355.34751,-318.3088)"/><path style="fill:gray;stroke:none;stroke-width:.26458332px;stroke-linecap:butt;stroke-linejoin:miter;stroke-opacity:1" id="path5191" d="m -144.3556,-408.11454 2.29136,1.32291 187.891416,-108.47916 -2.291345,-1.32292 z"/><path style="fill:#ccc;stroke:none;stroke-width:.26458332px;stroke-linecap:butt;stroke-linejoin:miter;stroke-opacity:1" id="path5193" d="m -144.3556,-408.11454 -27.49631,23.8125 16.03952,-17.19792 z"/><path style="fill:#d5fff6;stroke:none;stroke-width:.99999994px;stroke-linecap:butt;stroke-linejoin:miter;stroke-opacity:1" id="path5195" d="m 774.35547,-319.42383 -20.20703,17.5 v 7.5 l 25.98047,15 43.30078,-25 -8.66016,-15 -25.98047,15 -17.32031,-10 z" transform="matrix(0.26458333,0,0,0.26458333,-355.34751,-318.3088)"/><path style="fill:#f0f;stroke:none;stroke-width:.99999994px;stroke-linecap:butt;stroke-linejoin:miter;stroke-opacity:1" id="path5197" d="m 1542.2324,-699.42383 -795.50779,459.28516 -9.89649,15.71484 805.40428,-465 4.3301,-2.5 z" transform="matrix(0.26458333,0,0,0.26458333,-355.34751,-318.3088)"/><path style="fill:none;stroke:#000;stroke-width:.26458332px;stroke-linecap:butt;stroke-linejoin:miter;stroke-opacity:1" id="path5199" d="M 6.8740802,-445.15621 Z"/><g id="g5213" transform="translate(11.340383,3.9189074)"><path id="path5201" d="m 82.488927,-491.45829 -6.874087,1.32291 2.291371,3.96875 z" style="fill:red;stroke:none;stroke-width:.26458332px;stroke-linecap:butt;stroke-linejoin:miter;stroke-opacity:1"/><path id="path5203" d="m 1628.834,-659.42383 -259.8067,150 v 30 l 8.6602,5 259.8066,-150 c 0,0 8.6597,-5.00001 8.7774,-15 0.1217,-10.3471 -8.7774,-15 -8.7774,-15 z" transform="matrix(0.26458333,0,0,0.26458333,-355.34751,-318.3088)" style="fill:#999;stroke:none;stroke-width:.99999994px;stroke-linecap:butt;stroke-linejoin:miter;stroke-opacity:1"/><path id="path5205" d="m 6.8740802,-453.09371 68.7407598,-39.6875 2.291371,1.32292 -68.7407598,39.6875 z" style="fill:#1a1a1a;stroke:none;stroke-width:.26458332px;stroke-linecap:butt;stroke-linejoin:miter;stroke-opacity:1"/><path id="path5207" d="m 86.54248,-516.32914 -6.874077,22.48959 -41.24446,23.8125 6.874077,-22.48958 z" style="fill:#4d4d4d;stroke:none;stroke-width:.26458332px;stroke-linecap:butt;stroke-linejoin:miter;stroke-opacity:1"/><path id="path5209" d="m 1369.0265,-509.4233 8.661,4.99947 c 0,0 8.6587,5.00057 9.0898,14.74805 0.2971,6.71504 -6.3003,12.97292 -9.0905,15.25248 z m 8.6603,35 7e-4,-5.3e-4 c 0,0 -1.4702,1.20108 -7e-4,5.3e-4 z m 0,0 -8.6595,-35.00053 c 0,0 -8.219,4.99237 -8.3339,10.20313 -0.3265,14.79821 8.3339,19.79687 8.3339,19.79687 z" transform="matrix(0.26458333,0,0,0.26458333,-355.34751,-318.3088)" style="fill:#1a1a1a;stroke:none;stroke-width:.99999994px;stroke-linecap:butt;stroke-linejoin:miter;stroke-opacity:1"/><path id="path5211" d="m 6.8740866,-450.44788 -9.1654375,7.9375 11.4567963,-3.96875 v -2.64583" style="fill:#ccc;stroke:none;stroke-width:.26458332px;stroke-linecap:butt;stroke-linejoin:miter;stroke-opacity:1"/></g><g id="g5227" transform="translate(-65.920239,-39.952078)"><path style="fill:red;stroke:none;stroke-width:.26458332px;stroke-linecap:butt;stroke-linejoin:miter;stroke-opacity:1" id="path5215" d="m 82.488927,-491.45829 -6.874087,1.32291 2.291371,3.96875 z"/><path style="fill:#999;stroke:none;stroke-width:.99999994px;stroke-linecap:butt;stroke-linejoin:miter;stroke-opacity:1" id="path5217" d="m 1628.834,-659.42383 -259.8067,150 v 30 l 8.6602,5 259.8066,-150 c 0,0 8.6597,-5.00001 8.7774,-15 0.1217,-10.3471 -8.7774,-15 -8.7774,-15 z" transform="matrix(0.26458333,0,0,0.26458333,-355.34751,-318.3088)"/><path style="fill:#1a1a1a;stroke:none;stroke-width:.26458332px;stroke-linecap:butt;stroke-linejoin:miter;stroke-opacity:1" id="path5219" d="m 6.8740802,-453.09371 68.7407598,-39.6875 2.291371,1.32292 -68.7407598,39.6875 z"/><path style="fill:#4d4d4d;stroke:none;stroke-width:.26458332px;stroke-linecap:butt;stroke-linejoin:miter;stroke-opacity:1" id="path5221" d="m 86.54248,-516.32914 -6.874077,22.48959 -41.24446,23.8125 6.874077,-22.48958 z"/><path style="fill:#1a1a1a;stroke:none;stroke-width:.99999994px;stroke-linecap:butt;stroke-linejoin:miter;stroke-opacity:1" id="path5223" d="m 1369.0265,-509.4233 8.661,4.99947 c 0,0 8.6587,5.00057 9.0898,14.74805 0.2971,6.71504 -6.3003,12.97292 -9.0905,15.25248 z m 8.6603,35 7e-4,-5.3e-4 c 0,0 -1.4702,1.20108 -7e-4,5.3e-4 z m 0,0 -8.6595,-35.00053 c 0,0 -8.219,4.99237 -8.3339,10.20313 -0.3265,14.79821 8.3339,19.79687 8.3339,19.79687 z" transform="matrix(0.26458333,0,0,0.26458333,-355.34751,-318.3088)"/><path style="fill:#ccc;stroke:none;stroke-width:.26458332px;stroke-linecap:butt;stroke-linejoin:miter;stroke-opacity:1" id="path5225" d="m 6.8740866,-450.44788 -9.1654375,7.9375 11.4567963,-3.96875 v -2.64583"/></g></g></g></svg>