<svg xmlns="http://www.w3.org/2000/svg" viewBox="0 0 619 1155"><defs><filter id="a" color-interpolation-filters="sRGB"><feGaussianBlur result="fbSourceGraphic" stdDeviation="2.5 2"/><feColorMatrix in="fbSourceGraphic" result="fbSourceGraphicAlpha" values="0 0 0 -1 0 0 0 0 -1 0 0 0 0 -1 0 0 0 0 1 0"/><feGaussianBlur in="fbSourceGraphic" result="fbSourceGraphic" stdDeviation="10 10"/><feColorMatrix in="fbSourceGraphic" result="fbSourceGraphicAlpha" values="0 0 0 -1 0 0 0 0 -1 0 0 0 0 -1 0 0 0 0 1 0"/><feGaussianBlur in="fbSourceGraphic" result="blur" stdDeviation="10 10"/></filter></defs><path fill="#c87137" d="M0 1116l619-358v40L0 1155"/><path fill="#deaa87" d="M0 877l619-357v238L0 1116z"/><path fill="#666" d="M619 613L0 970v27l619-358v-26"/><path fill="none" stroke="#fc0" stroke-dasharray="16 16" stroke-width="1.3" d="M0 983l619-357"/><path fill="#999" stroke="#000" stroke-width=".3" d="M23 1010l69 39 69-39-69-40z"/><path fill="#e3dbdb" stroke="#000" stroke-width=".3" d="M172 990l46-27-46-26-46 26z"/><path fill="#c87137" d="M287 871v26l11-6v-27z"/><path fill="#a40" d="M275 864v27l12 6v-26l-12-7"/><path fill="#0a0" d="M287 831l-35 20 35 20 34-20z"/><path fill="#0f0" d="M252 851v13l35 20v-13z"/><path fill="green" d="M321 851v13l-34 20v-13z"/><path fill="#c87137" d="M258 887v14l6-4v-13z"/><path fill="#a40" d="M252 884v13l6 4v-14l-6-3"/><path fill="#0a0" d="M258 868l-17 9 17 10 17-10z"/><path fill="#0f0" d="M241 877v7l17 10v-7z"/><path fill="green" d="M275 877v7l-17 10v-7z"/><g><path fill="#c87137" d="M292 908v14l6-4v-14z"/><path fill="#a40" d="M286 904v14l6 4v-14l-6-4"/><path fill="#0a0" d="M292 886l-18 11 18 11 19-11z"/><path fill="#0f0" d="M274 897v7l18 11v-7z"/><path fill="green" d="M311 897v7l-19 11v-7z"/></g><g><path fill="#c87137" d="M333 884v18l7-5v-17z"/><path fill="#a40" d="M325 880v17l8 5v-18l-8-4"/><path fill="#0a0" d="M333 858l-23 13 23 13 22-13z"/><path fill="#0f0" d="M310 871v9l23 13v-9z"/><path fill="green" d="M355 871v9l-22 13v-9z"/></g><g><path fill="#c8b7b7" d="M413 639V481l69 39v159l-58 33V553l58-33"/><path fill="#916f6f" d="M413 481l-58 33 69 39 58-33-69-39"/><path fill="gray" d="M355 514v158l69 40V553z"/><path fill="#afe9dd" d="M367 534v26l46 26v-26l-46-26M367 613v26l46 27v-27l-46-26M367 573v27l46 26v-26l-46-27M367 653v26l46 27v-27l-46-26"/><path fill="#afe" d="M436 560v13l11-6v-14zM436 679v13l11-6v-14zM459 547v13l11-7v-13zM459 666v13l11-7v-13zM436 639v14l11-7v-13zM459 586v14l11-7v-13z"/></g><g><path fill="#b3b3b3" d="M172 911l-46 52 46 27z"/><path fill="gray" d="M172 911l46 52-46 27v-79"/></g><g><path fill="#c87137" d="M69 851v26l12-6v-27z"/><path fill="#a40" d="M58 844v27l11 6v-26l-11-7"/><path fill="#0a0" d="M69 811l-34 20 34 20 34-20z"/><path fill="#0f0" d="M35 831v13l34 20v-13z"/><path fill="green" d="M103 831v13l-34 20v-13z"/><g><path fill="#c87137" d="M40 868v13l6-4v-13z"/><path fill="#a40" d="M35 864v13l5 4v-13l-5-4"/><path fill="#0a0" d="M40 848l-17 10 17 10 18-10z"/><path fill="#0f0" d="M23 858v6l17 10v-6z"/><path fill="green" d="M58 858v6l-18 10v-6z"/></g><g><path fill="#c87137" d="M74 888v14l7-4v-14z"/><path fill="#a40" d="M68 884v14l6 4v-14l-6-4"/><path fill="#0a0" d="M74 866l-18 11 18 11 19-11z"/><path fill="#0f0" d="M56 877v7l18 11v-7z"/><path fill="green" d="M93 877v7l-19 11v-7z"/></g><g><path fill="#c87137" d="M115 864v18l8-5v-17z"/><path fill="#a40" d="M107 860v17l8 5v-18l-8-4"/><path fill="#0a0" d="M115 838l-23 13 23 13 23-13z"/><path fill="#0f0" d="M92 851v9l23 13v-9z"/><path fill="green" d="M138 851v9l-23 13v-9z"/></g></g><g><path fill="#c87137" d="M92 877l-23 14 23 13 23-13z"/><path fill="#a05a2c" d="M69 891l-46 119 69 39V904z"/><path fill="#d45500" d="M115 891l46 119-69 39V904l23-13"/></g><g><path fill="#c87137" d="M310 725v27l11-7v-26z"/><path fill="#a40" d="M298 719v26l12 7v-27l-12-6"/><path fill="#0a0" d="M310 686l-35 20 35 19 34-19z"/><path fill="#0f0" d="M275 706v13l35 20v-14z"/><path fill="green" d="M344 706v13l-34 20v-14z"/><g><path fill="#c87137" d="M281 742v13l6-3v-13z"/><path fill="#a40" d="M275 739v13l6 3v-13l-6-3"/><path fill="#0a0" d="M281 722l-17 10 17 10 17-10z"/><path fill="#0f0" d="M264 732v7l17 10v-7z"/><path fill="green" d="M298 732v7l-17 10v-7z"/></g><g><path fill="#c87137" d="M315 762v14l6-3v-15z"/><path fill="#a40" d="M309 758v15l6 3v-14l-6-4"/><path fill="#0a0" d="M315 741l-19 10 19 11 18-11z"/><path fill="#0f0" d="M296 751v7l19 11v-7z"/><path fill="green" d="M333 751v7l-18 11v-7z"/></g><g><path fill="#c87137" d="M355 739v17l8-4v-18z"/><path fill="#a40" d="M348 734v18l7 4v-17l-7-5"/><path fill="#0a0" d="M355 712l-22 13 22 14 23-14z"/><path fill="#0f0" d="M333 725v9l22 13v-8z"/><path fill="green" d="M378 725v9l-23 13v-8z"/></g></g><g><path fill="#917c6f" stroke="#000" stroke-width=".3" d="M459 838v-80l34-19v79l-34 20"/><path fill="#241c1c" stroke="#000" stroke-width=".3" d="M459 758l-35-19 35-20 34 20-34 19"/><path fill="#999" stroke="#000" stroke-width=".3" d="M424 739v79l35 20v-80z"/><path fill="#afe" stroke="#000" stroke-width=".3" d="M424 752l35 20 34-20v13l-34 20-35-20v-13M436 785v26l-12-6v-27z"/><path fill="none" stroke="#6f0" stroke-linecap="round" stroke-linejoin="round" stroke-width="2.6" d="M470 739v-27"/><path fill="none" stroke="#6f0" stroke-linecap="round" stroke-linejoin="round" stroke-width="3.7" d="M459 745v-53"/></g><path fill="#333" stroke="#000" stroke-width=".1" d="M-244 84l23-7 68-39 120-25-97-56-43 70-68 38-12 14 9 5" filter="url(#a)" opacity=".9" transform="translate(355 799)"/><g><path fill="#666" stroke="#666" stroke-linecap="round" stroke-linejoin="round" stroke-width="2.035" d="M366 77L7 285"/><path fill="#4d4d4d" d="M376 71l-23-2v22l14 7 9-27M52 249l-11-7 21-12v12z"/><path fill="gray" d="M59 232l-43 37 18 11 28-46-3-2-18 10-25 27 43-37M364 89l86 50-237 49z"/><path fill="#1a1a1a" d="M335 72l-75-43-86 137z"/><path fill="#4d4d4d" d="M249 168L80 265l-10-6 150-87z"/><path fill="#999" d="M357 64L62 234l-28 46 46-15L374 95z"/><path fill="gray" d="M59 232l3 2L357 64l-4-2z"/><path fill="#ccc" d="M59 232l-43 37 25-27z"/><path fill="#d5fff6" d="M49 240l-8 7v4l11 6 18-11-4-6-11 6-7-4z"/><path fill="#f0f" d="M367 83L38 273l-4 7L367 87l2-1z"/><path fill="red" d="M432 108l-11 2 4 6z"/><path fill="#999" d="M421 106l-108 62v12l4 2 108-62s3-2 3-6-3-6-3-6z"/><path fill="#1a1a1a" d="M313 168l108-62 4 2-108 62z"/><path fill="#4d4d4d" d="M438 69l-11 35-64 37 10-35z"/><path fill="#1a1a1a" d="M313 168l4 2s4 2 4 6c0 3-3 5-4 6zm4 14s-1 1 0 0zm0 0l-4-14s-3 2-3 4c0 6 3 8 3 8z"/><path fill="#ccc" d="M313 172l-14 12 18-6v-4"/><g><path fill="red" d="M311 39l-11 2 4 6z"/><path fill="#999" d="M300 37L192 99v12l4 2 108-62s3-2 3-6-3-6-3-6z"/><path fill="#1a1a1a" d="M192 99l108-62 4 2-108 62z"/><path fill="#4d4d4d" d="M317 0l-11 35-64 37 11-35z"/><path fill="#1a1a1a" d="M192 99l4 2s4 2 4 6c0 3-3 6-4 6zm4 14s-1 1 0 0zm0 0l-4-14s-3 2-3 4c0 6 3 8 3 8z"/><path fill="#ccc" d="M192 103l-14 13 18-7v-4"/></g></g></svg>