<svg xmlns="http://www.w3.org/2000/svg" xmlns:svg="http://www.w3.org/2000/svg" id="svg8" width="2339.475" height="2551.009" version="1.1" viewBox="0 0 618.986 674.955"><metadata id="metadata5"/><g id="layer1" transform="translate(355.34751,318.3088)"><path style="fill:#c87137;stroke:none;stroke-width:.26458332px;stroke-linecap:butt;stroke-linejoin:miter;stroke-opacity:1" id="path4552" d="M -355.16065,316.84373 263.50627,-40.343746 V -0.65624625 L -355.16065,356.53123"/><path style="fill:#deaa87;stroke:none;stroke-width:.26458332px;stroke-linecap:butt;stroke-linejoin:miter;stroke-opacity:1" id="path4554" d="m -355.16063,78.718753 618.66687,-357.187513 3e-5,238.125014 -618.66692,357.187476 z"/><path style="fill:#666;stroke:none;stroke-width:.26458332px;stroke-linecap:butt;stroke-linejoin:miter;stroke-opacity:1" id="path4649" d="m 263.50626,-185.86455 -618.66687,357.1875 v 26.45833 l 618.66687,-357.1875 v -26.45833"/><path style="fill:none;stroke:#fc0;stroke-width:1.32291667;stroke-linecap:butt;stroke-linejoin:miter;stroke-opacity:1;stroke-miterlimit:4;stroke-dasharray:15.875,15.875;stroke-dashoffset:0" id="path4651" d="M -355.16061,184.55211 263.50626,-172.63538"/><path style="fill:#999;stroke:#000;stroke-width:.26458332px;stroke-linecap:butt;stroke-linejoin:miter;stroke-opacity:1" id="path4659" d="m -332.24702,211.01045 68.74076,39.68749 68.74077,-39.68749 -68.74077,-39.6875 z"/><path style="fill:#e3dbdb;stroke:#000;stroke-width:.26458332px;stroke-linecap:butt;stroke-linejoin:miter;stroke-opacity:1" id="path4661" d="m -183.3087,191.1667 45.82718,-26.45834 -45.82718,-26.45833 -45.82718,26.45833 z"/><g id="g4746" style="stroke:none"><g id="g4684" transform="translate(-45.827179,13.229168)" style="stroke:none"><path style="fill:#c87137;stroke:none;stroke-width:.26458332px;stroke-linecap:butt;stroke-linejoin:miter;stroke-opacity:1" id="path4667" d="M -22.913584,58.87503 V 85.333363 L -11.456782,78.71878 V 52.260447 Z"/><path style="fill:#a40;stroke:none;stroke-width:.26458332px;stroke-linecap:butt;stroke-linejoin:miter;stroke-opacity:1" id="path4669" d="M -34.370386,52.260447 V 78.71878 l 11.456802,6.614583 V 58.87503 l -11.456802,-6.614583"/><path style="fill:#0a0;stroke:none;stroke-width:.26458332px;stroke-linecap:butt;stroke-linejoin:miter;stroke-opacity:1" id="path4673" d="m -22.913584,19.187531 -34.37038,19.84375 34.37038,19.843749 34.37038,-19.843749 z"/><path style="fill:#0f0;stroke:none;stroke-width:.26458332px;stroke-linecap:butt;stroke-linejoin:miter;stroke-opacity:1" id="path4675" d="m -57.283964,39.031281 v 13.229166 l 34.37038,19.84375 V 58.87503 Z"/><path style="fill:green;stroke:none;stroke-width:.26458332px;stroke-linecap:butt;stroke-linejoin:miter;stroke-opacity:1" id="path4677" d="m 11.456796,39.031281 v 13.229166 l -34.37038,19.84375 V 58.87503 Z"/></g><g id="g4720" transform="matrix(0.50000001,0,0,0.50000001,-85.925953,59.203141)" style="stroke:none"><path id="path4710" d="M -22.913584,58.87503 V 85.333363 L -11.456782,78.71878 V 52.260447 Z" style="fill:#c87137;stroke:none;stroke-width:.26458332px;stroke-linecap:butt;stroke-linejoin:miter;stroke-opacity:1"/><path id="path4712" d="M -34.370386,52.260447 V 78.71878 l 11.456802,6.614583 V 58.87503 l -11.456802,-6.614583" style="fill:#a40;stroke:none;stroke-width:.26458332px;stroke-linecap:butt;stroke-linejoin:miter;stroke-opacity:1"/><path id="path4714" d="m -22.913584,19.187531 -34.37038,19.84375 34.37038,19.843749 34.37038,-19.843749 z" style="fill:#0a0;stroke:none;stroke-width:.26458332px;stroke-linecap:butt;stroke-linejoin:miter;stroke-opacity:1"/><path id="path4716" d="m -57.283964,39.031281 v 13.229166 l 34.37038,19.84375 V 58.87503 Z" style="fill:#0f0;stroke:none;stroke-width:.26458332px;stroke-linecap:butt;stroke-linejoin:miter;stroke-opacity:1"/><path id="path4718" d="m 11.456796,39.031281 v 13.229166 l -34.37038,19.84375 V 58.87503 Z" style="fill:green;stroke:none;stroke-width:.26458332px;stroke-linecap:butt;stroke-linejoin:miter;stroke-opacity:1"/></g><g id="g4696" transform="matrix(0.53846154,0,0,0.53846154,-51.114925,77.036874)" style="stroke:none"><path id="path4686" d="M -22.913584,58.87503 V 85.333363 L -11.456782,78.71878 V 52.260447 Z" style="fill:#c87137;stroke:none;stroke-width:.26458332px;stroke-linecap:butt;stroke-linejoin:miter;stroke-opacity:1"/><path id="path4688" d="M -34.370386,52.260447 V 78.71878 l 11.456802,6.614583 V 58.87503 l -11.456802,-6.614583" style="fill:#a40;stroke:none;stroke-width:.26458332px;stroke-linecap:butt;stroke-linejoin:miter;stroke-opacity:1"/><path id="path4690" d="m -22.913584,19.187531 -34.37038,19.84375 34.37038,19.843749 34.37038,-19.843749 z" style="fill:#0a0;stroke:none;stroke-width:.26458332px;stroke-linecap:butt;stroke-linejoin:miter;stroke-opacity:1"/><path id="path4692" d="m -57.283964,39.031281 v 13.229166 l 34.37038,19.84375 V 58.87503 Z" style="fill:#0f0;stroke:none;stroke-width:.26458332px;stroke-linecap:butt;stroke-linejoin:miter;stroke-opacity:1"/><path id="path4694" d="m 11.456796,39.031281 v 13.229166 l -34.37038,19.84375 V 58.87503 Z" style="fill:green;stroke:none;stroke-width:.26458332px;stroke-linecap:butt;stroke-linejoin:miter;stroke-opacity:1"/></g><g id="g4708" transform="matrix(0.66666657,0,0,0.66666657,-7.6378581,46.08335)" style="stroke:none"><path style="fill:#c87137;stroke:none;stroke-width:.26458332px;stroke-linecap:butt;stroke-linejoin:miter;stroke-opacity:1" id="path4698" d="M -22.913584,58.87503 V 85.333363 L -11.456782,78.71878 V 52.260447 Z"/><path style="fill:#a40;stroke:none;stroke-width:.26458332px;stroke-linecap:butt;stroke-linejoin:miter;stroke-opacity:1" id="path4700" d="M -34.370386,52.260447 V 78.71878 l 11.456802,6.614583 V 58.87503 l -11.456802,-6.614583"/><path style="fill:#0a0;stroke:none;stroke-width:.26458332px;stroke-linecap:butt;stroke-linejoin:miter;stroke-opacity:1" id="path4702" d="m -22.913584,19.187531 -34.37038,19.84375 34.37038,19.843749 34.37038,-19.843749 z"/><path style="fill:#0f0;stroke:none;stroke-width:.26458332px;stroke-linecap:butt;stroke-linejoin:miter;stroke-opacity:1" id="path4704" d="m -57.283964,39.031281 v 13.229166 l 34.37038,19.84375 V 58.87503 Z"/><path style="fill:green;stroke:none;stroke-width:.26458332px;stroke-linecap:butt;stroke-linejoin:miter;stroke-opacity:1" id="path4706" d="m 11.456796,39.031281 v 13.229166 l -34.37038,19.84375 V 58.87503 Z"/></g></g><g id="g4804" transform="translate(-1.6609332e-6,-1.6905835e-6)" style="stroke:none"><path id="path4653" d="m 57.283978,-159.40622 v -158.74999 l 68.740762,39.68749 v 158.75 L 68.74078,-86.645804 V -245.3958 l 57.28396,-33.07292" style="fill:#c8b7b7;stroke:none;stroke-width:.26458332px;stroke-linecap:butt;stroke-linejoin:miter;stroke-opacity:1"/><path id="path4655" d="M 57.283978,-318.15621 -6.351819e-6,-285.0833 68.74078,-245.3958 l 57.28396,-33.07292 -68.740762,-39.68749" style="fill:#916f6f;stroke:none;stroke-width:.26458332px;stroke-linecap:butt;stroke-linejoin:miter;stroke-opacity:1"/><path id="path4657" d="m -6.351819e-6,-285.0833 v 158.75 L 68.74078,-86.645804 V -245.3958 Z" style="fill:gray;stroke:none;stroke-width:.26458332px;stroke-linecap:butt;stroke-linejoin:miter;stroke-opacity:1"/><path id="path4748" d="m 11.456799,-265.23954 v 26.45833 l 45.827182,26.45834 v -26.45834 l -45.827182,-26.45833" style="fill:#afe9dd;stroke:none;stroke-width:.26458332px;stroke-linecap:butt;stroke-linejoin:miter;stroke-opacity:1"/><path style="fill:#afe9dd;stroke:none;stroke-width:.26458332px;stroke-linecap:butt;stroke-linejoin:miter;stroke-opacity:1" id="path4750" d="m 11.456799,-185.86455 v 26.45833 l 45.827182,26.45834 v -26.45834 l -45.827182,-26.45833"/><path id="path4752" d="m 11.456804,-225.55205 v 26.45833 l 45.827182,26.45834 v -26.45834 l -45.827182,-26.45833" style="fill:#afe9dd;stroke:none;stroke-width:.26458332px;stroke-linecap:butt;stroke-linejoin:miter;stroke-opacity:1"/><path style="fill:#afe9dd;stroke:none;stroke-width:.26458332px;stroke-linecap:butt;stroke-linejoin:miter;stroke-opacity:1" id="path4754" d="m 11.456799,-146.17705 v 26.45833 l 45.827182,26.458344 v -26.458344 l -45.827182,-26.45833"/><path id="path4756" d="m 80.197562,-238.78122 v 13.22917 l 11.456802,-6.61458 v -13.22917 z" style="fill:#afe;stroke:none;stroke-width:.26458332px;stroke-linecap:butt;stroke-linejoin:miter;stroke-opacity:1"/><path style="fill:#afe;stroke:none;stroke-width:.26458332px;stroke-linecap:butt;stroke-linejoin:miter;stroke-opacity:1" id="path4758" d="m 80.19757,-119.71872 v 13.22917 l 11.456802,-6.61458 v -13.22917 z"/><path id="path4760" d="m 103.11115,-252.01038 v 13.22917 l 11.4568,-6.61458 v -13.22917 z" style="fill:#afe;stroke:none;stroke-width:.26458332px;stroke-linecap:butt;stroke-linejoin:miter;stroke-opacity:1"/><path style="fill:#afe;stroke:none;stroke-width:.26458332px;stroke-linecap:butt;stroke-linejoin:miter;stroke-opacity:1" id="path4762" d="m 103.11116,-132.94788 v 13.22917 l 11.4568,-6.61458 v -13.22917 z"/><path id="path4764" d="m 80.19757,-159.40622 v 13.22917 l 11.456802,-6.61458 v -13.22917 z" style="fill:#afe;stroke:none;stroke-width:.26458332px;stroke-linecap:butt;stroke-linejoin:miter;stroke-opacity:1"/><path style="fill:#afe;stroke:none;stroke-width:.26458332px;stroke-linecap:butt;stroke-linejoin:miter;stroke-opacity:1" id="path4766" d="m 103.11116,-212.32288 v 13.22917 l 11.4568,-6.61458 v -13.22917 z"/></g><g id="g4784" style="stroke:none"><path id="path4770" d="m -183.3087,111.7917 -45.82718,52.91666 45.82718,26.45834 z" style="fill:#b3b3b3;stroke:none;stroke-width:.26458332px;stroke-linecap:butt;stroke-linejoin:miter;stroke-opacity:1"/><path id="path4772" d="m -183.3087,111.7917 45.82718,52.91666 -45.82718,26.45834 v -79.375" style="fill:gray;stroke:none;stroke-width:.26458332px;stroke-linecap:butt;stroke-linejoin:miter;stroke-opacity:1"/></g><g style="stroke:none" id="g4912" transform="translate(-217.67909,-19.84375)"><g style="stroke:none" id="g4874" transform="translate(-45.827179,13.229168)"><path id="path4864" d="M -22.913584,58.87503 V 85.333363 L -11.456782,78.71878 V 52.260447 Z" style="fill:#c87137;stroke:none;stroke-width:.26458332px;stroke-linecap:butt;stroke-linejoin:miter;stroke-opacity:1"/><path id="path4866" d="M -34.370386,52.260447 V 78.71878 l 11.456802,6.614583 V 58.87503 l -11.456802,-6.614583" style="fill:#a40;stroke:none;stroke-width:.26458332px;stroke-linecap:butt;stroke-linejoin:miter;stroke-opacity:1"/><path id="path4868" d="m -22.913584,19.187531 -34.37038,19.84375 34.37038,19.843749 34.37038,-19.843749 z" style="fill:#0a0;stroke:none;stroke-width:.26458332px;stroke-linecap:butt;stroke-linejoin:miter;stroke-opacity:1"/><path id="path4870" d="m -57.283964,39.031281 v 13.229166 l 34.37038,19.84375 V 58.87503 Z" style="fill:#0f0;stroke:none;stroke-width:.26458332px;stroke-linecap:butt;stroke-linejoin:miter;stroke-opacity:1"/><path id="path4872" d="m 11.456796,39.031281 v 13.229166 l -34.37038,19.84375 V 58.87503 Z" style="fill:green;stroke:none;stroke-width:.26458332px;stroke-linecap:butt;stroke-linejoin:miter;stroke-opacity:1"/></g><g style="stroke:none" id="g4886" transform="matrix(0.50000001,0,0,0.50000001,-85.925953,59.203141)"><path style="fill:#c87137;stroke:none;stroke-width:.26458332px;stroke-linecap:butt;stroke-linejoin:miter;stroke-opacity:1" id="path4876" d="M -22.913584,58.87503 V 85.333363 L -11.456782,78.71878 V 52.260447 Z"/><path style="fill:#a40;stroke:none;stroke-width:.26458332px;stroke-linecap:butt;stroke-linejoin:miter;stroke-opacity:1" id="path4878" d="M -34.370386,52.260447 V 78.71878 l 11.456802,6.614583 V 58.87503 l -11.456802,-6.614583"/><path style="fill:#0a0;stroke:none;stroke-width:.26458332px;stroke-linecap:butt;stroke-linejoin:miter;stroke-opacity:1" id="path4880" d="m -22.913584,19.187531 -34.37038,19.84375 34.37038,19.843749 34.37038,-19.843749 z"/><path style="fill:#0f0;stroke:none;stroke-width:.26458332px;stroke-linecap:butt;stroke-linejoin:miter;stroke-opacity:1" id="path4882" d="m -57.283964,39.031281 v 13.229166 l 34.37038,19.84375 V 58.87503 Z"/><path style="fill:green;stroke:none;stroke-width:.26458332px;stroke-linecap:butt;stroke-linejoin:miter;stroke-opacity:1" id="path4884" d="m 11.456796,39.031281 v 13.229166 l -34.37038,19.84375 V 58.87503 Z"/></g><g style="stroke:none" id="g4898" transform="matrix(0.53846154,0,0,0.53846154,-51.114925,77.036874)"><path style="fill:#c87137;stroke:none;stroke-width:.26458332px;stroke-linecap:butt;stroke-linejoin:miter;stroke-opacity:1" id="path4888" d="M -22.913584,58.87503 V 85.333363 L -11.456782,78.71878 V 52.260447 Z"/><path style="fill:#a40;stroke:none;stroke-width:.26458332px;stroke-linecap:butt;stroke-linejoin:miter;stroke-opacity:1" id="path4890" d="M -34.370386,52.260447 V 78.71878 l 11.456802,6.614583 V 58.87503 l -11.456802,-6.614583"/><path style="fill:#0a0;stroke:none;stroke-width:.26458332px;stroke-linecap:butt;stroke-linejoin:miter;stroke-opacity:1" id="path4892" d="m -22.913584,19.187531 -34.37038,19.84375 34.37038,19.843749 34.37038,-19.843749 z"/><path style="fill:#0f0;stroke:none;stroke-width:.26458332px;stroke-linecap:butt;stroke-linejoin:miter;stroke-opacity:1" id="path4894" d="m -57.283964,39.031281 v 13.229166 l 34.37038,19.84375 V 58.87503 Z"/><path style="fill:green;stroke:none;stroke-width:.26458332px;stroke-linecap:butt;stroke-linejoin:miter;stroke-opacity:1" id="path4896" d="m 11.456796,39.031281 v 13.229166 l -34.37038,19.84375 V 58.87503 Z"/></g><g style="stroke:none" id="g4910" transform="matrix(0.66666657,0,0,0.66666657,-7.6378581,46.08335)"><path id="path4900" d="M -22.913584,58.87503 V 85.333363 L -11.456782,78.71878 V 52.260447 Z" style="fill:#c87137;stroke:none;stroke-width:.26458332px;stroke-linecap:butt;stroke-linejoin:miter;stroke-opacity:1"/><path id="path4902" d="M -34.370386,52.260447 V 78.71878 l 11.456802,6.614583 V 58.87503 l -11.456802,-6.614583" style="fill:#a40;stroke:none;stroke-width:.26458332px;stroke-linecap:butt;stroke-linejoin:miter;stroke-opacity:1"/><path id="path4904" d="m -22.913584,19.187531 -34.37038,19.84375 34.37038,19.843749 34.37038,-19.843749 z" style="fill:#0a0;stroke:none;stroke-width:.26458332px;stroke-linecap:butt;stroke-linejoin:miter;stroke-opacity:1"/><path id="path4906" d="m -57.283964,39.031281 v 13.229166 l 34.37038,19.84375 V 58.87503 Z" style="fill:#0f0;stroke:none;stroke-width:.26458332px;stroke-linecap:butt;stroke-linejoin:miter;stroke-opacity:1"/><path id="path4908" d="m 11.456796,39.031281 v 13.229166 l -34.37038,19.84375 V 58.87503 Z" style="fill:green;stroke:none;stroke-width:.26458332px;stroke-linecap:butt;stroke-linejoin:miter;stroke-opacity:1"/></g></g><g id="g4789" style="stroke:none"><path id="path4776" d="m -263.50626,78.71878 -22.91359,13.229167 22.91359,13.229163 22.91359,-13.229163 z" style="fill:#c87137;stroke:none;stroke-width:.26458332px;stroke-linecap:butt;stroke-linejoin:miter;stroke-opacity:1"/><path id="path4778" d="m -286.41985,91.947947 -45.82717,119.062503 68.74076,39.68749 V 105.17711 Z" style="fill:#a05a2c;stroke:none;stroke-width:.26458332px;stroke-linecap:butt;stroke-linejoin:miter;stroke-opacity:1"/><path id="path4780" d="m -240.59267,91.947947 45.82718,119.062503 -68.74077,39.68749 V 105.17711 l 22.91359,-13.229163" style="fill:#d45500;stroke:none;stroke-width:.26458332px;stroke-linecap:butt;stroke-linejoin:miter;stroke-opacity:1"/></g><g style="stroke:none" id="g4854" transform="translate(22.913588,-145.52083)"><g style="stroke:none" id="g4816" transform="translate(-45.827179,13.229168)"><path id="path4806" d="M -22.913584,58.87503 V 85.333363 L -11.456782,78.71878 V 52.260447 Z" style="fill:#c87137;stroke:none;stroke-width:.26458332px;stroke-linecap:butt;stroke-linejoin:miter;stroke-opacity:1"/><path id="path4808" d="M -34.370386,52.260447 V 78.71878 l 11.456802,6.614583 V 58.87503 l -11.456802,-6.614583" style="fill:#a40;stroke:none;stroke-width:.26458332px;stroke-linecap:butt;stroke-linejoin:miter;stroke-opacity:1"/><path id="path4810" d="m -22.913584,19.187531 -34.37038,19.84375 34.37038,19.843749 34.37038,-19.843749 z" style="fill:#0a0;stroke:none;stroke-width:.26458332px;stroke-linecap:butt;stroke-linejoin:miter;stroke-opacity:1"/><path id="path4812" d="m -57.283964,39.031281 v 13.229166 l 34.37038,19.84375 V 58.87503 Z" style="fill:#0f0;stroke:none;stroke-width:.26458332px;stroke-linecap:butt;stroke-linejoin:miter;stroke-opacity:1"/><path id="path4814" d="m 11.456796,39.031281 v 13.229166 l -34.37038,19.84375 V 58.87503 Z" style="fill:green;stroke:none;stroke-width:.26458332px;stroke-linecap:butt;stroke-linejoin:miter;stroke-opacity:1"/></g><g style="stroke:none" id="g4828" transform="matrix(0.50000001,0,0,0.50000001,-85.925953,59.203141)"><path style="fill:#c87137;stroke:none;stroke-width:.26458332px;stroke-linecap:butt;stroke-linejoin:miter;stroke-opacity:1" id="path4818" d="M -22.913584,58.87503 V 85.333363 L -11.456782,78.71878 V 52.260447 Z"/><path style="fill:#a40;stroke:none;stroke-width:.26458332px;stroke-linecap:butt;stroke-linejoin:miter;stroke-opacity:1" id="path4820" d="M -34.370386,52.260447 V 78.71878 l 11.456802,6.614583 V 58.87503 l -11.456802,-6.614583"/><path style="fill:#0a0;stroke:none;stroke-width:.26458332px;stroke-linecap:butt;stroke-linejoin:miter;stroke-opacity:1" id="path4822" d="m -22.913584,19.187531 -34.37038,19.84375 34.37038,19.843749 34.37038,-19.843749 z"/><path style="fill:#0f0;stroke:none;stroke-width:.26458332px;stroke-linecap:butt;stroke-linejoin:miter;stroke-opacity:1" id="path4824" d="m -57.283964,39.031281 v 13.229166 l 34.37038,19.84375 V 58.87503 Z"/><path style="fill:green;stroke:none;stroke-width:.26458332px;stroke-linecap:butt;stroke-linejoin:miter;stroke-opacity:1" id="path4826" d="m 11.456796,39.031281 v 13.229166 l -34.37038,19.84375 V 58.87503 Z"/></g><g style="stroke:none" id="g4840" transform="matrix(0.53846154,0,0,0.53846154,-51.114925,77.036874)"><path style="fill:#c87137;stroke:none;stroke-width:.26458332px;stroke-linecap:butt;stroke-linejoin:miter;stroke-opacity:1" id="path4830" d="M -22.913584,58.87503 V 85.333363 L -11.456782,78.71878 V 52.260447 Z"/><path style="fill:#a40;stroke:none;stroke-width:.26458332px;stroke-linecap:butt;stroke-linejoin:miter;stroke-opacity:1" id="path4832" d="M -34.370386,52.260447 V 78.71878 l 11.456802,6.614583 V 58.87503 l -11.456802,-6.614583"/><path style="fill:#0a0;stroke:none;stroke-width:.26458332px;stroke-linecap:butt;stroke-linejoin:miter;stroke-opacity:1" id="path4834" d="m -22.913584,19.187531 -34.37038,19.84375 34.37038,19.843749 34.37038,-19.843749 z"/><path style="fill:#0f0;stroke:none;stroke-width:.26458332px;stroke-linecap:butt;stroke-linejoin:miter;stroke-opacity:1" id="path4836" d="m -57.283964,39.031281 v 13.229166 l 34.37038,19.84375 V 58.87503 Z"/><path style="fill:green;stroke:none;stroke-width:.26458332px;stroke-linecap:butt;stroke-linejoin:miter;stroke-opacity:1" id="path4838" d="m 11.456796,39.031281 v 13.229166 l -34.37038,19.84375 V 58.87503 Z"/></g><g style="stroke:none" id="g4852" transform="matrix(0.66666657,0,0,0.66666657,-7.6378581,46.08335)"><path id="path4842" d="M -22.913584,58.87503 V 85.333363 L -11.456782,78.71878 V 52.260447 Z" style="fill:#c87137;stroke:none;stroke-width:.26458332px;stroke-linecap:butt;stroke-linejoin:miter;stroke-opacity:1"/><path id="path4844" d="M -34.370386,52.260447 V 78.71878 l 11.456802,6.614583 V 58.87503 l -11.456802,-6.614583" style="fill:#a40;stroke:none;stroke-width:.26458332px;stroke-linecap:butt;stroke-linejoin:miter;stroke-opacity:1"/><path id="path4846" d="m -22.913584,19.187531 -34.37038,19.84375 34.37038,19.843749 34.37038,-19.843749 z" style="fill:#0a0;stroke:none;stroke-width:.26458332px;stroke-linecap:butt;stroke-linejoin:miter;stroke-opacity:1"/><path id="path4848" d="m -57.283964,39.031281 v 13.229166 l 34.37038,19.84375 V 58.87503 Z" style="fill:#0f0;stroke:none;stroke-width:.26458332px;stroke-linecap:butt;stroke-linejoin:miter;stroke-opacity:1"/><path id="path4850" d="m 11.456796,39.031281 v 13.229166 l -34.37038,19.84375 V 58.87503 Z" style="fill:green;stroke:none;stroke-width:.26458332px;stroke-linecap:butt;stroke-linejoin:miter;stroke-opacity:1"/></g></g><g id="g4929" transform="translate(91.654362,-26.458332)"><path id="path4858" d="m 11.456796,65.489614 v -79.374999 l 34.37038,-19.84375 v 79.374999 l -34.37038,19.84375" style="fill:#917c6f;stroke:#000;stroke-width:.26458332px;stroke-linecap:butt;stroke-linejoin:miter;stroke-opacity:1"/><path id="path4860" d="m 11.456796,-13.885385 -34.37038,-19.84375 34.37038,-19.84375 34.37038,19.84375 -34.37038,19.84375" style="fill:#241c1c;stroke:#000;stroke-width:.26458332px;stroke-linecap:butt;stroke-linejoin:miter;stroke-opacity:1"/><path id="path4862" d="m -22.913584,-33.729135 v 79.374999 l 34.37038,19.84375 v -79.374999 z" style="fill:#999;stroke:#000;stroke-width:.26458332px;stroke-linecap:butt;stroke-linejoin:miter;stroke-opacity:1"/><path id="path4914" d="m -22.913584,-20.499969 34.37038,19.84375021 34.37038,-19.84375021 v 13.229167 l -34.37038,19.84375 -34.37038,-19.84375 v -13.229167" style="fill:#afe;stroke:#000;stroke-width:.26458332px;stroke-linecap:butt;stroke-linejoin:miter;stroke-opacity:1"/><path id="path4916" d="M -11.456782,12.572948 V 39.031281 L -22.913584,32.416697 V 5.9583645 Z" style="fill:#afe;stroke:#000;stroke-width:.26458332px;stroke-linecap:butt;stroke-linejoin:miter;stroke-opacity:1"/><path id="path4918" d="M 22.913598,-33.729135 V -60.187471" style="fill:none;stroke:#6f0;stroke-width:2.64583325;stroke-linecap:round;stroke-linejoin:round;stroke-miterlimit:4;stroke-dasharray:none;stroke-opacity:1"/><path style="fill:none;stroke:#6f0;stroke-width:3.74177313;stroke-linecap:round;stroke-linejoin:round;stroke-miterlimit:4;stroke-dasharray:none;stroke-opacity:1" id="path4920" d="M 11.456804,-27.114551 V -80.031217"/></g></g></svg>