<svg xmlns="http://www.w3.org/2000/svg" xmlns:svg="http://www.w3.org/2000/svg" id="svg8" version="1.1" viewBox="0 0 619.196 556.007"><defs id="defs2"><clipPath id="clip"><path style="fill:#faa;fill-opacity:.57534246;stroke:#000;stroke-width:.26458332px;stroke-linecap:butt;stroke-linejoin:miter;stroke-opacity:1" id="path4597" d="m 103.11113,-410.76039 160.39512,92.60416 0,277.812501 v 0 L -194.76552,224.2396 -400.98782,105.1771 V -199.09373 L 34.370363,-450.44789 Z"/></clipPath></defs><metadata id="metadata5"/><g id="layer1" transform="translate(355.42521,318.309)"><path style="fill:#faa;fill-opacity:.57534246;stroke:#000;stroke-width:.26458332px;stroke-linecap:butt;stroke-linejoin:miter;stroke-opacity:1" id="path4597" d="m 103.11113,-410.76039 160.39512,92.60416 0,277.812501 v 0 L -194.76552,224.2396 -400.98782,105.1771 V -199.09373 L 34.370363,-450.44789 Z"/><path style="fill:#0ff;stroke:#000;stroke-width:.26458332px;stroke-linecap:butt;stroke-linejoin:miter;stroke-opacity:1" id="path4550" d="m -355.16063,78.718753 206.22231,119.062497 v 39.6875 l -206.22231,-119.0625 z"/><path style="fill:#0ff;stroke:#000;stroke-width:.26458332px;stroke-linecap:butt;stroke-linejoin:miter;stroke-opacity:1" id="path4552" d="M -148.93832,197.78125 263.50627,-40.343746 V -0.65624625 L -148.93832,237.46875 v -39.6875"/><path style="fill:#0f0;stroke:#000;stroke-width:.26458332px;stroke-linecap:butt;stroke-linejoin:miter;stroke-opacity:1" id="path4554" d="M -355.16063,78.718753 57.283971,-159.40624 263.50627,-40.343746 -148.93832,197.78125 Z"/><g clip-path="url(#clip)"><g class="landscape"><g class="mountain"><path style="fill:#f55;stroke:#000;stroke-width:.26458332px;stroke-linecap:butt;stroke-linejoin:miter;stroke-opacity:1" id="path4562" d="m -286.41984,-27.114579 -68.74079,105.833332 80.19756,46.302077 V -20.499996 Z"/><path style="fill:#c83737;stroke:#000;stroke-width:.26458332px;stroke-linecap:butt;stroke-linejoin:miter;stroke-opacity:1" id="path4564" d="m -274.96307,-33.729162 11.45681,6.614583 -11.45681,6.614583 11.45681,-6.614583 68.74076,105.833332 -80.19757,46.302077"/><path style="fill:#782121;stroke:#000;stroke-width:.26458332px;stroke-linecap:butt;stroke-linejoin:miter;stroke-opacity:1" id="path4566" d="m -274.96307,-33.729162 -11.45677,6.614583 11.45677,6.614583 11.45681,-6.614583 z"/></g><g class="building"><path style="fill:#00f;stroke:#000;stroke-width:.26458332px;stroke-linecap:butt;stroke-linejoin:miter;stroke-opacity:1" id="path4589" d="M 68.740762,-86.645824 126.02472,-119.71874 57.28396,-159.40624 -2.4686131e-5,-126.33332 Z"/><path style="fill:red;stroke:#000;stroke-width:.26458332px;stroke-linecap:butt;stroke-linejoin:miter;stroke-opacity:1" id="path4591" d="m 68.740762,-86.645824 -6e-6,-158.749996 57.283974,-33.07292 -68.740769,-39.6875 -57.283971,33.07292 68.740766,39.6875"/><path style="fill:#f60;stroke:#000;stroke-width:.26458332px;stroke-linecap:butt;stroke-linejoin:miter;stroke-opacity:1" id="path4593" d="m -1e-5,-285.08332 -1.4686131e-5,158.75 L 68.740756,-86.645824 V -245.39582 Z"/><path style="fill:#f0f;stroke:#000;stroke-width:.26458332px;stroke-linecap:butt;stroke-linejoin:miter;stroke-opacity:1" id="path4595" d="m 126.02472,-119.71874 v -158.75 l -57.283958,33.07292 v 158.749996 z"/></g></g></g></g></svg>