<svg xmlns="http://www.w3.org/2000/svg" xmlns:svg="http://www.w3.org/2000/svg" id="svg8" width="240" height="247.911" version="1.1" viewBox="0 0 63.5 65.593"><metadata id="metadata5"/><g style="display:inline" id="layer2" transform="translate(-16.708279,-109.29109)"><g id="g824" transform="translate(17.372519,-52.652097)"><rect style="fill:#6f0;fill-opacity:1;fill-rule:nonzero;stroke:none;stroke-width:.21863593;stroke-linecap:round;stroke-linejoin:round;stroke-miterlimit:4;stroke-dasharray:none;stroke-dashoffset:0;stroke-opacity:1" id="rect815" width="63.5" height="26.458" x="-.664" y="201.078" ry="3.207"/><text style="font-style:normal;font-variant:normal;font-weight:700;font-stretch:normal;font-size:10.58333302px;line-height:1.25;font-family:sans-serif;-inkscape-font-specification:'sans-serif, Bold';font-variant-ligatures:normal;font-variant-caps:normal;font-variant-numeric:normal;font-feature-settings:normal;text-align:start;letter-spacing:0;word-spacing:0;writing-mode:lr-tb;text-anchor:start;fill:#fff;fill-opacity:1;stroke:none;stroke-width:.26458332" id="text819" x="6.741" y="218.16" xml:space="preserve"><tspan id="tspan817" x="6.741" y="218.16" style="font-style:normal;font-variant:normal;font-weight:700;font-stretch:normal;font-size:10.58333302px;font-family:sans-serif;-inkscape-font-specification:'sans-serif, Bold';font-variant-ligatures:normal;font-variant-caps:normal;font-variant-numeric:normal;font-feature-settings:normal;text-align:start;writing-mode:lr-tb;text-anchor:start;fill:#fff;stroke:none;stroke-width:.26458332">LAUNCH</tspan></text></g></g><g id="layer1" transform="translate(-16.708279,-109.29109)"><path id="path1049" d="M 71.69505,169.24516 V 129.27542" style="fill:none;stroke:gray;stroke-width:.26458332px;stroke-linecap:butt;stroke-linejoin:miter;stroke-opacity:1"/><path id="path1047" d="m 68.955538,169.24516 4.81085,-4.81085 -4.81085,-4.81085 4.81085,-4.81085 -4.81085,-4.81085 4.81085,-4.81085 -4.81085,-4.81085 4.81085,-4.81085 -4.81085,-4.81085 4.81085,-4.81085" style="fill:none;stroke:#f0f;stroke-width:.79374999;stroke-linecap:butt;stroke-linejoin:miter;stroke-miterlimit:4;stroke-dasharray:none;stroke-opacity:1"/><g id="g973" transform="matrix(0.74666485,0,0,0.74666485,13.875959,65.591062)"><path style="fill:#f60;fill-opacity:1;fill-rule:nonzero;stroke:none;stroke-width:4.01781178;stroke-linecap:round;stroke-linejoin:round;stroke-miterlimit:4;stroke-dasharray:none;stroke-dashoffset:0;stroke-opacity:1" id="rect957" d="m 113.92773,330.37695 c -8.11214,0 -14.642574,6.53044 -14.642574,14.64258 V 461.0918 H 128.57227 V 345.01953 c 0,-8.11214 -6.53239,-14.64258 -14.64454,-14.64258 z" transform="scale(0.26458333)"/><path style="fill:#000;fill-opacity:1;fill-rule:nonzero;stroke:none;stroke-width:.77282542;stroke-linecap:round;stroke-linejoin:round;stroke-miterlimit:4;stroke-dasharray:none;stroke-dashoffset:0;stroke-opacity:1" id="rect962" d="m 26.269213,121.9972 h 7.748852 l 1.5875,3.02362 H 24.681713 Z"/><path style="fill:#ccc;fill-opacity:1;fill-rule:nonzero;stroke:none;stroke-width:4.19632053;stroke-linecap:round;stroke-linejoin:round;stroke-miterlimit:4;stroke-dasharray:none;stroke-dashoffset:0;stroke-opacity:1" id="rect965" d="m 113.92969,461.0918 v 11.42773 h 20.64258 l -6,-11.42773 z" transform="scale(0.26458333)"/></g><g id="g981" transform="matrix(0.74666485,0,0,0.74666485,38.026199,65.591062)"><path id="path975" d="m 113.92773,330.37695 c -8.11214,0 -14.642574,6.53044 -14.642574,14.64258 V 461.0918 H 128.57227 V 345.01953 c 0,-8.11214 -6.53239,-14.64258 -14.64454,-14.64258 z" transform="scale(0.26458333)" style="fill:#f60;fill-opacity:1;fill-rule:nonzero;stroke:none;stroke-width:4.01781178;stroke-linecap:round;stroke-linejoin:round;stroke-miterlimit:4;stroke-dasharray:none;stroke-dashoffset:0;stroke-opacity:1"/><path id="path977" d="m 26.269213,121.9972 h 7.748852 l 1.5875,3.02362 H 24.681713 Z" style="fill:#000;fill-opacity:1;fill-rule:nonzero;stroke:none;stroke-width:.77282542;stroke-linecap:round;stroke-linejoin:round;stroke-miterlimit:4;stroke-dasharray:none;stroke-dashoffset:0;stroke-opacity:1"/><path id="path979" d="m 113.92969,461.0918 v 11.42773 h 20.64258 l -6,-11.42773 z" transform="scale(0.26458333)" style="fill:#ccc;fill-opacity:1;fill-rule:nonzero;stroke:none;stroke-width:4.19632053;stroke-linecap:round;stroke-linejoin:round;stroke-miterlimit:4;stroke-dasharray:none;stroke-dashoffset:0;stroke-opacity:1"/></g><path id="rect844" d="m 33.161873,146.64596 c 1.756059,-4.03316 8.833534,-9.80405 8.833534,-9.80405 h 6.462872 6.462874 c 0,0 7.077475,5.77089 8.833534,9.80405 1.197414,2.7501 0.790221,8.96368 0.790221,8.96368 H 32.371652 c 0,0 -0.407194,-6.21358 0.790221,-8.96368 z" style="fill:#666;fill-opacity:1;fill-rule:nonzero;stroke:none;stroke-width:1.76038086;stroke-linecap:round;stroke-linejoin:round;stroke-miterlimit:4;stroke-dasharray:none;stroke-dashoffset:0;stroke-opacity:1"/><path id="rect835" d="m 48.458086,109.29109 c -4.201153,0 -7.583104,8.51877 -7.583104,12.71992 v 33.59864 h 15.166595 v -33.59864 c 0,-4.20115 -3.382338,-12.71992 -7.583491,-12.71992 z" style="fill:#ccc;fill-opacity:1;fill-rule:nonzero;stroke:none;stroke-width:1.97555065;stroke-linecap:round;stroke-linejoin:round;stroke-miterlimit:4;stroke-dasharray:none;stroke-dashoffset:0;stroke-opacity:1"/><path id="rect944" d="m 48.458555,109.29116 v 46.31857 h 7.583106 v -33.59864 c 0,-4.20103 -3.382133,-12.7194 -7.583106,-12.71993 z" style="fill:#e6e6e6;fill-opacity:1;fill-rule:nonzero;stroke:none;stroke-width:.53327584;stroke-linecap:round;stroke-linejoin:round;stroke-miterlimit:4;stroke-dasharray:none;stroke-dashoffset:0;stroke-opacity:1"/><path id="rect847" d="m 48.45817,109.29116 c -2.720454,0 -5.096085,3.57212 -6.433659,7.23083 h 12.867316 c -1.337686,-3.65871 -3.713205,-7.23083 -6.433657,-7.23083 z" style="fill:#000;fill-opacity:1;fill-rule:nonzero;stroke:none;stroke-width:1.86256695;stroke-linecap:round;stroke-linejoin:round;stroke-miterlimit:4;stroke-dasharray:none;stroke-dashoffset:0;stroke-opacity:1"/><rect id="rect853" width="1.976" height="18.768" x="47.471" y="136.842" ry="0" style="fill:#666;fill-opacity:1;fill-rule:nonzero;stroke:none;stroke-width:1.39170313;stroke-linecap:round;stroke-linejoin:round;stroke-miterlimit:4;stroke-dasharray:none;stroke-dashoffset:0;stroke-opacity:1"/><path id="rect863" d="m 42.850531,155.60965 h 11.215496 l 1.97555,4.93887 H 40.87498 Z" style="fill:#000;fill-opacity:1;fill-rule:nonzero;stroke:none;stroke-width:1.97384632;stroke-linecap:round;stroke-linejoin:round;stroke-miterlimit:4;stroke-dasharray:none;stroke-dashoffset:0;stroke-opacity:1"/><path id="path868" d="m 44.089432,122.08525 c 0.901151,-0.97143 2.566546,-1.56985 4.368847,-1.56985 1.802302,0 3.467696,0.59842 4.368847,1.56985" style="fill:none;fill-opacity:1;fill-rule:nonzero;stroke:#000;stroke-width:1.58044052;stroke-linecap:round;stroke-linejoin:round;stroke-miterlimit:4;stroke-dasharray:none;stroke-dashoffset:0;stroke-opacity:1"/><circle id="path866" cx="44.754" cy="130.012" r="1.27" style="fill:#000;fill-opacity:1;fill-rule:nonzero;stroke:none;stroke-width:1.97555065;stroke-linecap:round;stroke-linejoin:round;stroke-miterlimit:4;stroke-dasharray:none;stroke-dashoffset:0;stroke-opacity:1"/><circle id="path871" cx="44.248" cy="129.616" r=".395" style="fill:#fff;fill-opacity:1;fill-rule:nonzero;stroke:none;stroke-width:1.80659413;stroke-linecap:round;stroke-linejoin:round;stroke-miterlimit:4;stroke-dasharray:none;stroke-dashoffset:0;stroke-opacity:1"/><circle style="fill:#000;fill-opacity:1;fill-rule:nonzero;stroke:none;stroke-width:1.97555065;stroke-linecap:round;stroke-linejoin:round;stroke-miterlimit:4;stroke-dasharray:none;stroke-dashoffset:0;stroke-opacity:1" id="circle877" cx="52.162" cy="130.012" r="1.27"/><circle style="fill:#fff;fill-opacity:1;fill-rule:nonzero;stroke:none;stroke-width:1.80659413;stroke-linecap:round;stroke-linejoin:round;stroke-miterlimit:4;stroke-dasharray:none;stroke-dashoffset:0;stroke-opacity:1" id="circle879" cx="51.656" cy="129.616" r=".395"/><path id="circle899" d="m 53.070172,131.11201 -1.820328,-1.09985 1.820328,-1.09985" style="fill:none;fill-opacity:1;fill-rule:nonzero;stroke:#f0f;stroke-width:.79022026;stroke-linecap:round;stroke-linejoin:round;stroke-miterlimit:4;stroke-dasharray:none;stroke-dashoffset:0;stroke-opacity:1"/><circle style="fill:#000;fill-opacity:1;fill-rule:nonzero;stroke:none;stroke-width:1.04426706;stroke-linecap:round;stroke-linejoin:round;stroke-miterlimit:4;stroke-dasharray:none;stroke-dashoffset:0;stroke-opacity:1" id="circle911" cx="48.458" cy="131.265" r=".671"/><path style="fill:none;fill-opacity:1;fill-rule:nonzero;stroke:#f0f;stroke-width:.79022026;stroke-linecap:round;stroke-linejoin:round;stroke-miterlimit:4;stroke-dasharray:none;stroke-dashoffset:0;stroke-opacity:1" id="path928" d="m 43.846387,131.11201 1.820329,-1.09985 -1.820329,-1.09985"/><g id="g942" transform="matrix(0.74666485,0,0,0.74666485,3.500418,63.036194)"><path style="fill:#000;fill-opacity:1;fill-rule:nonzero;stroke:none;stroke-width:12.35702229;stroke-linecap:round;stroke-linejoin:round;stroke-miterlimit:4;stroke-dasharray:none;stroke-dashoffset:0;stroke-opacity:1" id="circle930" d="m 219.69336,340.91406 a 7.9438001,7.9438001 0 0 0 -0.0664,0.95899 7.9438001,7.9438001 0 0 0 7.94336,7.94531 7.9438001,7.9438001 0 0 0 7.94531,-7.94531 7.9438001,7.9438001 0 0 0 -0.0684,-0.95899 z" transform="scale(0.26458333)"/><path style="fill:red;fill-opacity:1;fill-rule:nonzero;stroke:none;stroke-width:12.35702229;stroke-linecap:round;stroke-linejoin:round;stroke-miterlimit:4;stroke-dasharray:none;stroke-dashoffset:0;stroke-opacity:1" id="circle932" d="m 231.10742,344.53711 a 7.9438001,7.9438001 0 0 0 -7.11133,4.42187 7.9438001,7.9438001 0 0 0 3.57422,0.85938 7.9438001,7.9438001 0 0 0 7.11133,-4.42188 7.9438001,7.9438001 0 0 0 -3.57422,-0.85937 z" transform="scale(0.26458333)"/></g><path id="rect949" d="m 48.477461,155.60973 v 4.93887 h 7.5642 l -1.975551,-4.93887 z" style="fill:gray;fill-opacity:1;fill-rule:nonzero;stroke:none;stroke-width:.79022026;stroke-linecap:round;stroke-linejoin:round;stroke-miterlimit:4;stroke-dasharray:none;stroke-dashoffset:0;stroke-opacity:1"/><rect id="rect1058" width="4.347" height="8.693" x="34.21" y="158.94" style="fill:#0ff;fill-opacity:1;fill-rule:nonzero;stroke:none;stroke-width:.68370193;stroke-linecap:round;stroke-linejoin:round;stroke-miterlimit:4;stroke-dasharray:none;stroke-dashoffset:0;stroke-opacity:1"/><path id="path1015" d="m 27.214285,169.24404 v -30.99405 h 7.748513 v 30.99405 z" style="fill:none;stroke:#f0f;stroke-width:1.05833328;stroke-linecap:butt;stroke-linejoin:miter;stroke-miterlimit:4;stroke-dasharray:none;stroke-opacity:1"/><rect style="fill:#0ff;fill-opacity:1;fill-rule:nonzero;stroke:none;stroke-width:.68370193;stroke-linecap:round;stroke-linejoin:round;stroke-miterlimit:4;stroke-dasharray:none;stroke-dashoffset:0;stroke-opacity:1" id="rect1086" width="4.347" height="8.693" x="58.36" y="158.94"/><g id="g1056"><path style="fill:none;stroke:#f0f;stroke-width:.79374999;stroke-linecap:butt;stroke-linejoin:miter;stroke-miterlimit:4;stroke-dasharray:none;stroke-opacity:1" id="path1017" d="m 27.214285,169.24404 7.748513,-7.74852 -7.748513,-7.74851 7.748513,-7.74851 -7.748513,-7.74851"/></g><path id="path1021" d="m 34.962798,169.24404 -7.748513,-7.74852 7.748513,-7.74851 -7.748513,-7.74851 7.748513,-7.74851" style="fill:none;stroke:#f0f;stroke-width:.79374999;stroke-linecap:butt;stroke-linejoin:miter;stroke-miterlimit:4;stroke-dasharray:none;stroke-opacity:1"/><rect id="rect1053" width="11.906" height="7.182" x="42.505" y="160.549" style="fill:#0ff;fill-opacity:1;fill-rule:nonzero;stroke:none;stroke-width:.80440485;stroke-linecap:round;stroke-linejoin:round;stroke-miterlimit:4;stroke-dasharray:none;stroke-dashoffset:0;stroke-opacity:1"/><path id="path1023" d="m 53.105655,169.24516 h 9.260417 v -18.52084 h -9.260417 z" style="fill:none;stroke:#f0f;stroke-width:1.05833328;stroke-linecap:butt;stroke-linejoin:miter;stroke-miterlimit:4;stroke-dasharray:none;stroke-opacity:1"/><path id="path1033" d="m 53.105655,169.24516 9.260417,-9.26042 -9.260417,-9.26042" style="fill:none;stroke:#f0f;stroke-width:.79374999;stroke-linecap:butt;stroke-linejoin:miter;stroke-miterlimit:4;stroke-dasharray:none;stroke-opacity:1"/><path id="path1035" d="m 62.366072,169.24516 -9.260417,-9.26042 9.260417,-9.26042" style="fill:none;stroke:#f0f;stroke-width:.79374999;stroke-linecap:butt;stroke-linejoin:miter;stroke-miterlimit:4;stroke-dasharray:none;stroke-opacity:1"/><rect id="rect1043" width="5.061" height="12.013" x="68.83" y="117.263" style="fill:#666;fill-opacity:1;fill-rule:nonzero;stroke:#f0f;stroke-width:.79374999;stroke-linecap:round;stroke-linejoin:round;stroke-miterlimit:4;stroke-dasharray:none;stroke-dashoffset:0;stroke-opacity:1"/><path id="path1037" d="m 68.955538,169.24516 v -51.85029 h 4.81085 v 51.85029 z" style="fill:none;stroke:#f0f;stroke-width:1.05833328;stroke-linecap:butt;stroke-linejoin:miter;stroke-miterlimit:4;stroke-dasharray:none;stroke-opacity:1"/><path id="path1039" d="M 72.163587,125.41296 H 56.04166" style="fill:none;stroke:#000;stroke-width:.88687801;stroke-linecap:butt;stroke-linejoin:miter;stroke-miterlimit:4;stroke-dasharray:none;stroke-opacity:1"/><rect id="rect1041" width=".991" height="1.791" x="70.047" y="-124.97" transform="scale(1,-1)" style="fill:#0f0;fill-opacity:1;fill-rule:nonzero;stroke:none;stroke-width:.34134379;stroke-linecap:round;stroke-linejoin:round;stroke-miterlimit:4;stroke-dasharray:none;stroke-dashoffset:0;stroke-opacity:1"/><path id="path831" d="M 21.521715,169.24516 H 75.394844" style="fill:#000;stroke:#000;stroke-width:3.11953497;stroke-linecap:butt;stroke-linejoin:miter;stroke-miterlimit:4;stroke-dasharray:none;stroke-opacity:1"/><rect id="rect1051" width="5.869" height="2.673" x="68.426" y="117.929" style="fill:#0ff;fill-opacity:1;fill-rule:nonzero;stroke:none;stroke-width:.8526237;stroke-linecap:round;stroke-linejoin:round;stroke-miterlimit:4;stroke-dasharray:none;stroke-dashoffset:0;stroke-opacity:1"/></g></svg>