<svg xmlns="http://www.w3.org/2000/svg" width="240" height="247.911" viewBox="0 0 63.5 65.593"><g transform="translate(.6642 -161.9432)"><rect width="63.5" height="26.458" x="-.664" y="201.078" fill="#6f0" ry="3.207"/><text x="6.741" y="218.16" fill="#fff" stroke-width=".265" font-family="sans-serif" font-size="10.583" font-weight="700" letter-spacing="0" word-spacing="0" style="line-height:1.25;-inkscape-font-specification:'sans-serif, Bold';font-variant-ligatures:normal;font-variant-caps:normal;font-variant-numeric:normal;font-feature-settings:normal;text-align:start"><tspan style="-inkscape-font-specification:'sans-serif, Bold';font-variant-ligatures:normal;font-variant-caps:normal;font-variant-numeric:normal;font-feature-settings:normal;text-align:start" x="6.741" y="218.16">LAUNCH</tspan></text></g><g transform="translate(-16.7083 -109.291)"><path fill="none" stroke="gray" stroke-width=".265" d="M71.695 169.2452v-39.9698"/><path fill="none" stroke="#f0f" stroke-width=".794" d="M68.9555 169.2452l4.8109-4.8109-4.8109-4.8108 4.8109-4.8109-4.8109-4.8108 4.8109-4.8109-4.8109-4.8108 4.8109-4.8109-4.8109-4.8108 4.8109-4.8109"/><path fill="#f60" d="M36.383 130.8587a2.8863 2.8863 0 00-2.8928 2.8927v22.9307h5.7859v-22.9307c0-1.6026-1.2905-2.8927-2.8931-2.8927z"/><path d="M33.4903 156.682h5.7858l1.1853 2.2577h-8.1565z"/><path fill="#ccc" d="M36.3833 156.682v2.2577h4.078l-1.1852-2.2576z"/><path fill="#f60" d="M60.5332 130.8587a2.8863 2.8863 0 00-2.8927 2.8927v22.9307h5.7858v-22.9307c0-1.6026-1.2905-2.8927-2.8931-2.8927z"/><path d="M57.6405 156.682h5.7858l1.1853 2.2577h-8.1564z"/><path fill="#ccc" d="M60.5336 156.682v2.2577h4.078l-1.1853-2.2576z"/><path fill="#666" d="M33.1619 146.646c1.756-4.0332 8.8335-9.804 8.8335-9.804h12.9258s7.0774 5.7708 8.8335 9.804c1.1974 2.75.7902 8.9636.7902 8.9636H32.3717s-.4072-6.2135.7902-8.9636z"/><path fill="#ccc" d="M48.458 109.291c-4.201 0-7.583 8.5189-7.583 12.72v33.5987h15.1666V122.011c0-4.2011-3.3824-12.72-7.5835-12.72z"/><path fill="#e6e6e6" d="M48.4586 109.2912v46.3185h7.583v-33.5986c0-4.201-3.382-12.7194-7.583-12.72z"/><path d="M48.4582 109.2912c-2.7205 0-5.0961 3.572-6.4337 7.2308h12.8673c-1.3377-3.6587-3.7132-7.2308-6.4336-7.2308z"/><rect width="1.976" height="18.768" x="47.471" y="136.842" fill="#666" ry="0"/><path d="M42.8505 155.6096H54.066l1.9756 4.939H40.875z"/><path fill="none" stroke="#000" stroke-linecap="round" stroke-linejoin="round" stroke-width="1.58" d="M44.0894 122.0853c.9012-.9715 2.5666-1.5699 4.3689-1.5699 1.8023 0 3.4677.5984 4.3688 1.5698"/><circle cx="44.754" cy="130.012" r="1.27"/><circle cx="44.248" cy="129.616" r=".395" fill="#fff"/><circle cx="52.162" cy="130.012" r="1.27"/><circle cx="51.656" cy="129.616" r=".395" fill="#fff"/><path fill="none" stroke="#f0f" stroke-linecap="round" stroke-linejoin="round" stroke-width=".79" d="M53.0702 131.112l-1.8204-1.0998 1.8204-1.0999"/><circle cx="48.458" cy="131.265" r=".671"/><path fill="none" stroke="#f0f" stroke-linecap="round" stroke-linejoin="round" stroke-width=".79" d="M43.8464 131.112l1.8203-1.0998-1.8203-1.0999"/><path d="M46.902 130.3855a1.5693 1.5693 0 00-.0132.1894 1.5693 1.5693 0 001.5693 1.5697 1.5693 1.5693 0 001.5696-1.5697 1.5693 1.5693 0 00-.0135-.1894z"/><path fill="red" d="M49.1569 131.1012a1.5693 1.5693 0 00-1.405.8736 1.5693 1.5693 0 00.7062.1698 1.5693 1.5693 0 001.4049-.8736 1.5693 1.5693 0 00-.7061-.1698z"/><path fill="gray" d="M48.4775 155.6097v4.9389h7.5642l-1.9756-4.9389z"/><path fill="#0ff" d="M34.2098 158.9397h4.3467v8.6935h-4.3467z"/><path fill="none" stroke="#f0f" stroke-width="1.058" d="M27.2143 169.244V138.25h7.7485v30.994z"/><path fill="#0ff" d="M58.36 158.9397h4.3467v8.6935H58.36z"/><path fill="none" stroke="#f0f" stroke-width=".794" d="M27.2143 169.244l7.7485-7.7485-7.7485-7.7485 7.7485-7.7485-7.7485-7.7485"/><path fill="none" stroke="#f0f" stroke-width=".794" d="M34.9628 169.244l-7.7485-7.7485 7.7485-7.7485-7.7485-7.7485 7.7485-7.7485"/><path fill="#0ff" d="M42.5052 160.5486h11.9063v7.1815H42.5052z"/><path fill="none" stroke="#f0f" stroke-width="1.058" d="M53.1057 169.2452h9.2604v-18.5209h-9.2604z"/><path fill="none" stroke="#f0f" stroke-width=".794" d="M53.1057 169.2452l9.2604-9.2605-9.2604-9.2604"/><path fill="none" stroke="#f0f" stroke-width=".794" d="M62.366 169.2452l-9.2603-9.2605 9.2604-9.2604"/><path fill="#666" stroke="#f0f" stroke-linecap="round" stroke-linejoin="round" stroke-width=".794" d="M68.8305 117.2626h5.061v12.0128h-5.061z"/><path fill="none" stroke="#f0f" stroke-width="1.058" d="M68.9555 169.2452v-51.8503h4.8109v51.8503z"/><path fill="none" stroke="#000" stroke-width=".887" d="M72.1636 125.413h-16.122"/><path fill="#0f0" d="M70.0469 124.9695h.9909v-1.7915h-.9909z"/><path stroke="#000" stroke-width="3.119" d="M21.5217 169.2452h53.8731"/><path fill="#0ff" d="M68.4265 117.9294h5.869v2.6727h-5.869z"/></g></svg>