<svg xmlns="http://www.w3.org/2000/svg" xmlns:svg="http://www.w3.org/2000/svg" xmlns:xlink="http://www.w3.org/1999/xlink" id="svg8" width="70.109" height="67.627" version="1.1" viewBox="0 0 18.55 17.893"><defs id="defs2"><linearGradient id="linearGradient4646"><stop style="stop-color:#0ff;stop-opacity:1" id="stop4642" offset="0"/><stop style="stop-color:#fff;stop-opacity:1" id="stop4644" offset="1"/></linearGradient><linearGradient id="linearGradient4610"><stop style="stop-color:red;stop-opacity:1" id="stop4606" offset="0"/><stop style="stop-color:#fff;stop-opacity:1" id="stop4608" offset="1"/></linearGradient><linearGradient id="linearGradient4612" x1="87.563" x2="105.437" y1="142.463" y2="138.788" gradientTransform="translate(0.14195015,1.2027129)" gradientUnits="userSpaceOnUse" xlink:href="#linearGradient4610"/><linearGradient id="linearGradient4640" x1="113.787" x2="92.678" y1="127.409" y2="146.394" gradientTransform="translate(0.13363477,1.2027129)" gradientUnits="userSpaceOnUse" xlink:href="#linearGradient4646"/><linearGradient id="linearGradient4648" x1="93.276" x2="115.177" y1="138.379" y2="126.285" gradientTransform="translate(-1.6036152,1.9377029)" gradientUnits="userSpaceOnUse" xlink:href="#linearGradient4646"/><linearGradient id="linearGradient4670" x1="94.913" x2="96.484" y1="143.131" y2="131.839" gradientTransform="translate(0.14195015,1.2027129)" gradientUnits="userSpaceOnUse" xlink:href="#linearGradient4646"/></defs><metadata id="metadata5"/><g id="layer2" transform="translate(-87.142608,-131.87657)" style="display:none"><path style="opacity:1;fill:none;stroke:url(#linearGradient4612);stroke-width:2.91000009;stroke-linecap:round;stroke-linejoin:round;stroke-miterlimit:4;stroke-dasharray:none;stroke-opacity:1" id="path4590" d="m 92.820018,148.25732 c 0,0 2.553928,-0.15981 3.703892,-0.66012 1.330085,-0.57868 2.485902,-1.55668 3.47898,-2.61393 1.35971,-1.44758 2.67282,-3.08505 3.27404,-4.97789 0.20238,-0.63718 0.36763,-1.33226 0.41636,-2.02164 m 0,0 c 0.0487,-0.68938 -0.019,-1.37306 -0.28272,-1.98741 -0.37022,-0.86259 -1.19832,-1.62691 -2.10475,-1.87088 -1.24006,-0.33376 -2.670737,0.11314 -3.775176,0.7684 -1.03989,0.61697 -2.085172,1.59064 -2.338609,2.77292 -0.135944,0.63418 0.0046,1.49701 0.53454,1.87089 0.428559,0.30233 1.176698,0.2465 1.570208,-0.10022 0.442451,-0.38985 0.46984,-1.1634 0.334087,-1.73726 m 0,0 c -0.138958,-0.5874 -0.683462,-1.00209 -1.102486,-1.43657 -0.752257,-0.78001 -1.227031,-1.57645 -2.505653,-2.07134 -0.760696,-0.29443 -1.660712,-0.44514 -2.438834,-0.20046 -0.799793,0.2515 -1.512127,0.88126 -1.937705,1.60362 -0.460107,0.78097 -0.562901,1.76838 -0.50113,2.6727 0.0672,0.98375 0.495493,1.92387 0.935443,2.80633 0.543027,1.0892 1.263784,2.09624 2.071339,3.00679 0.837622,0.94445 1.837034,1.73871 2.839739,2.50564 0.485957,0.37169 1.532327,1.01031 1.532327,1.01031"/></g><g id="layer6" transform="translate(-87.142608,-131.87657)" style="display:inline"><path style="opacity:1;fill:none;stroke:url(#linearGradient4640);stroke-width:2.91000009;stroke-linecap:round;stroke-linejoin:round;stroke-miterlimit:4;stroke-dasharray:none;stroke-opacity:1" id="path4624" d="m 92.811703,147.5972 c 0,0 2.532787,0.39093 3.703892,0 1.375881,-0.45929 2.485902,-1.55668 3.478982,-2.61393 1.359703,-1.44758 2.672813,-3.08505 3.274033,-4.97789 0.20238,-0.63718 0.36763,-1.33226 0.41636,-2.02164"/></g><g id="layer4" transform="translate(-87.142608,-131.87657)" style="display:inline;opacity:1"><path id="path4665" d="m 95.726575,139.53766 c 0.428559,0.30233 1.176698,0.2465 1.570208,-0.10022 0.442451,-0.38985 0.46984,-1.1634 0.334087,-1.73726 m 0,0 c -0.780063,-1.43419 -2.460326,-3.04303 -3.608139,-3.50791 -0.760696,-0.29443 -1.660712,-0.44514 -2.438834,-0.20046 -0.799793,0.2515 -1.512127,0.88126 -1.937705,1.60362 -0.460107,0.78097 -0.562901,1.76838 -0.50113,2.6727 0.0672,0.98375 0.495493,1.92387 0.935443,2.80633 0.543027,1.0892 1.263784,2.09624 2.071339,3.00679 0.837622,0.94445 1.837034,1.73871 2.839739,2.50564 0.485957,0.37169 1.532327,1.01031 1.532327,1.01031" style="display:inline;opacity:1;fill:none;stroke:url(#linearGradient4670);stroke-width:2.91000009;stroke-linecap:round;stroke-linejoin:round;stroke-miterlimit:4;stroke-dasharray:none;stroke-opacity:1"/></g><g id="layer5" transform="translate(-87.142608,-131.87657)" style="display:inline"><path id="path4626" d="m 103.68497,137.98374 c 0.0487,-0.68938 -0.019,-1.37306 -0.28272,-1.98741 -0.37022,-0.86259 -1.19832,-1.62691 -2.10475,-1.87088 -1.24006,-0.33376 -2.670725,0.11314 -3.775169,0.7684 -1.03989,0.61697 -2.085172,1.59064 -2.338609,2.77292 -0.135944,0.63418 0.0046,1.49701 0.53454,1.87089" style="opacity:1;fill:none;stroke:url(#linearGradient4648);stroke-width:2.91000009;stroke-linecap:round;stroke-linejoin:round;stroke-miterlimit:4;stroke-dasharray:none;stroke-opacity:1"/></g><g style="display:inline" id="g4674" transform="translate(-87.142608,-131.87657)"><path id="path4672" d="m 96.52391,147.5972 c 1.330085,-0.57868 2.485902,-1.55668 3.47898,-2.61393 1.35971,-1.44758 2.67282,-3.08505 3.27404,-4.97789 0.20238,-0.63718 0.36763,-1.33226 0.41636,-2.02164 0.0487,-0.68938 -0.019,-1.37306 -0.28272,-1.98741 -0.37022,-0.86259 -1.19832,-1.62691 -2.10475,-1.87088 -1.24006,-0.33376 -2.670737,0.11314 -3.775176,0.7684 -1.03989,0.61697 -2.085172,1.59064 -2.338609,2.77292 -0.135944,0.63418 0.0046,1.49701 0.53454,1.87089 0.428559,0.30233 1.176698,0.2465 1.570208,-0.10022 0.442451,-0.38985 0.46984,-1.1634 0.334087,-1.73726 m 0,0 c -0.138958,-0.5874 -0.683462,-1.00209 -1.102486,-1.43657 -0.752257,-0.78001 -1.227031,-1.57645 -2.505653,-2.07134 -0.760696,-0.29443 -1.660712,-0.44514 -2.438834,-0.20046 -0.799793,0.2515 -1.512127,0.88126 -1.937705,1.60362 -0.460107,0.78097 -0.562901,1.76838 -0.50113,2.6727 0.0672,0.98375 0.495493,1.92387 0.935443,2.80633 0.543027,1.0892 1.263784,2.09624 2.071339,3.00679 0.837622,0.94445 1.837034,1.73871 2.839739,2.50564 0.485957,0.37169 1.532327,1.01031 1.532327,1.01031" style="opacity:1;fill:red;stroke:red;stroke-width:2.91000009;stroke-linecap:round;stroke-linejoin:round;stroke-miterlimit:4;stroke-dasharray:none;stroke-opacity:1"/></g></svg>