<svg xmlns="http://www.w3.org/2000/svg" xmlns:svg="http://www.w3.org/2000/svg" xmlns:xlink="http://www.w3.org/1999/xlink" id="svg4" width="24" height="24" version="1.1" viewBox="0 0 24 24"><metadata id="metadata10"/><defs id="defs8"><linearGradient id="linearGradient838-0"><stop style="stop-color:red;stop-opacity:1" id="stop834" offset="0"/><stop style="stop-color:#fff;stop-opacity:1" id="stop836" offset="1"/></linearGradient><linearGradient id="linearGradient840" x1="2.637" x2="21.614" y1="16.027" y2="3.798" gradientUnits="userSpaceOnUse" xlink:href="#linearGradient838-0"/><linearGradient id="linearGradient871" x1="29.307" x2="5.8" y1="2.069" y2="26.705" gradientUnits="userSpaceOnUse" xlink:href="#linearGradient838-0"/><linearGradient id="linearGradient873" x1="25.9" x2="5.81" y1="14.375" y2="2.438" gradientUnits="userSpaceOnUse" xlink:href="#linearGradient838-0"/><linearGradient id="linearGradient877" x1="3.428" x2="18.701" y1="17.825" y2="7.034" gradientUnits="userSpaceOnUse" xlink:href="#linearGradient838-0"/></defs><g id="layer2"><path id="path2" d="m 12.1,18.55 -0.1,0.1 -0.11,-0.1 C 7.14,14.24 4,11.39 4,8.5 4,6.5 5.5,5 7.5,5 c 1.54,0 3.04,1 3.57,2.36 h 1.86 C 13.46,6 14.96,5 16.5,5 c 2,0 3.5,1.5 3.5,3.5 0,2.89 -3.14,5.74 -7.9,10.05 M 16.5,3 C 14.76,3 13.09,3.81 12,5.08 10.91,3.81 9.24,3 7.5,3 4.42,3 2,5.41 2,8.5 c 0,3.77 3.4,6.86 8.55,11.53 L 12,21.35 13.45,20.03 C 18.6,15.36 22,12.27 22,8.5 22,5.41 19.58,3 16.5,3 Z" style="fill:red"/></g><g id="layer3" style="display:none"><path style="opacity:1;fill:none;stroke:url(#linearGradient840);stroke-width:2.5;stroke-linecap:round;stroke-linejoin:round;stroke-miterlimit:4;stroke-dasharray:none;stroke-opacity:1" id="path824" d="m 6.8313706,20.440496 c 0,0 3.9604684,0.710181 5.1774594,-0.431455 2.814349,-2.640085 5.403151,-4.664046 7.456743,-7.552269 0.908622,-1.277909 1.637065,-2.9018993 1.487225,-4.4627299 C 20.838591,6.8043869 20.134647,5.6060883 19.19283,4.8703555 18.304962,4.1767672 17.057421,3.8872154 15.934049,3.9732978 c -0.998512,0.076515 -1.957385,0.6061542 -2.741272,1.229373 -1.055219,0.8389372 -2.014375,1.9443516 -2.444164,3.2220779 -0.11196,0.3328492 -0.248318,0.8052062 0,1.0535242 0.576095,0.5760951 1.868069,0.5760951 2.444164,0 0.248318,-0.248318 0.11196,-0.720675 0,-1.0535242 C 12.762988,7.1470224 11.81111,6.0323714 10.748613,5.2026708 9.9272427,4.5612653 8.9139624,4.0414125 7.8740535,3.9732978 6.7686496,3.9008932 5.5358618,4.1742811 4.6740957,4.8703555 3.7360299,5.6280595 3.0818386,6.8682119 2.9867855,8.0703133 c -0.118901,1.5036963 0.5562287,3.0736187 1.4553214,4.2847637 1.2925126,1.741111 5.3454563,5.723845 7.5667231,7.653964"/></g><g id="layer4" style="display:inline"><path id="path868" d="m 6.8313706,20.440496 c 0,0 3.7264104,0.513846 5.1774594,-0.431455 2.924935,-1.905478 5.403151,-4.664046 7.456743,-7.552269 0.908622,-1.277909 1.637065,-2.9018993 1.487225,-4.4627299" style="display:inline;opacity:1;fill:none;stroke:url(#linearGradient871);stroke-width:2.5;stroke-linecap:round;stroke-linejoin:round;stroke-miterlimit:4;stroke-dasharray:none;stroke-opacity:1"/></g><g id="layer6" style="display:inline"><path style="display:inline;opacity:1;fill:none;stroke:url(#linearGradient877);stroke-width:2.5;stroke-linecap:round;stroke-linejoin:round;stroke-miterlimit:4;stroke-dasharray:none;stroke-opacity:1" id="path844" d="m 10.748613,9.4782729 c 0.576095,0.5760951 1.868069,0.5760951 2.444164,0 0.248318,-0.248318 0.11196,-0.720675 0,-1.0535242 C 12.762988,7.1470224 11.81111,6.0323714 10.748613,5.2026708 9.9272427,4.5612653 8.9139624,4.0414125 7.8740535,3.9732978 6.7686496,3.9008932 5.5358618,4.1742811 4.6740957,4.8703555 3.7360299,5.6280595 3.0818386,6.8682119 2.9867855,8.0703133 c -0.118901,1.5036963 0.5562287,3.0736187 1.4553214,4.2847637 1.2925126,1.741111 5.3454563,5.723845 7.5667231,7.653964"/></g><g id="layer5" style="display:inline"><path id="path846" d="M 20.952798,7.9940421 C 20.838591,6.8043869 20.134647,5.6060883 19.19283,4.8703555 18.304962,4.1767672 17.057421,3.8872154 15.934049,3.9732978 c -0.998512,0.076515 -1.957385,0.6061542 -2.741272,1.229373 -1.055219,0.8389372 -2.014375,1.9443516 -2.444164,3.2220779 -0.11196,0.3328492 -0.248318,0.8052062 0,1.0535242" style="display:inline;opacity:1;fill:none;stroke:url(#linearGradient873);stroke-width:2.5;stroke-linecap:round;stroke-linejoin:round;stroke-miterlimit:4;stroke-dasharray:none;stroke-opacity:1"/></g><g id="layer1"><path style="fill:red" id="path817" d="M 16.5,3 C 14.76,3 13.09,3.81 12,5.08 10.91,3.81 9.24,3 7.5,3 4.42,3 2,5.41 2,8.5 c 0,3.77 3.4,6.86 8.55,11.53 L 12,21.35 13.45,20.03 C 18.6,15.36 22,12.27 22,8.5 22,5.41 19.58,3 16.5,3 Z"/></g></svg>