<svg xmlns="http://www.w3.org/2000/svg" xmlns:svg="http://www.w3.org/2000/svg" id="svg8" width="463.2" height="706.258" version="1.1" viewBox="0 0 122.555 186.864"><metadata id="metadata5"/><g id="layer1" transform="translate(-22.831563,-44.846686)"><g id="g909" transform="translate(4.9145649e-6)"><g id="g1722"><g id="jetPack" transform="rotate(0.3325508,4275.1992,-8787.1537)"><g id="g1332" transform="translate(35.279578,-21.916101)"><g id="g1578" transform="rotate(12.871376,49.893567,484.21466)"><g id="g1543" transform="translate(13.897782,-0.08066511)"><g id="g1523" transform="matrix(1.0000523,0.00900688,0.00434516,1.2310544,-10.272674,-10.087537)"><rect style="fill:#f60;fill-opacity:1;fill-rule:nonzero;stroke:none;stroke-width:2.06161666;stroke-linecap:round;stroke-linejoin:round;stroke-miterlimit:4;stroke-dasharray:none;stroke-dashoffset:0;stroke-opacity:1" id="rect1513" width="3.213" height="36.664" x="23.057" y="173.969" ry="0"/><rect id="rect1515" width="3.213" height="36.664" x="24.805" y="173.969" ry="0" style="fill:#fc0;fill-opacity:1;fill-rule:nonzero;stroke:none;stroke-width:2.06161666;stroke-linecap:round;stroke-linejoin:round;stroke-miterlimit:4;stroke-dasharray:none;stroke-dashoffset:0;stroke-opacity:1"/><rect id="rect1517" width="3.213" height="36.664" x="26.553" y="173.969" ry="0" style="fill:#f95;fill-opacity:1;fill-rule:nonzero;stroke:none;stroke-width:2.06161666;stroke-linecap:round;stroke-linejoin:round;stroke-miterlimit:4;stroke-dasharray:none;stroke-dashoffset:0;stroke-opacity:1"/><rect style="fill:#fc0;fill-opacity:1;fill-rule:nonzero;stroke:none;stroke-width:2.06161666;stroke-linecap:round;stroke-linejoin:round;stroke-miterlimit:4;stroke-dasharray:none;stroke-dashoffset:0;stroke-opacity:1" id="rect1519" width="3.213" height="36.664" x="28.301" y="173.969" ry="0"/><rect id="rect1521" width="1.984" height="36.664" x="30.049" y="173.969" ry="0" style="fill:#f60;fill-opacity:1;fill-rule:nonzero;stroke:none;stroke-width:1.62023532;stroke-linecap:round;stroke-linejoin:round;stroke-miterlimit:4;stroke-dasharray:none;stroke-dashoffset:0;stroke-opacity:1"/></g><g id="g1539" transform="translate(-8.6423316,37.610138)"><ellipse id="ellipse1525" cx="26.269" cy="207.325" rx="4.725" ry="4.63" style="fill:#fc0;fill-opacity:1;fill-rule:nonzero;stroke:none;stroke-width:3.44637012;stroke-linecap:round;stroke-linejoin:round;stroke-miterlimit:4;stroke-dasharray:none;stroke-dashoffset:0;stroke-opacity:1"/><circle style="fill:#ffb380;fill-opacity:1;fill-rule:nonzero;stroke:none;stroke-width:2.64583325;stroke-linecap:round;stroke-linejoin:round;stroke-miterlimit:4;stroke-dasharray:none;stroke-dashoffset:0;stroke-opacity:1" id="circle1527" cx="23.529" cy="210.16" r="3.591"/><circle id="circle1529" cx="29.86" cy="209.121" r="3.874" style="fill:#ff7f2a;fill-opacity:1;fill-rule:nonzero;stroke:none;stroke-width:2.85471487;stroke-linecap:round;stroke-linejoin:round;stroke-miterlimit:4;stroke-dasharray:none;stroke-dashoffset:0;stroke-opacity:1"/><circle style="fill:#fc0;fill-opacity:1;fill-rule:nonzero;stroke:none;stroke-width:2.64583325;stroke-linecap:round;stroke-linejoin:round;stroke-miterlimit:4;stroke-dasharray:none;stroke-dashoffset:0;stroke-opacity:1" id="circle1531" cx="25.513" cy="212.711" r="3.591"/><circle id="circle1533" cx="31.372" cy="211.577" r="3.591" style="fill:#fd5;fill-opacity:1;fill-rule:nonzero;stroke:none;stroke-width:2.64583325;stroke-linecap:round;stroke-linejoin:round;stroke-miterlimit:4;stroke-dasharray:none;stroke-dashoffset:0;stroke-opacity:1"/><circle style="fill:#f60;fill-opacity:1;fill-rule:nonzero;stroke:none;stroke-width:2.64583325;stroke-linecap:round;stroke-linejoin:round;stroke-miterlimit:4;stroke-dasharray:none;stroke-dashoffset:0;stroke-opacity:1" id="circle1535" cx="22.395" cy="212.428" r="3.591"/><circle id="circle1537" cx="22.395" cy="212.428" r="22.032" style="fill:#f60;fill-opacity:1;fill-rule:nonzero;stroke:none;stroke-width:16.23437881;stroke-linecap:round;stroke-linejoin:round;stroke-miterlimit:4;stroke-dasharray:none;stroke-dashoffset:0;stroke-opacity:1"/></g><path style="fill:#999;fill-opacity:1;fill-rule:nonzero;stroke:#000;stroke-width:2.64583325;stroke-linecap:round;stroke-linejoin:round;stroke-miterlimit:4;stroke-dasharray:none;stroke-dashoffset:0;stroke-opacity:1" id="path1541" d="m 17.235701,191.43393 h 2.645841 c 0,0 0,0 3.175,12.85119 H 13.002368 c 4.233333,-12.85119 4.233333,-12.85119 4.233333,-12.85119 z"/></g><g id="g1509"><g id="g1187" transform="matrix(1.0000523,0.00900688,0.00434516,1.2310544,-10.272674,-10.087537)"><rect id="rect1172" width="3.213" height="36.664" x="23.057" y="173.969" ry="0" style="fill:#f60;fill-opacity:1;fill-rule:nonzero;stroke:none;stroke-width:2.06161666;stroke-linecap:round;stroke-linejoin:round;stroke-miterlimit:4;stroke-dasharray:none;stroke-dashoffset:0;stroke-opacity:1"/><rect style="fill:#fc0;fill-opacity:1;fill-rule:nonzero;stroke:none;stroke-width:2.06161666;stroke-linecap:round;stroke-linejoin:round;stroke-miterlimit:4;stroke-dasharray:none;stroke-dashoffset:0;stroke-opacity:1" id="rect1180" width="3.213" height="36.664" x="24.805" y="173.969" ry="0"/><rect style="fill:#f95;fill-opacity:1;fill-rule:nonzero;stroke:none;stroke-width:2.06161666;stroke-linecap:round;stroke-linejoin:round;stroke-miterlimit:4;stroke-dasharray:none;stroke-dashoffset:0;stroke-opacity:1" id="rect1174" width="3.213" height="36.664" x="26.553" y="173.969" ry="0"/><rect id="rect1176" width="3.213" height="36.664" x="28.301" y="173.969" ry="0" style="fill:#fc0;fill-opacity:1;fill-rule:nonzero;stroke:none;stroke-width:2.06161666;stroke-linecap:round;stroke-linejoin:round;stroke-miterlimit:4;stroke-dasharray:none;stroke-dashoffset:0;stroke-opacity:1"/><rect style="fill:#f60;fill-opacity:1;fill-rule:nonzero;stroke:none;stroke-width:1.62023532;stroke-linecap:round;stroke-linejoin:round;stroke-miterlimit:4;stroke-dasharray:none;stroke-dashoffset:0;stroke-opacity:1" id="rect1178" width="1.984" height="36.664" x="30.049" y="173.969" ry="0"/></g><g id="g1219" transform="translate(-8.6423316,37.610138)"><ellipse style="fill:#fc0;fill-opacity:1;fill-rule:nonzero;stroke:none;stroke-width:3.44637012;stroke-linecap:round;stroke-linejoin:round;stroke-miterlimit:4;stroke-dasharray:none;stroke-dashoffset:0;stroke-opacity:1" id="circle1211" cx="26.269" cy="207.325" rx="4.725" ry="4.63"/><circle id="path1201" cx="23.529" cy="210.16" r="3.591" style="fill:#ffb380;fill-opacity:1;fill-rule:nonzero;stroke:none;stroke-width:2.64583325;stroke-linecap:round;stroke-linejoin:round;stroke-miterlimit:4;stroke-dasharray:none;stroke-dashoffset:0;stroke-opacity:1"/><circle style="fill:#ff7f2a;fill-opacity:1;fill-rule:nonzero;stroke:none;stroke-width:2.85471487;stroke-linecap:round;stroke-linejoin:round;stroke-miterlimit:4;stroke-dasharray:none;stroke-dashoffset:0;stroke-opacity:1" id="circle1203" cx="29.86" cy="209.121" r="3.874"/><circle id="circle1205" cx="25.513" cy="212.711" r="3.591" style="fill:#fc0;fill-opacity:1;fill-rule:nonzero;stroke:none;stroke-width:2.64583325;stroke-linecap:round;stroke-linejoin:round;stroke-miterlimit:4;stroke-dasharray:none;stroke-dashoffset:0;stroke-opacity:1"/><circle style="fill:#fd5;fill-opacity:1;fill-rule:nonzero;stroke:none;stroke-width:2.64583325;stroke-linecap:round;stroke-linejoin:round;stroke-miterlimit:4;stroke-dasharray:none;stroke-dashoffset:0;stroke-opacity:1" id="circle1207" cx="31.372" cy="211.577" r="3.591"/><circle id="circle1209" cx="22.395" cy="212.428" r="3.591" style="fill:#f60;fill-opacity:1;fill-rule:nonzero;stroke:none;stroke-width:2.64583325;stroke-linecap:round;stroke-linejoin:round;stroke-miterlimit:4;stroke-dasharray:none;stroke-dashoffset:0;stroke-opacity:1"/><circle style="fill:#f60;fill-opacity:1;fill-rule:nonzero;stroke:none;stroke-width:16.23437881;stroke-linecap:round;stroke-linejoin:round;stroke-miterlimit:4;stroke-dasharray:none;stroke-dashoffset:0;stroke-opacity:1" id="circle1511" cx="22.395" cy="212.428" r="22.032"/></g><path id="rect1142" d="m 17.235701,191.43393 h 2.645841 c 0,0 0,0 3.175,12.85119 H 13.002368 c 4.233333,-12.85119 4.233333,-12.85119 4.233333,-12.85119 z" style="fill:#999;fill-opacity:1;fill-rule:nonzero;stroke:#000;stroke-width:2.64583325;stroke-linecap:round;stroke-linejoin:round;stroke-miterlimit:4;stroke-dasharray:none;stroke-dashoffset:0;stroke-opacity:1"/></g><rect style="fill:#999;fill-opacity:1;fill-rule:nonzero;stroke:#000;stroke-width:2.64583325;stroke-linecap:round;stroke-linejoin:round;stroke-miterlimit:4;stroke-dasharray:none;stroke-dashoffset:0;stroke-opacity:1" id="rect1140" width="28.013" height="34.439" x="15.097" y="162.041" ry="2.755"/></g></g></g><g id="g1453" transform="translate(59.333835,-12.294398)"><ellipse style="fill:#502d16;fill-opacity:1;fill-rule:nonzero;stroke:#000;stroke-width:2.64583325;stroke-linecap:round;stroke-linejoin:round;stroke-miterlimit:4;stroke-dasharray:none;stroke-dashoffset:0;stroke-opacity:1" id="path1447" cx="-28.201" cy="190.881" rx="5.746" ry="8.152" transform="rotate(-19.788321)"/><g id="g1439" transform="rotate(15.388007,114.58803,-102.80505)"><rect id="rect1433" width="10.223" height="19.043" x="112.353" y="177.363" style="fill:#803300;fill-opacity:1;fill-rule:nonzero;stroke:#000;stroke-width:2.64583325;stroke-linecap:round;stroke-linejoin:round;stroke-miterlimit:4;stroke-dasharray:none;stroke-dashoffset:0;stroke-opacity:1"/><rect id="rect1435" width="12.308" height="9.101" x="111.311" y="182.334" style="fill:#e6e6e6;fill-opacity:1;fill-rule:nonzero;stroke:#000;stroke-width:2.64583325;stroke-linecap:round;stroke-linejoin:round;stroke-miterlimit:4;stroke-dasharray:none;stroke-dashoffset:0;stroke-opacity:1"/></g></g><g id="g1463" transform="translate(42.228585,-12.294398)"><ellipse id="ellipse1455" cx="-28.201" cy="190.881" rx="5.746" ry="8.152" transform="rotate(-19.788321)" style="fill:#502d16;fill-opacity:1;fill-rule:nonzero;stroke:#000;stroke-width:2.64583325;stroke-linecap:round;stroke-linejoin:round;stroke-miterlimit:4;stroke-dasharray:none;stroke-dashoffset:0;stroke-opacity:1"/><g id="g1461" transform="rotate(15.388007,114.58803,-102.80505)"><rect style="fill:#803300;fill-opacity:1;fill-rule:nonzero;stroke:#000;stroke-width:2.64583325;stroke-linecap:round;stroke-linejoin:round;stroke-miterlimit:4;stroke-dasharray:none;stroke-dashoffset:0;stroke-opacity:1" id="rect1457" width="10.223" height="19.043" x="112.353" y="177.363"/><rect style="fill:#e6e6e6;fill-opacity:1;fill-rule:nonzero;stroke:#000;stroke-width:2.64583325;stroke-linecap:round;stroke-linejoin:round;stroke-miterlimit:4;stroke-dasharray:none;stroke-dashoffset:0;stroke-opacity:1" id="rect1459" width="12.308" height="9.101" x="111.311" y="182.334"/></g></g><g id="g1128" transform="matrix(-0.99977392,0.02126293,0.02126293,0.99977392,63.867388,-28.839557)"><g id="g1138" transform="rotate(37.122438,-42.655975,155.28288)"><rect style="fill:#4d4d4d;fill-opacity:1;fill-rule:nonzero;stroke:#000;stroke-width:2.64583325;stroke-linecap:round;stroke-linejoin:round;stroke-miterlimit:4;stroke-dasharray:none;stroke-dashoffset:0;stroke-opacity:1" id="rect1112" width="12.929" height="20.11" x="-47.301" y="154.528"/><path id="path1114" d="m -45.055982,147.4529 a 10.205357,13.607142 6.331687 0 0 -5.925483,10.86259 10.205357,13.607142 6.331687 0 0 0.172481,5.10014 l 19.839905,-1.18147 a 10.205357,13.607142 6.331687 0 0 0.274087,-1.66774 10.205357,13.607142 6.331687 0 0 -8.642627,-14.64966 10.205357,13.607142 6.331687 0 0 -5.718363,1.53614 z" style="fill:#520;fill-opacity:1;fill-rule:nonzero;stroke:#000;stroke-width:2.64583325;stroke-linecap:round;stroke-linejoin:round;stroke-miterlimit:4;stroke-dasharray:none;stroke-dashoffset:0;stroke-opacity:1"/><g id="g1126" transform="matrix(-0.99966858,0.02574377,0.02574377,0.99966858,-7.7202429,12.137323)"><rect id="rect1116" width="16.112" height="7.986" x="29.364" y="156.463" style="fill:#502d16;fill-opacity:1;fill-rule:nonzero;stroke:#000;stroke-width:2.40884471;stroke-linecap:round;stroke-linejoin:round;stroke-miterlimit:4;stroke-dasharray:none;stroke-dashoffset:0;stroke-opacity:1"/><path id="path1118" d="m 34.244637,156.39285 v 7.74852" style="fill:none;stroke:#000;stroke-width:1.32291663;stroke-linecap:butt;stroke-linejoin:miter;stroke-miterlimit:4;stroke-dasharray:none;stroke-opacity:1"/><path id="path1120" d="m 40.59464,156.58184 v 7.9375" style="fill:none;stroke:#000;stroke-width:1.32291663;stroke-linecap:butt;stroke-linejoin:miter;stroke-miterlimit:4;stroke-dasharray:none;stroke-opacity:1"/><ellipse id="ellipse1122" cx="47.058" cy="167.26" rx="3.402" ry="3.307" style="fill:#502d16;fill-opacity:1;fill-rule:nonzero;stroke:#000;stroke-width:2.64583325;stroke-linecap:round;stroke-linejoin:round;stroke-miterlimit:4;stroke-dasharray:none;stroke-dashoffset:0;stroke-opacity:1"/><rect id="rect1124" width="18.84" height="12.414" x="28" y="163.982" ry="4.138" style="fill:#502d16;fill-opacity:1;fill-rule:nonzero;stroke:#000;stroke-width:2.64583325;stroke-linecap:round;stroke-linejoin:round;stroke-miterlimit:4;stroke-dasharray:none;stroke-dashoffset:0;stroke-opacity:1"/></g></g></g><rect id="rect940" width="31.521" height="38.324" x="76.008" y="117.609" style="fill:#502d16;fill-opacity:1;fill-rule:nonzero;stroke:#000;stroke-width:2.49695563;stroke-linecap:round;stroke-linejoin:round;stroke-miterlimit:4;stroke-dasharray:none;stroke-dashoffset:0;stroke-opacity:1"/><g id="g981"><path style="fill:#520;fill-opacity:1;fill-rule:nonzero;stroke:#000;stroke-width:2.64583325;stroke-linecap:round;stroke-linejoin:round;stroke-miterlimit:4;stroke-dasharray:none;stroke-dashoffset:0;stroke-opacity:1" id="path954" d="m 83.338939,153.82719 a 15.151723,22.314356 40.871116 0 0 17.553711,-9.64087 15.151723,22.314356 40.871116 0 0 3.1442,-26.78859 15.151723,22.314356 40.871116 0 0 -3.37019,-1.9427 15.151723,22.314356 40.871116 0 1 -6.660883,20.74236 15.151723,22.314356 40.871116 0 1 -22.689224,8.90153 15.151723,22.314356 40.871116 0 0 3.517069,6.04659 15.151723,22.314356 40.871116 0 0 8.505317,2.68168 z"/><rect style="fill:#ccc;fill-opacity:1;fill-rule:nonzero;stroke:#000;stroke-width:2.64583325;stroke-linecap:round;stroke-linejoin:round;stroke-miterlimit:4;stroke-dasharray:none;stroke-dashoffset:0;stroke-opacity:1" id="rect963" width="5.67" height="14.363" x="8.198" y="163.999" transform="rotate(-25.093132)"/><rect id="rect965" width="5.67" height="14.363" x="-5.534" y="163.543" transform="rotate(-35.967033)" style="fill:#ccc;fill-opacity:1;fill-rule:nonzero;stroke:#000;stroke-width:2.64583325;stroke-linecap:round;stroke-linejoin:round;stroke-miterlimit:4;stroke-dasharray:none;stroke-dashoffset:0;stroke-opacity:1"/><rect style="fill:#ccc;fill-opacity:1;fill-rule:nonzero;stroke:#000;stroke-width:2.64583325;stroke-linecap:round;stroke-linejoin:round;stroke-miterlimit:4;stroke-dasharray:none;stroke-dashoffset:0;stroke-opacity:1" id="rect967" width="5.67" height="14.363" x="-12.943" y="164.667" transform="rotate(-35.240554)"/></g><g id="g975" transform="translate(6.6145859,-18.709821)"><rect style="fill:#28170b;fill-opacity:1;fill-rule:nonzero;stroke:#000;stroke-width:2.53993678;stroke-linecap:round;stroke-linejoin:round;stroke-miterlimit:4;stroke-dasharray:none;stroke-dashoffset:0;stroke-opacity:1" id="rect969" width="36.014" height="6.909" x="67.147" y="170.703"/><rect style="fill:#ccc;fill-opacity:1;fill-rule:nonzero;stroke:#000;stroke-width:2.64583325;stroke-linecap:round;stroke-linejoin:round;stroke-miterlimit:4;stroke-dasharray:none;stroke-dashoffset:0;stroke-opacity:1" id="rect971" width="13.04" height="13.418" x="78.633" y="167.449"/></g><g id="g938" transform="translate(10.583333,-12.85119)"><g id="g1605"><path style="fill:#ccc;fill-opacity:.90410958;fill-rule:nonzero;stroke:#000;stroke-width:9.15326309;stroke-linecap:round;stroke-linejoin:round;stroke-miterlimit:4;stroke-dasharray:none;stroke-dashoffset:0;stroke-opacity:1" id="path825" d="m 300,242.0957 c -53.23377,0.007 -96.94008,45.03263 -108.51172,106.19532 -8.13979,43.02338 -8.32812,105.93774 -8.32812,153.64062 116.83984,20 0,0 116.83984,20 h 58.41992 l 58.41992,-20 C 415.55745,484.96359 410.0381,354.17101 408.53516,348.29102 393.11755,287.9722 353.2426,242.08906 300,242.0957 Z" transform="scale(0.26458333)"/><path style="fill:#fff;fill-opacity:.90410958;fill-rule:nonzero;stroke:none;stroke-width:2.42180085;stroke-linecap:round;stroke-linejoin:round;stroke-miterlimit:4;stroke-dasharray:none;stroke-dashoffset:0;stroke-opacity:1" id="path1580" d="M 81.751183,66.597296 C 67.666415,66.599196 56.102454,78.512177 53.04079,94.694804 50.887138,106.07808 50.837306,122.72416 50.837306,135.34555 l 0.274918,0.047 c 0.04504,-12.66476 0.36517,-27.70088 2.596224,-38.401791 3.476471,-16.674362 16.231338,-29.118758 31.990813,-30.065865 -1.28192,-0.215334 -2.598674,-0.327796 -3.948078,-0.327628 z"/><path style="fill:#ccc;fill-opacity:1;fill-rule:nonzero;stroke:#999;stroke-width:10.67274857;stroke-linecap:round;stroke-linejoin:round;stroke-miterlimit:4;stroke-dasharray:none;stroke-dashoffset:0;stroke-opacity:1" id="rect888" d="M 306.07227,242.30469 V 375.5918 h 45.35546 V 258.2207 c -13.47689,-9.16813 -28.71627,-14.80926 -45.35546,-15.91601 z" transform="scale(0.26458333)"/><path style="fill:gray;fill-opacity:.90410958;fill-rule:nonzero;stroke:#000;stroke-width:10;stroke-linecap:round;stroke-linejoin:round;stroke-miterlimit:4;stroke-dasharray:none;stroke-dashoffset:0;stroke-opacity:1" id="rect838" d="m 194.08789,336.80469 c -0.99243,3.75873 -1.86227,7.58908 -2.59961,11.48633 -8.13979,43.02338 -8.32812,105.93774 -8.32812,153.64062 l 116.83984,20 h 58.41992 l 58.41992,-20 c -1.28239,-16.96805 -6.80174,-147.76063 -8.30468,-153.64062 -0.995,-3.89274 -2.09528,-7.72229 -3.29102,-11.48633 z" transform="scale(0.26458333)"/><path style="fill:#000;fill-opacity:1;fill-rule:nonzero;stroke:none;stroke-width:9.88082886;stroke-linecap:round;stroke-linejoin:round;stroke-miterlimit:4;stroke-dasharray:none;stroke-dashoffset:0;stroke-opacity:1" id="rect850" d="m 191.57031,347.87695 c -0.0265,0.13841 -0.0558,0.27549 -0.082,0.41407 -1.24485,6.57976 -2.30245,5.62901 -3.20312,13.01367 l 116.91113,8 h 46.45556 l 58.45557,-8 c -0.66634,-11.58124 -1.22808,-11.66711 -1.57226,-13.01367 -0.0355,-0.13904 -0.0755,-0.27518 -0.11133,-0.41407 z" transform="scale(0.26458333)"/><rect style="fill:#000;fill-opacity:1;fill-rule:nonzero;stroke:none;stroke-width:2.82383132;stroke-linecap:round;stroke-linejoin:round;stroke-miterlimit:4;stroke-dasharray:none;stroke-dashoffset:0;stroke-opacity:1" id="rect855" width="12.001" height="46.491" x="80.981" y="92.042"/><path style="fill:#1a1a1a;fill-opacity:1;fill-rule:nonzero;stroke:none;stroke-width:11.35426998;stroke-linecap:round;stroke-linejoin:round;stroke-miterlimit:4;stroke-dasharray:none;stroke-dashoffset:0;stroke-opacity:1" id="path857" d="m 188.39258,368.45117 c -5.0923,41.04028 -5.23242,92.7898 -5.23242,133.48047 l 115.19336,19.71875 c -10e-6,-12.82003 -10e-6,-38.65586 0,-54.21484 0,-54.42332 -55.11742,-98.58148 -109.96094,-98.98438 z" transform="scale(0.26458333)"/><path style="fill:#ccc;fill-opacity:1;fill-rule:nonzero;stroke:none;stroke-width:9.82271576;stroke-linecap:round;stroke-linejoin:round;stroke-miterlimit:4;stroke-dasharray:none;stroke-dashoffset:0;stroke-opacity:1" id="path863" d="m 185.33984,392.28125 c -2.10071,33.39613 -2.17968,79.54825 -2.17968,109.65039 l 115.32226,19.74024 C 297.74307,472.48277 243.98984,414.59257 211.62695,402.28125 Z" transform="scale(0.26458333)"/><path style="fill:#1a1a1a;fill-opacity:1;fill-rule:nonzero;stroke:none;stroke-width:10.99943829;stroke-linecap:round;stroke-linejoin:round;stroke-miterlimit:4;stroke-dasharray:none;stroke-dashoffset:0;stroke-opacity:1" id="path873" d="m 410.26562,372.02734 c -30.50627,11.32873 -53.12304,52.65907 -53.12304,101.91993 v 47.98437 h 1.27734 l 58.41992,-20 c -0.96497,-12.76817 -4.32763,-89.95511 -6.57422,-129.9043 z" transform="scale(0.26458333)"/><path style="fill:#ccc;fill-opacity:1;fill-rule:nonzero;stroke:none;stroke-width:10;stroke-linecap:round;stroke-linejoin:round;stroke-miterlimit:4;stroke-dasharray:none;stroke-dashoffset:0;stroke-opacity:1" id="path879" d="m 411.60156,397.39258 c -26.27059,19.89208 -53.74413,82.54225 -53.74414,124.05664 0,0.16335 0.005,0.32013 0.006,0.48242 h 0.55664 l 58.41992,-20 c -0.78679,-10.41052 -3.1678,-63.57204 -5.23828,-104.53906 z" transform="scale(0.26458333)"/><path id="path886" d="m 300,242.0957 c -53.23377,0.007 -96.94008,45.03263 -108.51172,106.19532 -8.13979,43.02338 -8.32812,105.93774 -8.32812,153.64062 116.83984,20 0,0 116.83984,20 h 58.41992 l 58.41992,-20 C 415.55745,484.96359 410.0381,354.17101 408.53516,348.29102 393.11755,287.9722 353.2426,242.08906 300,242.0957 Z" transform="scale(0.26458333)" style="fill:none;fill-opacity:.90410958;fill-rule:nonzero;stroke:#000;stroke-width:9.15326309;stroke-linecap:round;stroke-linejoin:round;stroke-miterlimit:4;stroke-dasharray:none;stroke-dashoffset:0;stroke-opacity:1"/><path style="fill:none;fill-opacity:.90410958;fill-rule:nonzero;stroke:#000;stroke-width:9.15326309;stroke-linecap:round;stroke-linejoin:round;stroke-miterlimit:4;stroke-dasharray:none;stroke-dashoffset:0;stroke-opacity:1" id="path890" d="m 300,242.0957 c -53.23377,0.007 -96.94008,45.03263 -108.51172,106.19532 -8.13979,43.02338 -8.32812,105.93774 -8.32812,153.64062 116.83984,20 0,0 116.83984,20 h 58.41992 l 58.41992,-20 C 415.55745,484.96359 410.0381,354.17101 408.53516,348.29102 393.11755,287.9722 353.2426,242.08906 300,242.0957 Z" transform="scale(0.26458333)"/><rect style="fill:gray;fill-opacity:1;fill-rule:nonzero;stroke:#000;stroke-width:2.41941452;stroke-linecap:round;stroke-linejoin:round;stroke-miterlimit:4;stroke-dasharray:none;stroke-dashoffset:0;stroke-opacity:1" id="rect869" width="11.626" height="39.221" x="44.201" y="94.435"/><ellipse style="fill:#ccc;fill-opacity:1;fill-rule:nonzero;stroke:#000;stroke-width:2.64583325;stroke-linecap:round;stroke-linejoin:round;stroke-miterlimit:4;stroke-dasharray:none;stroke-dashoffset:0;stroke-opacity:1" id="path871" cx="50.014" cy="94.258" rx="5.746" ry="7.283"/><path id="path911" d="m 44.22321,116.13839 h 7.181545" style="fill:none;stroke:#000;stroke-width:2.64583325;stroke-linecap:butt;stroke-linejoin:miter;stroke-miterlimit:4;stroke-dasharray:none;stroke-opacity:1"/><path style="fill:none;stroke:#000;stroke-width:2.64583325;stroke-linecap:butt;stroke-linejoin:miter;stroke-miterlimit:4;stroke-dasharray:none;stroke-opacity:1" id="path913" d="m 44.22321,124.60511 h 7.181545"/><path id="path915" d="m 44.22321,120.37175 h 7.181545" style="fill:none;stroke:#000;stroke-width:2.64583325;stroke-linecap:butt;stroke-linejoin:miter;stroke-miterlimit:4;stroke-dasharray:none;stroke-opacity:1"/><rect id="rect919" width="4.951" height="6.331" x="47.538" y="91.093" ry="1.512" style="fill:#4d4d4d;fill-opacity:1;fill-rule:nonzero;stroke:none;stroke-width:2.64583325;stroke-linecap:round;stroke-linejoin:round;stroke-miterlimit:4;stroke-dasharray:none;stroke-dashoffset:0;stroke-opacity:1"/></g></g><g id="g1028" transform="rotate(-68.004635,51.538261,103.37786)"><rect style="fill:#4d4d4d;fill-opacity:1;fill-rule:nonzero;stroke:#000;stroke-width:2.64583325;stroke-linecap:round;stroke-linejoin:round;stroke-miterlimit:4;stroke-dasharray:none;stroke-dashoffset:0;stroke-opacity:1" id="rect985" width="12.929" height="20.11" x="30.999" y="129.801"/><path id="path983" d="m 33.243987,122.72588 a 10.205357,13.607142 6.331687 0 0 -5.925483,10.86259 10.205357,13.607142 6.331687 0 0 0.172481,5.10014 l 19.839905,-1.18147 a 10.205357,13.607142 6.331687 0 0 0.274087,-1.66774 10.205357,13.607142 6.331687 0 0 -8.642627,-14.64966 10.205357,13.607142 6.331687 0 0 -5.718363,1.53614 z" style="fill:#520;fill-opacity:1;fill-rule:nonzero;stroke:#000;stroke-width:2.64583325;stroke-linecap:round;stroke-linejoin:round;stroke-miterlimit:4;stroke-dasharray:none;stroke-dashoffset:0;stroke-opacity:1"/><g id="g1018" transform="translate(0.35051631,-11.150298)"><rect id="rect987" width="16.112" height="7.986" x="29.364" y="156.463" style="fill:#502d16;fill-opacity:1;fill-rule:nonzero;stroke:#000;stroke-width:2.40884471;stroke-linecap:round;stroke-linejoin:round;stroke-miterlimit:4;stroke-dasharray:none;stroke-dashoffset:0;stroke-opacity:1"/><path id="path989" d="m 34.244637,156.39285 v 7.74852" style="fill:none;stroke:#000;stroke-width:1.32291663;stroke-linecap:butt;stroke-linejoin:miter;stroke-miterlimit:4;stroke-dasharray:none;stroke-opacity:1"/><path id="path991" d="m 40.59464,156.58184 v 7.9375" style="fill:none;stroke:#000;stroke-width:1.32291663;stroke-linecap:butt;stroke-linejoin:miter;stroke-miterlimit:4;stroke-dasharray:none;stroke-opacity:1"/><ellipse id="path995" cx="47.058" cy="167.26" rx="3.402" ry="3.307" style="fill:#502d16;fill-opacity:1;fill-rule:nonzero;stroke:#000;stroke-width:2.64583325;stroke-linecap:round;stroke-linejoin:round;stroke-miterlimit:4;stroke-dasharray:none;stroke-dashoffset:0;stroke-opacity:1"/><rect id="rect993" width="18.84" height="12.414" x="28" y="163.982" ry="4.138" style="fill:#502d16;fill-opacity:1;fill-rule:nonzero;stroke:#000;stroke-width:2.64583325;stroke-linecap:round;stroke-linejoin:round;stroke-miterlimit:4;stroke-dasharray:none;stroke-dashoffset:0;stroke-opacity:1"/></g></g><g id="rightArm" transform="rotate(0.00128842,1517947.1,6987789.1)"><g id="g1409"><circle id="path1382" cx="-51.85" cy="150.804" r="4.276" style="fill:none;fill-opacity:1;fill-rule:nonzero;stroke:#000;stroke-width:2.64583325;stroke-linecap:round;stroke-linejoin:round;stroke-miterlimit:4;stroke-dasharray:none;stroke-dashoffset:0;stroke-opacity:1"/><rect style="fill:#000;fill-opacity:1;fill-rule:nonzero;stroke:#000;stroke-width:.53965735;stroke-linecap:round;stroke-linejoin:round;stroke-miterlimit:4;stroke-dasharray:none;stroke-dashoffset:0;stroke-opacity:1" id="rect1361" width="3.443" height="6.115" x="-43.18" y="133.415"/><path id="rect1352" d="m -65.172125,140.52311 h 12.644241 l -5.179514,38.13624 -12.644241,-6.39164 z" style="fill:#666;fill-opacity:1;fill-rule:nonzero;stroke:#000;stroke-width:2.3973937;stroke-linecap:round;stroke-linejoin:round;stroke-miterlimit:4;stroke-dasharray:none;stroke-dashoffset:0;stroke-opacity:1"/><rect id="rect1355" width="49.545" height="9.455" x="-70.877" y="138.192" style="fill:#333;fill-opacity:1;fill-rule:nonzero;stroke:#000;stroke-width:2.54563546;stroke-linecap:round;stroke-linejoin:round;stroke-miterlimit:4;stroke-dasharray:none;stroke-dashoffset:0;stroke-opacity:1"/><rect id="rect1359" width="3.443" height="6.115" x="-59.75" y="133.148" style="fill:#000;fill-opacity:1;fill-rule:nonzero;stroke:#000;stroke-width:.53965735;stroke-linecap:round;stroke-linejoin:round;stroke-miterlimit:4;stroke-dasharray:none;stroke-dashoffset:0;stroke-opacity:1"/><rect id="rect1363" width="27.796" height="6.414" x="-47.855" y="142.505" style="fill:#666;fill-opacity:1;fill-rule:nonzero;stroke:none;stroke-width:3.05514503;stroke-linecap:round;stroke-linejoin:round;stroke-miterlimit:4;stroke-dasharray:none;stroke-dashoffset:0;stroke-opacity:1"/><rect style="fill:none;fill-opacity:1;fill-rule:nonzero;stroke:#000;stroke-width:2.54563546;stroke-linecap:round;stroke-linejoin:round;stroke-miterlimit:4;stroke-dasharray:none;stroke-dashoffset:0;stroke-opacity:1" id="rect1365" width="49.545" height="9.455" x="-70.877" y="138.192"/><rect style="fill:#000;fill-opacity:1;fill-rule:nonzero;stroke:#000;stroke-width:1.10891378;stroke-linecap:round;stroke-linejoin:round;stroke-miterlimit:4;stroke-dasharray:none;stroke-dashoffset:0;stroke-opacity:1" id="rect1357" width="30.937" height="2.873" x="35.567" y="-134.467" transform="scale(-1)"/><rect id="rect1367" width="5.345" height="7.216" x="62.26" y="-136.638" ry="1.95" transform="scale(-1)" style="fill:#000;fill-opacity:1;fill-rule:nonzero;stroke:none;stroke-width:2.26018238;stroke-linecap:round;stroke-linejoin:round;stroke-miterlimit:4;stroke-dasharray:none;stroke-dashoffset:0;stroke-opacity:1"/><rect id="rect1369" width="40.09" height="4.276" x="-64.412" y="140.647" ry="1.95" style="fill:red;fill-opacity:1;fill-rule:nonzero;stroke:none;stroke-width:2.64583325;stroke-linecap:round;stroke-linejoin:round;stroke-miterlimit:4;stroke-dasharray:none;stroke-dashoffset:0;stroke-opacity:1"/></g><g id="g1350" transform="rotate(-89.73355,-8.659593,207.07646)"><rect style="fill:#4d4d4d;fill-opacity:1;fill-rule:nonzero;stroke:#000;stroke-width:2.64583325;stroke-linecap:round;stroke-linejoin:round;stroke-miterlimit:4;stroke-dasharray:none;stroke-dashoffset:0;stroke-opacity:1" id="rect1334" width="12.929" height="20.11" x="30.999" y="129.801"/><path id="path1336" d="m 33.243987,122.72588 a 10.205357,13.607142 6.331687 0 0 -5.925483,10.86259 10.205357,13.607142 6.331687 0 0 0.172481,5.10014 l 19.839905,-1.18147 a 10.205357,13.607142 6.331687 0 0 0.274087,-1.66774 10.205357,13.607142 6.331687 0 0 -8.642627,-14.64966 10.205357,13.607142 6.331687 0 0 -5.718363,1.53614 z" style="fill:#520;fill-opacity:1;fill-rule:nonzero;stroke:#000;stroke-width:2.64583325;stroke-linecap:round;stroke-linejoin:round;stroke-miterlimit:4;stroke-dasharray:none;stroke-dashoffset:0;stroke-opacity:1"/><g id="g1348" transform="translate(0.35051631,-11.150298)"><rect id="rect1338" width="16.112" height="7.986" x="29.364" y="156.463" style="fill:#502d16;fill-opacity:1;fill-rule:nonzero;stroke:#000;stroke-width:2.40884471;stroke-linecap:round;stroke-linejoin:round;stroke-miterlimit:4;stroke-dasharray:none;stroke-dashoffset:0;stroke-opacity:1"/><path id="path1340" d="m 34.244637,156.39285 v 7.74852" style="fill:none;stroke:#000;stroke-width:1.32291663;stroke-linecap:butt;stroke-linejoin:miter;stroke-miterlimit:4;stroke-dasharray:none;stroke-opacity:1"/><path id="path1342" d="m 40.59464,156.58184 v 7.9375" style="fill:none;stroke:#000;stroke-width:1.32291663;stroke-linecap:butt;stroke-linejoin:miter;stroke-miterlimit:4;stroke-dasharray:none;stroke-opacity:1"/><ellipse id="ellipse1344" cx="47.058" cy="167.26" rx="3.402" ry="3.307" style="fill:#502d16;fill-opacity:1;fill-rule:nonzero;stroke:#000;stroke-width:2.64583325;stroke-linecap:round;stroke-linejoin:round;stroke-miterlimit:4;stroke-dasharray:none;stroke-dashoffset:0;stroke-opacity:1"/><rect id="rect1346" width="18.84" height="12.414" x="28" y="163.982" ry="4.138" style="fill:#502d16;fill-opacity:1;fill-rule:nonzero;stroke:#000;stroke-width:2.64583325;stroke-linecap:round;stroke-linejoin:round;stroke-miterlimit:4;stroke-dasharray:none;stroke-dashoffset:0;stroke-opacity:1"/></g></g></g></g></g></g></svg>