<svg xmlns="http://www.w3.org/2000/svg" fill="none" class="scene" viewBox="0 0 600 600"><g clip-path="url(#backdrop-clip)"><circle cx="300" cy="300" r="300" fill="#2E4241" class="scene__backdrop"/><g class="scene__shooter-hold"><path fill="url(#shooting-star-paint)" fill-rule="evenodd" d="M305.97 243.608L300 363l-5.97-119.392a6 6 0 1111.94 0z" class="scene__shooter" clip-rule="evenodd"/></g><g class="scene__moon"><g class="moon"><path fill="#C4C4C4" d="M456 300c0 86.156-69.844 156-156 156s-156-69.844-156-156 69.844-156 156-156c16.178 0 31.78 2.463 46.453 7.033C409.923 170.804 456 230.021 456 300z" class="moon__body"/><circle cx="207.092" cy="318.026" r="16.412" fill="#888" class="moon__crater moon__crater--dark" transform="rotate(6.943 207.092 318.026)"/><circle cx="319.866" cy="391.278" r="22.88" fill="#888" class="moon__crater moon__crater--dark" transform="rotate(-98.782 319.866 391.278)"/><circle cx="375.378" cy="243.744" r="22.88" fill="#888" class="moon__crater moon__crater--dark" transform="rotate(-35.273 375.378 243.744)"/><circle cx="382.321" cy="289.814" r="32.587" fill="#888" class="moon__crater moon__crater--dark" transform="rotate(25.737 382.321 289.814)"/><path fill="#AEAEAE" fill-rule="evenodd" d="M207.582 301.551c8.219 1.754 13.883 9.529 12.847 18.031-1.034 8.494-8.384 14.678-16.773 14.422-8.219-1.754-13.882-9.528-12.847-18.031 1.034-8.494 8.384-14.678 16.773-14.422z" class="moon__crater moon__crater--light" clip-rule="evenodd"/><path fill="#AEAEAE" fill-rule="evenodd" d="M297.571 396.833c-.745-11.687 7.546-22.219 19.344-24.041 11.793-1.822 22.872 5.71 25.693 17.071.746 11.688-7.546 22.219-19.343 24.041-11.793 1.822-22.872-5.71-25.694-17.071z" class="moon__crater moon__crater--light" clip-rule="evenodd"/><path fill="#AEAEAE" fill-rule="evenodd" d="M360.462 226.268c10.128-5.88 23.252-3.157 30.145 6.589 6.891 9.742 5.092 23.018-3.817 30.611-10.129 5.88-23.252 3.157-30.146-6.589-6.891-9.742-5.092-23.018 3.818-30.611z" class="moon__crater moon__crater--light" clip-rule="evenodd"/><path fill="#AEAEAE" fill-rule="evenodd" d="M393.804 259.173c14.311 8.56 19.974 26.786 12.592 42.098-7.381 15.312-25.167 22.234-40.778 16.37-14.311-8.56-19.974-26.786-12.592-42.098 7.381-15.312 25.167-22.234 40.778-16.37z" class="moon__crater moon__crater--light" clip-rule="evenodd"/></g></g><g class="scene__stars"><circle cx="132" cy="170" r="5" fill="#fff" class="star"/><circle cx="189" cy="107" r="5" fill="#fff" class="star"/><circle cx="512" cy="217" r="5" fill="#fff" class="star"/><g class="star--twinkler"><circle cx="403" cy="90" r="5" fill="#fff" class="star"/></g><g class="star--twinkler"><circle cx="86" cy="317" r="5" fill="#fff" class="star"/></g></g><g class="scene__sun"><g class="sun"><g class="sun__ray-holder"><path fill="#F3C82F" d="M282 263h37.778l-10 74.963H292L282 263z" class="sun__ray"/></g><g class="sun__ray-holder"><path fill="#F3C82F" d="M282 263h37.778l-10 74.963H292L282 263z" class="sun__ray"/></g><g class="sun__ray-holder"><path fill="#F3C82F" d="M282 263h37.778l-10 74.963H292L282 263z" class="sun__ray"/></g><g class="sun__ray-holder"><path fill="#F3C82F" d="M282 263h37.778l-10 74.963H292L282 263z" class="sun__ray"/></g><g class="sun__ray-holder"><path fill="#F3C82F" d="M282 263h37.778l-10 74.963H292L282 263z" class="sun__ray"/></g><g class="sun__ray-holder"><path fill="#F3C82F" d="M282 263h37.778l-10 74.963H292L282 263z" class="sun__ray"/></g><g class="sun__ray-holder"><path fill="#F3C82F" d="M282 263h37.778l-10 74.963H292L282 263z" class="sun__ray"/></g><g class="sun__ray-holder"><path fill="#F3C82F" d="M282 263h37.778l-10 74.963H292L282 263z" class="sun__ray"/></g><path fill="#FFE486" d="M300 171.626c71.46 0 129.389 57.475 129.389 128.374S371.46 428.374 300 428.374c-71.46 0-129.389-57.475-129.389-128.374 0-13.313 2.043-26.152 5.834-38.227 16.398-52.23 65.514-90.147 123.555-90.147z" class="sun__body"/></g></g><g class="scene__hills"><path fill="#83E95F" d="M217 599c0 92.232 135.954 21 228.185 21C537.417 620 658 654.232 658 562s-52.768-147-145-147-296 91.768-296 184z" class="hill"/><path fill="#4CA32E" d="M335.837 630c0 92.232-104.954 0-197.185 0-92.232 0-160.815 38.232-160.815-54S46.42 422 138.652 422c92.231 0 197.185 115.768 197.185 208z" class="hill"/></g><g class="scene__cockerel"><g class="cockerel"><g class="cockerel__comb"><path fill="#FF0809" d="M572 278H443c-71.245 0-146 4-146 4 0-71.245 74.755-133 146-133s129 57.755 129 129z"/><path fill="#FF0809" d="M488.608 409.325l-91.216-91.217-91.217-91.216c50.377-50.378 111.947-61.77 162.325-11.392 50.378 50.378 70.486 143.448 20.108 193.825z"/><path fill="#FF0809" d="M550.911 339.19l-124.605-33.388-124.604-33.387C320.141 203.597 342.183 165.64 411 184.08c68.817 18.439 158.35 86.293 139.911 155.11z"/><path fill="#FF0809" d="M471.5 440.464C471.5 509.5 441.614 539 414 539s-50-29.5-50-98.536C364 371.429 346.886 288 374.5 288s97 83.429 97 152.464z"/></g><path fill="#EE0505" d="M281.523 438.333C281.523 478.65 257 519 199.5 525.5s-133-64-108-110.5 78-56.667 138.023-56.667c60.023 0 52 39.683 52 80z" class="cockerel__wattle"/><path fill="#FFF628" d="M229.179 109.498l122 128.5-57 40.5-65-169z" class="cockerel__beak cockerel__beak--left"/><path fill="#FFF628" d="M370.179 60.498L328.5 286.5l-69.321-26.502 111-199.5z" class="cockerel__beak cockerel__beak--right"/><path fill="#C4C4C4" d="M393 391.035L400 300c0-55.228-44.772-100-100-100s-100 44.772-100 100c0 40.445 24.011 75.283 58.557 91.035C189.801 436.766 76 573.312 76 621c-3 101.5 59.935 159.5 124 159.5s147.5 15 168-48.5c1.21-14.408 4-82.5 9.5-164L393 391.035z" class="cockerel__body"/><circle cx="300" cy="300" r="26" fill="#000" class="cockerel__eye"/><g class="scene__shout"><path fill="#FF3D00" d="M238.742 64.158l22.861 31.08-35.907-17.55 13.046-13.53z"/><path fill="#FF3D00" d="M285.62 20.866l3.226 55.18-24.394-51.55 21.168-3.63z"/><path fill="#FF3D00" d="M347.038 54.649l-28.904 25.555 14.259-37.335 14.645 11.78z"/></g></g></g><circle cx="300" cy="300" r="295" stroke="#000" stroke-width="10" class="scene__border"/></g><defs><linearGradient id="shooting-star-paint" x1="300" x2="300" y1="237" y2="363" gradientUnits="userSpaceOnUse"><stop stop-color="#fff"/><stop offset="1" stop-color="#C4C4C4" stop-opacity="0"/></linearGradient><clipPath id="backdrop-clip"><circle cx="300" cy="300" r="300"/></clipPath></defs></svg>