<svg xmlns="http://www.w3.org/2000/svg" xmlns:svg="http://www.w3.org/2000/svg" id="svg2505" width="445.715" height="471.715" version="1.1" viewBox="0 0 117.929 124.808"><metadata id="metadata2502"/><g id="layer1" transform="translate(-21.922693,-100.45227)"><path style="opacity:1;fill:#0ff;fill-opacity:1;fill-rule:nonzero;stroke:none;stroke-width:10;stroke-linecap:round;stroke-linejoin:round;stroke-miterlimit:4;stroke-dasharray:none;stroke-dashoffset:0;stroke-opacity:1" id="path3050" d="M 305.71484,379.66211 A 222.85715,222.85715 0 0 0 82.857422,602.51953 222.85715,222.85715 0 0 0 272.23633,822.56641 c -0.82514,2.28598 -1.27539,4.75459 -1.27539,7.33203 0,11.89903 9.57948,21.47851 21.47851,21.47851 h 26.54883 c 11.89903,0 21.47852,-9.57948 21.47852,-21.47851 0,-2.54109 -0.43916,-4.97558 -1.24219,-7.23438 A 222.85715,222.85715 0 0 0 528.57227,602.51953 222.85715,222.85715 0 0 0 305.71484,379.66211 Z" transform="scale(0.26458333)"/><path style="opacity:1;fill:#ff2a2a;fill-opacity:1;fill-rule:nonzero;stroke:none;stroke-width:10;stroke-linecap:round;stroke-linejoin:round;stroke-miterlimit:4;stroke-dasharray:none;stroke-dashoffset:0;stroke-opacity:1" id="path1433" d="M 222.85742 0 A 222.85715 222.85715 0 0 0 202.28906 1.0292969 A 222 222 0 0 1 420.85742 222.85742 A 222 222 0 0 1 198.85742 444.85742 A 222 222 0 0 1 188.92383 444.35938 C 188.39654 446.22732 188.10352 448.19524 188.10352 450.23633 C 188.10352 462.13536 197.683 471.71484 209.58203 471.71484 L 236.13086 471.71484 C 248.02989 471.71484 257.60938 462.13536 257.60938 450.23633 C 257.60938 447.69524 257.17022 445.26075 256.36719 443.00195 A 222.85715 222.85715 0 0 0 445.71484 222.85742 A 222.85715 222.85715 0 0 0 222.85742 0 z M 202.28906 1.0292969 A 222.85715 222.85715 0 0 0 180.23828 4.1914062 A 222.85715 222.85715 0 0 1 202.28906 1.0292969 z M 180.23828 4.1914062 A 222.85715 222.85715 0 0 0 158.81055 9.4902344 A 222.85715 222.85715 0 0 1 180.23828 4.1914062 z M 158.81055 9.4902344 A 222.85715 222.85715 0 0 0 158.59766 9.5449219 A 222.85715 222.85715 0 0 1 158.81055 9.4902344 z M 158.59766 9.5449219 A 222.85715 222.85715 0 0 0 138.02148 16.880859 A 222.85715 222.85715 0 0 1 158.59766 9.5449219 z M 138.02148 16.880859 A 222.85715 222.85715 0 0 0 137.59961 17.033203 A 222.85715 222.85715 0 0 1 138.02148 16.880859 z M 137.59961 17.033203 A 222.85715 222.85715 0 0 0 118.30859 26.173828 A 222.85715 222.85715 0 0 1 137.59961 17.033203 z M 118.30859 26.173828 A 222.85715 222.85715 0 0 0 117.43555 26.595703 A 222.85715 222.85715 0 0 1 118.30859 26.173828 z M 117.43555 26.595703 A 222.85715 222.85715 0 0 0 99.828125 37.205078 A 222.85715 222.85715 0 0 1 117.43555 26.595703 z M 99.828125 37.205078 A 222.85715 222.85715 0 0 0 98.310547 38.136719 A 222.85715 222.85715 0 0 1 99.828125 37.205078 z M 98.310547 38.136719 A 222.85715 222.85715 0 0 0 82.248047 50.15625 A 222.85715 222.85715 0 0 1 98.310547 38.136719 z M 82.248047 50.15625 A 222.85715 222.85715 0 0 0 80.458984 51.515625 A 222.85715 222.85715 0 0 1 82.248047 50.15625 z M 80.458984 51.515625 A 222.85715 222.85715 0 0 0 66.275391 64.53125 A 222.85715 222.85715 0 0 1 80.458984 51.515625 z M 66.275391 64.53125 A 222.85715 222.85715 0 0 0 64.011719 66.638672 A 222.85715 222.85715 0 0 1 66.275391 64.53125 z M 64.011719 66.638672 A 222.85715 222.85715 0 0 0 51.671875 80.474609 A 222.85715 222.85715 0 0 1 64.011719 66.638672 z M 51.671875 80.474609 A 222.85715 222.85715 0 0 0 49.173828 83.316406 A 222.85715 222.85715 0 0 1 51.671875 80.474609 z M 49.173828 83.316406 A 222.85715 222.85715 0 0 0 38.867188 97.5 A 222.85715 222.85715 0 0 1 49.173828 83.316406 z M 38.867188 97.5 A 222.85715 222.85715 0 0 0 36.058594 101.42773 A 222.85715 222.85715 0 0 1 38.867188 97.5 z M 36.058594 101.42773 A 222.85715 222.85715 0 0 0 27.65625 115.82617 A 222.85715 222.85715 0 0 1 36.058594 101.42773 z M 27.65625 115.82617 A 222.85715 222.85715 0 0 0 24.839844 120.73242 A 222.85715 222.85715 0 0 1 27.65625 115.82617 z M 24.839844 120.73242 A 222.85715 222.85715 0 0 0 18.326172 134.99609 A 222.85715 222.85715 0 0 1 24.839844 120.73242 z M 18.326172 134.99609 A 222.85715 222.85715 0 0 0 15.599609 141.0918 A 222.85715 222.85715 0 0 1 18.326172 134.99609 z M 15.599609 141.0918 A 222.85715 222.85715 0 0 0 10.886719 154.92188 A 222.85715 222.85715 0 0 1 15.599609 141.0918 z M 10.886719 154.92188 A 222.85715 222.85715 0 0 0 8.4453125 162.26562 A 222.85715 222.85715 0 0 1 10.886719 154.92188 z M 8.4453125 162.26562 A 222.85715 222.85715 0 0 0 5.3652344 175.51953 A 222.85715 222.85715 0 0 1 8.4453125 162.26562 z M 5.3652344 175.51953 A 222.85715 222.85715 0 0 0 3.4511719 184.05078 A 222.85715 222.85715 0 0 1 5.3652344 175.51953 z M 3.4511719 184.05078 A 222.85715 222.85715 0 0 0 1.8496094 196.46094 A 222.85715 222.85715 0 0 1 3.4511719 184.05078 z M 1.8496094 196.46094 A 222.85715 222.85715 0 0 0 0.65039062 206.33789 A 222.85715 222.85715 0 0 1 1.8496094 196.46094 z M 0.65039062 206.33789 A 222.85715 222.85715 0 0 0 0 222.85742 A 222.85715 222.85715 0 0 1 0.65039062 206.33789 z" transform="matrix(0.26458333,0,0,0.26458333,21.922693,100.45227)"/><path style="opacity:1;fill:#f0f;fill-opacity:1;fill-rule:nonzero;stroke:red;stroke-width:7.9375;stroke-linecap:round;stroke-linejoin:round;stroke-miterlimit:4;stroke-dasharray:none;stroke-dashoffset:0;stroke-opacity:1" id="path3091" d="M 35.764856,142.05833 A 45.300816,45.300816 0 0 1 63.411354,116.41744"/><path style="fill:#fd5;stroke:#fd5;stroke-width:2.38584828;stroke-linecap:butt;stroke-linejoin:miter;stroke-miterlimit:4;stroke-dasharray:none;stroke-opacity:1" id="path3093" d="M 80.887052,221.55598 V 391.94764"/></g></svg>