<svg xmlns="http://www.w3.org/2000/svg" xmlns:svg="http://www.w3.org/2000/svg" id="svg8" width="400" height="171.429" version="1.1" viewBox="0 0 105.833 45.357"><metadata id="metadata5"/><g id="layer1" transform="translate(-11.620939,-236.82785)"><rect style="opacity:1;fill:#e6e6e6;fill-opacity:1;fill-rule:nonzero;stroke:none;stroke-width:1.71904182;stroke-linecap:round;stroke-linejoin:round;stroke-miterlimit:4;stroke-dasharray:none;stroke-dashoffset:0;stroke-opacity:1" id="rect815" width="105.833" height="45.357" x="11.621" y="236.828"/><path style="opacity:1;fill:#fc0;fill-opacity:1;fill-rule:nonzero;stroke:none;stroke-width:2.61276793;stroke-linecap:round;stroke-linejoin:round;stroke-miterlimit:4;stroke-dasharray:none;stroke-dashoffset:0;stroke-opacity:1" id="rect817" d="M 12.890469,229.26562 H 116.32377 c 4.77517,0 8.61944,3.84428 8.61944,8.61945 0,4.77517 -4.59183,8.08249 -8.61944,8.61944 -4.92351,0.65639 -7.96209,-7.40833 -12.92916,-7.40833 -4.967079,0 -7.962089,7.40833 -12.929165,7.40833 -4.967077,0 -7.962086,-7.40833 -12.929163,-7.40833 -4.967076,0 -7.962086,7.40833 -12.929163,7.40833 -4.967076,0 -7.962086,-7.40833 -12.929162,-7.40833 -4.967077,0 -7.962086,7.40833 -12.929163,7.40833 -4.967076,0 -7.962086,-7.40833 -12.929162,-7.40833 -4.967077,0 -8.005648,8.06472 -12.929163,7.40833 -4.0276084,-0.53695 -8.6194419,-3.84427 -8.6194419,-8.61944 0,-4.77517 3.8442711,-8.61945 8.6194419,-8.61945 z"/><g id="g844" transform="translate(3.5386261)"><g id="g830"><circle style="opacity:1;fill:#000;fill-opacity:1;fill-rule:nonzero;stroke:none;stroke-width:2.64583325;stroke-linecap:round;stroke-linejoin:round;stroke-miterlimit:4;stroke-dasharray:none;stroke-dashoffset:0;stroke-opacity:1" id="path824" cx="38.615" cy="259.2" r="4.544"/><circle style="opacity:1;fill:#fff;fill-opacity:1;fill-rule:nonzero;stroke:none;stroke-width:1.86764705;stroke-linecap:round;stroke-linejoin:round;stroke-miterlimit:4;stroke-dasharray:none;stroke-dashoffset:0;stroke-opacity:1" id="path826" cx="36.277" cy="257.128" r=".802"/></g><g id="g836" transform="translate(44.767646)"><circle id="circle832" cx="38.615" cy="259.2" r="4.544" style="opacity:1;fill:#000;fill-opacity:1;fill-rule:nonzero;stroke:none;stroke-width:2.64583325;stroke-linecap:round;stroke-linejoin:round;stroke-miterlimit:4;stroke-dasharray:none;stroke-dashoffset:0;stroke-opacity:1"/><circle id="circle834" cx="36.277" cy="257.128" r=".802" style="opacity:1;fill:#fff;fill-opacity:1;fill-rule:nonzero;stroke:none;stroke-width:1.86764705;stroke-linecap:round;stroke-linejoin:round;stroke-miterlimit:4;stroke-dasharray:none;stroke-dashoffset:0;stroke-opacity:1"/></g></g><g id="g856" transform="translate(-2.004248e-6,-2.5390605)"><path id="path846" d="m 68.546656,263.87701 c 4e-6,2.21414 -1.794907,4.00905 -4.009043,4.00905 -2.214136,0 -4.009047,-1.79491 -4.009043,-4.00905" style="opacity:1;fill:#000;fill-opacity:1;fill-rule:nonzero;stroke:none;stroke-width:2.64583325;stroke-linecap:round;stroke-linejoin:round;stroke-miterlimit:4;stroke-dasharray:none;stroke-dashoffset:0;stroke-opacity:1"/><path id="path848" d="m 206.07031,107.2832 a 9.5964486,9.5964486 0 0 0 -9.5957,9.59766 9.5964486,9.5964486 0 0 0 0.002,0.0762 c 1.13271,0.27031 2.30795,0.42774 3.52344,0.42774 5.46403,0 10.23862,-2.9013 12.9043,-7.23829 a 9.5964486,9.5964486 0 0 0 -6.83399,-2.86328 z" transform="matrix(0.26458333,0,0,0.26458333,11.620939,236.82785)" style="opacity:1;fill:red;fill-opacity:1;fill-rule:nonzero;stroke:none;stroke-width:10;stroke-linecap:round;stroke-linejoin:round;stroke-miterlimit:4;stroke-dasharray:none;stroke-dashoffset:0;stroke-opacity:1"/></g><g id="g866" transform="translate(-1.2054129)"><circle id="path860" cx="28.593" cy="265.481" r="3.742" style="opacity:1;fill:#ffd5d5;fill-opacity:1;fill-rule:nonzero;stroke:none;stroke-width:2.64583325;stroke-linecap:round;stroke-linejoin:round;stroke-miterlimit:4;stroke-dasharray:none;stroke-dashoffset:0;stroke-opacity:1"/><circle style="opacity:1;fill:#ffd5d5;fill-opacity:1;fill-rule:nonzero;stroke:none;stroke-width:2.64583325;stroke-linecap:round;stroke-linejoin:round;stroke-miterlimit:4;stroke-dasharray:none;stroke-dashoffset:0;stroke-opacity:1" id="circle862" cx="102.893" cy="265.481" r="3.742"/></g><g id="g2443" transform="translate(-1.0049465,-1.0583333)"><g id="g2393"><g id="g2347"><rect id="rect868" width="6.815" height="21.782" x="34.205" y="212.16" ry="0" style="opacity:1;fill:red;fill-opacity:1;fill-rule:nonzero;stroke:none;stroke-width:2.64583325;stroke-linecap:round;stroke-linejoin:round;stroke-miterlimit:4;stroke-dasharray:none;stroke-dashoffset:0;stroke-opacity:1"/><path id="rect2328" d="m 85.357422,-49.410156 v 13.570312 l 24.935548,24.935547 h 0.82422 v -12.746094 z" transform="matrix(0.26458333,0,0,0.26458333,11.620939,236.82785)" style="opacity:1;fill:#00f;fill-opacity:1;fill-rule:nonzero;stroke:none;stroke-width:10;stroke-linecap:round;stroke-linejoin:round;stroke-miterlimit:4;stroke-dasharray:none;stroke-dashoffset:0;stroke-opacity:1"/><path id="rect2330" d="M 85.357422,-71.320312 V -57.75 l 25.759768,25.759766 v -13.570313 z" transform="matrix(0.26458333,0,0,0.26458333,11.620939,236.82785)" style="opacity:1;fill:#00f;fill-opacity:1;fill-rule:nonzero;stroke:none;stroke-width:10;stroke-linecap:round;stroke-linejoin:round;stroke-miterlimit:4;stroke-dasharray:none;stroke-dashoffset:0;stroke-opacity:1"/><path id="rect2332" d="m 85.357422,-93.230469 v 13.570313 l 25.759768,25.759765 v -13.570312 z" transform="matrix(0.26458333,0,0,0.26458333,11.620939,236.82785)" style="opacity:1;fill:#00f;fill-opacity:1;fill-rule:nonzero;stroke:none;stroke-width:10;stroke-linecap:round;stroke-linejoin:round;stroke-miterlimit:4;stroke-dasharray:none;stroke-dashoffset:0;stroke-opacity:1"/></g><path style="opacity:1;fill:#f60;fill-opacity:1;fill-rule:nonzero;stroke:none;stroke-width:2.64583325;stroke-linecap:round;stroke-linejoin:round;stroke-miterlimit:4;stroke-dasharray:none;stroke-dashoffset:0;stroke-opacity:1" id="path2381" d="m 41.621935,208.15132 c -10e-7,2.21413 -1.794911,4.00904 -4.009043,4.00904 -2.214132,0 -4.009042,-1.79491 -4.009043,-4.00904 1e-6,-2.21413 3.731448,-2.12184 3.808591,-6.81537 0.08929,-5.43229 4.209494,4.60124 4.209495,6.81537 z"/><path id="path2384" d="m 39.458639,208.39895 c -0.144995,0.9882 -1.063641,1.67176 -2.051849,1.52676 -0.988208,-0.14499 -1.671768,-1.06364 -1.526772,-2.05184 0.144996,-0.98821 1.804368,-0.70266 2.146163,-2.79242 0.395596,-2.41868 1.577455,2.32929 1.432458,3.3175 z" style="opacity:1;fill:#ff0;fill-opacity:1;fill-rule:nonzero;stroke:none;stroke-width:1.19352877;stroke-linecap:round;stroke-linejoin:round;stroke-miterlimit:4;stroke-dasharray:none;stroke-dashoffset:0;stroke-opacity:1"/></g><g id="g2409" transform="translate(55.859331,0.26726953)"><g id="g2403"><rect style="opacity:1;fill:red;fill-opacity:1;fill-rule:nonzero;stroke:none;stroke-width:2.64583325;stroke-linecap:round;stroke-linejoin:round;stroke-miterlimit:4;stroke-dasharray:none;stroke-dashoffset:0;stroke-opacity:1" id="rect2395" width="6.815" height="21.782" x="34.205" y="212.16" ry="0"/><path style="opacity:1;fill:#00f;fill-opacity:1;fill-rule:nonzero;stroke:none;stroke-width:10;stroke-linecap:round;stroke-linejoin:round;stroke-miterlimit:4;stroke-dasharray:none;stroke-dashoffset:0;stroke-opacity:1" id="path2397" d="m 85.357422,-49.410156 v 13.570312 l 24.935548,24.935547 h 0.82422 v -12.746094 z" transform="matrix(0.26458333,0,0,0.26458333,11.620939,236.82785)"/><path style="opacity:1;fill:#00f;fill-opacity:1;fill-rule:nonzero;stroke:none;stroke-width:10;stroke-linecap:round;stroke-linejoin:round;stroke-miterlimit:4;stroke-dasharray:none;stroke-dashoffset:0;stroke-opacity:1" id="path2399" d="M 85.357422,-71.320312 V -57.75 l 25.759768,25.759766 v -13.570313 z" transform="matrix(0.26458333,0,0,0.26458333,11.620939,236.82785)"/><path style="opacity:1;fill:#00f;fill-opacity:1;fill-rule:nonzero;stroke:none;stroke-width:10;stroke-linecap:round;stroke-linejoin:round;stroke-miterlimit:4;stroke-dasharray:none;stroke-dashoffset:0;stroke-opacity:1" id="path2401" d="m 85.357422,-93.230469 v 13.570313 l 25.759768,25.759765 v -13.570312 z" transform="matrix(0.26458333,0,0,0.26458333,11.620939,236.82785)"/></g><path id="path2405" d="m 41.621935,208.15132 c -10e-7,2.21413 -1.794911,4.00904 -4.009043,4.00904 -2.214132,0 -4.009042,-1.79491 -4.009043,-4.00904 1e-6,-2.21413 3.731448,-2.12184 3.808591,-6.81537 0.08929,-5.43229 4.209494,4.60124 4.209495,6.81537 z" style="opacity:1;fill:#f60;fill-opacity:1;fill-rule:nonzero;stroke:none;stroke-width:2.64583325;stroke-linecap:round;stroke-linejoin:round;stroke-miterlimit:4;stroke-dasharray:none;stroke-dashoffset:0;stroke-opacity:1"/><path style="opacity:1;fill:#ff0;fill-opacity:1;fill-rule:nonzero;stroke:none;stroke-width:1.19352877;stroke-linecap:round;stroke-linejoin:round;stroke-miterlimit:4;stroke-dasharray:none;stroke-dashoffset:0;stroke-opacity:1" id="path2407" d="m 39.458639,208.39895 c -0.144995,0.9882 -1.063641,1.67176 -2.051849,1.52676 -0.988208,-0.14499 -1.671768,-1.06364 -1.526772,-2.05184 0.144996,-0.98821 1.804368,-0.70266 2.146163,-2.79242 0.395596,-2.41868 1.577455,2.32929 1.432458,3.3175 z"/></g></g><g id="g2425" transform="translate(26.924719,4.666472)"><g id="g2419"><rect style="opacity:1;fill:red;fill-opacity:1;fill-rule:nonzero;stroke:none;stroke-width:2.64583325;stroke-linecap:round;stroke-linejoin:round;stroke-miterlimit:4;stroke-dasharray:none;stroke-dashoffset:0;stroke-opacity:1" id="rect2411" width="6.815" height="21.782" x="34.205" y="212.16" ry="0"/><path style="opacity:1;fill:#00f;fill-opacity:1;fill-rule:nonzero;stroke:none;stroke-width:10;stroke-linecap:round;stroke-linejoin:round;stroke-miterlimit:4;stroke-dasharray:none;stroke-dashoffset:0;stroke-opacity:1" id="path2413" d="m 85.357422,-49.410156 v 13.570312 l 24.935548,24.935547 h 0.82422 v -12.746094 z" transform="matrix(0.26458333,0,0,0.26458333,11.620939,236.82785)"/><path style="opacity:1;fill:#00f;fill-opacity:1;fill-rule:nonzero;stroke:none;stroke-width:10;stroke-linecap:round;stroke-linejoin:round;stroke-miterlimit:4;stroke-dasharray:none;stroke-dashoffset:0;stroke-opacity:1" id="path2415" d="M 85.357422,-71.320312 V -57.75 l 25.759768,25.759766 v -13.570313 z" transform="matrix(0.26458333,0,0,0.26458333,11.620939,236.82785)"/><path style="opacity:1;fill:#00f;fill-opacity:1;fill-rule:nonzero;stroke:none;stroke-width:10;stroke-linecap:round;stroke-linejoin:round;stroke-miterlimit:4;stroke-dasharray:none;stroke-dashoffset:0;stroke-opacity:1" id="path2417" d="m 85.357422,-93.230469 v 13.570313 l 25.759768,25.759765 v -13.570312 z" transform="matrix(0.26458333,0,0,0.26458333,11.620939,236.82785)"/></g><path id="path2421" d="m 41.621935,208.15132 c -10e-7,2.21413 -1.794911,4.00904 -4.009043,4.00904 -2.214132,0 -4.009042,-1.79491 -4.009043,-4.00904 1e-6,-2.21413 3.731448,-2.12184 3.808591,-6.81537 0.08929,-5.43229 4.209494,4.60124 4.209495,6.81537 z" style="opacity:1;fill:#f60;fill-opacity:1;fill-rule:nonzero;stroke:none;stroke-width:2.64583325;stroke-linecap:round;stroke-linejoin:round;stroke-miterlimit:4;stroke-dasharray:none;stroke-dashoffset:0;stroke-opacity:1"/><path style="opacity:1;fill:#ff0;fill-opacity:1;fill-rule:nonzero;stroke:none;stroke-width:1.19352877;stroke-linecap:round;stroke-linejoin:round;stroke-miterlimit:4;stroke-dasharray:none;stroke-dashoffset:0;stroke-opacity:1" id="path2423" d="m 39.458639,208.39895 c -0.144995,0.9882 -1.063641,1.67176 -2.051849,1.52676 -0.988208,-0.14499 -1.671768,-1.06364 -1.526772,-2.05184 0.144996,-0.98821 1.804368,-0.70266 2.146163,-2.79242 0.395596,-2.41868 1.577455,2.32929 1.432458,3.3175 z"/></g><g id="g2478" transform="translate(1.9350023)"><rect id="rect2445" width="2.405" height="6.281" x="185.836" y="199.552" ry="1.203" transform="rotate(38.811497)" style="opacity:1;fill:#ff0;fill-opacity:1;fill-rule:nonzero;stroke:none;stroke-width:2.46839428;stroke-linecap:round;stroke-linejoin:round;stroke-miterlimit:4;stroke-dasharray:none;stroke-dashoffset:0;stroke-opacity:1"/><rect style="opacity:1;fill:#ff0;fill-opacity:1;fill-rule:nonzero;stroke:none;stroke-width:2.46839428;stroke-linecap:round;stroke-linejoin:round;stroke-miterlimit:4;stroke-dasharray:none;stroke-dashoffset:0;stroke-opacity:1" id="rect2450" width="2.405" height="6.281" x="-141.489" y="236.816" ry="1.203" transform="rotate(-36.188503)"/><rect id="rect2452" width="2.405" height="6.281" x="-231.288" y="185.104" ry="1.203" transform="rotate(-71.704614)" style="opacity:1;fill:#ff0;fill-opacity:1;fill-rule:nonzero;stroke:none;stroke-width:2.46839428;stroke-linecap:round;stroke-linejoin:round;stroke-miterlimit:4;stroke-dasharray:none;stroke-dashoffset:0;stroke-opacity:1"/><rect style="opacity:1;fill:#ff0;fill-opacity:1;fill-rule:nonzero;stroke:none;stroke-width:2.46839428;stroke-linecap:round;stroke-linejoin:round;stroke-miterlimit:4;stroke-dasharray:none;stroke-dashoffset:0;stroke-opacity:1" id="rect2454" width="2.405" height="6.281" x="220.03" y="190.383" ry="1.203" transform="rotate(29.60523)"/><rect id="rect2456" width="2.405" height="6.281" x="257.598" y="128.791" ry="1.203" transform="rotate(45.562988)" style="opacity:1;fill:#ff0;fill-opacity:1;fill-rule:nonzero;stroke:none;stroke-width:2.46839428;stroke-linecap:round;stroke-linejoin:round;stroke-miterlimit:4;stroke-dasharray:none;stroke-dashoffset:0;stroke-opacity:1"/><rect style="opacity:1;fill:#ff0;fill-opacity:1;fill-rule:nonzero;stroke:none;stroke-width:2.46839428;stroke-linecap:round;stroke-linejoin:round;stroke-miterlimit:4;stroke-dasharray:none;stroke-dashoffset:0;stroke-opacity:1" id="rect2458" width="2.405" height="6.281" x="-186.277" y="216.648" ry="1.203" transform="rotate(-55.692352)"/><rect id="rect2460" width="2.405" height="6.281" x="178.701" y="212.396" ry="1.203" transform="rotate(30.013192)" style="opacity:1;fill:#ff0;fill-opacity:1;fill-rule:nonzero;stroke:none;stroke-width:2.46839428;stroke-linecap:round;stroke-linejoin:round;stroke-miterlimit:4;stroke-dasharray:none;stroke-dashoffset:0;stroke-opacity:1"/><rect style="opacity:1;fill:#ff0;fill-opacity:1;fill-rule:nonzero;stroke:none;stroke-width:2.46839428;stroke-linecap:round;stroke-linejoin:round;stroke-miterlimit:4;stroke-dasharray:none;stroke-dashoffset:0;stroke-opacity:1" id="rect2462" width="2.405" height="6.281" x="-191.771" y="199.185" ry="1.203" transform="rotate(-51.188503)"/><rect id="rect2464" width="2.405" height="6.281" x="284.658" y="-7.426" ry="1.203" transform="rotate(77.206306)" style="opacity:1;fill:#ff0;fill-opacity:1;fill-rule:nonzero;stroke:none;stroke-width:2.46839428;stroke-linecap:round;stroke-linejoin:round;stroke-miterlimit:4;stroke-dasharray:none;stroke-dashoffset:0;stroke-opacity:1"/><rect style="opacity:1;fill:#ff0;fill-opacity:1;fill-rule:nonzero;stroke:none;stroke-width:2.46839428;stroke-linecap:round;stroke-linejoin:round;stroke-miterlimit:4;stroke-dasharray:none;stroke-dashoffset:0;stroke-opacity:1" id="rect2466" width="2.405" height="6.281" x="-218.935" y="174.744" ry="1.203" transform="rotate(-62.599303)"/></g></g></svg>