<svg xmlns="http://www.w3.org/2000/svg" width="200" height="227" fill="none" viewBox="0 0 200 227"><ellipse cx="100" cy="202" fill="#C4C4C4" rx="100" ry="25"/><mask id="mask0" width="200" height="50" x="0" y="177" mask-type="alpha" maskUnits="userSpaceOnUse"><ellipse cx="100" cy="202" fill="#C4C4C4" rx="100" ry="25"/></mask><g mask="url(#mask0)"><ellipse cx="100" cy="214" fill="#000" rx="100" ry="25"/></g><mask id="mask1" width="200" height="227" x="0" y="0" mask-type="alpha" maskUnits="userSpaceOnUse"><path fill="#C4C4C4" d="M200 0H0V202C0 215.807 44.7715 227 100 227C155.228 227 200 215.807 200 202V0Z"/></mask><g mask="url(#mask1)"><path fill="#C4C4C4" d="M100.5 20C53.5558 20 15.5 58.0558 15.5 105V270H185.5V105C185.5 58.0558 147.444 20 100.5 20Z"/><mask id="mask2" width="171" height="250" x="15" y="20" mask-type="alpha" maskUnits="userSpaceOnUse"><path fill="#C4C4C4" d="M100.5 20C53.5558 20 15.5 58.0558 15.5 105V270H185.5V105C185.5 58.0558 147.444 20 100.5 20Z"/></mask><mask id="mask3" width="171" height="250" x="15" y="20" mask-type="alpha" maskUnits="userSpaceOnUse"><path fill="#C4C4C4" d="M100.5 20C53.5558 20 15.5 58.0558 15.5 105V270H185.5V105C185.5 58.0558 147.444 20 100.5 20Z"/></mask><g mask="url(#mask3)"><rect width="110" height="123" x="45.5" y="164" fill="#F3ECEC" rx="55"/></g><mask id="mask4" width="81" height="50" x="60" y="95" mask-type="alpha" maskUnits="userSpaceOnUse"><ellipse cx="100.5" cy="120" fill="#F3ECEC" rx="40" ry="25"/></mask><g mask="url(#mask4)"><ellipse cx="100.5" cy="120" fill="#E2E0E0" rx="40" ry="25"/><ellipse cx="100.5" cy="116" fill="#F3ECEC" rx="40" ry="25"/></g><ellipse cx="100.5" cy="104" fill="#FFC6C6" rx="10" ry="6"/><circle cx="53.5" cy="88" r="7" fill="#323232"/><circle cx="147.5" cy="88" r="7" fill="#323232"/><path fill="#EF2E2E" d="M57 66.2727C57 68.6827 42.5778 69 30.8824 69C19.1869 69 9 68.4545 9 67.3636C9 64.9537 26.2457 63 37.9412 63C49.6366 63 57 63.8628 57 66.2727Z"/><rect width="136" height="8" x="32" y="61" fill="#EF2E2E"/><mask id="mask5" width="157" height="57" x="22" y="13" mask-type="alpha" maskUnits="userSpaceOnUse"><path fill="#423F3F" d="M99.5 13C71 13 29 30.5 22 69.5H78.5H124.5H179C173.5 26.5 128 13 99.5 13Z"/></mask><g mask="url(#mask5)"><path fill="#373737" d="M-10 13H210V70H120.5V56.5H82V70H-10V13Z"/></g><ellipse cx="100.5" cy="13.5" fill="#EF2E2E" rx="6" ry="2.5"/><line x1="35.631" x2="68.651" y1="109.151" y2="113.869" stroke="#9E9E9E" stroke-linecap="round" stroke-width="2"/><line x1="133.631" x2="166.651" y1="124.151" y2="128.869" stroke="#9E9E9E" stroke-linecap="round" stroke-width="2"/><line x1="68.651" x2="35.631" y1="121.131" y2="125.849" stroke="#9E9E9E" stroke-linecap="round" stroke-width="2"/><line x1="166.651" x2="133.631" y1="111.131" y2="115.849" stroke="#9E9E9E" stroke-linecap="round" stroke-width="2"/></g></svg>