<svg xmlns="http://www.w3.org/2000/svg" fill="none" class="mole-in-hole" viewBox="0 0 200 227"><clipPath id="a" width="200" height="50" x="0" y="177" mask-type="alpha" maskUnits="userSpaceOnUse"><ellipse cx="100" cy="202" fill="#C4C4C4" rx="100" ry="25"/></clipPath><clipPath id="b" width="200" height="227" x="0" y="0"><path fill="#C4C4C4" fill-rule="evenodd" d="M200 0H0v202c0 13.807 44.772 25 100 25s100-12.193 110-25V0z" clip-rule="evenodd"/></clipPath><mask id="c" width="171" height="250" x="15" y="20" mask-type="alpha" maskUnits="userSpaceOnUse"><path fill="#C4C4C4" d="M100.5 20c-46.944 0-85 38.056-85 85v165h170V105c0-46.944-38.056-85-85-85z"/></mask><mask id="d" width="81" height="50" x="60" y="95" mask-type="alpha" maskUnits="userSpaceOnUse"><ellipse cx="100.5" cy="120" fill="#F3ECEC" rx="40" ry="25"/></mask><mask id="e" width="157" height="57" x="22" y="13" mask-type="alpha" maskUnits="userSpaceOnUse"><path fill="#423F3F" d="M99.5 13C71 13 29 30.5 22 69.5h157c-5.5-43-51-56.5-79.5-56.5z"/></mask><g class="hole" clip-path="url(#a)" transform="translate(0 -1)"><ellipse cx="100" cy="202" fill="#C4C4C4" class="hole__lip" rx="100" ry="25"/><ellipse cx="100" cy="214" fill="#000" class="hole__hole" rx="100" ry="25"/></g><g clip-path="url(#b)"><g class="mole"><path fill="#C4C4C4" d="M100.5 20c-46.944 0-85 38.056-85 85v165h170V105c0-46.944-38.056-85-85-85z" class="mole__body"/><g mask="url(#c)"><rect width="110" height="123" x="45.5" y="164" fill="#F3ECEC" class="mole__tummy" rx="55"/></g><g class="mole__face"><g mask="url(#d)"><ellipse cx="100.5" cy="120" fill="#E2E0E0" class="mole__chin" rx="40" ry="25"/><ellipse cx="100.5" cy="116" fill="#F3ECEC" class="mole__muzzle" rx="40" ry="25"/></g><ellipse cx="100.5" cy="104" fill="#FFC6C6" class="mole__nose" rx="10" ry="6"/><path stroke="#9E9E9E" stroke-linecap="round" stroke-width="2" d="m35.631 109.151 33.02 4.718m64.98 10.282 33.02 4.718m-98-7.738-33.02 4.718m131.02-14.718-33.02 4.718" class="mole__whiskers"/></g><g class="mole__eyes"><circle cx="53.5" cy="88" r="7" fill="#323232" class="mole__eye"/><circle cx="147.5" cy="88" r="7" fill="#323232" class="mole__eye"/></g><g class="mole__cap cap"><ellipse cx="100.5" cy="13.5" fill="#EF2E2E" class="cap__button" rx="6" ry="2.5"/><path fill="#EF2E2E" d="M57 66.273C57 68.683 42.578 69 30.882 69 19.187 69 9 68.454 9 67.364 9 64.954 26.246 63 37.941 63 49.637 63 57 63.863 57 66.273z" class="cap__peak"/><path fill="#EF2E2E" d="M32 61h136v8H32z" class="cap__strap"/><g mask="url(#e)"><path fill="#373737" d="M-10 13h220v57h-89.5V56.5H82V70h-92V13z" class="cap__body"/></g></g></g></g></svg>