<svg class="angry" preserveAspectRatio="xMinYMin" viewBox="0 0 284.946 359.737"><g id="layer1" transform="translate(-7.5271369,-761.38595)"><g id="g5691" transform="matrix(1.2335313,0,0,1.2335313,-35.029693,-212.83637)"><path id="path4372" d="M 263.90933,1081.4151 A 113.96792,96.862576 0 0 0 149.99132,985.71456 113.96792,96.862576 0 0 0 36.090664,1081.4151 l 227.818666,0 z" style="fill:#784421;fill-opacity:1;stroke:none;stroke-width:5;stroke-linecap:round;stroke-linejoin:round;stroke-miterlimit:4;stroke-dasharray:none;stroke-opacity:1"/><path id="path5634" d="m 250.42825,903.36218 c 2e-5,66.27108 -44.75411,114.99442 -102.42825,114.99442 -57.674143,0 -98.428271,-48.72334 -98.428251,-114.99442 4e-6,-66.27106 40.754125,-92.99437 98.428251,-92.99437 57.67413,0 102.42825,26.72331 102.42825,92.99437 z" style="fill:#784421;fill-opacity:1;stroke:none;stroke-width:6;stroke-linecap:round;stroke-linejoin:round;stroke-miterlimit:4;stroke-dasharray:none;stroke-opacity:1"/><path id="path5639" d="m 217,972.86218 c 2e-5,21.53911 -30.44462,42.00002 -68,42.00002 -37.55538,0 -66.000019,-20.46091 -66,-42.00002 0,-21.53911 28.44464,-36 66,-36 37.55536,0 68,14.46089 68,36 z" style="fill:#e9c6af;fill-opacity:1;stroke:none;stroke-width:6;stroke-linecap:round;stroke-linejoin:round;stroke-miterlimit:4;stroke-dasharray:none;stroke-opacity:1"/><path id="path5636" d="m 181.5,944.36218 c 0,8.28427 -20.59974,26.5 -32.75,26.5 -12.15026,0 -34.75,-18.21573 -34.75,-26.5 0,-8.28427 22.59974,-13.5 34.75,-13.5 12.15026,0 32.75,5.21573 32.75,13.5 z" style="fill:#000;fill-opacity:1;stroke:none;stroke-width:6;stroke-linecap:round;stroke-linejoin:round;stroke-miterlimit:4;stroke-dasharray:none;stroke-opacity:1"/><g id="g5681"><ellipse style="fill:#784421;fill-opacity:1;stroke:none;stroke-width:6;stroke-linecap:round;stroke-linejoin:round;stroke-miterlimit:4;stroke-dasharray:none;stroke-opacity:1" id="path5657" cx="69" cy="823.073" rx="34.5" ry="33.289"/><path style="fill:#e9c6af;fill-opacity:1;stroke:none;stroke-width:6;stroke-linecap:round;stroke-linejoin:round;stroke-miterlimit:4;stroke-dasharray:none;stroke-opacity:1" id="ellipse5659" d="M 69,47.310547 A 24.25,23.399124 0 0 0 44.75,70.710938 24.25,23.399124 0 0 0 64.720703,93.720703 c 0.276316,-0.40734 0.503874,-0.867778 0.787109,-1.267578 1.70087,-2.400855 3.527087,-4.666237 5.470704,-6.798828 1.943616,-2.132591 4.004963,-4.133318 6.179687,-6.003906 2.174725,-1.870589 4.461274,-3.611714 6.855469,-5.226563 2.394195,-1.614848 4.896019,-3.10338 7.498047,-4.46875 0.539935,-0.283322 1.133058,-0.500695 1.68164,-0.773437 A 24.25,23.399124 0 0 0 69,47.310547 Z" transform="translate(0,752.36216)"/></g><g id="g5685" transform="matrix(-1,0,0,1,300,0)"><ellipse id="ellipse5687" cx="69" cy="823.073" rx="34.5" ry="33.289" style="fill:#784421;fill-opacity:1;stroke:none;stroke-width:6;stroke-linecap:round;stroke-linejoin:round;stroke-miterlimit:4;stroke-dasharray:none;stroke-opacity:1"/><path id="path5689" d="M 69,47.310547 A 24.25,23.399124 0 0 0 44.75,70.710938 24.25,23.399124 0 0 0 64.720703,93.720703 c 0.276316,-0.40734 0.503874,-0.867778 0.787109,-1.267578 1.70087,-2.400855 3.527087,-4.666237 5.470704,-6.798828 1.943616,-2.132591 4.004963,-4.133318 6.179687,-6.003906 2.174725,-1.870589 4.461274,-3.611714 6.855469,-5.226563 2.394195,-1.614848 4.896019,-3.10338 7.498047,-4.46875 0.539935,-0.283322 1.133058,-0.500695 1.68164,-0.773437 A 24.25,23.399124 0 0 0 69,47.310547 Z" transform="translate(0,752.36216)" style="fill:#e9c6af;fill-opacity:1;stroke:none;stroke-width:6;stroke-linecap:round;stroke-linejoin:round;stroke-miterlimit:4;stroke-dasharray:none;stroke-opacity:1"/></g><ellipse id="path4368" cx="105.831" cy="900.389" rx="9.27" ry="9.679" style="fill:#000;fill-opacity:1;stroke:none;stroke-width:4.05340338;stroke-linecap:round;stroke-linejoin:round;stroke-miterlimit:4;stroke-dasharray:none;stroke-opacity:1"/><ellipse style="fill:#000;fill-opacity:1;stroke:none;stroke-width:4.05340338;stroke-linecap:round;stroke-linejoin:round;stroke-miterlimit:4;stroke-dasharray:none;stroke-opacity:1" id="ellipse4370" cx="186.899" cy="900.389" rx="9.27" ry="9.679"/><path id="path4396" d="m 92.05833,865.4614 39.42665,22.76299" style="fill:none;fill-rule:evenodd;stroke:#000;stroke-width:4.86408424;stroke-linecap:round;stroke-linejoin:round;stroke-miterlimit:4;stroke-dasharray:none;stroke-opacity:1"/><path style="fill:none;fill-rule:evenodd;stroke:#000;stroke-width:4.86408424;stroke-linecap:round;stroke-linejoin:round;stroke-miterlimit:4;stroke-dasharray:none;stroke-opacity:1" id="path4400" d="m 202.82482,865.4614 -39.42664,22.76299"/></g></g></svg>