<svg xmlns="http://www.w3.org/2000/svg" xmlns:svg="http://www.w3.org/2000/svg" id="svg8" width="925.415" height="1239.531" version="1.1" viewBox="0 0 244.849 327.959"><metadata id="metadata5"/><g id="layer1" transform="translate(254.62328,20.823356)"><g id="g887" transform="rotate(-30,-108.96024,148.73985)"><g id="g876"><rect style="fill:#0ff;fill-opacity:.99086758;fill-rule:nonzero;stroke:#000;stroke-width:5.29166651;stroke-linecap:round;stroke-linejoin:round;stroke-miterlimit:4;stroke-dasharray:none;stroke-dashoffset:0;stroke-opacity:1" id="rect856" width="11.339" height="98.116" x="-114.63" y="186.033" ry=".609"/><rect style="fill:#0ff;fill-opacity:.99086758;fill-rule:nonzero;stroke:#000;stroke-width:5.29166651;stroke-linecap:round;stroke-linejoin:round;stroke-miterlimit:4;stroke-dasharray:none;stroke-dashoffset:0;stroke-opacity:1" id="rect854" width="27.813" height="113.029" x="-122.867" y="211.381" ry="9.097"/><g id="g852" transform="rotate(-59.7133,-108.90868,83.533211)"><g id="g841" transform="translate(4.1577381,-49.136905)"><circle style="fill:#0ff;fill-opacity:.99086758;fill-rule:nonzero;stroke:#f0f;stroke-width:4.52199984;stroke-linecap:round;stroke-linejoin:round;stroke-miterlimit:4;stroke-dasharray:none;stroke-dashoffset:0;stroke-opacity:1" id="circle830" cx="-113.015" cy="132.58" r="94.312"/><path style="fill:#782121;fill-opacity:1;fill-rule:nonzero;stroke:#f0f;stroke-width:5.29166651;stroke-linecap:round;stroke-linejoin:round;stroke-miterlimit:4;stroke-dasharray:none;stroke-dashoffset:0;stroke-opacity:1" id="path821" d="M -113.01488,22.211341 A 110.36904,110.36904 0 0 0 -223.38385,132.58031 110.36904,110.36904 0 0 0 -113.01488,242.94928 110.36904,110.36904 0 0 0 -2.6459077,132.58031 110.36904,110.36904 0 0 0 -113.01488,22.211341 Z m 0,16.056901 a 94.312019,94.312019 0 0 1 94.312071,94.312068 94.312019,94.312019 0 0 1 -94.312071,94.31207 94.312019,94.312019 0 0 1 -94.31207,-94.31207 94.312019,94.312019 0 0 1 94.31207,-94.312068 z"/></g><path id="path843" d="M -35.150131,83.443405 A 73.707008,73.707008 0 0 1 -97.335982,156.24441" style="fill:#0ff;fill-opacity:.99086758;fill-rule:nonzero;stroke:#000;stroke-width:13.22916698;stroke-linecap:round;stroke-linejoin:round;stroke-miterlimit:4;stroke-dasharray:none;stroke-dashoffset:0;stroke-opacity:1"/><path style="fill:#0ff;fill-opacity:.99086758;fill-rule:nonzero;stroke:#000;stroke-width:13.22916698;stroke-linecap:round;stroke-linejoin:round;stroke-miterlimit:4;stroke-dasharray:none;stroke-dashoffset:0;stroke-opacity:1" id="circle845" d="m -124.88266,155.38717 a 73.707008,73.707008 0 0 1 -6.231,-1.67734"/></g></g></g></g></svg>