<svg xmlns="http://www.w3.org/2000/svg" xmlns:svg="http://www.w3.org/2000/svg" xmlns:xlink="http://www.w3.org/1999/xlink" id="svg8" width="426.133" height="911.697" version="1.1" viewBox="0 0 112.748 241.22"><defs id="defs2"><linearGradient id="linearGradient4523-5-9"><stop style="stop-color:#000;stop-opacity:1" id="stop4519" offset="0"/><stop style="stop-color:#000;stop-opacity:0" id="stop4521" offset="1"/></linearGradient><linearGradient id="linearGradient4525" x1="45.989" x2="159.132" y1="160.665" y2="160.665" gradientUnits="userSpaceOnUse" xlink:href="#linearGradient4523-5-9"/><radialGradient id="radialGradient4558" cx="102.363" cy="160.665" r="56.77" fx="102.363" fy="160.665" gradientTransform="matrix(1,0,0,2.1315216,0,-181.79576)" gradientUnits="userSpaceOnUse" xlink:href="#linearGradient4523-5-9"/></defs><metadata id="metadata5"/><g id="layer1" transform="translate(-45.988925,-40.054918)" style="fill-opacity:1;fill:url(#radialGradient4558);stroke:url(#linearGradient4525)"><path id="rect817" d="m 386.88281,151.38867 c -118.03837,0 -213.0664,89.38873 -213.0664,200.42188 v 120.25 189.875 167.71875 c 0,18.11591 15.50477,32.70117 34.76367,32.70117 H 343.14844 V 1031.125 c 0,17.7058 19.50352,31.9609 43.73242,31.9609 24.22893,0 43.73633,-14.2551 43.73633,-31.9609 V 862.35547 h 134.56836 c 19.25888,0 34.76367,-14.58526 34.76367,-32.70117 v -167.71875 -189.875 -120.25 c 0,-111.03315 -95.02802,-200.42188 -213.06641,-200.42188 z" transform="scale(0.26458333)" style="fill:url(#radialGradient4558);fill-opacity:1;stroke:url(#linearGradient4525);stroke-width:2.99238086;stroke-linecap:round;stroke-linejoin:round;stroke-miterlimit:4;stroke-dasharray:none;stroke-dashoffset:0;stroke-opacity:1"/></g></svg>