<svg xmlns="http://www.w3.org/2000/svg" xmlns:svg="http://www.w3.org/2000/svg" xmlns:xlink="http://www.w3.org/1999/xlink" id="svg2228" width="606.539" height="343.654" version="1.1" viewBox="0 0 160.48 90.925"><metadata id="metadata2232"/><defs id="defs42"><path id="reuse-39" fill="#fff" d="M89.154 860.46c-1.293.002-2.586 0-3.875.014-1.081.018-2.235.05-3.403.09l-17.662 59.853c1.728 1.827 3.77 3.172 6.024 4.148z"/><path id="reuse-38" fill="#fff" d="M100.81 860.6l-19.186 66.305c5.85.159 11.675-.045 16.894-.378l18.585-64.221c-5.548-1.363-11.032-1.57-16.294-1.705z"/><path id="reuse-37" fill="#c9d1ce" d="M243.75 864.3a4.079 1.692 0 004.058 1.692 4.079 1.692 0 004.1-1.675 4.079 1.692 0 00-4.016-1.709 4.079 1.692 0 00-4.141 1.657"/><path id="reuse-36" fill="#909694" fill-opacity=".986" d="M214.52 860.47c10.088.167 24.807.706 28.481 12.251 3.276 15.248 3.12 32.76-5.736 45.627-7.396 10.745-23.365 8.637-35.257 8.22-18.899-.663-35.138-15.383-40.159-33.39-1.93-7.753-4.168-13.928-.696-19.382 5.946-9.34 20.099-11.778 30.581-12.967a443.553 443.553 0 0122.787-.36z"/><path id="reuse-35" fill="#c9d1ce" d="M56.04 864.3a4.079 1.692 0 01-4.058 1.692 4.079 1.692 0 01-4.1-1.675 4.079 1.692 0 014.016-1.709 4.079 1.692 0 014.141 1.657"/><path id="reuse-34" fill="#909694" d="M85.28 860.47c-10.088.167-24.807.706-28.481 12.251-3.276 15.248-3.12 32.76 5.736 45.627 7.396 10.745 23.365 8.637 35.257 8.22 18.899-.663 35.138-15.383 40.159-33.39 1.93-7.753 4.168-13.928.696-19.382-5.946-9.34-20.099-11.778-30.581-12.967a443.553 443.553 0 00-22.787-.36z"/><path id="reuse-33" fill="#585b5a" d="M77.29 854.61c-6.508-.07-13.363.182-22.8 2.131l-14.318 2.769 2.308 15.038c2.094.293 4.983 1.016 6.352 2.848 3.528 4.722 1.202 9.286 2.003 17.625 2.67 27.781 11.921 33.595 26.246 35.266 7.502.875 22.816 2.282 33.28-1.432 9.456-3.358 18.222-9.869 24.158-17.96 6.274-8.554 6.949-18.236 10.843-25.726 2.76-5.309 7.7-4.177 9.258 0 2.952 7.91 4.379 17.173 10.653 25.726 5.936 8.09 14.702 14.603 24.16 17.96 10.463 3.714 25.776 2.307 33.278 1.432 14.326-1.67 23.578-7.485 26.25-35.266.801-8.339-1.525-12.903 2.002-17.625 1.414-1.893 4.464-2.611 6.568-2.885l2.296-14.962-14.522-2.808c-15.099-3.119-23.59-1.889-34.622-1.957-4.093-.025-8.777.115-13.136.573-8.125.855-16.176 2.382-24.175 4.05-7.987 1.665-14.94 6.1-23.097 5.942-7.869-.153-15.616-4.976-23.313-6.616-8.131-1.732-14.824-3.106-24.713-3.376-4.793-.13-9.042-.598-13.136-.573-4.137.026-7.917-.132-11.823-.174z"/><path id="reuse-32" fill="none" stroke="#e9afaf" stroke-linecap="round" stroke-linejoin="round" stroke-width="2.983" d="M203.53 864.04a21.271 21.271 0 006.78 15.572 21.271 21.271 0 0016.02 5.644"/><path id="reuse-31" fill="none" stroke="#e9afaf" stroke-linecap="round" stroke-linejoin="round" stroke-width="2.983" d="M96.601 864.04a21.271 21.271 0 01-6.78 15.572 21.271 21.271 0 01-16.02 5.644"/><path id="reuse-30" fill="#323433" d="M148.06 789.04c-43.489 0-75.872 19.481-83.284 63.856 12.322-10.516 27.906-18.694 45.285-22.651 0 0-2.446-12.499 10.25-16.029 14.513-4.035 18.404-3.944 27.749-4 10.2-.062 15.075-.07 30.339 4 14.187 3.783 12 17.113 12 17.113 17.217 4.421 31.845 10.722 44.263 21.567-7.276-46.029-42.375-63.856-86.602-63.856z"/><path id="reuse-29" fill="#a3a9a8" d="M165.2 816.01a15.875 7.813 0 014.43 5.412 15.875 7.813 0 01-5.414 5.863c9.116.653 17.878 1.866 26.186 3.68V819.61c-8.007-1.748-16.44-2.932-25.201-3.6z"/><path id="reuse-28" fill="#6a6f6d" d="M147.73 815.36c-13.396 0-26.023 1.08-37.672 3.334v11.353c11.649-2.255 24.276-3.334 37.672-3.334 15.104 0 29.458 1.373 42.666 4.256v-11.355c-13.207-2.883-27.563-4.254-42.666-4.254z"/><path id="reuse-27" fill="#a3a9a8" d="M214.76 826.32a16.549 16.095 0 0116.48-14.731 16.549 16.095 0 0116.548 16.096 16.549 16.095 0 01-16.548 16.096 16.549 16.095 0 01-1.132-.039c-.815-1.337-1.581-2.727-2.471-3.983a65.59 65.59 0 00-10.767-11.832c-.67-.575-1.418-1.058-2.11-1.607z"/><path id="reuse-26" fill="#a3a9a8" d="M84.784 826.32a16.549 16.095 0 00-16.48-14.731 16.549 16.095 0 00-16.548 16.096 16.549 16.095 0 0016.548 16.096 16.549 16.095 0 001.131-.039c.816-1.337 1.582-2.727 2.472-3.983a65.59 65.59 0 0110.767-11.832c.67-.575 1.418-1.058 2.11-1.607z"/><path id="reuse-25" fill="#323433" fill-opacity=".941" d="M181.19 931.76c0 7.657-19.04 24.493-30.27 24.493s-32.118-16.836-32.118-24.493 20.239-12.478 31.469-12.478 30.918 4.82 30.918 12.478z"/><path id="reuse-24" fill="#a3a9a8" d="M211.93 958.1c0 19.908-28.601 38.819-63.312 38.819S88.079 978.008 88.079 958.1s26.29-33.273 61.001-33.273 62.85 13.366 62.85 33.273z"/><path id="reuse-23" fill="#c9d1ce" d="M242.82 893.87c0 61.252-36.059 106.28-94.208 106.28-54.326 0-91.435-45.033-91.435-106.28 0-61.252 37.667-85.951 90.973-85.951s94.67 24.699 94.67 85.951z"/><path id="reuse-22" fill="#fc0" d="M90.257 166.86v.95h.93z"/><path id="reuse-21" d="M90.257 166.475v.385l.93.95h.935l-1.307-1.335z"/><path id="reuse-20" fill="#fc0" d="M90.815 166.475l1.307 1.336h.935l-1.308-1.336z"/><path id="reuse-19" d="M91.75 166.475l1.307 1.336h.934l-1.307-1.336z"/><path id="reuse-18" fill="#fc0" d="M92.684 166.475l1.308 1.336h.935l-1.308-1.336z"/><path id="reuse-17" d="M93.618 166.475l1.308 1.336h.935l-1.308-1.336z"/><path id="reuse-16" fill="#fc0" d="M94.554 166.475l1.307 1.336h.935l-1.308-1.336z"/><path id="reuse-15" d="M95.488 166.475l1.307 1.336h.935l-1.308-1.336z"/><path id="reuse-14" fill="#fc0" d="M96.423 166.475l1.308 1.336h.544v-.4l-.917-.936z"/><path id="reuse-13" d="M97.357 166.475l.916.936v-.936z"/><path id="reuse-12" fill="#fc0" d="M45.357 166.86v.95h.93z"/><path id="reuse-11" d="M45.357 166.475v.385l.93.95h.935l-1.307-1.335z"/><path id="reuse-10" fill="#fc0" d="M45.915 166.475l1.307 1.336h.935l-1.308-1.336z"/><path id="reuse-9" d="M46.85 166.475l1.307 1.336h.934l-1.307-1.336z"/><path id="reuse-8" fill="#fc0" d="M47.784 166.475l1.308 1.336h.935l-1.308-1.336z"/><path id="reuse-7" d="M48.718 166.475l1.308 1.336h.935l-1.308-1.336z"/><path id="reuse-6" fill="#fc0" d="M49.654 166.475l1.307 1.336h.935l-1.308-1.336z"/><path id="reuse-5" d="M50.588 166.475l1.307 1.336h.935l-1.308-1.336z"/><path id="reuse-4" fill="#fc0" d="M51.523 166.475l1.308 1.336h.544v-.4l-.917-.936z"/><path id="reuse-3" d="M52.457 166.475l.916.936v-.936z"/><path id="reuse-2" fill="#a02c2c" d="M40.065 168.87v1.058h5.292v-1.059z"/><path id="reuse-1" fill="#a02c2c" d="M40.065 168.87v1.058h5.292v-1.058z"/><path id="reuse-0" fill="#a02c2c" d="M41.469 191.62v1.058h2.485v-1.058z"/></defs><rect style="fill:#f0f" id="rect46" width="63.5" height="26.458" x="48.414" y="64.47"/><rect style="fill:#f0f;stroke:#2b0000;stroke-width:2.47000003;stroke-linecap:square" id="rect48" width="61.03" height="23.988" x="49.649" y="65.71"/><rect style="fill:red" id="rect50" width="5.292" height="5.292" x="48.414" y="62.88"/><circle style="fill:#d35f5f" id="circle52" cx="51.06" cy="65.53" r="1.587"/><use id="use54" width="100%" height="100%" x="0" y="0" transform="translate(8.349,-101.75)" xlink:href="#reuse-1"/><g id="g60" transform="translate(6.946,-101.75)"><rect style="fill:red" id="rect56" width="2.485" height="5.292" x="41.469" y="187.39"/><use id="use58" width="100%" height="100%" x="0" y="0" xlink:href="#reuse-0"/></g><g id="g68" transform="translate(66.557,-101.75)"><rect style="fill:red" id="rect62" width="5.292" height="5.292" x="40.065" y="164.63"/><circle style="fill:#d35f5f" id="circle64" cx="42.711" cy="167.28" r="1.587"/><use id="use66" width="100%" height="100%" x="0" y="0" xlink:href="#reuse-2"/></g><g id="g74" transform="translate(67.96,-101.75)"><rect style="fill:red" id="rect70" width="2.485" height="5.292" x="41.469" y="187.39"/><use id="use72" width="100%" height="100%" x="0" y="0" xlink:href="#reuse-0"/></g><g style="fill:purple" id="g84" transform="translate(8.349,-101.75)"><rect id="rect76" width="7.016" height="4.21" x="92.637" y="185.2"/><rect id="rect78" width="3.368" height="2.9" x="96.286" y="-183.61" transform="scale(1,-1)"/><rect id="rect80" width="10.583" height="1.323" x="48.484" y="190.83"/><rect id="rect82" width="10.583" height="1.323" x="80.102" y="190.83"/></g><use id="use86" width="100%" height="100%" x="0" y="0" transform="translate(8.349,-101.75)" xlink:href="#reuse-3"/><use id="use88" width="100%" height="100%" x="0" y="0" transform="translate(8.349,-101.75)" xlink:href="#reuse-4"/><use id="use90" width="100%" height="100%" x="0" y="0" transform="translate(8.349,-101.75)" xlink:href="#reuse-5"/><use id="use92" width="100%" height="100%" x="0" y="0" transform="translate(8.349,-101.75)" xlink:href="#reuse-6"/><use id="use94" width="100%" height="100%" x="0" y="0" transform="translate(8.349,-101.75)" xlink:href="#reuse-7"/><use id="use96" width="100%" height="100%" x="0" y="0" transform="translate(8.349,-101.75)" xlink:href="#reuse-8"/><use id="use98" width="100%" height="100%" x="0" y="0" transform="translate(8.349,-101.75)" xlink:href="#reuse-9"/><use id="use100" width="100%" height="100%" x="0" y="0" transform="translate(8.349,-101.75)" xlink:href="#reuse-10"/><use id="use102" width="100%" height="100%" x="0" y="0" transform="translate(8.349,-101.75)" xlink:href="#reuse-11"/><use id="use104" width="100%" height="100%" x="0" y="0" transform="translate(8.349,-101.75)" xlink:href="#reuse-12"/><g id="g126" transform="translate(8.349,-101.75)"><use id="use106" width="100%" height="100%" x="0" y="0" xlink:href="#reuse-13"/><use id="use108" width="100%" height="100%" x="0" y="0" xlink:href="#reuse-14"/><use id="use110" width="100%" height="100%" x="0" y="0" xlink:href="#reuse-15"/><use id="use112" width="100%" height="100%" x="0" y="0" xlink:href="#reuse-16"/><use id="use114" width="100%" height="100%" x="0" y="0" xlink:href="#reuse-17"/><use id="use116" width="100%" height="100%" x="0" y="0" xlink:href="#reuse-18"/><use id="use118" width="100%" height="100%" x="0" y="0" xlink:href="#reuse-19"/><use id="use120" width="100%" height="100%" x="0" y="0" xlink:href="#reuse-20"/><use id="use122" width="100%" height="100%" x="0" y="0" xlink:href="#reuse-21"/><use id="use124" width="100%" height="100%" x="0" y="0" xlink:href="#reuse-22"/></g><g id="g180" transform="translate(8.349,-101.75)"><g id="g174" transform="matrix(0.06212,0,0,0.06212,42.855,123.866)"><use id="use128" width="100%" height="100%" x="0" y="0" xlink:href="#reuse-23"/><use id="use130" width="100%" height="100%" x="0" y="0" xlink:href="#reuse-24"/><use style="fill-opacity:.94100001" id="use132" width="100%" height="100%" x="0" y="0" xlink:href="#reuse-25"/><ellipse style="fill:#c9d1ce" id="ellipse134" cx="68.304" cy="827.68" rx="23.762" ry="23.111"/><use id="use136" width="100%" height="100%" x="0" y="0" xlink:href="#reuse-26"/><ellipse style="fill:#c9d1ce" id="ellipse138" cx="-231.24" cy="827.68" rx="23.762" ry="23.111" transform="scale(-1,1)"/><use id="use140" width="100%" height="100%" x="0" y="0" xlink:href="#reuse-27"/><use id="use142" width="100%" height="100%" x="0" y="0" xlink:href="#reuse-28"/><use id="use144" width="100%" height="100%" x="0" y="0" xlink:href="#reuse-29"/><use id="use146" width="100%" height="100%" x="0" y="0" xlink:href="#reuse-30"/><circle style="fill:#faa;fill-opacity:.57700004" id="circle148" cx="97.242" cy="894.08" r="11.185"/><circle style="fill:#faa;fill-opacity:.57700004" id="circle150" cx="201.85" cy="894.08" r="11.185"/><use style="stroke-width:2.98300004;stroke-linecap:round;stroke-linejoin:round" id="use152" width="100%" height="100%" x="0" y="0" xlink:href="#reuse-31"/><use style="stroke-width:2.98300004;stroke-linecap:round;stroke-linejoin:round" id="use154" width="100%" height="100%" x="0" y="0" xlink:href="#reuse-32"/><g id="g162"><use id="use156" width="100%" height="100%" x="0" y="0" xlink:href="#reuse-33"/><use id="use158" width="100%" height="100%" x="0" y="0" xlink:href="#reuse-34"/><use id="use160" width="100%" height="100%" x="0" y="0" xlink:href="#reuse-35"/></g><use style="fill-opacity:.98600003" id="use164" width="100%" height="100%" x="0" y="0" xlink:href="#reuse-36"/><g id="g172"><use id="use166" width="100%" height="100%" x="0" y="0" xlink:href="#reuse-37"/><use id="use168" width="100%" height="100%" x="0" y="0" xlink:href="#reuse-38"/><use id="use170" width="100%" height="100%" x="0" y="0" xlink:href="#reuse-39"/></g></g><text id="text178" x="944.963" y="-499.112" font-size="9.615" font-weight="800" letter-spacing="0" transform="matrix(0,0.3548,-0.3548,0,-83.876,-165.524)" word-spacing="0" style="font-weight:800;font-size:9.61499977px;line-height:1.25;font-family:'JetBrains Mono';font-variant-ligatures:normal;font-variant-caps:normal;font-variant-numeric:normal;font-feature-settings:normal;letter-spacing:0;word-spacing:0;fill:#b3b3b3;stroke-width:.23999999"><tspan id="tspan176" x="944.963" y="-499.112" style="font-variant-ligatures:normal;font-variant-caps:normal;font-variant-numeric:normal;font-feature-settings:normal">C-0rg-1</tspan></text></g><g id="g2226" transform="translate(8.349 -101.75)"><g id="g192" fill="#333" transform="matrix(.87979 .47537 -.63382 1.1731 84.276 -61.731)"><rect id="rect186" width="1.256" height="12.993" x="28.006" y="138.67" transform="matrix(.92679 -.37557 .58453 .81137 0 0)"/><rect id="rect188" width="1.16" height="7.649" x="153.18" y="10.213" transform="matrix(.78332 .62162 -.81584 .57828 0 0)"/><rect id="rect190" width="1.16" height="10.816" x="156.27" y="9.47" transform="matrix(.78332 .62162 -.81584 .57828 0 0)"/></g><path id="path194" fill="#00f" d="M108.004 122.475a3.386 3.386 0 00-3.394 3.394v44.918c0 1.662 1.338 3 3 3h23.373c1.662 0 3-1.338 3-3v-20.193c0-1.661-1.338-3-3-3h-5.496V125.87a3.386 3.386 0 00-3.393-3.393z"/><path id="path2130" fill="#e6e6e6" d="M6.993 159.61v16.536a16.536 16.536 0 00.04 1.17 16.536 16.536 0 00.2 1.64 16.536 16.536 0 00.362 1.614 16.536 16.536 0 00.522 1.568 16.536 16.536 0 00.674 1.509 16.536 16.536 0 00.823 1.434 16.536 16.536 0 00.962 1.344 16.536 16.536 0 001.09 1.242 16.536 16.536 0 001.21 1.127 16.536 16.536 0 001.316 1 16.536 16.536 0 001.409.864 16.536 16.536 0 001.489.72 16.536 16.536 0 001.552.566 16.536 16.536 0 001.602.409 16.536 16.536 0 001.634.247 16.536 16.536 0 001.651.082h101.4a11.71 11.71 0 00.829-.029 11.71 11.71 0 001.162-.141 11.71 11.71 0 001.142-.256 11.71 11.71 0 001.11-.37 11.71 11.71 0 001.069-.477 11.71 11.71 0 001.015-.583 11.71 11.71 0 00.952-.68 11.71 11.71 0 00.88-.773 11.71 11.71 0 00.798-.857 11.71 11.71 0 00.708-.932 11.71 11.71 0 00.612-.998 11.71 11.71 0 00.509-1.054 11.71 11.71 0 00.401-1.1 11.71 11.71 0 00.29-1.134 11.71 11.71 0 00.175-1.157 11.71 11.71 0 00.058-1.169v-12.085H52.703l-14.794-9.278H23.53z"/><g id="g748" transform="matrix(.25 0 0 .25 53.862 120.7)"><rect id="rect612" width="63.5" height="26.458" x="40.065" y="166.22" fill="#f0f"/><rect id="rect614" width="61.03" height="23.988" x="41.3" y="167.46" fill="#f0f" stroke="#2b0000" stroke-linecap="square" stroke-width="2.47"/><rect id="rect616" width="5.292" height="5.292" x="40.065" y="164.63" fill="red"/><circle id="circle618" cx="42.711" cy="167.28" r="1.587" fill="#d35f5f"/><use id="use620" xlink:href="#reuse-1"/><g id="g626" transform="translate(-1.403)"><rect id="rect622" width="2.485" height="5.292" x="41.469" y="187.39" fill="red"/><use id="use624" xlink:href="#reuse-0"/></g><g id="g634" transform="translate(58.208)"><rect id="rect628" width="5.292" height="5.292" x="40.065" y="164.63" fill="red"/><circle id="circle630" cx="42.711" cy="167.28" r="1.587" fill="#d35f5f"/><use id="use632" xlink:href="#reuse-2"/></g><g id="g640" transform="translate(59.611)"><rect id="rect636" width="2.485" height="5.292" x="41.469" y="187.39" fill="red"/><use id="use638" xlink:href="#reuse-0"/></g><g id="g650" fill="purple"><rect id="rect642" width="7.016" height="4.21" x="92.637" y="185.2"/><rect id="rect644" width="3.368" height="2.9" x="96.286" y="-183.61" transform="scale(1 -1)"/><rect id="rect646" width="10.583" height="1.323" x="48.484" y="190.83"/><rect id="rect648" width="10.583" height="1.323" x="80.102" y="190.83"/></g><use id="use652" xlink:href="#reuse-3"/><use id="use654" xlink:href="#reuse-4"/><use id="use656" xlink:href="#reuse-5"/><use id="use658" xlink:href="#reuse-6"/><use id="use660" xlink:href="#reuse-7"/><use id="use662" xlink:href="#reuse-8"/><use id="use664" xlink:href="#reuse-9"/><use id="use666" xlink:href="#reuse-10"/><use id="use668" xlink:href="#reuse-11"/><use id="use670" xlink:href="#reuse-12"/><g id="g692"><use id="use672" xlink:href="#reuse-13"/><use id="use674" xlink:href="#reuse-14"/><use id="use676" xlink:href="#reuse-15"/><use id="use678" xlink:href="#reuse-16"/><use id="use680" xlink:href="#reuse-17"/><use id="use682" xlink:href="#reuse-18"/><use id="use684" xlink:href="#reuse-19"/><use id="use686" xlink:href="#reuse-20"/><use id="use688" xlink:href="#reuse-21"/><use id="use690" xlink:href="#reuse-22"/></g><g id="g746"><g id="g740" transform="matrix(.06212 0 0 .06212 42.855 123.866)"><use id="use694" xlink:href="#reuse-23"/><use id="use696" xlink:href="#reuse-24"/><use id="use698" fill-opacity=".941" xlink:href="#reuse-25"/><ellipse id="ellipse700" cx="68.304" cy="827.68" fill="#c9d1ce" rx="23.762" ry="23.111"/><use id="use702" xlink:href="#reuse-26"/><ellipse id="ellipse704" cx="-231.24" cy="827.68" fill="#c9d1ce" rx="23.762" ry="23.111" transform="scale(-1 1)"/><use id="use706" xlink:href="#reuse-27"/><use id="use708" xlink:href="#reuse-28"/><use id="use710" xlink:href="#reuse-29"/><use id="use712" xlink:href="#reuse-30"/><circle id="circle714" cx="97.242" cy="894.08" r="11.185" fill="#faa" fill-opacity=".577"/><circle id="circle716" cx="201.85" cy="894.08" r="11.185" fill="#faa" fill-opacity=".577"/><use id="use718" stroke-linecap="round" stroke-linejoin="round" stroke-width="2.983" xlink:href="#reuse-31"/><use id="use720" stroke-linecap="round" stroke-linejoin="round" stroke-width="2.983" xlink:href="#reuse-32"/><g id="g728"><use id="use722" xlink:href="#reuse-33"/><use id="use724" xlink:href="#reuse-34"/><use id="use726" xlink:href="#reuse-35"/></g><use id="use730" fill-opacity=".986" xlink:href="#reuse-36"/><g id="g738"><use id="use732" xlink:href="#reuse-37"/><use id="use734" xlink:href="#reuse-38"/><use id="use736" xlink:href="#reuse-39"/></g></g><text font-size="9.615" style="font-feature-settings:normal;font-variant-caps:normal;font-variant-ligatures:normal;font-variant-numeric:normal;line-height:1.25" id="text744" x="944.963" y="-499.112" fill="#b3b3b3" stroke-width=".24" font-family="'JetBrains Mono'" font-weight="800" letter-spacing="0" transform="rotate(90 40.824 -124.7) scale(.3548)" word-spacing="0"><tspan style="font-feature-settings:normal;font-variant-caps:normal;font-variant-ligatures:normal;font-variant-numeric:normal" id="tspan742" x="944.963" y="-499.112">C-0rg-1</tspan></text></g></g><g id="g2176" transform="matrix(.0401 -.00907 .00907 .0401 4.752 133.766)"><path id="path2132" fill="#803300" d="M242.82 893.87c0 61.252-36.059 106.28-94.208 106.28-54.326 0-91.435-45.033-91.435-106.28 0-61.252 37.667-85.951 90.973-85.951s94.67 24.699 94.67 85.951z"/><path id="path2134" fill="#e9c6af" d="M211.93 958.1c0 19.908-28.601 38.819-63.312 38.819S88.079 978.008 88.079 958.1s26.29-33.273 61.001-33.273 62.85 13.366 62.85 33.273z"/><path id="path2136" d="M181.19 931.76c0 7.657-19.04 24.493-30.27 24.493s-32.118-16.836-32.118-24.493 20.239-12.478 31.469-12.478 30.918 4.82 30.918 12.478z"/><ellipse id="ellipse2138" cx="68.304" cy="827.68" fill="#803300" rx="23.762" ry="23.111"/><path id="path2140" fill="#e9c6af" d="M84.784 826.32a16.549 16.095 0 00-16.48-14.731 16.549 16.095 0 00-16.548 16.096 16.549 16.095 0 0016.548 16.096 16.549 16.095 0 001.131-.039c.816-1.337 1.582-2.727 2.472-3.983a65.59 65.59 0 0110.767-11.832c.67-.575 1.418-1.058 2.11-1.607z"/><ellipse id="ellipse2142" cx="-231.24" cy="827.68" fill="#803300" rx="23.762" ry="23.111" transform="scale(-1 1)"/><path id="path2144" fill="#e9c6af" d="M214.76 826.32a16.549 16.095 0 0116.48-14.731 16.549 16.095 0 0116.548 16.096 16.549 16.095 0 01-16.548 16.096 16.549 16.095 0 01-1.132-.039c-.815-1.337-1.581-2.727-2.471-3.983a65.59 65.59 0 00-10.767-11.832c-.67-.575-1.418-1.058-2.11-1.607z"/><path id="path2146" fill="red" d="M147.73 815.36c-13.396 0-26.023 1.08-37.672 3.334v11.353c11.649-2.255 24.276-3.334 37.672-3.334 15.104 0 29.458 1.373 42.666 4.256v-11.355c-13.207-2.883-27.563-4.254-42.666-4.254z"/><path id="path2148" fill="#e50000" d="M165.2 816.01a15.875 7.813 0 014.43 5.412 15.875 7.813 0 01-5.414 5.863c9.116.653 17.878 1.866 26.186 3.68V819.61c-8.007-1.748-16.44-2.932-25.201-3.6z"/><path id="path2150" fill="#1a1a1a" d="M148.06 789.04c-43.489 0-75.872 19.481-83.284 63.856 12.322-10.516 27.906-18.694 45.285-22.651 0 0-2.446-12.499 10.25-16.029 14.513-4.035 18.404-3.944 27.749-4 10.2-.062 15.075-.07 30.339 4 14.187 3.783 12 17.113 12 17.113 17.217 4.421 31.845 10.722 44.263 21.567-7.276-46.029-42.375-63.856-86.602-63.856z"/><circle id="circle2152" cx="97.242" cy="894.08" r="11.185" fill="#faa" fill-opacity=".577"/><circle id="circle2154" cx="201.85" cy="894.08" r="11.185" fill="#faa" fill-opacity=".577"/><use id="use2156" stroke-linecap="round" stroke-linejoin="round" stroke-width="2.983" xlink:href="#reuse-31"/><use id="use2158" stroke-linecap="round" stroke-linejoin="round" stroke-width="2.983" xlink:href="#reuse-32"/><g id="g2174"><path id="path2160" d="M77.288 854.591c-6.508-.07-13.363.182-22.8 2.131l-14.317 2.769 2.307 15.037c2.094.293 4.984 1.016 6.353 2.848 3.527 4.722 1.201 9.286 2.003 17.624 2.67 27.78 11.92 33.595 26.245 35.266 7.502.875 22.815 2.282 33.278-1.432 9.457-3.357 18.223-9.868 24.159-17.96 6.274-8.553 6.948-18.235 10.842-25.726 2.76-5.308 7.7-4.176 9.258 0 2.951 7.91 4.379 17.173 10.653 25.726 5.935 8.091 14.701 14.602 24.158 17.96 10.463 3.714 25.776 2.307 33.278 1.432 14.326-1.67 23.578-7.485 26.248-35.266.802-8.338-1.524-12.903 2.003-17.624 1.414-1.893 4.464-2.611 6.568-2.885l2.296-14.962-14.522-2.807c-15.098-3.12-23.59-1.89-34.622-1.957-4.093-.025-8.776.114-13.135.573-8.125.854-16.175 2.381-24.174 4.049-7.988 1.665-14.94 6.1-23.097 5.942-7.869-.153-15.615-4.976-23.312-6.616-8.132-1.732-14.824-3.106-24.712-3.375-4.793-.131-9.043-.598-13.135-.573-4.137.025-7.918-.133-11.822-.175z"/><path id="path2162" fill="#333" d="M85.278 860.446c-10.088.167-24.806.706-28.48 12.25-3.275 15.249-3.12 32.76 5.737 45.626 7.396 10.745 23.364 8.637 35.256 8.22 18.898-.663 35.138-15.382 40.157-33.388 1.93-7.753 4.168-13.928.696-19.381-5.946-9.34-20.098-11.778-30.58-12.967a443.556 443.556 0 00-22.786-.36z"/><path id="path2164" fill="#b3b3b3" d="M56.04 864.27a4.079 1.692 0 01-4.059 1.693 4.079 1.692 0 01-4.1-1.675 4.079 1.692 0 014.017-1.71 4.079 1.692 0 014.14 1.658"/><path id="path2166" fill="#333" d="M214.505 860.446c10.088.167 24.806.706 28.48 12.25 3.276 15.249 3.12 32.76-5.736 45.626-7.396 10.745-23.364 8.637-35.256 8.22-18.899-.663-35.138-15.382-40.158-33.388-1.929-7.753-4.168-13.928-.696-19.381 5.946-9.34 20.099-11.778 30.58-12.967a443.556 443.556 0 0122.787-.36z"/><path id="path2168" fill="#b3b3b3" d="M243.744 864.27a4.079 1.692 0 004.058 1.693 4.079 1.692 0 004.1-1.675 4.079 1.692 0 00-4.016-1.71 4.079 1.692 0 00-4.141 1.658"/><path id="path2170" fill="#fff" d="M100.81 860.579l-19.187 66.303c5.85.159 11.675-.045 16.894-.378l18.585-64.22c-5.548-1.363-11.032-1.57-16.294-1.704z"/><path id="path2172" fill="#fff" d="M89.152 860.437c-1.292.001-2.586 0-3.875.013-1.08.018-2.234.05-3.403.09l-17.661 59.852c1.728 1.827 3.77 3.172 6.024 4.148z"/></g></g><path id="path2178" fill="red" d="M8.564 183.14a16.536 16.536 0 00.226.507 16.536 16.536 0 00.823 1.434 16.536 16.536 0 00.962 1.344 16.536 16.536 0 001.09 1.242 16.536 16.536 0 001.21 1.127 16.536 16.536 0 001.316 1 16.536 16.536 0 001.409.864 16.536 16.536 0 001.489.719 16.536 16.536 0 001.552.567 16.536 16.536 0 001.602.408 16.536 16.536 0 001.634.247 16.536 16.536 0 001.65.083h101.399a11.71 11.71 0 00.828-.03 11.71 11.71 0 001.162-.14 11.71 11.71 0 001.142-.257 11.71 11.71 0 001.11-.369 11.71 11.71 0 001.07-.478 11.71 11.71 0 001.015-.582 11.71 11.71 0 00.952-.681 11.71 11.71 0 00.88-.773 11.71 11.71 0 00.797-.856 11.71 11.71 0 00.708-.932 11.71 11.71 0 00.612-.998 11.71 11.71 0 00.51-1.054 11.71 11.71 0 00.4-1.1 11.71 11.71 0 00.29-1.134 11.71 11.71 0 00.024-.157z"/><path id="path2180" fill="#4d4d4d" d="M9.831 185.387a16.536 16.536 0 00.744 1.04 16.536 16.536 0 001.09 1.241 16.536 16.536 0 001.21 1.127 16.536 16.536 0 001.315 1 16.536 16.536 0 001.41.864 16.536 16.536 0 001.488.719 16.536 16.536 0 001.553.567 16.536 16.536 0 001.602.408 16.536 16.536 0 001.634.247 16.536 16.536 0 001.65.083h101.398a11.71 11.71 0 00.829-.03 11.71 11.71 0 001.162-.14 11.71 11.71 0 001.142-.257 11.71 11.71 0 001.11-.369 11.71 11.71 0 001.069-.478 11.71 11.71 0 001.015-.582 11.71 11.71 0 00.952-.681 11.71 11.71 0 00.88-.773 11.71 11.71 0 00.798-.856 11.71 11.71 0 00.708-.932 11.71 11.71 0 00.612-.998 11.71 11.71 0 00.509-1.054 11.71 11.71 0 00.053-.146z"/><circle id="circle2182" cx="144.46" cy="109.42" r="7.671" fill="red"/><circle id="circle2184" cx="123.99" cy="123.97" r="2.669" fill="red"/><rect id="rect2186" width="32.553" height="1.871" x="103.02" y="152.64" fill="#333" ry=".935"/><rect id="rect2188" width="13.283" height="3.929" x="104.61" y="126.64" fill="#333" ry="0"/><g id="g2200" fill="#333" transform="translate(.188)"><circle id="circle2190" cx="109.19" cy="158.08" r=".926"/><circle id="circle2192" cx="129.03" cy="158.08" r=".926"/><circle id="circle2194" cx="124.07" cy="158.08" r=".926"/><circle id="circle2196" cx="114.15" cy="158.08" r=".926"/><circle id="circle2198" cx="119.11" cy="158.08" r=".926"/></g><path id="path2202" fill="#0ff" d="M106.25 126.64l-1.64 3.033v.896h1.431l2.123-3.93z"/><path id="path2204" fill="#0ff" d="M108.77 126.64l-2.123 3.929h1.063l2.123-3.929z"/><g id="g2222"><circle id="circle2206" cx="109.1" cy="136.74" r="1.684"/><circle id="circle2208" cx="108.54" cy="136.08" r=".561" fill="red"/><g id="g2214" transform="translate(5.613 .187)"><circle id="circle2210" cx="115.37" cy="136.55" r="1.684"/><circle id="circle2212" cx="114.81" cy="135.9" r=".561" fill="red"/></g><path id="path2216" d="M112.395 136.95a2.646 2.646 0 002.645 2.645 2.646 2.646 0 002.646-2.645z"/><path id="path2218" fill="red" d="M116.135 138.24a1.684 1.684 0 00-1.637 1.297 2.646 2.646 0 00.54.06 2.646 2.646 0 002.092-1.029 1.684 1.684 0 00-.995-.328z"/><circle id="circle2220" cx="115.04" cy="138.27" r=".514" fill="#ff0"/></g><circle id="circle2224" cx="-.678" cy="109.42" r="7.671" fill="red"/></g></svg>