<svg xmlns="http://www.w3.org/2000/svg" class="container-svg" viewBox="0 0 160.48 90.925"><defs><g id="container"><g transform="translate(8.349 -101.753)"><rect style="opacity:1;fill-opacity:1;fill-rule:nonzero;stroke:none;stroke-width:15.69975758;stroke-linecap:square;stroke-linejoin:round;stroke-miterlimit:4;stroke-dasharray:none;stroke-dashoffset:0;stroke-opacity:1" width="63.5" height="26.458" x="40.065" y="166.22" class="container__body container__main"/><rect width="61.03" height="23.988" x="41.3" y="167.455" class="container__body container__outline" style="opacity:1;fill-opacity:1;fill-rule:nonzero;stroke-width:2.46983624;stroke-linecap:square;stroke-linejoin:miter;stroke-miterlimit:4;stroke-dasharray:none;stroke-dashoffset:0;stroke-opacity:1"/><g class="container__component"><rect width="5.292" height="5.292" x="40.065" y="164.633" class="container__block" style="opacity:1;fill-opacity:1;fill-rule:nonzero;stroke:none;stroke-width:14.96709347;stroke-linecap:square;stroke-linejoin:round;stroke-miterlimit:4;stroke-dasharray:none;stroke-dashoffset:0;stroke-opacity:1"/><circle cx="42.711" cy="167.279" r="1.587" class="container__ring" style="opacity:1;fill-opacity:1;fill-rule:nonzero;stroke:none;stroke-width:15.71544838;stroke-linecap:square;stroke-linejoin:round;stroke-miterlimit:4;stroke-dasharray:none;stroke-dashoffset:0;stroke-opacity:1"/><path d="M40.065 168.866v1.058h5.292v-1.058z" class="container__shade" style="opacity:1;fill-opacity:1;fill-rule:nonzero;stroke:none;stroke-width:15.875;stroke-linecap:square;stroke-linejoin:round;stroke-miterlimit:4;stroke-dasharray:none;stroke-dashoffset:0;stroke-opacity:1"/></g><g class="container__component" transform="translate(-1.403)"><rect style="opacity:1;fill-opacity:1;fill-rule:nonzero;stroke:none;stroke-width:10.2573185;stroke-linecap:square;stroke-linejoin:round;stroke-miterlimit:4;stroke-dasharray:none;stroke-dashoffset:0;stroke-opacity:1" width="2.485" height="5.292" x="41.469" y="187.387" class="container__block"/><path style="opacity:1;fill-opacity:1;fill-rule:nonzero;stroke:none;stroke-width:10.879529;stroke-linecap:square;stroke-linejoin:round;stroke-miterlimit:4;stroke-dasharray:none;stroke-dashoffset:0;stroke-opacity:1" d="M41.469 191.62v1.059h2.485v-1.059z" class="container__shade"/></g><g class="container__component" transform="translate(58.208)"><rect style="opacity:1;fill-opacity:1;fill-rule:nonzero;stroke:none;stroke-width:14.96709347;stroke-linecap:square;stroke-linejoin:round;stroke-miterlimit:4;stroke-dasharray:none;stroke-dashoffset:0;stroke-opacity:1" width="5.292" height="5.292" x="40.065" y="164.633" class="container__block"/><circle style="opacity:1;fill-opacity:1;fill-rule:nonzero;stroke:none;stroke-width:15.71544838;stroke-linecap:square;stroke-linejoin:round;stroke-miterlimit:4;stroke-dasharray:none;stroke-dashoffset:0;stroke-opacity:1" cx="42.711" cy="167.279" r="1.587" class="container__ring"/><path style="opacity:1;fill-opacity:1;fill-rule:nonzero;stroke:none;stroke-width:60;stroke-linecap:square;stroke-linejoin:round;stroke-miterlimit:4;stroke-dasharray:none;stroke-dashoffset:0;stroke-opacity:1" d="M40.065 168.866v1.058h5.292v-1.058z" class="container__shade"/></g><g class="container__component" transform="translate(59.611)"><rect width="2.485" height="5.292" x="41.469" y="187.387" class="container__block" style="opacity:1;fill-opacity:1;fill-rule:nonzero;stroke:none;stroke-width:10.2573185;stroke-linecap:square;stroke-linejoin:round;stroke-miterlimit:4;stroke-dasharray:none;stroke-dashoffset:0;stroke-opacity:1"/><path d="M41.469 191.62v1.059h2.485v-1.059z" class="container__shade" style="opacity:1;fill-opacity:1;fill-rule:nonzero;stroke:none;stroke-width:10.879529;stroke-linecap:square;stroke-linejoin:round;stroke-miterlimit:4;stroke-dasharray:none;stroke-dashoffset:0;stroke-opacity:1"/></g><rect style="opacity:1;fill-opacity:1;fill-rule:nonzero;stroke:none;stroke-width:3.8095367;stroke-linecap:square;stroke-linejoin:miter;stroke-miterlimit:4;stroke-dasharray:none;stroke-dashoffset:0;stroke-opacity:1" width="7.016" height="4.209" x="92.637" y="185.195" class="container__label"/><rect style="opacity:1;fill-opacity:1;fill-rule:nonzero;stroke:none;stroke-width:2.32923079;stroke-linecap:square;stroke-linejoin:miter;stroke-miterlimit:4;stroke-dasharray:none;stroke-dashoffset:0;stroke-opacity:1" width="3.368" height="2.9" x="96.286" y="-183.608" class="container__label" transform="scale(1 -1)"/><rect style="opacity:1;fill-opacity:1;fill-rule:nonzero;stroke:none;stroke-width:2.34779739;stroke-linecap:square;stroke-linejoin:miter;stroke-miterlimit:4;stroke-dasharray:none;stroke-dashoffset:0;stroke-opacity:1" width="10.583" height="1.323" x="48.484" y="190.826" class="container__vent"/><rect width="10.583" height="1.323" x="80.102" y="190.826" class="container__vent" style="opacity:1;fill-opacity:1;fill-rule:nonzero;stroke:none;stroke-width:2.34779739;stroke-linecap:square;stroke-linejoin:miter;stroke-miterlimit:4;stroke-dasharray:none;stroke-dashoffset:0;stroke-opacity:1"/><g class="container__hazard"><path d="M52.458 166.471l.916.937v-.937z" class="hazard-black" style="opacity:1;fill-opacity:1;fill-rule:nonzero;stroke:none;stroke-width:11.24198818;stroke-linecap:square;stroke-linejoin:miter;stroke-miterlimit:4;stroke-dasharray:none;stroke-dashoffset:0;stroke-opacity:1"/><path d="M51.523 166.471l1.308 1.337h.543v-.4l-.916-.937z" class="hazard-yellow" style="opacity:1;fill-opacity:1;fill-rule:nonzero;stroke:none;stroke-width:11.24198818;stroke-linecap:square;stroke-linejoin:miter;stroke-miterlimit:4;stroke-dasharray:none;stroke-dashoffset:0;stroke-opacity:1"/><path d="M50.588 166.471l1.308 1.337h.935l-1.308-1.337z" class="hazard-black" style="opacity:1;fill-opacity:1;fill-rule:nonzero;stroke:none;stroke-width:11.24198818;stroke-linecap:square;stroke-linejoin:miter;stroke-miterlimit:4;stroke-dasharray:none;stroke-dashoffset:0;stroke-opacity:1"/><path d="M49.654 166.471l1.307 1.337h.935l-1.308-1.337z" class="hazard-yellow" style="opacity:1;fill-opacity:1;fill-rule:nonzero;stroke:none;stroke-width:11.24198818;stroke-linecap:square;stroke-linejoin:miter;stroke-miterlimit:4;stroke-dasharray:none;stroke-dashoffset:0;stroke-opacity:1"/><path d="M48.72 166.471l1.307 1.337h.934l-1.307-1.337z" class="hazard-black" style="opacity:1;fill-opacity:1;fill-rule:nonzero;stroke:none;stroke-width:11.24198818;stroke-linecap:square;stroke-linejoin:miter;stroke-miterlimit:4;stroke-dasharray:none;stroke-dashoffset:0;stroke-opacity:1"/><path d="M47.784 166.471l1.308 1.337h.935l-1.308-1.337z" class="hazard-yellow" style="opacity:1;fill-opacity:1;fill-rule:nonzero;stroke:none;stroke-width:11.24198818;stroke-linecap:square;stroke-linejoin:miter;stroke-miterlimit:4;stroke-dasharray:none;stroke-dashoffset:0;stroke-opacity:1"/><path d="M46.85 166.471l1.307 1.337h.935l-1.308-1.337z" class="hazard-black" style="opacity:1;fill-opacity:1;fill-rule:nonzero;stroke:none;stroke-width:11.24198818;stroke-linecap:square;stroke-linejoin:miter;stroke-miterlimit:4;stroke-dasharray:none;stroke-dashoffset:0;stroke-opacity:1"/><path d="M45.915 166.471l1.307 1.337h.935l-1.308-1.337z" class="hazard-yellow" style="opacity:1;fill-opacity:1;fill-rule:nonzero;stroke:none;stroke-width:11.24198818;stroke-linecap:square;stroke-linejoin:miter;stroke-miterlimit:4;stroke-dasharray:none;stroke-dashoffset:0;stroke-opacity:1"/><path d="M45.357 166.471v.386l.93.95h.935l-1.307-1.336z" class="hazard-black" style="opacity:1;fill-opacity:1;fill-rule:nonzero;stroke:none;stroke-width:11.24198818;stroke-linecap:square;stroke-linejoin:miter;stroke-miterlimit:4;stroke-dasharray:none;stroke-dashoffset:0;stroke-opacity:1"/><path d="M45.357 166.857v.95h.93z" class="hazard-yellow" style="opacity:1;fill-opacity:1;fill-rule:nonzero;stroke:none;stroke-width:11.24198818;stroke-linecap:square;stroke-linejoin:miter;stroke-miterlimit:4;stroke-dasharray:none;stroke-dashoffset:0;stroke-opacity:1"/></g><g class="container__hazard"><path style="opacity:1;fill-opacity:1;fill-rule:nonzero;stroke:none;stroke-width:11.24198818;stroke-linecap:square;stroke-linejoin:miter;stroke-miterlimit:4;stroke-dasharray:none;stroke-dashoffset:0;stroke-opacity:1" d="M97.358 166.471l.916.937v-.937z" class="hazard-black"/><path style="opacity:1;fill-opacity:1;fill-rule:nonzero;stroke:none;stroke-width:11.24198818;stroke-linecap:square;stroke-linejoin:miter;stroke-miterlimit:4;stroke-dasharray:none;stroke-dashoffset:0;stroke-opacity:1" d="M96.422 166.471l1.308 1.337h.544v-.4l-.916-.937z" class="hazard-yellow"/><path style="opacity:1;fill-opacity:1;fill-rule:nonzero;stroke:none;stroke-width:11.24198818;stroke-linecap:square;stroke-linejoin:miter;stroke-miterlimit:4;stroke-dasharray:none;stroke-dashoffset:0;stroke-opacity:1" d="M95.488 166.471l1.307 1.337h.935l-1.308-1.337z" class="hazard-black"/><path style="opacity:1;fill-opacity:1;fill-rule:nonzero;stroke:none;stroke-width:11.24198818;stroke-linecap:square;stroke-linejoin:miter;stroke-miterlimit:4;stroke-dasharray:none;stroke-dashoffset:0;stroke-opacity:1" d="M94.553 166.471l1.308 1.337h.934l-1.307-1.337z" class="hazard-yellow"/><path style="opacity:1;fill-opacity:1;fill-rule:nonzero;stroke:none;stroke-width:11.24198818;stroke-linecap:square;stroke-linejoin:miter;stroke-miterlimit:4;stroke-dasharray:none;stroke-dashoffset:0;stroke-opacity:1" d="M93.618 166.471l1.308 1.337h.935l-1.308-1.337z" class="hazard-black"/><path style="opacity:1;fill-opacity:1;fill-rule:nonzero;stroke:none;stroke-width:11.24198818;stroke-linecap:square;stroke-linejoin:miter;stroke-miterlimit:4;stroke-dasharray:none;stroke-dashoffset:0;stroke-opacity:1" d="M92.684 166.471l1.307 1.337h.935l-1.308-1.337z" class="hazard-yellow"/><path style="opacity:1;fill-opacity:1;fill-rule:nonzero;stroke:none;stroke-width:11.24198818;stroke-linecap:square;stroke-linejoin:miter;stroke-miterlimit:4;stroke-dasharray:none;stroke-dashoffset:0;stroke-opacity:1" d="M91.749 166.471l1.307 1.337h.935l-1.307-1.337z" class="hazard-black"/><path style="opacity:1;fill-opacity:1;fill-rule:nonzero;stroke:none;stroke-width:11.24198818;stroke-linecap:square;stroke-linejoin:miter;stroke-miterlimit:4;stroke-dasharray:none;stroke-dashoffset:0;stroke-opacity:1" d="M90.814 166.471l1.308 1.337h.934l-1.307-1.337z" class="hazard-yellow"/><path style="opacity:1;fill-opacity:1;fill-rule:nonzero;stroke:none;stroke-width:11.24198818;stroke-linecap:square;stroke-linejoin:miter;stroke-miterlimit:4;stroke-dasharray:none;stroke-dashoffset:0;stroke-opacity:1" d="M90.257 166.471v.386l.93.95h.935l-1.308-1.336z" class="hazard-black"/><path style="opacity:1;fill-opacity:1;fill-rule:nonzero;stroke:none;stroke-width:11.24198818;stroke-linecap:square;stroke-linejoin:miter;stroke-miterlimit:4;stroke-dasharray:none;stroke-dashoffset:0;stroke-opacity:1" d="M90.257 166.857v.95h.93z" class="hazard-yellow"/></g><g><g class="container__logo" transform="matrix(.06212 0 0 .06212 42.862 123.878)"><path style="fill:#c9d1ce;fill-opacity:1;stroke:none;stroke-width:6;stroke-linecap:round;stroke-linejoin:round;stroke-miterlimit:4;stroke-dasharray:none;stroke-opacity:1" d="M242.822 893.869c0 61.251-36.059 106.284-94.208 106.284-54.326 0-91.436-45.033-91.436-106.284 0-61.252 37.668-85.951 90.973-85.951 53.306 0 94.67 24.699 94.67 85.95z"/><path style="fill:#a3a9a8;fill-opacity:1;stroke:none;stroke-width:6;stroke-linecap:round;stroke-linejoin:round;stroke-miterlimit:4;stroke-dasharray:none;stroke-opacity:1" d="M211.925 958.105c0 19.907-28.6 38.819-63.311 38.819s-60.54-18.912-60.54-38.82c0-19.907 26.29-33.273 61.002-33.273 34.71 0 62.85 13.366 62.85 33.274z"/><path style="fill:#323433;fill-opacity:.94117647;stroke:none;stroke-width:6;stroke-linecap:round;stroke-linejoin:round;stroke-miterlimit:4;stroke-dasharray:none;stroke-opacity:1" d="M181.194 931.763c0 7.657-19.04 24.493-30.27 24.493s-32.118-16.836-32.118-24.493 20.24-12.477 31.47-12.477 30.918 4.82 30.918 12.477z"/><ellipse style="fill:#c9d1ce;fill-opacity:1;stroke:none;stroke-width:6;stroke-linecap:round;stroke-linejoin:round;stroke-miterlimit:4;stroke-dasharray:none;stroke-opacity:1" cx="68.304" cy="827.682" rx="23.762" ry="23.111"/><path style="fill:#a3a9a8;fill-opacity:1;stroke:none;stroke-width:6;stroke-linecap:round;stroke-linejoin:round;stroke-miterlimit:4;stroke-dasharray:none;stroke-opacity:1" d="M84.784 826.317a16.549 16.095 0 00-16.48-14.731 16.549 16.095 0 00-16.548 16.095 16.549 16.095 0 0016.548 16.096 16.549 16.095 0 001.132-.039c.815-1.337 1.582-2.727 2.471-3.983a65.703 65.703 0 015.055-6.283 65.597 65.597 0 015.713-5.548c.668-.576 1.417-1.058 2.109-1.607z"/><ellipse cx="-231.243" cy="827.682" rx="23.762" ry="23.111" transform="scale(-1 1)" style="fill:#c9d1ce;fill-opacity:1;stroke:none;stroke-width:6;stroke-linecap:round;stroke-linejoin:round;stroke-miterlimit:4;stroke-dasharray:none;stroke-opacity:1"/><path d="M214.764 826.317a16.549 16.095 0 0116.48-14.731 16.549 16.095 0 0116.548 16.095 16.549 16.095 0 01-16.549 16.096 16.549 16.095 0 01-1.131-.039c-.816-1.337-1.582-2.727-2.472-3.983a65.703 65.703 0 00-5.055-6.283 65.597 65.597 0 00-5.712-5.548c-.67-.576-1.418-1.058-2.11-1.607z" style="fill:#a3a9a8;fill-opacity:1;stroke:none;stroke-width:6;stroke-linecap:round;stroke-linejoin:round;stroke-miterlimit:4;stroke-dasharray:none;stroke-opacity:1"/><path d="M147.731 815.358c-13.396 0-26.022 1.079-37.671 3.334v11.353c11.649-2.255 24.275-3.334 37.671-3.334 15.104 0 29.459 1.373 42.667 4.256v-11.355c-13.208-2.883-27.564-4.254-42.667-4.254z" style="fill:#6a6f6d;fill-opacity:1;stroke:none;stroke-width:6;stroke-linecap:round;stroke-linejoin:round;stroke-miterlimit:4;stroke-dasharray:none;stroke-opacity:1"/><path style="fill:#a3a9a8;fill-opacity:1;stroke:none;stroke-width:6;stroke-linecap:round;stroke-linejoin:round;stroke-miterlimit:4;stroke-dasharray:none;stroke-opacity:1" d="M165.195 816.013a15.875 7.813 0 014.43 5.412 15.875 7.813 0 01-5.414 5.863c9.116.653 17.878 1.866 26.186 3.68v-11.356c-8.007-1.748-16.44-2.931-25.202-3.6z"/><path style="fill:#323433;fill-opacity:1;stroke:none;stroke-width:6;stroke-linecap:round;stroke-linejoin:round;stroke-miterlimit:4;stroke-dasharray:none;stroke-opacity:1" d="M148.06 789.038c-43.49 0-75.872 19.481-83.284 63.857 12.322-10.516 27.906-18.695 45.285-22.652 0 0-2.446-12.499 10.25-16.029 14.513-4.035 18.403-3.943 27.749-4 10.2-.061 15.075-.07 30.338 4 14.187 3.784 12 17.113 12 17.113 17.218 4.421 31.846 10.722 44.264 21.568-7.277-46.03-42.375-63.857-86.602-63.857z"/><path style="fill:#585b5a;fill-opacity:1;stroke:none;stroke-width:9.38663292;stroke-linecap:square;stroke-linejoin:round;stroke-miterlimit:4;stroke-dasharray:none;stroke-opacity:1" d="M77.29 854.608c-6.508-.07-13.363.182-22.8 2.131l-14.318 2.769 2.308 15.038c2.094.293 4.984 1.016 6.352 2.848 3.528 4.722 1.202 9.286 2.003 17.625 2.67 27.781 11.92 33.596 26.247 35.267 7.502.875 22.816 2.282 33.28-1.433 9.456-3.357 18.223-9.868 24.158-17.96 6.274-8.553 6.948-18.235 10.843-25.726 2.76-5.308 7.7-4.176 9.258 0 2.951 7.91 4.379 17.173 10.653 25.726 5.935 8.092 14.702 14.603 24.159 17.96 10.463 3.715 25.777 2.308 33.279 1.433 14.326-1.671 23.578-7.486 26.249-35.267.801-8.339-1.525-12.903 2.003-17.625 1.414-1.893 4.463-2.611 6.567-2.885l2.297-14.962-14.522-2.808c-15.1-3.12-23.591-1.89-34.623-1.957-4.093-.025-8.777.115-13.136.573-8.125.855-16.176 2.382-24.174 4.05-7.988 1.665-14.94 6.1-23.098 5.942-7.869-.153-15.615-4.977-23.313-6.616-8.132-1.732-14.824-3.106-24.713-3.376-4.794-.13-9.043-.598-13.136-.573-4.137.026-7.918-.132-11.823-.174z"/><path d="M85.28 860.471c-10.088.168-24.807.706-28.48 12.251-3.277 15.249-3.122 32.76 5.735 45.627 7.396 10.745 23.365 8.637 35.258 8.22 18.899-.663 35.138-15.383 40.158-33.389 1.93-7.753 4.168-13.928.696-19.382-5.946-9.34-20.099-11.778-30.58-12.967a443.557 443.557 0 00-22.787-.36z" style="fill:#909694;fill-opacity:1;stroke:none;stroke-width:9.38663292;stroke-linecap:square;stroke-linejoin:round;stroke-miterlimit:4;stroke-dasharray:none;stroke-opacity:1"/><path d="M56.04 864.299a4.079 1.692 0 01-4.058 1.692 4.079 1.692 0 01-4.1-1.675 4.079 1.692 0 014.017-1.71 4.079 1.692 0 014.14 1.658" style="fill:#c9d1ce;fill-opacity:1;stroke:none;stroke-width:9.38663292;stroke-linecap:square;stroke-linejoin:round;stroke-miterlimit:4;stroke-dasharray:none;stroke-opacity:1"/><path style="fill:#909694;fill-opacity:.98630138;stroke:none;stroke-width:9.38663292;stroke-linecap:square;stroke-linejoin:round;stroke-miterlimit:4;stroke-dasharray:none;stroke-opacity:1" d="M214.515 860.471c10.088.168 24.807.706 28.481 12.251 3.276 15.249 3.12 32.76-5.736 45.627-7.396 10.745-23.365 8.637-35.257 8.22-18.9-.663-35.139-15.383-40.16-33.389-1.928-7.753-4.167-13.928-.695-19.382 5.946-9.34 20.1-11.778 30.58-12.967a443.557 443.557 0 0122.787-.36z"/><path style="fill:#c9d1ce;fill-opacity:1;stroke:none;stroke-width:9.38663292;stroke-linecap:square;stroke-linejoin:round;stroke-miterlimit:4;stroke-dasharray:none;stroke-opacity:1" d="M243.755 864.299a4.079 1.692 0 004.058 1.692 4.079 1.692 0 004.1-1.675 4.079 1.692 0 00-4.017-1.71 4.079 1.692 0 00-4.14 1.658"/><path style="fill:#fff;fill-opacity:1;stroke:none;stroke-width:7.03997469;stroke-linecap:round;stroke-linejoin:round;stroke-miterlimit:4;stroke-dasharray:none;stroke-opacity:1" d="M100.812 860.598l-19.186 66.305c5.85.159 11.675-.045 16.894-.378l18.586-64.222c-5.549-1.363-11.032-1.57-16.294-1.705z"/><path style="fill:#fff;fill-opacity:1;stroke:none;stroke-width:7.03997469;stroke-linecap:round;stroke-linejoin:round;stroke-miterlimit:4;stroke-dasharray:none;stroke-opacity:1" d="M89.154 860.456c-1.292.002-2.586 0-3.875.014a199 199 0 00-3.403.09l-17.662 59.853c1.729 1.827 3.77 3.172 6.025 4.148z"/></g><text style="font-style:normal;font-variant:normal;font-weight:800;font-stretch:normal;font-size:9.61487675px;line-height:1.25;font-family:'JetBrains Mono';-inkscape-font-specification:'JetBrains Mono, Ultra-Bold';font-variant-ligatures:normal;font-variant-caps:normal;font-variant-numeric:normal;font-feature-settings:normal;text-align:start;letter-spacing:0;word-spacing:0;writing-mode:lr-tb;text-anchor:start;fill-opacity:1;stroke:none;stroke-width:.24037191" x="944.963" y="-499.112" class="corgo-stamp" transform="rotate(90 40.824 -124.702) scale(.35482)"><tspan x="944.963" y="-499.112" style="font-style:normal;font-variant:normal;font-weight:800;font-stretch:normal;font-size:9.61487675px;font-family:'JetBrains Mono';-inkscape-font-specification:'JetBrains Mono, Ultra-Bold';font-variant-ligatures:normal;font-variant-caps:normal;font-variant-numeric:normal;font-feature-settings:normal;text-align:start;writing-mode:lr-tb;text-anchor:start;stroke-width:.24037191">C-0rg-1</tspan></text></g></g><path style="fill:none;stroke-linecap:butt;stroke-linejoin:miter;stroke-opacity:1" d="M62.827 84.982v-16.02" class="container__line"/><path d="M71.882 84.982v-16.02" class="container__line" style="fill:none;stroke-linecap:butt;stroke-linejoin:miter;stroke-opacity:1"/><path style="fill:none;stroke-linecap:butt;stroke-linejoin:miter;stroke-opacity:1" d="M80.937 84.843v-16.02" class="container__line"/><path d="M89.992 84.982v-16.02" class="container__line" style="fill:none;stroke-linecap:butt;stroke-linejoin:miter;stroke-opacity:1"/></g></defs><g class="container container--shipping"><use href="#container"/></g></svg>